%TF.GenerationSoftware,KiCad,Pcbnew,10.0.5*%
%TF.CreationDate,2026-08-06T19:36:51-03:00*%
%TF.ProjectId,carrier-v0,63617272-6965-4722-9d76-302e6b696361,rev?*%
%TF.SameCoordinates,Original*%
%TF.FileFunction,Legend,Top*%
%TF.FilePolarity,Positive*%
%FSLAX46Y46*%
G04 Gerber Fmt 4.6, Leading zero omitted, Abs format (unit mm)*
G04 Created by KiCad (PCBNEW 10.0.5) date 2026-08-06 19:36:51*
%MOMM*%
%LPD*%
G01*
G04 APERTURE LIST*
%ADD10C,0.150000*%
%ADD11C,0.120000*%
G04 APERTURE END LIST*
D10*
X44184398Y-42508557D02*
X44484398Y-43408557D01*
X44484398Y-43408557D02*
X44784398Y-42508557D01*
X45084398Y-43408557D02*
X45084398Y-42808557D01*
X45084398Y-42508557D02*
X45041541Y-42551414D01*
X45041541Y-42551414D02*
X45084398Y-42594271D01*
X45084398Y-42594271D02*
X45127255Y-42551414D01*
X45127255Y-42551414D02*
X45084398Y-42508557D01*
X45084398Y-42508557D02*
X45084398Y-42594271D01*
X45898684Y-43408557D02*
X45898684Y-42937128D01*
X45898684Y-42937128D02*
X45855826Y-42851414D01*
X45855826Y-42851414D02*
X45770112Y-42808557D01*
X45770112Y-42808557D02*
X45598684Y-42808557D01*
X45598684Y-42808557D02*
X45512969Y-42851414D01*
X45898684Y-43365700D02*
X45812969Y-43408557D01*
X45812969Y-43408557D02*
X45598684Y-43408557D01*
X45598684Y-43408557D02*
X45512969Y-43365700D01*
X45512969Y-43365700D02*
X45470112Y-43279985D01*
X45470112Y-43279985D02*
X45470112Y-43194271D01*
X45470112Y-43194271D02*
X45512969Y-43108557D01*
X45512969Y-43108557D02*
X45598684Y-43065700D01*
X45598684Y-43065700D02*
X45812969Y-43065700D01*
X45812969Y-43065700D02*
X45898684Y-43022842D01*
X46284398Y-43151414D02*
X46712970Y-43151414D01*
X46198684Y-43408557D02*
X46498684Y-42508557D01*
X46498684Y-42508557D02*
X46798684Y-43408557D01*
X47484399Y-43365700D02*
X47398684Y-43408557D01*
X47398684Y-43408557D02*
X47227256Y-43408557D01*
X47227256Y-43408557D02*
X47141541Y-43365700D01*
X47141541Y-43365700D02*
X47098684Y-43322842D01*
X47098684Y-43322842D02*
X47055827Y-43237128D01*
X47055827Y-43237128D02*
X47055827Y-42979985D01*
X47055827Y-42979985D02*
X47098684Y-42894271D01*
X47098684Y-42894271D02*
X47141541Y-42851414D01*
X47141541Y-42851414D02*
X47227256Y-42808557D01*
X47227256Y-42808557D02*
X47398684Y-42808557D01*
X47398684Y-42808557D02*
X47484399Y-42851414D01*
X48255828Y-43365700D02*
X48170113Y-43408557D01*
X48170113Y-43408557D02*
X47998685Y-43408557D01*
X47998685Y-43408557D02*
X47912970Y-43365700D01*
X47912970Y-43365700D02*
X47870113Y-43322842D01*
X47870113Y-43322842D02*
X47827256Y-43237128D01*
X47827256Y-43237128D02*
X47827256Y-42979985D01*
X47827256Y-42979985D02*
X47870113Y-42894271D01*
X47870113Y-42894271D02*
X47912970Y-42851414D01*
X47912970Y-42851414D02*
X47998685Y-42808557D01*
X47998685Y-42808557D02*
X48170113Y-42808557D01*
X48170113Y-42808557D02*
X48255828Y-42851414D01*
X48984399Y-43365700D02*
X48898685Y-43408557D01*
X48898685Y-43408557D02*
X48727257Y-43408557D01*
X48727257Y-43408557D02*
X48641542Y-43365700D01*
X48641542Y-43365700D02*
X48598685Y-43279985D01*
X48598685Y-43279985D02*
X48598685Y-42937128D01*
X48598685Y-42937128D02*
X48641542Y-42851414D01*
X48641542Y-42851414D02*
X48727257Y-42808557D01*
X48727257Y-42808557D02*
X48898685Y-42808557D01*
X48898685Y-42808557D02*
X48984399Y-42851414D01*
X48984399Y-42851414D02*
X49027257Y-42937128D01*
X49027257Y-42937128D02*
X49027257Y-43022842D01*
X49027257Y-43022842D02*
X48598685Y-43108557D01*
X49370114Y-43365700D02*
X49455828Y-43408557D01*
X49455828Y-43408557D02*
X49627257Y-43408557D01*
X49627257Y-43408557D02*
X49712971Y-43365700D01*
X49712971Y-43365700D02*
X49755828Y-43279985D01*
X49755828Y-43279985D02*
X49755828Y-43237128D01*
X49755828Y-43237128D02*
X49712971Y-43151414D01*
X49712971Y-43151414D02*
X49627257Y-43108557D01*
X49627257Y-43108557D02*
X49498686Y-43108557D01*
X49498686Y-43108557D02*
X49412971Y-43065700D01*
X49412971Y-43065700D02*
X49370114Y-42979985D01*
X49370114Y-42979985D02*
X49370114Y-42937128D01*
X49370114Y-42937128D02*
X49412971Y-42851414D01*
X49412971Y-42851414D02*
X49498686Y-42808557D01*
X49498686Y-42808557D02*
X49627257Y-42808557D01*
X49627257Y-42808557D02*
X49712971Y-42851414D01*
X50098685Y-43365700D02*
X50184399Y-43408557D01*
X50184399Y-43408557D02*
X50355828Y-43408557D01*
X50355828Y-43408557D02*
X50441542Y-43365700D01*
X50441542Y-43365700D02*
X50484399Y-43279985D01*
X50484399Y-43279985D02*
X50484399Y-43237128D01*
X50484399Y-43237128D02*
X50441542Y-43151414D01*
X50441542Y-43151414D02*
X50355828Y-43108557D01*
X50355828Y-43108557D02*
X50227257Y-43108557D01*
X50227257Y-43108557D02*
X50141542Y-43065700D01*
X50141542Y-43065700D02*
X50098685Y-42979985D01*
X50098685Y-42979985D02*
X50098685Y-42937128D01*
X50098685Y-42937128D02*
X50141542Y-42851414D01*
X50141542Y-42851414D02*
X50227257Y-42808557D01*
X50227257Y-42808557D02*
X50355828Y-42808557D01*
X50355828Y-42808557D02*
X50441542Y-42851414D01*
X51941542Y-43365700D02*
X51855827Y-43408557D01*
X51855827Y-43408557D02*
X51684399Y-43408557D01*
X51684399Y-43408557D02*
X51598684Y-43365700D01*
X51598684Y-43365700D02*
X51555827Y-43322842D01*
X51555827Y-43322842D02*
X51512970Y-43237128D01*
X51512970Y-43237128D02*
X51512970Y-42979985D01*
X51512970Y-42979985D02*
X51555827Y-42894271D01*
X51555827Y-42894271D02*
X51598684Y-42851414D01*
X51598684Y-42851414D02*
X51684399Y-42808557D01*
X51684399Y-42808557D02*
X51855827Y-42808557D01*
X51855827Y-42808557D02*
X51941542Y-42851414D01*
X52712971Y-43408557D02*
X52712971Y-42937128D01*
X52712971Y-42937128D02*
X52670113Y-42851414D01*
X52670113Y-42851414D02*
X52584399Y-42808557D01*
X52584399Y-42808557D02*
X52412971Y-42808557D01*
X52412971Y-42808557D02*
X52327256Y-42851414D01*
X52712971Y-43365700D02*
X52627256Y-43408557D01*
X52627256Y-43408557D02*
X52412971Y-43408557D01*
X52412971Y-43408557D02*
X52327256Y-43365700D01*
X52327256Y-43365700D02*
X52284399Y-43279985D01*
X52284399Y-43279985D02*
X52284399Y-43194271D01*
X52284399Y-43194271D02*
X52327256Y-43108557D01*
X52327256Y-43108557D02*
X52412971Y-43065700D01*
X52412971Y-43065700D02*
X52627256Y-43065700D01*
X52627256Y-43065700D02*
X52712971Y-43022842D01*
X53141542Y-43408557D02*
X53141542Y-42808557D01*
X53141542Y-42979985D02*
X53184399Y-42894271D01*
X53184399Y-42894271D02*
X53227257Y-42851414D01*
X53227257Y-42851414D02*
X53312971Y-42808557D01*
X53312971Y-42808557D02*
X53398685Y-42808557D01*
X53698685Y-43408557D02*
X53698685Y-42808557D01*
X53698685Y-42979985D02*
X53741542Y-42894271D01*
X53741542Y-42894271D02*
X53784400Y-42851414D01*
X53784400Y-42851414D02*
X53870114Y-42808557D01*
X53870114Y-42808557D02*
X53955828Y-42808557D01*
X54255828Y-43408557D02*
X54255828Y-42808557D01*
X54255828Y-42508557D02*
X54212971Y-42551414D01*
X54212971Y-42551414D02*
X54255828Y-42594271D01*
X54255828Y-42594271D02*
X54298685Y-42551414D01*
X54298685Y-42551414D02*
X54255828Y-42508557D01*
X54255828Y-42508557D02*
X54255828Y-42594271D01*
X55027256Y-43365700D02*
X54941542Y-43408557D01*
X54941542Y-43408557D02*
X54770114Y-43408557D01*
X54770114Y-43408557D02*
X54684399Y-43365700D01*
X54684399Y-43365700D02*
X54641542Y-43279985D01*
X54641542Y-43279985D02*
X54641542Y-42937128D01*
X54641542Y-42937128D02*
X54684399Y-42851414D01*
X54684399Y-42851414D02*
X54770114Y-42808557D01*
X54770114Y-42808557D02*
X54941542Y-42808557D01*
X54941542Y-42808557D02*
X55027256Y-42851414D01*
X55027256Y-42851414D02*
X55070114Y-42937128D01*
X55070114Y-42937128D02*
X55070114Y-43022842D01*
X55070114Y-43022842D02*
X54641542Y-43108557D01*
X55455828Y-43408557D02*
X55455828Y-42808557D01*
X55455828Y-42979985D02*
X55498685Y-42894271D01*
X55498685Y-42894271D02*
X55541543Y-42851414D01*
X55541543Y-42851414D02*
X55627257Y-42808557D01*
X55627257Y-42808557D02*
X55712971Y-42808557D01*
X56012971Y-43065700D02*
X56698686Y-43065700D01*
X57041543Y-42808557D02*
X57255829Y-43408557D01*
X57255829Y-43408557D02*
X57470114Y-42808557D01*
X57984400Y-42508557D02*
X58070114Y-42508557D01*
X58070114Y-42508557D02*
X58155828Y-42551414D01*
X58155828Y-42551414D02*
X58198686Y-42594271D01*
X58198686Y-42594271D02*
X58241543Y-42679985D01*
X58241543Y-42679985D02*
X58284400Y-42851414D01*
X58284400Y-42851414D02*
X58284400Y-43065700D01*
X58284400Y-43065700D02*
X58241543Y-43237128D01*
X58241543Y-43237128D02*
X58198686Y-43322842D01*
X58198686Y-43322842D02*
X58155828Y-43365700D01*
X58155828Y-43365700D02*
X58070114Y-43408557D01*
X58070114Y-43408557D02*
X57984400Y-43408557D01*
X57984400Y-43408557D02*
X57898686Y-43365700D01*
X57898686Y-43365700D02*
X57855828Y-43322842D01*
X57855828Y-43322842D02*
X57812971Y-43237128D01*
X57812971Y-43237128D02*
X57770114Y-43065700D01*
X57770114Y-43065700D02*
X57770114Y-42851414D01*
X57770114Y-42851414D02*
X57812971Y-42679985D01*
X57812971Y-42679985D02*
X57855828Y-42594271D01*
X57855828Y-42594271D02*
X57898686Y-42551414D01*
X57898686Y-42551414D02*
X57984400Y-42508557D01*
X18670112Y-58362295D02*
X18289160Y-58362295D01*
X18289160Y-58362295D02*
X18289160Y-57562295D01*
X19089160Y-57562295D02*
X19241541Y-57562295D01*
X19241541Y-57562295D02*
X19317731Y-57600390D01*
X19317731Y-57600390D02*
X19393922Y-57676580D01*
X19393922Y-57676580D02*
X19432017Y-57828961D01*
X19432017Y-57828961D02*
X19432017Y-58095628D01*
X19432017Y-58095628D02*
X19393922Y-58248009D01*
X19393922Y-58248009D02*
X19317731Y-58324200D01*
X19317731Y-58324200D02*
X19241541Y-58362295D01*
X19241541Y-58362295D02*
X19089160Y-58362295D01*
X19089160Y-58362295D02*
X19012969Y-58324200D01*
X19012969Y-58324200D02*
X18936779Y-58248009D01*
X18936779Y-58248009D02*
X18898683Y-58095628D01*
X18898683Y-58095628D02*
X18898683Y-57828961D01*
X18898683Y-57828961D02*
X18936779Y-57676580D01*
X18936779Y-57676580D02*
X19012969Y-57600390D01*
X19012969Y-57600390D02*
X19089160Y-57562295D01*
X20232017Y-58286104D02*
X20193921Y-58324200D01*
X20193921Y-58324200D02*
X20079636Y-58362295D01*
X20079636Y-58362295D02*
X20003445Y-58362295D01*
X20003445Y-58362295D02*
X19889159Y-58324200D01*
X19889159Y-58324200D02*
X19812969Y-58248009D01*
X19812969Y-58248009D02*
X19774874Y-58171819D01*
X19774874Y-58171819D02*
X19736778Y-58019438D01*
X19736778Y-58019438D02*
X19736778Y-57905152D01*
X19736778Y-57905152D02*
X19774874Y-57752771D01*
X19774874Y-57752771D02*
X19812969Y-57676580D01*
X19812969Y-57676580D02*
X19889159Y-57600390D01*
X19889159Y-57600390D02*
X20003445Y-57562295D01*
X20003445Y-57562295D02*
X20079636Y-57562295D01*
X20079636Y-57562295D02*
X20193921Y-57600390D01*
X20193921Y-57600390D02*
X20232017Y-57638485D01*
X20574874Y-58362295D02*
X20574874Y-57562295D01*
X21032017Y-58362295D02*
X20689159Y-57905152D01*
X21032017Y-57562295D02*
X20574874Y-58019438D01*
X22441541Y-58286104D02*
X22403445Y-58324200D01*
X22403445Y-58324200D02*
X22289160Y-58362295D01*
X22289160Y-58362295D02*
X22212969Y-58362295D01*
X22212969Y-58362295D02*
X22098683Y-58324200D01*
X22098683Y-58324200D02*
X22022493Y-58248009D01*
X22022493Y-58248009D02*
X21984398Y-58171819D01*
X21984398Y-58171819D02*
X21946302Y-58019438D01*
X21946302Y-58019438D02*
X21946302Y-57905152D01*
X21946302Y-57905152D02*
X21984398Y-57752771D01*
X21984398Y-57752771D02*
X22022493Y-57676580D01*
X22022493Y-57676580D02*
X22098683Y-57600390D01*
X22098683Y-57600390D02*
X22212969Y-57562295D01*
X22212969Y-57562295D02*
X22289160Y-57562295D01*
X22289160Y-57562295D02*
X22403445Y-57600390D01*
X22403445Y-57600390D02*
X22441541Y-57638485D01*
X22936779Y-57562295D02*
X23089160Y-57562295D01*
X23089160Y-57562295D02*
X23165350Y-57600390D01*
X23165350Y-57600390D02*
X23241541Y-57676580D01*
X23241541Y-57676580D02*
X23279636Y-57828961D01*
X23279636Y-57828961D02*
X23279636Y-58095628D01*
X23279636Y-58095628D02*
X23241541Y-58248009D01*
X23241541Y-58248009D02*
X23165350Y-58324200D01*
X23165350Y-58324200D02*
X23089160Y-58362295D01*
X23089160Y-58362295D02*
X22936779Y-58362295D01*
X22936779Y-58362295D02*
X22860588Y-58324200D01*
X22860588Y-58324200D02*
X22784398Y-58248009D01*
X22784398Y-58248009D02*
X22746302Y-58095628D01*
X22746302Y-58095628D02*
X22746302Y-57828961D01*
X22746302Y-57828961D02*
X22784398Y-57676580D01*
X22784398Y-57676580D02*
X22860588Y-57600390D01*
X22860588Y-57600390D02*
X22936779Y-57562295D01*
X23622493Y-58362295D02*
X23622493Y-57562295D01*
X23622493Y-57562295D02*
X23889159Y-58133723D01*
X23889159Y-58133723D02*
X24155826Y-57562295D01*
X24155826Y-57562295D02*
X24155826Y-58362295D01*
X25108207Y-57524200D02*
X24422493Y-58552771D01*
X25374874Y-58362295D02*
X25374874Y-57562295D01*
X25374874Y-57562295D02*
X25832017Y-58362295D01*
X25832017Y-58362295D02*
X25832017Y-57562295D01*
X26365350Y-57562295D02*
X26517731Y-57562295D01*
X26517731Y-57562295D02*
X26593921Y-57600390D01*
X26593921Y-57600390D02*
X26670112Y-57676580D01*
X26670112Y-57676580D02*
X26708207Y-57828961D01*
X26708207Y-57828961D02*
X26708207Y-58095628D01*
X26708207Y-58095628D02*
X26670112Y-58248009D01*
X26670112Y-58248009D02*
X26593921Y-58324200D01*
X26593921Y-58324200D02*
X26517731Y-58362295D01*
X26517731Y-58362295D02*
X26365350Y-58362295D01*
X26365350Y-58362295D02*
X26289159Y-58324200D01*
X26289159Y-58324200D02*
X26212969Y-58248009D01*
X26212969Y-58248009D02*
X26174873Y-58095628D01*
X26174873Y-58095628D02*
X26174873Y-57828961D01*
X26174873Y-57828961D02*
X26212969Y-57676580D01*
X26212969Y-57676580D02*
X26289159Y-57600390D01*
X26289159Y-57600390D02*
X26365350Y-57562295D01*
X27622492Y-57524200D02*
X26936778Y-58552771D01*
X27889159Y-58362295D02*
X27889159Y-57562295D01*
X27889159Y-57562295D02*
X28346302Y-58362295D01*
X28346302Y-58362295D02*
X28346302Y-57562295D01*
X29184397Y-58286104D02*
X29146301Y-58324200D01*
X29146301Y-58324200D02*
X29032016Y-58362295D01*
X29032016Y-58362295D02*
X28955825Y-58362295D01*
X28955825Y-58362295D02*
X28841539Y-58324200D01*
X28841539Y-58324200D02*
X28765349Y-58248009D01*
X28765349Y-58248009D02*
X28727254Y-58171819D01*
X28727254Y-58171819D02*
X28689158Y-58019438D01*
X28689158Y-58019438D02*
X28689158Y-57905152D01*
X28689158Y-57905152D02*
X28727254Y-57752771D01*
X28727254Y-57752771D02*
X28765349Y-57676580D01*
X28765349Y-57676580D02*
X28841539Y-57600390D01*
X28841539Y-57600390D02*
X28955825Y-57562295D01*
X28955825Y-57562295D02*
X29032016Y-57562295D01*
X29032016Y-57562295D02*
X29146301Y-57600390D01*
X29146301Y-57600390D02*
X29184397Y-57638485D01*
X35289160Y-58362295D02*
X35289160Y-57562295D01*
X35289160Y-57562295D02*
X35479636Y-57562295D01*
X35479636Y-57562295D02*
X35593922Y-57600390D01*
X35593922Y-57600390D02*
X35670112Y-57676580D01*
X35670112Y-57676580D02*
X35708207Y-57752771D01*
X35708207Y-57752771D02*
X35746303Y-57905152D01*
X35746303Y-57905152D02*
X35746303Y-58019438D01*
X35746303Y-58019438D02*
X35708207Y-58171819D01*
X35708207Y-58171819D02*
X35670112Y-58248009D01*
X35670112Y-58248009D02*
X35593922Y-58324200D01*
X35593922Y-58324200D02*
X35479636Y-58362295D01*
X35479636Y-58362295D02*
X35289160Y-58362295D01*
X36241541Y-57562295D02*
X36393922Y-57562295D01*
X36393922Y-57562295D02*
X36470112Y-57600390D01*
X36470112Y-57600390D02*
X36546303Y-57676580D01*
X36546303Y-57676580D02*
X36584398Y-57828961D01*
X36584398Y-57828961D02*
X36584398Y-58095628D01*
X36584398Y-58095628D02*
X36546303Y-58248009D01*
X36546303Y-58248009D02*
X36470112Y-58324200D01*
X36470112Y-58324200D02*
X36393922Y-58362295D01*
X36393922Y-58362295D02*
X36241541Y-58362295D01*
X36241541Y-58362295D02*
X36165350Y-58324200D01*
X36165350Y-58324200D02*
X36089160Y-58248009D01*
X36089160Y-58248009D02*
X36051064Y-58095628D01*
X36051064Y-58095628D02*
X36051064Y-57828961D01*
X36051064Y-57828961D02*
X36089160Y-57676580D01*
X36089160Y-57676580D02*
X36165350Y-57600390D01*
X36165350Y-57600390D02*
X36241541Y-57562295D01*
X37079636Y-57562295D02*
X37232017Y-57562295D01*
X37232017Y-57562295D02*
X37308207Y-57600390D01*
X37308207Y-57600390D02*
X37384398Y-57676580D01*
X37384398Y-57676580D02*
X37422493Y-57828961D01*
X37422493Y-57828961D02*
X37422493Y-58095628D01*
X37422493Y-58095628D02*
X37384398Y-58248009D01*
X37384398Y-58248009D02*
X37308207Y-58324200D01*
X37308207Y-58324200D02*
X37232017Y-58362295D01*
X37232017Y-58362295D02*
X37079636Y-58362295D01*
X37079636Y-58362295D02*
X37003445Y-58324200D01*
X37003445Y-58324200D02*
X36927255Y-58248009D01*
X36927255Y-58248009D02*
X36889159Y-58095628D01*
X36889159Y-58095628D02*
X36889159Y-57828961D01*
X36889159Y-57828961D02*
X36927255Y-57676580D01*
X36927255Y-57676580D02*
X37003445Y-57600390D01*
X37003445Y-57600390D02*
X37079636Y-57562295D01*
X38222493Y-58362295D02*
X37955826Y-57981342D01*
X37765350Y-58362295D02*
X37765350Y-57562295D01*
X37765350Y-57562295D02*
X38070112Y-57562295D01*
X38070112Y-57562295D02*
X38146302Y-57600390D01*
X38146302Y-57600390D02*
X38184397Y-57638485D01*
X38184397Y-57638485D02*
X38222493Y-57714676D01*
X38222493Y-57714676D02*
X38222493Y-57828961D01*
X38222493Y-57828961D02*
X38184397Y-57905152D01*
X38184397Y-57905152D02*
X38146302Y-57943247D01*
X38146302Y-57943247D02*
X38070112Y-57981342D01*
X38070112Y-57981342D02*
X37765350Y-57981342D01*
X39632017Y-58362295D02*
X39365350Y-57981342D01*
X39174874Y-58362295D02*
X39174874Y-57562295D01*
X39174874Y-57562295D02*
X39479636Y-57562295D01*
X39479636Y-57562295D02*
X39555826Y-57600390D01*
X39555826Y-57600390D02*
X39593921Y-57638485D01*
X39593921Y-57638485D02*
X39632017Y-57714676D01*
X39632017Y-57714676D02*
X39632017Y-57828961D01*
X39632017Y-57828961D02*
X39593921Y-57905152D01*
X39593921Y-57905152D02*
X39555826Y-57943247D01*
X39555826Y-57943247D02*
X39479636Y-57981342D01*
X39479636Y-57981342D02*
X39174874Y-57981342D01*
X39974874Y-57943247D02*
X40241540Y-57943247D01*
X40355826Y-58362295D02*
X39974874Y-58362295D01*
X39974874Y-58362295D02*
X39974874Y-57562295D01*
X39974874Y-57562295D02*
X40355826Y-57562295D01*
X40698684Y-57943247D02*
X40965350Y-57943247D01*
X41079636Y-58362295D02*
X40698684Y-58362295D01*
X40698684Y-58362295D02*
X40698684Y-57562295D01*
X40698684Y-57562295D02*
X41079636Y-57562295D01*
X41422494Y-58362295D02*
X41422494Y-57562295D01*
X41422494Y-57562295D02*
X41612970Y-57562295D01*
X41612970Y-57562295D02*
X41727256Y-57600390D01*
X41727256Y-57600390D02*
X41803446Y-57676580D01*
X41803446Y-57676580D02*
X41841541Y-57752771D01*
X41841541Y-57752771D02*
X41879637Y-57905152D01*
X41879637Y-57905152D02*
X41879637Y-58019438D01*
X41879637Y-58019438D02*
X41841541Y-58171819D01*
X41841541Y-58171819D02*
X41803446Y-58248009D01*
X41803446Y-58248009D02*
X41727256Y-58324200D01*
X41727256Y-58324200D02*
X41612970Y-58362295D01*
X41612970Y-58362295D02*
X41422494Y-58362295D01*
X42793922Y-57524200D02*
X42108208Y-58552771D01*
X43479636Y-57600390D02*
X43403446Y-57562295D01*
X43403446Y-57562295D02*
X43289160Y-57562295D01*
X43289160Y-57562295D02*
X43174874Y-57600390D01*
X43174874Y-57600390D02*
X43098684Y-57676580D01*
X43098684Y-57676580D02*
X43060589Y-57752771D01*
X43060589Y-57752771D02*
X43022493Y-57905152D01*
X43022493Y-57905152D02*
X43022493Y-58019438D01*
X43022493Y-58019438D02*
X43060589Y-58171819D01*
X43060589Y-58171819D02*
X43098684Y-58248009D01*
X43098684Y-58248009D02*
X43174874Y-58324200D01*
X43174874Y-58324200D02*
X43289160Y-58362295D01*
X43289160Y-58362295D02*
X43365351Y-58362295D01*
X43365351Y-58362295D02*
X43479636Y-58324200D01*
X43479636Y-58324200D02*
X43517732Y-58286104D01*
X43517732Y-58286104D02*
X43517732Y-58019438D01*
X43517732Y-58019438D02*
X43365351Y-58019438D01*
X43860589Y-58362295D02*
X43860589Y-57562295D01*
X43860589Y-57562295D02*
X44317732Y-58362295D01*
X44317732Y-58362295D02*
X44317732Y-57562295D01*
X44698684Y-58362295D02*
X44698684Y-57562295D01*
X44698684Y-57562295D02*
X44889160Y-57562295D01*
X44889160Y-57562295D02*
X45003446Y-57600390D01*
X45003446Y-57600390D02*
X45079636Y-57676580D01*
X45079636Y-57676580D02*
X45117731Y-57752771D01*
X45117731Y-57752771D02*
X45155827Y-57905152D01*
X45155827Y-57905152D02*
X45155827Y-58019438D01*
X45155827Y-58019438D02*
X45117731Y-58171819D01*
X45117731Y-58171819D02*
X45079636Y-58248009D01*
X45079636Y-58248009D02*
X45003446Y-58324200D01*
X45003446Y-58324200D02*
X44889160Y-58362295D01*
X44889160Y-58362295D02*
X44698684Y-58362295D01*
X47746303Y-58362295D02*
X47479636Y-57981342D01*
X47289160Y-58362295D02*
X47289160Y-57562295D01*
X47289160Y-57562295D02*
X47593922Y-57562295D01*
X47593922Y-57562295D02*
X47670112Y-57600390D01*
X47670112Y-57600390D02*
X47708207Y-57638485D01*
X47708207Y-57638485D02*
X47746303Y-57714676D01*
X47746303Y-57714676D02*
X47746303Y-57828961D01*
X47746303Y-57828961D02*
X47708207Y-57905152D01*
X47708207Y-57905152D02*
X47670112Y-57943247D01*
X47670112Y-57943247D02*
X47593922Y-57981342D01*
X47593922Y-57981342D02*
X47289160Y-57981342D01*
X48089160Y-57943247D02*
X48355826Y-57943247D01*
X48470112Y-58362295D02*
X48089160Y-58362295D01*
X48089160Y-58362295D02*
X48089160Y-57562295D01*
X48089160Y-57562295D02*
X48470112Y-57562295D01*
X48736779Y-57562295D02*
X49270113Y-58362295D01*
X49270113Y-57562295D02*
X48736779Y-58362295D01*
X50146303Y-58324200D02*
X50260589Y-58362295D01*
X50260589Y-58362295D02*
X50451065Y-58362295D01*
X50451065Y-58362295D02*
X50527256Y-58324200D01*
X50527256Y-58324200D02*
X50565351Y-58286104D01*
X50565351Y-58286104D02*
X50603446Y-58209914D01*
X50603446Y-58209914D02*
X50603446Y-58133723D01*
X50603446Y-58133723D02*
X50565351Y-58057533D01*
X50565351Y-58057533D02*
X50527256Y-58019438D01*
X50527256Y-58019438D02*
X50451065Y-57981342D01*
X50451065Y-57981342D02*
X50298684Y-57943247D01*
X50298684Y-57943247D02*
X50222494Y-57905152D01*
X50222494Y-57905152D02*
X50184399Y-57867057D01*
X50184399Y-57867057D02*
X50146303Y-57790866D01*
X50146303Y-57790866D02*
X50146303Y-57714676D01*
X50146303Y-57714676D02*
X50184399Y-57638485D01*
X50184399Y-57638485D02*
X50222494Y-57600390D01*
X50222494Y-57600390D02*
X50298684Y-57562295D01*
X50298684Y-57562295D02*
X50489161Y-57562295D01*
X50489161Y-57562295D02*
X50603446Y-57600390D01*
X50946304Y-58362295D02*
X50946304Y-57562295D01*
X51746303Y-57600390D02*
X51670113Y-57562295D01*
X51670113Y-57562295D02*
X51555827Y-57562295D01*
X51555827Y-57562295D02*
X51441541Y-57600390D01*
X51441541Y-57600390D02*
X51365351Y-57676580D01*
X51365351Y-57676580D02*
X51327256Y-57752771D01*
X51327256Y-57752771D02*
X51289160Y-57905152D01*
X51289160Y-57905152D02*
X51289160Y-58019438D01*
X51289160Y-58019438D02*
X51327256Y-58171819D01*
X51327256Y-58171819D02*
X51365351Y-58248009D01*
X51365351Y-58248009D02*
X51441541Y-58324200D01*
X51441541Y-58324200D02*
X51555827Y-58362295D01*
X51555827Y-58362295D02*
X51632018Y-58362295D01*
X51632018Y-58362295D02*
X51746303Y-58324200D01*
X51746303Y-58324200D02*
X51784399Y-58286104D01*
X51784399Y-58286104D02*
X51784399Y-58019438D01*
X51784399Y-58019438D02*
X51632018Y-58019438D01*
X52698684Y-57524200D02*
X52012970Y-58552771D01*
X53384398Y-57600390D02*
X53308208Y-57562295D01*
X53308208Y-57562295D02*
X53193922Y-57562295D01*
X53193922Y-57562295D02*
X53079636Y-57600390D01*
X53079636Y-57600390D02*
X53003446Y-57676580D01*
X53003446Y-57676580D02*
X52965351Y-57752771D01*
X52965351Y-57752771D02*
X52927255Y-57905152D01*
X52927255Y-57905152D02*
X52927255Y-58019438D01*
X52927255Y-58019438D02*
X52965351Y-58171819D01*
X52965351Y-58171819D02*
X53003446Y-58248009D01*
X53003446Y-58248009D02*
X53079636Y-58324200D01*
X53079636Y-58324200D02*
X53193922Y-58362295D01*
X53193922Y-58362295D02*
X53270113Y-58362295D01*
X53270113Y-58362295D02*
X53384398Y-58324200D01*
X53384398Y-58324200D02*
X53422494Y-58286104D01*
X53422494Y-58286104D02*
X53422494Y-58019438D01*
X53422494Y-58019438D02*
X53270113Y-58019438D01*
X53765351Y-58362295D02*
X53765351Y-57562295D01*
X53765351Y-57562295D02*
X54222494Y-58362295D01*
X54222494Y-58362295D02*
X54222494Y-57562295D01*
X54603446Y-58362295D02*
X54603446Y-57562295D01*
X54603446Y-57562295D02*
X54793922Y-57562295D01*
X54793922Y-57562295D02*
X54908208Y-57600390D01*
X54908208Y-57600390D02*
X54984398Y-57676580D01*
X54984398Y-57676580D02*
X55022493Y-57752771D01*
X55022493Y-57752771D02*
X55060589Y-57905152D01*
X55060589Y-57905152D02*
X55060589Y-58019438D01*
X55060589Y-58019438D02*
X55022493Y-58171819D01*
X55022493Y-58171819D02*
X54984398Y-58248009D01*
X54984398Y-58248009D02*
X54908208Y-58324200D01*
X54908208Y-58324200D02*
X54793922Y-58362295D01*
X54793922Y-58362295D02*
X54603446Y-58362295D01*
X58746303Y-58362295D02*
X58479636Y-57981342D01*
X58289160Y-58362295D02*
X58289160Y-57562295D01*
X58289160Y-57562295D02*
X58593922Y-57562295D01*
X58593922Y-57562295D02*
X58670112Y-57600390D01*
X58670112Y-57600390D02*
X58708207Y-57638485D01*
X58708207Y-57638485D02*
X58746303Y-57714676D01*
X58746303Y-57714676D02*
X58746303Y-57828961D01*
X58746303Y-57828961D02*
X58708207Y-57905152D01*
X58708207Y-57905152D02*
X58670112Y-57943247D01*
X58670112Y-57943247D02*
X58593922Y-57981342D01*
X58593922Y-57981342D02*
X58289160Y-57981342D01*
X59089160Y-57943247D02*
X59355826Y-57943247D01*
X59470112Y-58362295D02*
X59089160Y-58362295D01*
X59089160Y-58362295D02*
X59089160Y-57562295D01*
X59089160Y-57562295D02*
X59470112Y-57562295D01*
X59774874Y-58133723D02*
X60155827Y-58133723D01*
X59698684Y-58362295D02*
X59965351Y-57562295D01*
X59965351Y-57562295D02*
X60232017Y-58362295D01*
X60498684Y-58362295D02*
X60498684Y-57562295D01*
X60498684Y-57562295D02*
X60689160Y-57562295D01*
X60689160Y-57562295D02*
X60803446Y-57600390D01*
X60803446Y-57600390D02*
X60879636Y-57676580D01*
X60879636Y-57676580D02*
X60917731Y-57752771D01*
X60917731Y-57752771D02*
X60955827Y-57905152D01*
X60955827Y-57905152D02*
X60955827Y-58019438D01*
X60955827Y-58019438D02*
X60917731Y-58171819D01*
X60917731Y-58171819D02*
X60879636Y-58248009D01*
X60879636Y-58248009D02*
X60803446Y-58324200D01*
X60803446Y-58324200D02*
X60689160Y-58362295D01*
X60689160Y-58362295D02*
X60498684Y-58362295D01*
X61298684Y-57943247D02*
X61565350Y-57943247D01*
X61679636Y-58362295D02*
X61298684Y-58362295D01*
X61298684Y-58362295D02*
X61298684Y-57562295D01*
X61298684Y-57562295D02*
X61679636Y-57562295D01*
X62479637Y-58362295D02*
X62212970Y-57981342D01*
X62022494Y-58362295D02*
X62022494Y-57562295D01*
X62022494Y-57562295D02*
X62327256Y-57562295D01*
X62327256Y-57562295D02*
X62403446Y-57600390D01*
X62403446Y-57600390D02*
X62441541Y-57638485D01*
X62441541Y-57638485D02*
X62479637Y-57714676D01*
X62479637Y-57714676D02*
X62479637Y-57828961D01*
X62479637Y-57828961D02*
X62441541Y-57905152D01*
X62441541Y-57905152D02*
X62403446Y-57943247D01*
X62403446Y-57943247D02*
X62327256Y-57981342D01*
X62327256Y-57981342D02*
X62022494Y-57981342D01*
X63812970Y-57562295D02*
X63432018Y-57562295D01*
X63432018Y-57562295D02*
X63393922Y-57943247D01*
X63393922Y-57943247D02*
X63432018Y-57905152D01*
X63432018Y-57905152D02*
X63508208Y-57867057D01*
X63508208Y-57867057D02*
X63698684Y-57867057D01*
X63698684Y-57867057D02*
X63774875Y-57905152D01*
X63774875Y-57905152D02*
X63812970Y-57943247D01*
X63812970Y-57943247D02*
X63851065Y-58019438D01*
X63851065Y-58019438D02*
X63851065Y-58209914D01*
X63851065Y-58209914D02*
X63812970Y-58286104D01*
X63812970Y-58286104D02*
X63774875Y-58324200D01*
X63774875Y-58324200D02*
X63698684Y-58362295D01*
X63698684Y-58362295D02*
X63508208Y-58362295D01*
X63508208Y-58362295D02*
X63432018Y-58324200D01*
X63432018Y-58324200D02*
X63393922Y-58286104D01*
X64079637Y-57562295D02*
X64346304Y-58362295D01*
X64346304Y-58362295D02*
X64612970Y-57562295D01*
X65451065Y-57524200D02*
X64765351Y-58552771D01*
X66136779Y-57600390D02*
X66060589Y-57562295D01*
X66060589Y-57562295D02*
X65946303Y-57562295D01*
X65946303Y-57562295D02*
X65832017Y-57600390D01*
X65832017Y-57600390D02*
X65755827Y-57676580D01*
X65755827Y-57676580D02*
X65717732Y-57752771D01*
X65717732Y-57752771D02*
X65679636Y-57905152D01*
X65679636Y-57905152D02*
X65679636Y-58019438D01*
X65679636Y-58019438D02*
X65717732Y-58171819D01*
X65717732Y-58171819D02*
X65755827Y-58248009D01*
X65755827Y-58248009D02*
X65832017Y-58324200D01*
X65832017Y-58324200D02*
X65946303Y-58362295D01*
X65946303Y-58362295D02*
X66022494Y-58362295D01*
X66022494Y-58362295D02*
X66136779Y-58324200D01*
X66136779Y-58324200D02*
X66174875Y-58286104D01*
X66174875Y-58286104D02*
X66174875Y-58019438D01*
X66174875Y-58019438D02*
X66022494Y-58019438D01*
X66517732Y-58362295D02*
X66517732Y-57562295D01*
X66517732Y-57562295D02*
X66974875Y-58362295D01*
X66974875Y-58362295D02*
X66974875Y-57562295D01*
X67355827Y-58362295D02*
X67355827Y-57562295D01*
X67355827Y-57562295D02*
X67546303Y-57562295D01*
X67546303Y-57562295D02*
X67660589Y-57600390D01*
X67660589Y-57600390D02*
X67736779Y-57676580D01*
X67736779Y-57676580D02*
X67774874Y-57752771D01*
X67774874Y-57752771D02*
X67812970Y-57905152D01*
X67812970Y-57905152D02*
X67812970Y-58019438D01*
X67812970Y-58019438D02*
X67774874Y-58171819D01*
X67774874Y-58171819D02*
X67736779Y-58248009D01*
X67736779Y-58248009D02*
X67660589Y-58324200D01*
X67660589Y-58324200D02*
X67546303Y-58362295D01*
X67546303Y-58362295D02*
X67355827Y-58362295D01*
X68727255Y-57524200D02*
X68041541Y-58552771D01*
X68879636Y-57562295D02*
X69336779Y-57562295D01*
X69108207Y-58362295D02*
X69108207Y-57562295D01*
X69527255Y-57562295D02*
X70060589Y-58362295D01*
X70060589Y-57562295D02*
X69527255Y-58362295D01*
X70936779Y-57524200D02*
X70251065Y-58552771D01*
X71660589Y-58362295D02*
X71393922Y-57981342D01*
X71203446Y-58362295D02*
X71203446Y-57562295D01*
X71203446Y-57562295D02*
X71508208Y-57562295D01*
X71508208Y-57562295D02*
X71584398Y-57600390D01*
X71584398Y-57600390D02*
X71622493Y-57638485D01*
X71622493Y-57638485D02*
X71660589Y-57714676D01*
X71660589Y-57714676D02*
X71660589Y-57828961D01*
X71660589Y-57828961D02*
X71622493Y-57905152D01*
X71622493Y-57905152D02*
X71584398Y-57943247D01*
X71584398Y-57943247D02*
X71508208Y-57981342D01*
X71508208Y-57981342D02*
X71203446Y-57981342D01*
X71927255Y-57562295D02*
X72460589Y-58362295D01*
X72460589Y-57562295D02*
X71927255Y-58362295D01*
X6670112Y-2562295D02*
X6289160Y-2562295D01*
X6289160Y-2562295D02*
X6289160Y-1762295D01*
X6936779Y-2143247D02*
X7203445Y-2143247D01*
X7317731Y-2562295D02*
X6936779Y-2562295D01*
X6936779Y-2562295D02*
X6936779Y-1762295D01*
X6936779Y-1762295D02*
X7317731Y-1762295D01*
X7660589Y-2562295D02*
X7660589Y-1762295D01*
X7660589Y-1762295D02*
X7851065Y-1762295D01*
X7851065Y-1762295D02*
X7965351Y-1800390D01*
X7965351Y-1800390D02*
X8041541Y-1876580D01*
X8041541Y-1876580D02*
X8079636Y-1952771D01*
X8079636Y-1952771D02*
X8117732Y-2105152D01*
X8117732Y-2105152D02*
X8117732Y-2219438D01*
X8117732Y-2219438D02*
X8079636Y-2371819D01*
X8079636Y-2371819D02*
X8041541Y-2448009D01*
X8041541Y-2448009D02*
X7965351Y-2524200D01*
X7965351Y-2524200D02*
X7851065Y-2562295D01*
X7851065Y-2562295D02*
X7660589Y-2562295D01*
X9489160Y-1800390D02*
X9412970Y-1762295D01*
X9412970Y-1762295D02*
X9298684Y-1762295D01*
X9298684Y-1762295D02*
X9184398Y-1800390D01*
X9184398Y-1800390D02*
X9108208Y-1876580D01*
X9108208Y-1876580D02*
X9070113Y-1952771D01*
X9070113Y-1952771D02*
X9032017Y-2105152D01*
X9032017Y-2105152D02*
X9032017Y-2219438D01*
X9032017Y-2219438D02*
X9070113Y-2371819D01*
X9070113Y-2371819D02*
X9108208Y-2448009D01*
X9108208Y-2448009D02*
X9184398Y-2524200D01*
X9184398Y-2524200D02*
X9298684Y-2562295D01*
X9298684Y-2562295D02*
X9374875Y-2562295D01*
X9374875Y-2562295D02*
X9489160Y-2524200D01*
X9489160Y-2524200D02*
X9527256Y-2486104D01*
X9527256Y-2486104D02*
X9527256Y-2219438D01*
X9527256Y-2219438D02*
X9374875Y-2219438D01*
X9870113Y-2562295D02*
X9870113Y-1762295D01*
X9870113Y-1762295D02*
X10327256Y-2562295D01*
X10327256Y-2562295D02*
X10327256Y-1762295D01*
X10708208Y-2562295D02*
X10708208Y-1762295D01*
X10708208Y-1762295D02*
X10898684Y-1762295D01*
X10898684Y-1762295D02*
X11012970Y-1800390D01*
X11012970Y-1800390D02*
X11089160Y-1876580D01*
X11089160Y-1876580D02*
X11127255Y-1952771D01*
X11127255Y-1952771D02*
X11165351Y-2105152D01*
X11165351Y-2105152D02*
X11165351Y-2219438D01*
X11165351Y-2219438D02*
X11127255Y-2371819D01*
X11127255Y-2371819D02*
X11089160Y-2448009D01*
X11089160Y-2448009D02*
X11012970Y-2524200D01*
X11012970Y-2524200D02*
X10898684Y-2562295D01*
X10898684Y-2562295D02*
X10708208Y-2562295D01*
X12079636Y-1724200D02*
X11393922Y-2752771D01*
X12803446Y-2562295D02*
X12536779Y-2181342D01*
X12346303Y-2562295D02*
X12346303Y-1762295D01*
X12346303Y-1762295D02*
X12651065Y-1762295D01*
X12651065Y-1762295D02*
X12727255Y-1800390D01*
X12727255Y-1800390D02*
X12765350Y-1838485D01*
X12765350Y-1838485D02*
X12803446Y-1914676D01*
X12803446Y-1914676D02*
X12803446Y-2028961D01*
X12803446Y-2028961D02*
X12765350Y-2105152D01*
X12765350Y-2105152D02*
X12727255Y-2143247D01*
X12727255Y-2143247D02*
X12651065Y-2181342D01*
X12651065Y-2181342D02*
X12346303Y-2181342D01*
X13717731Y-1724200D02*
X13032017Y-2752771D01*
X14403445Y-1800390D02*
X14327255Y-1762295D01*
X14327255Y-1762295D02*
X14212969Y-1762295D01*
X14212969Y-1762295D02*
X14098683Y-1800390D01*
X14098683Y-1800390D02*
X14022493Y-1876580D01*
X14022493Y-1876580D02*
X13984398Y-1952771D01*
X13984398Y-1952771D02*
X13946302Y-2105152D01*
X13946302Y-2105152D02*
X13946302Y-2219438D01*
X13946302Y-2219438D02*
X13984398Y-2371819D01*
X13984398Y-2371819D02*
X14022493Y-2448009D01*
X14022493Y-2448009D02*
X14098683Y-2524200D01*
X14098683Y-2524200D02*
X14212969Y-2562295D01*
X14212969Y-2562295D02*
X14289160Y-2562295D01*
X14289160Y-2562295D02*
X14403445Y-2524200D01*
X14403445Y-2524200D02*
X14441541Y-2486104D01*
X14441541Y-2486104D02*
X14441541Y-2219438D01*
X14441541Y-2219438D02*
X14289160Y-2219438D01*
X15355826Y-1724200D02*
X14670112Y-2752771D01*
X15889159Y-2143247D02*
X16003445Y-2181342D01*
X16003445Y-2181342D02*
X16041540Y-2219438D01*
X16041540Y-2219438D02*
X16079636Y-2295628D01*
X16079636Y-2295628D02*
X16079636Y-2409914D01*
X16079636Y-2409914D02*
X16041540Y-2486104D01*
X16041540Y-2486104D02*
X16003445Y-2524200D01*
X16003445Y-2524200D02*
X15927255Y-2562295D01*
X15927255Y-2562295D02*
X15622493Y-2562295D01*
X15622493Y-2562295D02*
X15622493Y-1762295D01*
X15622493Y-1762295D02*
X15889159Y-1762295D01*
X15889159Y-1762295D02*
X15965350Y-1800390D01*
X15965350Y-1800390D02*
X16003445Y-1838485D01*
X16003445Y-1838485D02*
X16041540Y-1914676D01*
X16041540Y-1914676D02*
X16041540Y-1990866D01*
X16041540Y-1990866D02*
X16003445Y-2067057D01*
X16003445Y-2067057D02*
X15965350Y-2105152D01*
X15965350Y-2105152D02*
X15889159Y-2143247D01*
X15889159Y-2143247D02*
X15622493Y-2143247D01*
X22746303Y-2562295D02*
X22479636Y-2181342D01*
X22289160Y-2562295D02*
X22289160Y-1762295D01*
X22289160Y-1762295D02*
X22593922Y-1762295D01*
X22593922Y-1762295D02*
X22670112Y-1800390D01*
X22670112Y-1800390D02*
X22708207Y-1838485D01*
X22708207Y-1838485D02*
X22746303Y-1914676D01*
X22746303Y-1914676D02*
X22746303Y-2028961D01*
X22746303Y-2028961D02*
X22708207Y-2105152D01*
X22708207Y-2105152D02*
X22670112Y-2143247D01*
X22670112Y-2143247D02*
X22593922Y-2181342D01*
X22593922Y-2181342D02*
X22289160Y-2181342D01*
X22974874Y-1762295D02*
X23432017Y-1762295D01*
X23203445Y-2562295D02*
X23203445Y-1762295D01*
X24155827Y-2486104D02*
X24117731Y-2524200D01*
X24117731Y-2524200D02*
X24003446Y-2562295D01*
X24003446Y-2562295D02*
X23927255Y-2562295D01*
X23927255Y-2562295D02*
X23812969Y-2524200D01*
X23812969Y-2524200D02*
X23736779Y-2448009D01*
X23736779Y-2448009D02*
X23698684Y-2371819D01*
X23698684Y-2371819D02*
X23660588Y-2219438D01*
X23660588Y-2219438D02*
X23660588Y-2105152D01*
X23660588Y-2105152D02*
X23698684Y-1952771D01*
X23698684Y-1952771D02*
X23736779Y-1876580D01*
X23736779Y-1876580D02*
X23812969Y-1800390D01*
X23812969Y-1800390D02*
X23927255Y-1762295D01*
X23927255Y-1762295D02*
X24003446Y-1762295D01*
X24003446Y-1762295D02*
X24117731Y-1800390D01*
X24117731Y-1800390D02*
X24155827Y-1838485D01*
X25032017Y-1762295D02*
X25527255Y-1762295D01*
X25527255Y-1762295D02*
X25260589Y-2067057D01*
X25260589Y-2067057D02*
X25374874Y-2067057D01*
X25374874Y-2067057D02*
X25451065Y-2105152D01*
X25451065Y-2105152D02*
X25489160Y-2143247D01*
X25489160Y-2143247D02*
X25527255Y-2219438D01*
X25527255Y-2219438D02*
X25527255Y-2409914D01*
X25527255Y-2409914D02*
X25489160Y-2486104D01*
X25489160Y-2486104D02*
X25451065Y-2524200D01*
X25451065Y-2524200D02*
X25374874Y-2562295D01*
X25374874Y-2562295D02*
X25146303Y-2562295D01*
X25146303Y-2562295D02*
X25070112Y-2524200D01*
X25070112Y-2524200D02*
X25032017Y-2486104D01*
X25755827Y-1762295D02*
X26022494Y-2562295D01*
X26022494Y-2562295D02*
X26289160Y-1762295D01*
X26479636Y-1762295D02*
X26974874Y-1762295D01*
X26974874Y-1762295D02*
X26708208Y-2067057D01*
X26708208Y-2067057D02*
X26822493Y-2067057D01*
X26822493Y-2067057D02*
X26898684Y-2105152D01*
X26898684Y-2105152D02*
X26936779Y-2143247D01*
X26936779Y-2143247D02*
X26974874Y-2219438D01*
X26974874Y-2219438D02*
X26974874Y-2409914D01*
X26974874Y-2409914D02*
X26936779Y-2486104D01*
X26936779Y-2486104D02*
X26898684Y-2524200D01*
X26898684Y-2524200D02*
X26822493Y-2562295D01*
X26822493Y-2562295D02*
X26593922Y-2562295D01*
X26593922Y-2562295D02*
X26517731Y-2524200D01*
X26517731Y-2524200D02*
X26479636Y-2486104D01*
X27889160Y-1724200D02*
X27203446Y-2752771D01*
X28574874Y-1800390D02*
X28498684Y-1762295D01*
X28498684Y-1762295D02*
X28384398Y-1762295D01*
X28384398Y-1762295D02*
X28270112Y-1800390D01*
X28270112Y-1800390D02*
X28193922Y-1876580D01*
X28193922Y-1876580D02*
X28155827Y-1952771D01*
X28155827Y-1952771D02*
X28117731Y-2105152D01*
X28117731Y-2105152D02*
X28117731Y-2219438D01*
X28117731Y-2219438D02*
X28155827Y-2371819D01*
X28155827Y-2371819D02*
X28193922Y-2448009D01*
X28193922Y-2448009D02*
X28270112Y-2524200D01*
X28270112Y-2524200D02*
X28384398Y-2562295D01*
X28384398Y-2562295D02*
X28460589Y-2562295D01*
X28460589Y-2562295D02*
X28574874Y-2524200D01*
X28574874Y-2524200D02*
X28612970Y-2486104D01*
X28612970Y-2486104D02*
X28612970Y-2219438D01*
X28612970Y-2219438D02*
X28460589Y-2219438D01*
X28955827Y-2562295D02*
X28955827Y-1762295D01*
X28955827Y-1762295D02*
X29412970Y-2562295D01*
X29412970Y-2562295D02*
X29412970Y-1762295D01*
X29793922Y-2562295D02*
X29793922Y-1762295D01*
X29793922Y-1762295D02*
X29984398Y-1762295D01*
X29984398Y-1762295D02*
X30098684Y-1800390D01*
X30098684Y-1800390D02*
X30174874Y-1876580D01*
X30174874Y-1876580D02*
X30212969Y-1952771D01*
X30212969Y-1952771D02*
X30251065Y-2105152D01*
X30251065Y-2105152D02*
X30251065Y-2219438D01*
X30251065Y-2219438D02*
X30212969Y-2371819D01*
X30212969Y-2371819D02*
X30174874Y-2448009D01*
X30174874Y-2448009D02*
X30098684Y-2524200D01*
X30098684Y-2524200D02*
X29984398Y-2562295D01*
X29984398Y-2562295D02*
X29793922Y-2562295D01*
X31165350Y-1724200D02*
X30479636Y-2752771D01*
X31393921Y-2524200D02*
X31508207Y-2562295D01*
X31508207Y-2562295D02*
X31698683Y-2562295D01*
X31698683Y-2562295D02*
X31774874Y-2524200D01*
X31774874Y-2524200D02*
X31812969Y-2486104D01*
X31812969Y-2486104D02*
X31851064Y-2409914D01*
X31851064Y-2409914D02*
X31851064Y-2333723D01*
X31851064Y-2333723D02*
X31812969Y-2257533D01*
X31812969Y-2257533D02*
X31774874Y-2219438D01*
X31774874Y-2219438D02*
X31698683Y-2181342D01*
X31698683Y-2181342D02*
X31546302Y-2143247D01*
X31546302Y-2143247D02*
X31470112Y-2105152D01*
X31470112Y-2105152D02*
X31432017Y-2067057D01*
X31432017Y-2067057D02*
X31393921Y-1990866D01*
X31393921Y-1990866D02*
X31393921Y-1914676D01*
X31393921Y-1914676D02*
X31432017Y-1838485D01*
X31432017Y-1838485D02*
X31470112Y-1800390D01*
X31470112Y-1800390D02*
X31546302Y-1762295D01*
X31546302Y-1762295D02*
X31736779Y-1762295D01*
X31736779Y-1762295D02*
X31851064Y-1800390D01*
X32193922Y-2562295D02*
X32193922Y-1762295D01*
X32193922Y-1762295D02*
X32384398Y-1762295D01*
X32384398Y-1762295D02*
X32498684Y-1800390D01*
X32498684Y-1800390D02*
X32574874Y-1876580D01*
X32574874Y-1876580D02*
X32612969Y-1952771D01*
X32612969Y-1952771D02*
X32651065Y-2105152D01*
X32651065Y-2105152D02*
X32651065Y-2219438D01*
X32651065Y-2219438D02*
X32612969Y-2371819D01*
X32612969Y-2371819D02*
X32574874Y-2448009D01*
X32574874Y-2448009D02*
X32498684Y-2524200D01*
X32498684Y-2524200D02*
X32384398Y-2562295D01*
X32384398Y-2562295D02*
X32193922Y-2562295D01*
X32955826Y-2333723D02*
X33336779Y-2333723D01*
X32879636Y-2562295D02*
X33146303Y-1762295D01*
X33146303Y-1762295D02*
X33412969Y-2562295D01*
X34251064Y-1724200D02*
X33565350Y-2752771D01*
X34479635Y-2524200D02*
X34593921Y-2562295D01*
X34593921Y-2562295D02*
X34784397Y-2562295D01*
X34784397Y-2562295D02*
X34860588Y-2524200D01*
X34860588Y-2524200D02*
X34898683Y-2486104D01*
X34898683Y-2486104D02*
X34936778Y-2409914D01*
X34936778Y-2409914D02*
X34936778Y-2333723D01*
X34936778Y-2333723D02*
X34898683Y-2257533D01*
X34898683Y-2257533D02*
X34860588Y-2219438D01*
X34860588Y-2219438D02*
X34784397Y-2181342D01*
X34784397Y-2181342D02*
X34632016Y-2143247D01*
X34632016Y-2143247D02*
X34555826Y-2105152D01*
X34555826Y-2105152D02*
X34517731Y-2067057D01*
X34517731Y-2067057D02*
X34479635Y-1990866D01*
X34479635Y-1990866D02*
X34479635Y-1914676D01*
X34479635Y-1914676D02*
X34517731Y-1838485D01*
X34517731Y-1838485D02*
X34555826Y-1800390D01*
X34555826Y-1800390D02*
X34632016Y-1762295D01*
X34632016Y-1762295D02*
X34822493Y-1762295D01*
X34822493Y-1762295D02*
X34936778Y-1800390D01*
X35736779Y-2486104D02*
X35698683Y-2524200D01*
X35698683Y-2524200D02*
X35584398Y-2562295D01*
X35584398Y-2562295D02*
X35508207Y-2562295D01*
X35508207Y-2562295D02*
X35393921Y-2524200D01*
X35393921Y-2524200D02*
X35317731Y-2448009D01*
X35317731Y-2448009D02*
X35279636Y-2371819D01*
X35279636Y-2371819D02*
X35241540Y-2219438D01*
X35241540Y-2219438D02*
X35241540Y-2105152D01*
X35241540Y-2105152D02*
X35279636Y-1952771D01*
X35279636Y-1952771D02*
X35317731Y-1876580D01*
X35317731Y-1876580D02*
X35393921Y-1800390D01*
X35393921Y-1800390D02*
X35508207Y-1762295D01*
X35508207Y-1762295D02*
X35584398Y-1762295D01*
X35584398Y-1762295D02*
X35698683Y-1800390D01*
X35698683Y-1800390D02*
X35736779Y-1838485D01*
X36460588Y-2562295D02*
X36079636Y-2562295D01*
X36079636Y-2562295D02*
X36079636Y-1762295D01*
X38746303Y-2562295D02*
X38479636Y-2181342D01*
X38289160Y-2562295D02*
X38289160Y-1762295D01*
X38289160Y-1762295D02*
X38593922Y-1762295D01*
X38593922Y-1762295D02*
X38670112Y-1800390D01*
X38670112Y-1800390D02*
X38708207Y-1838485D01*
X38708207Y-1838485D02*
X38746303Y-1914676D01*
X38746303Y-1914676D02*
X38746303Y-2028961D01*
X38746303Y-2028961D02*
X38708207Y-2105152D01*
X38708207Y-2105152D02*
X38670112Y-2143247D01*
X38670112Y-2143247D02*
X38593922Y-2181342D01*
X38593922Y-2181342D02*
X38289160Y-2181342D01*
X39089160Y-2143247D02*
X39355826Y-2143247D01*
X39470112Y-2562295D02*
X39089160Y-2562295D01*
X39089160Y-2562295D02*
X39089160Y-1762295D01*
X39089160Y-1762295D02*
X39470112Y-1762295D01*
X40193922Y-2562295D02*
X39812970Y-2562295D01*
X39812970Y-2562295D02*
X39812970Y-1762295D01*
X40422493Y-2333723D02*
X40803446Y-2333723D01*
X40346303Y-2562295D02*
X40612970Y-1762295D01*
X40612970Y-1762295D02*
X40879636Y-2562295D01*
X41298684Y-2181342D02*
X41298684Y-2562295D01*
X41032017Y-1762295D02*
X41298684Y-2181342D01*
X41298684Y-2181342D02*
X41565350Y-1762295D01*
X42327255Y-1762295D02*
X42593922Y-2562295D01*
X42593922Y-2562295D02*
X42860588Y-1762295D01*
X43584398Y-2486104D02*
X43546302Y-2524200D01*
X43546302Y-2524200D02*
X43432017Y-2562295D01*
X43432017Y-2562295D02*
X43355826Y-2562295D01*
X43355826Y-2562295D02*
X43241540Y-2524200D01*
X43241540Y-2524200D02*
X43165350Y-2448009D01*
X43165350Y-2448009D02*
X43127255Y-2371819D01*
X43127255Y-2371819D02*
X43089159Y-2219438D01*
X43089159Y-2219438D02*
X43089159Y-2105152D01*
X43089159Y-2105152D02*
X43127255Y-1952771D01*
X43127255Y-1952771D02*
X43165350Y-1876580D01*
X43165350Y-1876580D02*
X43241540Y-1800390D01*
X43241540Y-1800390D02*
X43355826Y-1762295D01*
X43355826Y-1762295D02*
X43432017Y-1762295D01*
X43432017Y-1762295D02*
X43546302Y-1800390D01*
X43546302Y-1800390D02*
X43584398Y-1838485D01*
X44384398Y-2486104D02*
X44346302Y-2524200D01*
X44346302Y-2524200D02*
X44232017Y-2562295D01*
X44232017Y-2562295D02*
X44155826Y-2562295D01*
X44155826Y-2562295D02*
X44041540Y-2524200D01*
X44041540Y-2524200D02*
X43965350Y-2448009D01*
X43965350Y-2448009D02*
X43927255Y-2371819D01*
X43927255Y-2371819D02*
X43889159Y-2219438D01*
X43889159Y-2219438D02*
X43889159Y-2105152D01*
X43889159Y-2105152D02*
X43927255Y-1952771D01*
X43927255Y-1952771D02*
X43965350Y-1876580D01*
X43965350Y-1876580D02*
X44041540Y-1800390D01*
X44041540Y-1800390D02*
X44155826Y-1762295D01*
X44155826Y-1762295D02*
X44232017Y-1762295D01*
X44232017Y-1762295D02*
X44346302Y-1800390D01*
X44346302Y-1800390D02*
X44384398Y-1838485D01*
X45298683Y-1724200D02*
X44612969Y-2752771D01*
X45984397Y-1800390D02*
X45908207Y-1762295D01*
X45908207Y-1762295D02*
X45793921Y-1762295D01*
X45793921Y-1762295D02*
X45679635Y-1800390D01*
X45679635Y-1800390D02*
X45603445Y-1876580D01*
X45603445Y-1876580D02*
X45565350Y-1952771D01*
X45565350Y-1952771D02*
X45527254Y-2105152D01*
X45527254Y-2105152D02*
X45527254Y-2219438D01*
X45527254Y-2219438D02*
X45565350Y-2371819D01*
X45565350Y-2371819D02*
X45603445Y-2448009D01*
X45603445Y-2448009D02*
X45679635Y-2524200D01*
X45679635Y-2524200D02*
X45793921Y-2562295D01*
X45793921Y-2562295D02*
X45870112Y-2562295D01*
X45870112Y-2562295D02*
X45984397Y-2524200D01*
X45984397Y-2524200D02*
X46022493Y-2486104D01*
X46022493Y-2486104D02*
X46022493Y-2219438D01*
X46022493Y-2219438D02*
X45870112Y-2219438D01*
X46365350Y-2562295D02*
X46365350Y-1762295D01*
X46365350Y-1762295D02*
X46822493Y-2562295D01*
X46822493Y-2562295D02*
X46822493Y-1762295D01*
X47203445Y-2562295D02*
X47203445Y-1762295D01*
X47203445Y-1762295D02*
X47393921Y-1762295D01*
X47393921Y-1762295D02*
X47508207Y-1800390D01*
X47508207Y-1800390D02*
X47584397Y-1876580D01*
X47584397Y-1876580D02*
X47622492Y-1952771D01*
X47622492Y-1952771D02*
X47660588Y-2105152D01*
X47660588Y-2105152D02*
X47660588Y-2219438D01*
X47660588Y-2219438D02*
X47622492Y-2371819D01*
X47622492Y-2371819D02*
X47584397Y-2448009D01*
X47584397Y-2448009D02*
X47508207Y-2524200D01*
X47508207Y-2524200D02*
X47393921Y-2562295D01*
X47393921Y-2562295D02*
X47203445Y-2562295D01*
X48574873Y-1724200D02*
X47889159Y-2752771D01*
X48841540Y-2562295D02*
X48841540Y-1762295D01*
X49222492Y-2562295D02*
X49222492Y-1762295D01*
X49222492Y-1762295D02*
X49679635Y-2562295D01*
X49679635Y-2562295D02*
X49679635Y-1762295D01*
X6289160Y-42362295D02*
X6289160Y-41562295D01*
X6289160Y-41562295D02*
X6479636Y-41562295D01*
X6479636Y-41562295D02*
X6593922Y-41600390D01*
X6593922Y-41600390D02*
X6670112Y-41676580D01*
X6670112Y-41676580D02*
X6708207Y-41752771D01*
X6708207Y-41752771D02*
X6746303Y-41905152D01*
X6746303Y-41905152D02*
X6746303Y-42019438D01*
X6746303Y-42019438D02*
X6708207Y-42171819D01*
X6708207Y-42171819D02*
X6670112Y-42248009D01*
X6670112Y-42248009D02*
X6593922Y-42324200D01*
X6593922Y-42324200D02*
X6479636Y-42362295D01*
X6479636Y-42362295D02*
X6289160Y-42362295D01*
X7546303Y-42362295D02*
X7279636Y-41981342D01*
X7089160Y-42362295D02*
X7089160Y-41562295D01*
X7089160Y-41562295D02*
X7393922Y-41562295D01*
X7393922Y-41562295D02*
X7470112Y-41600390D01*
X7470112Y-41600390D02*
X7508207Y-41638485D01*
X7508207Y-41638485D02*
X7546303Y-41714676D01*
X7546303Y-41714676D02*
X7546303Y-41828961D01*
X7546303Y-41828961D02*
X7508207Y-41905152D01*
X7508207Y-41905152D02*
X7470112Y-41943247D01*
X7470112Y-41943247D02*
X7393922Y-41981342D01*
X7393922Y-41981342D02*
X7089160Y-41981342D01*
X8041541Y-41981342D02*
X8041541Y-42362295D01*
X7774874Y-41562295D02*
X8041541Y-41981342D01*
X8041541Y-41981342D02*
X8308207Y-41562295D01*
X9641541Y-42286104D02*
X9603445Y-42324200D01*
X9603445Y-42324200D02*
X9489160Y-42362295D01*
X9489160Y-42362295D02*
X9412969Y-42362295D01*
X9412969Y-42362295D02*
X9298683Y-42324200D01*
X9298683Y-42324200D02*
X9222493Y-42248009D01*
X9222493Y-42248009D02*
X9184398Y-42171819D01*
X9184398Y-42171819D02*
X9146302Y-42019438D01*
X9146302Y-42019438D02*
X9146302Y-41905152D01*
X9146302Y-41905152D02*
X9184398Y-41752771D01*
X9184398Y-41752771D02*
X9222493Y-41676580D01*
X9222493Y-41676580D02*
X9298683Y-41600390D01*
X9298683Y-41600390D02*
X9412969Y-41562295D01*
X9412969Y-41562295D02*
X9489160Y-41562295D01*
X9489160Y-41562295D02*
X9603445Y-41600390D01*
X9603445Y-41600390D02*
X9641541Y-41638485D01*
X10136779Y-41562295D02*
X10289160Y-41562295D01*
X10289160Y-41562295D02*
X10365350Y-41600390D01*
X10365350Y-41600390D02*
X10441541Y-41676580D01*
X10441541Y-41676580D02*
X10479636Y-41828961D01*
X10479636Y-41828961D02*
X10479636Y-42095628D01*
X10479636Y-42095628D02*
X10441541Y-42248009D01*
X10441541Y-42248009D02*
X10365350Y-42324200D01*
X10365350Y-42324200D02*
X10289160Y-42362295D01*
X10289160Y-42362295D02*
X10136779Y-42362295D01*
X10136779Y-42362295D02*
X10060588Y-42324200D01*
X10060588Y-42324200D02*
X9984398Y-42248009D01*
X9984398Y-42248009D02*
X9946302Y-42095628D01*
X9946302Y-42095628D02*
X9946302Y-41828961D01*
X9946302Y-41828961D02*
X9984398Y-41676580D01*
X9984398Y-41676580D02*
X10060588Y-41600390D01*
X10060588Y-41600390D02*
X10136779Y-41562295D01*
X10822493Y-42362295D02*
X10822493Y-41562295D01*
X10822493Y-41562295D02*
X11089159Y-42133723D01*
X11089159Y-42133723D02*
X11355826Y-41562295D01*
X11355826Y-41562295D02*
X11355826Y-42362295D01*
X12308207Y-41524200D02*
X11622493Y-42552771D01*
X12574874Y-42362295D02*
X12574874Y-41562295D01*
X12574874Y-41562295D02*
X13032017Y-42362295D01*
X13032017Y-42362295D02*
X13032017Y-41562295D01*
X13565350Y-41562295D02*
X13717731Y-41562295D01*
X13717731Y-41562295D02*
X13793921Y-41600390D01*
X13793921Y-41600390D02*
X13870112Y-41676580D01*
X13870112Y-41676580D02*
X13908207Y-41828961D01*
X13908207Y-41828961D02*
X13908207Y-42095628D01*
X13908207Y-42095628D02*
X13870112Y-42248009D01*
X13870112Y-42248009D02*
X13793921Y-42324200D01*
X13793921Y-42324200D02*
X13717731Y-42362295D01*
X13717731Y-42362295D02*
X13565350Y-42362295D01*
X13565350Y-42362295D02*
X13489159Y-42324200D01*
X13489159Y-42324200D02*
X13412969Y-42248009D01*
X13412969Y-42248009D02*
X13374873Y-42095628D01*
X13374873Y-42095628D02*
X13374873Y-41828961D01*
X13374873Y-41828961D02*
X13412969Y-41676580D01*
X13412969Y-41676580D02*
X13489159Y-41600390D01*
X13489159Y-41600390D02*
X13565350Y-41562295D01*
X14822492Y-41524200D02*
X14136778Y-42552771D01*
X15089159Y-42362295D02*
X15089159Y-41562295D01*
X15089159Y-41562295D02*
X15546302Y-42362295D01*
X15546302Y-42362295D02*
X15546302Y-41562295D01*
X16384397Y-42286104D02*
X16346301Y-42324200D01*
X16346301Y-42324200D02*
X16232016Y-42362295D01*
X16232016Y-42362295D02*
X16155825Y-42362295D01*
X16155825Y-42362295D02*
X16041539Y-42324200D01*
X16041539Y-42324200D02*
X15965349Y-42248009D01*
X15965349Y-42248009D02*
X15927254Y-42171819D01*
X15927254Y-42171819D02*
X15889158Y-42019438D01*
X15889158Y-42019438D02*
X15889158Y-41905152D01*
X15889158Y-41905152D02*
X15927254Y-41752771D01*
X15927254Y-41752771D02*
X15965349Y-41676580D01*
X15965349Y-41676580D02*
X16041539Y-41600390D01*
X16041539Y-41600390D02*
X16155825Y-41562295D01*
X16155825Y-41562295D02*
X16232016Y-41562295D01*
X16232016Y-41562295D02*
X16346301Y-41600390D01*
X16346301Y-41600390D02*
X16384397Y-41638485D01*
X70289160Y-44362295D02*
X70289160Y-43562295D01*
X70289160Y-43562295D02*
X70479636Y-43562295D01*
X70479636Y-43562295D02*
X70593922Y-43600390D01*
X70593922Y-43600390D02*
X70670112Y-43676580D01*
X70670112Y-43676580D02*
X70708207Y-43752771D01*
X70708207Y-43752771D02*
X70746303Y-43905152D01*
X70746303Y-43905152D02*
X70746303Y-44019438D01*
X70746303Y-44019438D02*
X70708207Y-44171819D01*
X70708207Y-44171819D02*
X70670112Y-44248009D01*
X70670112Y-44248009D02*
X70593922Y-44324200D01*
X70593922Y-44324200D02*
X70479636Y-44362295D01*
X70479636Y-44362295D02*
X70289160Y-44362295D01*
X71546303Y-44286104D02*
X71508207Y-44324200D01*
X71508207Y-44324200D02*
X71393922Y-44362295D01*
X71393922Y-44362295D02*
X71317731Y-44362295D01*
X71317731Y-44362295D02*
X71203445Y-44324200D01*
X71203445Y-44324200D02*
X71127255Y-44248009D01*
X71127255Y-44248009D02*
X71089160Y-44171819D01*
X71089160Y-44171819D02*
X71051064Y-44019438D01*
X71051064Y-44019438D02*
X71051064Y-43905152D01*
X71051064Y-43905152D02*
X71089160Y-43752771D01*
X71089160Y-43752771D02*
X71127255Y-43676580D01*
X71127255Y-43676580D02*
X71203445Y-43600390D01*
X71203445Y-43600390D02*
X71317731Y-43562295D01*
X71317731Y-43562295D02*
X71393922Y-43562295D01*
X71393922Y-43562295D02*
X71508207Y-43600390D01*
X71508207Y-43600390D02*
X71546303Y-43638485D01*
X71889160Y-44362295D02*
X71889160Y-43562295D01*
X72270112Y-44362295D02*
X72270112Y-43562295D01*
X72270112Y-43562295D02*
X72727255Y-44362295D01*
X72727255Y-44362295D02*
X72727255Y-43562295D01*
X73641540Y-43562295D02*
X74174874Y-44362295D01*
X74174874Y-43562295D02*
X73641540Y-44362295D01*
X74479636Y-44362295D02*
X74479636Y-43562295D01*
X74479636Y-43943247D02*
X74936779Y-43943247D01*
X74936779Y-44362295D02*
X74936779Y-43562295D01*
X75927255Y-44057533D02*
X76536779Y-44057533D01*
X76232017Y-44362295D02*
X76232017Y-43752771D01*
X77489159Y-43524200D02*
X76803445Y-44552771D01*
X78174873Y-43600390D02*
X78098683Y-43562295D01*
X78098683Y-43562295D02*
X77984397Y-43562295D01*
X77984397Y-43562295D02*
X77870111Y-43600390D01*
X77870111Y-43600390D02*
X77793921Y-43676580D01*
X77793921Y-43676580D02*
X77755826Y-43752771D01*
X77755826Y-43752771D02*
X77717730Y-43905152D01*
X77717730Y-43905152D02*
X77717730Y-44019438D01*
X77717730Y-44019438D02*
X77755826Y-44171819D01*
X77755826Y-44171819D02*
X77793921Y-44248009D01*
X77793921Y-44248009D02*
X77870111Y-44324200D01*
X77870111Y-44324200D02*
X77984397Y-44362295D01*
X77984397Y-44362295D02*
X78060588Y-44362295D01*
X78060588Y-44362295D02*
X78174873Y-44324200D01*
X78174873Y-44324200D02*
X78212969Y-44286104D01*
X78212969Y-44286104D02*
X78212969Y-44019438D01*
X78212969Y-44019438D02*
X78060588Y-44019438D01*
X78555826Y-44362295D02*
X78555826Y-43562295D01*
X78555826Y-43562295D02*
X79012969Y-44362295D01*
X79012969Y-44362295D02*
X79012969Y-43562295D01*
X79393921Y-44362295D02*
X79393921Y-43562295D01*
X79393921Y-43562295D02*
X79584397Y-43562295D01*
X79584397Y-43562295D02*
X79698683Y-43600390D01*
X79698683Y-43600390D02*
X79774873Y-43676580D01*
X79774873Y-43676580D02*
X79812968Y-43752771D01*
X79812968Y-43752771D02*
X79851064Y-43905152D01*
X79851064Y-43905152D02*
X79851064Y-44019438D01*
X79851064Y-44019438D02*
X79812968Y-44171819D01*
X79812968Y-44171819D02*
X79774873Y-44248009D01*
X79774873Y-44248009D02*
X79698683Y-44324200D01*
X79698683Y-44324200D02*
X79584397Y-44362295D01*
X79584397Y-44362295D02*
X79393921Y-44362295D01*
X76555826Y-7943247D02*
X76670112Y-7981342D01*
X76670112Y-7981342D02*
X76708207Y-8019438D01*
X76708207Y-8019438D02*
X76746303Y-8095628D01*
X76746303Y-8095628D02*
X76746303Y-8209914D01*
X76746303Y-8209914D02*
X76708207Y-8286104D01*
X76708207Y-8286104D02*
X76670112Y-8324200D01*
X76670112Y-8324200D02*
X76593922Y-8362295D01*
X76593922Y-8362295D02*
X76289160Y-8362295D01*
X76289160Y-8362295D02*
X76289160Y-7562295D01*
X76289160Y-7562295D02*
X76555826Y-7562295D01*
X76555826Y-7562295D02*
X76632017Y-7600390D01*
X76632017Y-7600390D02*
X76670112Y-7638485D01*
X76670112Y-7638485D02*
X76708207Y-7714676D01*
X76708207Y-7714676D02*
X76708207Y-7790866D01*
X76708207Y-7790866D02*
X76670112Y-7867057D01*
X76670112Y-7867057D02*
X76632017Y-7905152D01*
X76632017Y-7905152D02*
X76555826Y-7943247D01*
X76555826Y-7943247D02*
X76289160Y-7943247D01*
X77089160Y-7562295D02*
X77089160Y-8209914D01*
X77089160Y-8209914D02*
X77127255Y-8286104D01*
X77127255Y-8286104D02*
X77165350Y-8324200D01*
X77165350Y-8324200D02*
X77241541Y-8362295D01*
X77241541Y-8362295D02*
X77393922Y-8362295D01*
X77393922Y-8362295D02*
X77470112Y-8324200D01*
X77470112Y-8324200D02*
X77508207Y-8286104D01*
X77508207Y-8286104D02*
X77546303Y-8209914D01*
X77546303Y-8209914D02*
X77546303Y-7562295D01*
X77851064Y-7562295D02*
X78384398Y-7562295D01*
X78384398Y-7562295D02*
X77851064Y-8362295D01*
X77851064Y-8362295D02*
X78384398Y-8362295D01*
X78612969Y-7562295D02*
X79146303Y-7562295D01*
X79146303Y-7562295D02*
X78612969Y-8362295D01*
X78612969Y-8362295D02*
X79146303Y-8362295D01*
X80060589Y-8057533D02*
X80670113Y-8057533D01*
X80365351Y-8362295D02*
X80365351Y-7752771D01*
X81622493Y-7524200D02*
X80936779Y-8552771D01*
X81889160Y-8057533D02*
X82498684Y-8057533D01*
X62822493Y-10438485D02*
X62746303Y-10400390D01*
X62746303Y-10400390D02*
X62670112Y-10324200D01*
X62670112Y-10324200D02*
X62555826Y-10209914D01*
X62555826Y-10209914D02*
X62479636Y-10171819D01*
X62479636Y-10171819D02*
X62403445Y-10171819D01*
X62441541Y-10362295D02*
X62365350Y-10324200D01*
X62365350Y-10324200D02*
X62289160Y-10248009D01*
X62289160Y-10248009D02*
X62251064Y-10095628D01*
X62251064Y-10095628D02*
X62251064Y-9828961D01*
X62251064Y-9828961D02*
X62289160Y-9676580D01*
X62289160Y-9676580D02*
X62365350Y-9600390D01*
X62365350Y-9600390D02*
X62441541Y-9562295D01*
X62441541Y-9562295D02*
X62593922Y-9562295D01*
X62593922Y-9562295D02*
X62670112Y-9600390D01*
X62670112Y-9600390D02*
X62746303Y-9676580D01*
X62746303Y-9676580D02*
X62784398Y-9828961D01*
X62784398Y-9828961D02*
X62784398Y-10095628D01*
X62784398Y-10095628D02*
X62746303Y-10248009D01*
X62746303Y-10248009D02*
X62670112Y-10324200D01*
X62670112Y-10324200D02*
X62593922Y-10362295D01*
X62593922Y-10362295D02*
X62441541Y-10362295D01*
X63089159Y-9638485D02*
X63127255Y-9600390D01*
X63127255Y-9600390D02*
X63203445Y-9562295D01*
X63203445Y-9562295D02*
X63393921Y-9562295D01*
X63393921Y-9562295D02*
X63470112Y-9600390D01*
X63470112Y-9600390D02*
X63508207Y-9638485D01*
X63508207Y-9638485D02*
X63546302Y-9714676D01*
X63546302Y-9714676D02*
X63546302Y-9790866D01*
X63546302Y-9790866D02*
X63508207Y-9905152D01*
X63508207Y-9905152D02*
X63051064Y-10362295D01*
X63051064Y-10362295D02*
X63546302Y-10362295D01*
X64955827Y-10362295D02*
X64689160Y-9981342D01*
X64498684Y-10362295D02*
X64498684Y-9562295D01*
X64498684Y-9562295D02*
X64803446Y-9562295D01*
X64803446Y-9562295D02*
X64879636Y-9600390D01*
X64879636Y-9600390D02*
X64917731Y-9638485D01*
X64917731Y-9638485D02*
X64955827Y-9714676D01*
X64955827Y-9714676D02*
X64955827Y-9828961D01*
X64955827Y-9828961D02*
X64917731Y-9905152D01*
X64917731Y-9905152D02*
X64879636Y-9943247D01*
X64879636Y-9943247D02*
X64803446Y-9981342D01*
X64803446Y-9981342D02*
X64498684Y-9981342D01*
X65298684Y-9943247D02*
X65565350Y-9943247D01*
X65679636Y-10362295D02*
X65298684Y-10362295D01*
X65298684Y-10362295D02*
X65298684Y-9562295D01*
X65298684Y-9562295D02*
X65679636Y-9562295D01*
X66403446Y-10362295D02*
X66022494Y-10362295D01*
X66022494Y-10362295D02*
X66022494Y-9562295D01*
X66632017Y-10133723D02*
X67012970Y-10133723D01*
X66555827Y-10362295D02*
X66822494Y-9562295D01*
X66822494Y-9562295D02*
X67089160Y-10362295D01*
X67508208Y-9981342D02*
X67508208Y-10362295D01*
X67241541Y-9562295D02*
X67508208Y-9981342D01*
X67508208Y-9981342D02*
X67774874Y-9562295D01*
X68822493Y-36438485D02*
X68746303Y-36400390D01*
X68746303Y-36400390D02*
X68670112Y-36324200D01*
X68670112Y-36324200D02*
X68555826Y-36209914D01*
X68555826Y-36209914D02*
X68479636Y-36171819D01*
X68479636Y-36171819D02*
X68403445Y-36171819D01*
X68441541Y-36362295D02*
X68365350Y-36324200D01*
X68365350Y-36324200D02*
X68289160Y-36248009D01*
X68289160Y-36248009D02*
X68251064Y-36095628D01*
X68251064Y-36095628D02*
X68251064Y-35828961D01*
X68251064Y-35828961D02*
X68289160Y-35676580D01*
X68289160Y-35676580D02*
X68365350Y-35600390D01*
X68365350Y-35600390D02*
X68441541Y-35562295D01*
X68441541Y-35562295D02*
X68593922Y-35562295D01*
X68593922Y-35562295D02*
X68670112Y-35600390D01*
X68670112Y-35600390D02*
X68746303Y-35676580D01*
X68746303Y-35676580D02*
X68784398Y-35828961D01*
X68784398Y-35828961D02*
X68784398Y-36095628D01*
X68784398Y-36095628D02*
X68746303Y-36248009D01*
X68746303Y-36248009D02*
X68670112Y-36324200D01*
X68670112Y-36324200D02*
X68593922Y-36362295D01*
X68593922Y-36362295D02*
X68441541Y-36362295D01*
X69546302Y-36362295D02*
X69089159Y-36362295D01*
X69317731Y-36362295D02*
X69317731Y-35562295D01*
X69317731Y-35562295D02*
X69241540Y-35676580D01*
X69241540Y-35676580D02*
X69165350Y-35752771D01*
X69165350Y-35752771D02*
X69089159Y-35790866D01*
X70765350Y-35943247D02*
X70879636Y-35981342D01*
X70879636Y-35981342D02*
X70917731Y-36019438D01*
X70917731Y-36019438D02*
X70955827Y-36095628D01*
X70955827Y-36095628D02*
X70955827Y-36209914D01*
X70955827Y-36209914D02*
X70917731Y-36286104D01*
X70917731Y-36286104D02*
X70879636Y-36324200D01*
X70879636Y-36324200D02*
X70803446Y-36362295D01*
X70803446Y-36362295D02*
X70498684Y-36362295D01*
X70498684Y-36362295D02*
X70498684Y-35562295D01*
X70498684Y-35562295D02*
X70765350Y-35562295D01*
X70765350Y-35562295D02*
X70841541Y-35600390D01*
X70841541Y-35600390D02*
X70879636Y-35638485D01*
X70879636Y-35638485D02*
X70917731Y-35714676D01*
X70917731Y-35714676D02*
X70917731Y-35790866D01*
X70917731Y-35790866D02*
X70879636Y-35867057D01*
X70879636Y-35867057D02*
X70841541Y-35905152D01*
X70841541Y-35905152D02*
X70765350Y-35943247D01*
X70765350Y-35943247D02*
X70498684Y-35943247D01*
X71298684Y-35562295D02*
X71298684Y-36209914D01*
X71298684Y-36209914D02*
X71336779Y-36286104D01*
X71336779Y-36286104D02*
X71374874Y-36324200D01*
X71374874Y-36324200D02*
X71451065Y-36362295D01*
X71451065Y-36362295D02*
X71603446Y-36362295D01*
X71603446Y-36362295D02*
X71679636Y-36324200D01*
X71679636Y-36324200D02*
X71717731Y-36286104D01*
X71717731Y-36286104D02*
X71755827Y-36209914D01*
X71755827Y-36209914D02*
X71755827Y-35562295D01*
X72060588Y-35562295D02*
X72593922Y-35562295D01*
X72593922Y-35562295D02*
X72060588Y-36362295D01*
X72060588Y-36362295D02*
X72593922Y-36362295D01*
X72822493Y-35562295D02*
X73355827Y-35562295D01*
X73355827Y-35562295D02*
X72822493Y-36362295D01*
X72822493Y-36362295D02*
X73355827Y-36362295D01*
X25166666Y-47654819D02*
X25166666Y-48369104D01*
X25166666Y-48369104D02*
X25119047Y-48511961D01*
X25119047Y-48511961D02*
X25023809Y-48607200D01*
X25023809Y-48607200D02*
X24880952Y-48654819D01*
X24880952Y-48654819D02*
X24785714Y-48654819D01*
X25595238Y-47750057D02*
X25642857Y-47702438D01*
X25642857Y-47702438D02*
X25738095Y-47654819D01*
X25738095Y-47654819D02*
X25976190Y-47654819D01*
X25976190Y-47654819D02*
X26071428Y-47702438D01*
X26071428Y-47702438D02*
X26119047Y-47750057D01*
X26119047Y-47750057D02*
X26166666Y-47845295D01*
X26166666Y-47845295D02*
X26166666Y-47940533D01*
X26166666Y-47940533D02*
X26119047Y-48083390D01*
X26119047Y-48083390D02*
X25547619Y-48654819D01*
X25547619Y-48654819D02*
X26166666Y-48654819D01*
X40166666Y-47654819D02*
X40166666Y-48369104D01*
X40166666Y-48369104D02*
X40119047Y-48511961D01*
X40119047Y-48511961D02*
X40023809Y-48607200D01*
X40023809Y-48607200D02*
X39880952Y-48654819D01*
X39880952Y-48654819D02*
X39785714Y-48654819D01*
X40547619Y-47654819D02*
X41166666Y-47654819D01*
X41166666Y-47654819D02*
X40833333Y-48035771D01*
X40833333Y-48035771D02*
X40976190Y-48035771D01*
X40976190Y-48035771D02*
X41071428Y-48083390D01*
X41071428Y-48083390D02*
X41119047Y-48131009D01*
X41119047Y-48131009D02*
X41166666Y-48226247D01*
X41166666Y-48226247D02*
X41166666Y-48464342D01*
X41166666Y-48464342D02*
X41119047Y-48559580D01*
X41119047Y-48559580D02*
X41071428Y-48607200D01*
X41071428Y-48607200D02*
X40976190Y-48654819D01*
X40976190Y-48654819D02*
X40690476Y-48654819D01*
X40690476Y-48654819D02*
X40595238Y-48607200D01*
X40595238Y-48607200D02*
X40547619Y-48559580D01*
X52166666Y-47654819D02*
X52166666Y-48369104D01*
X52166666Y-48369104D02*
X52119047Y-48511961D01*
X52119047Y-48511961D02*
X52023809Y-48607200D01*
X52023809Y-48607200D02*
X51880952Y-48654819D01*
X51880952Y-48654819D02*
X51785714Y-48654819D01*
X53071428Y-47988152D02*
X53071428Y-48654819D01*
X52833333Y-47607200D02*
X52595238Y-48321485D01*
X52595238Y-48321485D02*
X53214285Y-48321485D01*
X69666666Y-47654819D02*
X69666666Y-48369104D01*
X69666666Y-48369104D02*
X69619047Y-48511961D01*
X69619047Y-48511961D02*
X69523809Y-48607200D01*
X69523809Y-48607200D02*
X69380952Y-48654819D01*
X69380952Y-48654819D02*
X69285714Y-48654819D01*
X70619047Y-47654819D02*
X70142857Y-47654819D01*
X70142857Y-47654819D02*
X70095238Y-48131009D01*
X70095238Y-48131009D02*
X70142857Y-48083390D01*
X70142857Y-48083390D02*
X70238095Y-48035771D01*
X70238095Y-48035771D02*
X70476190Y-48035771D01*
X70476190Y-48035771D02*
X70571428Y-48083390D01*
X70571428Y-48083390D02*
X70619047Y-48131009D01*
X70619047Y-48131009D02*
X70666666Y-48226247D01*
X70666666Y-48226247D02*
X70666666Y-48464342D01*
X70666666Y-48464342D02*
X70619047Y-48559580D01*
X70619047Y-48559580D02*
X70571428Y-48607200D01*
X70571428Y-48607200D02*
X70476190Y-48654819D01*
X70476190Y-48654819D02*
X70238095Y-48654819D01*
X70238095Y-48654819D02*
X70142857Y-48607200D01*
X70142857Y-48607200D02*
X70095238Y-48559580D01*
X32238095Y-13624819D02*
X32238095Y-14339104D01*
X32238095Y-14339104D02*
X32190476Y-14481961D01*
X32190476Y-14481961D02*
X32095238Y-14577200D01*
X32095238Y-14577200D02*
X31952381Y-14624819D01*
X31952381Y-14624819D02*
X31857143Y-14624819D01*
X32857143Y-14053390D02*
X32761905Y-14005771D01*
X32761905Y-14005771D02*
X32714286Y-13958152D01*
X32714286Y-13958152D02*
X32666667Y-13862914D01*
X32666667Y-13862914D02*
X32666667Y-13815295D01*
X32666667Y-13815295D02*
X32714286Y-13720057D01*
X32714286Y-13720057D02*
X32761905Y-13672438D01*
X32761905Y-13672438D02*
X32857143Y-13624819D01*
X32857143Y-13624819D02*
X33047619Y-13624819D01*
X33047619Y-13624819D02*
X33142857Y-13672438D01*
X33142857Y-13672438D02*
X33190476Y-13720057D01*
X33190476Y-13720057D02*
X33238095Y-13815295D01*
X33238095Y-13815295D02*
X33238095Y-13862914D01*
X33238095Y-13862914D02*
X33190476Y-13958152D01*
X33190476Y-13958152D02*
X33142857Y-14005771D01*
X33142857Y-14005771D02*
X33047619Y-14053390D01*
X33047619Y-14053390D02*
X32857143Y-14053390D01*
X32857143Y-14053390D02*
X32761905Y-14101009D01*
X32761905Y-14101009D02*
X32714286Y-14148628D01*
X32714286Y-14148628D02*
X32666667Y-14243866D01*
X32666667Y-14243866D02*
X32666667Y-14434342D01*
X32666667Y-14434342D02*
X32714286Y-14529580D01*
X32714286Y-14529580D02*
X32761905Y-14577200D01*
X32761905Y-14577200D02*
X32857143Y-14624819D01*
X32857143Y-14624819D02*
X33047619Y-14624819D01*
X33047619Y-14624819D02*
X33142857Y-14577200D01*
X33142857Y-14577200D02*
X33190476Y-14529580D01*
X33190476Y-14529580D02*
X33238095Y-14434342D01*
X33238095Y-14434342D02*
X33238095Y-14243866D01*
X33238095Y-14243866D02*
X33190476Y-14148628D01*
X33190476Y-14148628D02*
X33142857Y-14101009D01*
X33142857Y-14101009D02*
X33047619Y-14053390D01*
X33619048Y-14339104D02*
X34095238Y-14339104D01*
X33523810Y-14624819D02*
X33857143Y-13624819D01*
X33857143Y-13624819D02*
X34190476Y-14624819D01*
X32166666Y-41284819D02*
X32166666Y-41999104D01*
X32166666Y-41999104D02*
X32119047Y-42141961D01*
X32119047Y-42141961D02*
X32023809Y-42237200D01*
X32023809Y-42237200D02*
X31880952Y-42284819D01*
X31880952Y-42284819D02*
X31785714Y-42284819D01*
X32785714Y-41713390D02*
X32690476Y-41665771D01*
X32690476Y-41665771D02*
X32642857Y-41618152D01*
X32642857Y-41618152D02*
X32595238Y-41522914D01*
X32595238Y-41522914D02*
X32595238Y-41475295D01*
X32595238Y-41475295D02*
X32642857Y-41380057D01*
X32642857Y-41380057D02*
X32690476Y-41332438D01*
X32690476Y-41332438D02*
X32785714Y-41284819D01*
X32785714Y-41284819D02*
X32976190Y-41284819D01*
X32976190Y-41284819D02*
X33071428Y-41332438D01*
X33071428Y-41332438D02*
X33119047Y-41380057D01*
X33119047Y-41380057D02*
X33166666Y-41475295D01*
X33166666Y-41475295D02*
X33166666Y-41522914D01*
X33166666Y-41522914D02*
X33119047Y-41618152D01*
X33119047Y-41618152D02*
X33071428Y-41665771D01*
X33071428Y-41665771D02*
X32976190Y-41713390D01*
X32976190Y-41713390D02*
X32785714Y-41713390D01*
X32785714Y-41713390D02*
X32690476Y-41761009D01*
X32690476Y-41761009D02*
X32642857Y-41808628D01*
X32642857Y-41808628D02*
X32595238Y-41903866D01*
X32595238Y-41903866D02*
X32595238Y-42094342D01*
X32595238Y-42094342D02*
X32642857Y-42189580D01*
X32642857Y-42189580D02*
X32690476Y-42237200D01*
X32690476Y-42237200D02*
X32785714Y-42284819D01*
X32785714Y-42284819D02*
X32976190Y-42284819D01*
X32976190Y-42284819D02*
X33071428Y-42237200D01*
X33071428Y-42237200D02*
X33119047Y-42189580D01*
X33119047Y-42189580D02*
X33166666Y-42094342D01*
X33166666Y-42094342D02*
X33166666Y-41903866D01*
X33166666Y-41903866D02*
X33119047Y-41808628D01*
X33119047Y-41808628D02*
X33071428Y-41761009D01*
X33071428Y-41761009D02*
X32976190Y-41713390D01*
X33928571Y-41761009D02*
X34071428Y-41808628D01*
X34071428Y-41808628D02*
X34119047Y-41856247D01*
X34119047Y-41856247D02*
X34166666Y-41951485D01*
X34166666Y-41951485D02*
X34166666Y-42094342D01*
X34166666Y-42094342D02*
X34119047Y-42189580D01*
X34119047Y-42189580D02*
X34071428Y-42237200D01*
X34071428Y-42237200D02*
X33976190Y-42284819D01*
X33976190Y-42284819D02*
X33595238Y-42284819D01*
X33595238Y-42284819D02*
X33595238Y-41284819D01*
X33595238Y-41284819D02*
X33928571Y-41284819D01*
X33928571Y-41284819D02*
X34023809Y-41332438D01*
X34023809Y-41332438D02*
X34071428Y-41380057D01*
X34071428Y-41380057D02*
X34119047Y-41475295D01*
X34119047Y-41475295D02*
X34119047Y-41570533D01*
X34119047Y-41570533D02*
X34071428Y-41665771D01*
X34071428Y-41665771D02*
X34023809Y-41713390D01*
X34023809Y-41713390D02*
X33928571Y-41761009D01*
X33928571Y-41761009D02*
X33595238Y-41761009D01*
X11190476Y-7754819D02*
X11190476Y-8469104D01*
X11190476Y-8469104D02*
X11142857Y-8611961D01*
X11142857Y-8611961D02*
X11047619Y-8707200D01*
X11047619Y-8707200D02*
X10904762Y-8754819D01*
X10904762Y-8754819D02*
X10809524Y-8754819D01*
X12190476Y-8754819D02*
X11619048Y-8754819D01*
X11904762Y-8754819D02*
X11904762Y-7754819D01*
X11904762Y-7754819D02*
X11809524Y-7897676D01*
X11809524Y-7897676D02*
X11714286Y-7992914D01*
X11714286Y-7992914D02*
X11619048Y-8040533D01*
X12523810Y-7754819D02*
X13142857Y-7754819D01*
X13142857Y-7754819D02*
X12809524Y-8135771D01*
X12809524Y-8135771D02*
X12952381Y-8135771D01*
X12952381Y-8135771D02*
X13047619Y-8183390D01*
X13047619Y-8183390D02*
X13095238Y-8231009D01*
X13095238Y-8231009D02*
X13142857Y-8326247D01*
X13142857Y-8326247D02*
X13142857Y-8564342D01*
X13142857Y-8564342D02*
X13095238Y-8659580D01*
X13095238Y-8659580D02*
X13047619Y-8707200D01*
X13047619Y-8707200D02*
X12952381Y-8754819D01*
X12952381Y-8754819D02*
X12666667Y-8754819D01*
X12666667Y-8754819D02*
X12571429Y-8707200D01*
X12571429Y-8707200D02*
X12523810Y-8659580D01*
X27190476Y-7754819D02*
X27190476Y-8469104D01*
X27190476Y-8469104D02*
X27142857Y-8611961D01*
X27142857Y-8611961D02*
X27047619Y-8707200D01*
X27047619Y-8707200D02*
X26904762Y-8754819D01*
X26904762Y-8754819D02*
X26809524Y-8754819D01*
X28190476Y-8754819D02*
X27619048Y-8754819D01*
X27904762Y-8754819D02*
X27904762Y-7754819D01*
X27904762Y-7754819D02*
X27809524Y-7897676D01*
X27809524Y-7897676D02*
X27714286Y-7992914D01*
X27714286Y-7992914D02*
X27619048Y-8040533D01*
X29047619Y-8088152D02*
X29047619Y-8754819D01*
X28809524Y-7707200D02*
X28571429Y-8421485D01*
X28571429Y-8421485D02*
X29190476Y-8421485D01*
X43666666Y-7754819D02*
X43666666Y-8469104D01*
X43666666Y-8469104D02*
X43619047Y-8611961D01*
X43619047Y-8611961D02*
X43523809Y-8707200D01*
X43523809Y-8707200D02*
X43380952Y-8754819D01*
X43380952Y-8754819D02*
X43285714Y-8754819D01*
X44190476Y-8754819D02*
X44380952Y-8754819D01*
X44380952Y-8754819D02*
X44476190Y-8707200D01*
X44476190Y-8707200D02*
X44523809Y-8659580D01*
X44523809Y-8659580D02*
X44619047Y-8516723D01*
X44619047Y-8516723D02*
X44666666Y-8326247D01*
X44666666Y-8326247D02*
X44666666Y-7945295D01*
X44666666Y-7945295D02*
X44619047Y-7850057D01*
X44619047Y-7850057D02*
X44571428Y-7802438D01*
X44571428Y-7802438D02*
X44476190Y-7754819D01*
X44476190Y-7754819D02*
X44285714Y-7754819D01*
X44285714Y-7754819D02*
X44190476Y-7802438D01*
X44190476Y-7802438D02*
X44142857Y-7850057D01*
X44142857Y-7850057D02*
X44095238Y-7945295D01*
X44095238Y-7945295D02*
X44095238Y-8183390D01*
X44095238Y-8183390D02*
X44142857Y-8278628D01*
X44142857Y-8278628D02*
X44190476Y-8326247D01*
X44190476Y-8326247D02*
X44285714Y-8373866D01*
X44285714Y-8373866D02*
X44476190Y-8373866D01*
X44476190Y-8373866D02*
X44571428Y-8326247D01*
X44571428Y-8326247D02*
X44619047Y-8278628D01*
X44619047Y-8278628D02*
X44666666Y-8183390D01*
X11190476Y-42654819D02*
X11190476Y-43369104D01*
X11190476Y-43369104D02*
X11142857Y-43511961D01*
X11142857Y-43511961D02*
X11047619Y-43607200D01*
X11047619Y-43607200D02*
X10904762Y-43654819D01*
X10904762Y-43654819D02*
X10809524Y-43654819D01*
X12190476Y-43654819D02*
X11619048Y-43654819D01*
X11904762Y-43654819D02*
X11904762Y-42654819D01*
X11904762Y-42654819D02*
X11809524Y-42797676D01*
X11809524Y-42797676D02*
X11714286Y-42892914D01*
X11714286Y-42892914D02*
X11619048Y-42940533D01*
X12809524Y-42654819D02*
X12904762Y-42654819D01*
X12904762Y-42654819D02*
X13000000Y-42702438D01*
X13000000Y-42702438D02*
X13047619Y-42750057D01*
X13047619Y-42750057D02*
X13095238Y-42845295D01*
X13095238Y-42845295D02*
X13142857Y-43035771D01*
X13142857Y-43035771D02*
X13142857Y-43273866D01*
X13142857Y-43273866D02*
X13095238Y-43464342D01*
X13095238Y-43464342D02*
X13047619Y-43559580D01*
X13047619Y-43559580D02*
X13000000Y-43607200D01*
X13000000Y-43607200D02*
X12904762Y-43654819D01*
X12904762Y-43654819D02*
X12809524Y-43654819D01*
X12809524Y-43654819D02*
X12714286Y-43607200D01*
X12714286Y-43607200D02*
X12666667Y-43559580D01*
X12666667Y-43559580D02*
X12619048Y-43464342D01*
X12619048Y-43464342D02*
X12571429Y-43273866D01*
X12571429Y-43273866D02*
X12571429Y-43035771D01*
X12571429Y-43035771D02*
X12619048Y-42845295D01*
X12619048Y-42845295D02*
X12666667Y-42750057D01*
X12666667Y-42750057D02*
X12714286Y-42702438D01*
X12714286Y-42702438D02*
X12809524Y-42654819D01*
X49833333Y-7654819D02*
X49500000Y-7178628D01*
X49261905Y-7654819D02*
X49261905Y-6654819D01*
X49261905Y-6654819D02*
X49642857Y-6654819D01*
X49642857Y-6654819D02*
X49738095Y-6702438D01*
X49738095Y-6702438D02*
X49785714Y-6750057D01*
X49785714Y-6750057D02*
X49833333Y-6845295D01*
X49833333Y-6845295D02*
X49833333Y-6988152D01*
X49833333Y-6988152D02*
X49785714Y-7083390D01*
X49785714Y-7083390D02*
X49738095Y-7131009D01*
X49738095Y-7131009D02*
X49642857Y-7178628D01*
X49642857Y-7178628D02*
X49261905Y-7178628D01*
X50166667Y-6654819D02*
X50785714Y-6654819D01*
X50785714Y-6654819D02*
X50452381Y-7035771D01*
X50452381Y-7035771D02*
X50595238Y-7035771D01*
X50595238Y-7035771D02*
X50690476Y-7083390D01*
X50690476Y-7083390D02*
X50738095Y-7131009D01*
X50738095Y-7131009D02*
X50785714Y-7226247D01*
X50785714Y-7226247D02*
X50785714Y-7464342D01*
X50785714Y-7464342D02*
X50738095Y-7559580D01*
X50738095Y-7559580D02*
X50690476Y-7607200D01*
X50690476Y-7607200D02*
X50595238Y-7654819D01*
X50595238Y-7654819D02*
X50309524Y-7654819D01*
X50309524Y-7654819D02*
X50214286Y-7607200D01*
X50214286Y-7607200D02*
X50166667Y-7559580D01*
X65904761Y-17750057D02*
X65809523Y-17702438D01*
X65809523Y-17702438D02*
X65714285Y-17607200D01*
X65714285Y-17607200D02*
X65571428Y-17464342D01*
X65571428Y-17464342D02*
X65476190Y-17416723D01*
X65476190Y-17416723D02*
X65380952Y-17416723D01*
X65428571Y-17654819D02*
X65333333Y-17607200D01*
X65333333Y-17607200D02*
X65238095Y-17511961D01*
X65238095Y-17511961D02*
X65190476Y-17321485D01*
X65190476Y-17321485D02*
X65190476Y-16988152D01*
X65190476Y-16988152D02*
X65238095Y-16797676D01*
X65238095Y-16797676D02*
X65333333Y-16702438D01*
X65333333Y-16702438D02*
X65428571Y-16654819D01*
X65428571Y-16654819D02*
X65619047Y-16654819D01*
X65619047Y-16654819D02*
X65714285Y-16702438D01*
X65714285Y-16702438D02*
X65809523Y-16797676D01*
X65809523Y-16797676D02*
X65857142Y-16988152D01*
X65857142Y-16988152D02*
X65857142Y-17321485D01*
X65857142Y-17321485D02*
X65809523Y-17511961D01*
X65809523Y-17511961D02*
X65714285Y-17607200D01*
X65714285Y-17607200D02*
X65619047Y-17654819D01*
X65619047Y-17654819D02*
X65428571Y-17654819D01*
X66238095Y-16750057D02*
X66285714Y-16702438D01*
X66285714Y-16702438D02*
X66380952Y-16654819D01*
X66380952Y-16654819D02*
X66619047Y-16654819D01*
X66619047Y-16654819D02*
X66714285Y-16702438D01*
X66714285Y-16702438D02*
X66761904Y-16750057D01*
X66761904Y-16750057D02*
X66809523Y-16845295D01*
X66809523Y-16845295D02*
X66809523Y-16940533D01*
X66809523Y-16940533D02*
X66761904Y-17083390D01*
X66761904Y-17083390D02*
X66190476Y-17654819D01*
X66190476Y-17654819D02*
X66809523Y-17654819D01*
D11*
X69985714Y-14287664D02*
X69947618Y-14325760D01*
X69947618Y-14325760D02*
X69833333Y-14363855D01*
X69833333Y-14363855D02*
X69757142Y-14363855D01*
X69757142Y-14363855D02*
X69642856Y-14325760D01*
X69642856Y-14325760D02*
X69566666Y-14249569D01*
X69566666Y-14249569D02*
X69528571Y-14173379D01*
X69528571Y-14173379D02*
X69490475Y-14020998D01*
X69490475Y-14020998D02*
X69490475Y-13906712D01*
X69490475Y-13906712D02*
X69528571Y-13754331D01*
X69528571Y-13754331D02*
X69566666Y-13678140D01*
X69566666Y-13678140D02*
X69642856Y-13601950D01*
X69642856Y-13601950D02*
X69757142Y-13563855D01*
X69757142Y-13563855D02*
X69833333Y-13563855D01*
X69833333Y-13563855D02*
X69947618Y-13601950D01*
X69947618Y-13601950D02*
X69985714Y-13640045D01*
X70595237Y-13944807D02*
X70709523Y-13982902D01*
X70709523Y-13982902D02*
X70747618Y-14020998D01*
X70747618Y-14020998D02*
X70785714Y-14097188D01*
X70785714Y-14097188D02*
X70785714Y-14211474D01*
X70785714Y-14211474D02*
X70747618Y-14287664D01*
X70747618Y-14287664D02*
X70709523Y-14325760D01*
X70709523Y-14325760D02*
X70633333Y-14363855D01*
X70633333Y-14363855D02*
X70328571Y-14363855D01*
X70328571Y-14363855D02*
X70328571Y-13563855D01*
X70328571Y-13563855D02*
X70595237Y-13563855D01*
X70595237Y-13563855D02*
X70671428Y-13601950D01*
X70671428Y-13601950D02*
X70709523Y-13640045D01*
X70709523Y-13640045D02*
X70747618Y-13716236D01*
X70747618Y-13716236D02*
X70747618Y-13792426D01*
X70747618Y-13792426D02*
X70709523Y-13868617D01*
X70709523Y-13868617D02*
X70671428Y-13906712D01*
X70671428Y-13906712D02*
X70595237Y-13944807D01*
X70595237Y-13944807D02*
X70328571Y-13944807D01*
X71128571Y-13944807D02*
X71395237Y-13944807D01*
X71509523Y-14363855D02*
X71128571Y-14363855D01*
X71128571Y-14363855D02*
X71128571Y-13563855D01*
X71128571Y-13563855D02*
X71509523Y-13563855D01*
D10*
X67833333Y-18254819D02*
X67500000Y-17778628D01*
X67261905Y-18254819D02*
X67261905Y-17254819D01*
X67261905Y-17254819D02*
X67642857Y-17254819D01*
X67642857Y-17254819D02*
X67738095Y-17302438D01*
X67738095Y-17302438D02*
X67785714Y-17350057D01*
X67785714Y-17350057D02*
X67833333Y-17445295D01*
X67833333Y-17445295D02*
X67833333Y-17588152D01*
X67833333Y-17588152D02*
X67785714Y-17683390D01*
X67785714Y-17683390D02*
X67738095Y-17731009D01*
X67738095Y-17731009D02*
X67642857Y-17778628D01*
X67642857Y-17778628D02*
X67261905Y-17778628D01*
X68214286Y-17350057D02*
X68261905Y-17302438D01*
X68261905Y-17302438D02*
X68357143Y-17254819D01*
X68357143Y-17254819D02*
X68595238Y-17254819D01*
X68595238Y-17254819D02*
X68690476Y-17302438D01*
X68690476Y-17302438D02*
X68738095Y-17350057D01*
X68738095Y-17350057D02*
X68785714Y-17445295D01*
X68785714Y-17445295D02*
X68785714Y-17540533D01*
X68785714Y-17540533D02*
X68738095Y-17683390D01*
X68738095Y-17683390D02*
X68166667Y-18254819D01*
X68166667Y-18254819D02*
X68785714Y-18254819D01*
X66833333Y-30254819D02*
X66500000Y-29778628D01*
X66261905Y-30254819D02*
X66261905Y-29254819D01*
X66261905Y-29254819D02*
X66642857Y-29254819D01*
X66642857Y-29254819D02*
X66738095Y-29302438D01*
X66738095Y-29302438D02*
X66785714Y-29350057D01*
X66785714Y-29350057D02*
X66833333Y-29445295D01*
X66833333Y-29445295D02*
X66833333Y-29588152D01*
X66833333Y-29588152D02*
X66785714Y-29683390D01*
X66785714Y-29683390D02*
X66738095Y-29731009D01*
X66738095Y-29731009D02*
X66642857Y-29778628D01*
X66642857Y-29778628D02*
X66261905Y-29778628D01*
X67785714Y-30254819D02*
X67214286Y-30254819D01*
X67500000Y-30254819D02*
X67500000Y-29254819D01*
X67500000Y-29254819D02*
X67404762Y-29397676D01*
X67404762Y-29397676D02*
X67309524Y-29492914D01*
X67309524Y-29492914D02*
X67214286Y-29540533D01*
X75904761Y-35750057D02*
X75809523Y-35702438D01*
X75809523Y-35702438D02*
X75714285Y-35607200D01*
X75714285Y-35607200D02*
X75571428Y-35464342D01*
X75571428Y-35464342D02*
X75476190Y-35416723D01*
X75476190Y-35416723D02*
X75380952Y-35416723D01*
X75428571Y-35654819D02*
X75333333Y-35607200D01*
X75333333Y-35607200D02*
X75238095Y-35511961D01*
X75238095Y-35511961D02*
X75190476Y-35321485D01*
X75190476Y-35321485D02*
X75190476Y-34988152D01*
X75190476Y-34988152D02*
X75238095Y-34797676D01*
X75238095Y-34797676D02*
X75333333Y-34702438D01*
X75333333Y-34702438D02*
X75428571Y-34654819D01*
X75428571Y-34654819D02*
X75619047Y-34654819D01*
X75619047Y-34654819D02*
X75714285Y-34702438D01*
X75714285Y-34702438D02*
X75809523Y-34797676D01*
X75809523Y-34797676D02*
X75857142Y-34988152D01*
X75857142Y-34988152D02*
X75857142Y-35321485D01*
X75857142Y-35321485D02*
X75809523Y-35511961D01*
X75809523Y-35511961D02*
X75714285Y-35607200D01*
X75714285Y-35607200D02*
X75619047Y-35654819D01*
X75619047Y-35654819D02*
X75428571Y-35654819D01*
X76809523Y-35654819D02*
X76238095Y-35654819D01*
X76523809Y-35654819D02*
X76523809Y-34654819D01*
X76523809Y-34654819D02*
X76428571Y-34797676D01*
X76428571Y-34797676D02*
X76333333Y-34892914D01*
X76333333Y-34892914D02*
X76238095Y-34940533D01*
D11*
X79985714Y-32287664D02*
X79947618Y-32325760D01*
X79947618Y-32325760D02*
X79833333Y-32363855D01*
X79833333Y-32363855D02*
X79757142Y-32363855D01*
X79757142Y-32363855D02*
X79642856Y-32325760D01*
X79642856Y-32325760D02*
X79566666Y-32249569D01*
X79566666Y-32249569D02*
X79528571Y-32173379D01*
X79528571Y-32173379D02*
X79490475Y-32020998D01*
X79490475Y-32020998D02*
X79490475Y-31906712D01*
X79490475Y-31906712D02*
X79528571Y-31754331D01*
X79528571Y-31754331D02*
X79566666Y-31678140D01*
X79566666Y-31678140D02*
X79642856Y-31601950D01*
X79642856Y-31601950D02*
X79757142Y-31563855D01*
X79757142Y-31563855D02*
X79833333Y-31563855D01*
X79833333Y-31563855D02*
X79947618Y-31601950D01*
X79947618Y-31601950D02*
X79985714Y-31640045D01*
X80595237Y-31944807D02*
X80709523Y-31982902D01*
X80709523Y-31982902D02*
X80747618Y-32020998D01*
X80747618Y-32020998D02*
X80785714Y-32097188D01*
X80785714Y-32097188D02*
X80785714Y-32211474D01*
X80785714Y-32211474D02*
X80747618Y-32287664D01*
X80747618Y-32287664D02*
X80709523Y-32325760D01*
X80709523Y-32325760D02*
X80633333Y-32363855D01*
X80633333Y-32363855D02*
X80328571Y-32363855D01*
X80328571Y-32363855D02*
X80328571Y-31563855D01*
X80328571Y-31563855D02*
X80595237Y-31563855D01*
X80595237Y-31563855D02*
X80671428Y-31601950D01*
X80671428Y-31601950D02*
X80709523Y-31640045D01*
X80709523Y-31640045D02*
X80747618Y-31716236D01*
X80747618Y-31716236D02*
X80747618Y-31792426D01*
X80747618Y-31792426D02*
X80709523Y-31868617D01*
X80709523Y-31868617D02*
X80671428Y-31906712D01*
X80671428Y-31906712D02*
X80595237Y-31944807D01*
X80595237Y-31944807D02*
X80328571Y-31944807D01*
X81128571Y-31944807D02*
X81395237Y-31944807D01*
X81509523Y-32363855D02*
X81128571Y-32363855D01*
X81128571Y-32363855D02*
X81128571Y-31563855D01*
X81128571Y-31563855D02*
X81509523Y-31563855D01*
D10*
X83190476Y-14254819D02*
X83190476Y-14969104D01*
X83190476Y-14969104D02*
X83142857Y-15111961D01*
X83142857Y-15111961D02*
X83047619Y-15207200D01*
X83047619Y-15207200D02*
X82904762Y-15254819D01*
X82904762Y-15254819D02*
X82809524Y-15254819D01*
X84190476Y-15254819D02*
X83619048Y-15254819D01*
X83904762Y-15254819D02*
X83904762Y-14254819D01*
X83904762Y-14254819D02*
X83809524Y-14397676D01*
X83809524Y-14397676D02*
X83714286Y-14492914D01*
X83714286Y-14492914D02*
X83619048Y-14540533D01*
X84571429Y-14350057D02*
X84619048Y-14302438D01*
X84619048Y-14302438D02*
X84714286Y-14254819D01*
X84714286Y-14254819D02*
X84952381Y-14254819D01*
X84952381Y-14254819D02*
X85047619Y-14302438D01*
X85047619Y-14302438D02*
X85095238Y-14350057D01*
X85095238Y-14350057D02*
X85142857Y-14445295D01*
X85142857Y-14445295D02*
X85142857Y-14540533D01*
X85142857Y-14540533D02*
X85095238Y-14683390D01*
X85095238Y-14683390D02*
X84523810Y-15254819D01*
X84523810Y-15254819D02*
X85142857Y-15254819D01*
X78333333Y-24359580D02*
X78285714Y-24407200D01*
X78285714Y-24407200D02*
X78142857Y-24454819D01*
X78142857Y-24454819D02*
X78047619Y-24454819D01*
X78047619Y-24454819D02*
X77904762Y-24407200D01*
X77904762Y-24407200D02*
X77809524Y-24311961D01*
X77809524Y-24311961D02*
X77761905Y-24216723D01*
X77761905Y-24216723D02*
X77714286Y-24026247D01*
X77714286Y-24026247D02*
X77714286Y-23883390D01*
X77714286Y-23883390D02*
X77761905Y-23692914D01*
X77761905Y-23692914D02*
X77809524Y-23597676D01*
X77809524Y-23597676D02*
X77904762Y-23502438D01*
X77904762Y-23502438D02*
X78047619Y-23454819D01*
X78047619Y-23454819D02*
X78142857Y-23454819D01*
X78142857Y-23454819D02*
X78285714Y-23502438D01*
X78285714Y-23502438D02*
X78333333Y-23550057D01*
X79285714Y-24454819D02*
X78714286Y-24454819D01*
X79000000Y-24454819D02*
X79000000Y-23454819D01*
X79000000Y-23454819D02*
X78904762Y-23597676D01*
X78904762Y-23597676D02*
X78809524Y-23692914D01*
X78809524Y-23692914D02*
X78714286Y-23740533D01*
X83666666Y-44254819D02*
X83666666Y-44969104D01*
X83666666Y-44969104D02*
X83619047Y-45111961D01*
X83619047Y-45111961D02*
X83523809Y-45207200D01*
X83523809Y-45207200D02*
X83380952Y-45254819D01*
X83380952Y-45254819D02*
X83285714Y-45254819D01*
X84666666Y-45254819D02*
X84095238Y-45254819D01*
X84380952Y-45254819D02*
X84380952Y-44254819D01*
X84380952Y-44254819D02*
X84285714Y-44397676D01*
X84285714Y-44397676D02*
X84190476Y-44492914D01*
X84190476Y-44492914D02*
X84095238Y-44540533D01*
X71833333Y-38559580D02*
X71785714Y-38607200D01*
X71785714Y-38607200D02*
X71642857Y-38654819D01*
X71642857Y-38654819D02*
X71547619Y-38654819D01*
X71547619Y-38654819D02*
X71404762Y-38607200D01*
X71404762Y-38607200D02*
X71309524Y-38511961D01*
X71309524Y-38511961D02*
X71261905Y-38416723D01*
X71261905Y-38416723D02*
X71214286Y-38226247D01*
X71214286Y-38226247D02*
X71214286Y-38083390D01*
X71214286Y-38083390D02*
X71261905Y-37892914D01*
X71261905Y-37892914D02*
X71309524Y-37797676D01*
X71309524Y-37797676D02*
X71404762Y-37702438D01*
X71404762Y-37702438D02*
X71547619Y-37654819D01*
X71547619Y-37654819D02*
X71642857Y-37654819D01*
X71642857Y-37654819D02*
X71785714Y-37702438D01*
X71785714Y-37702438D02*
X71833333Y-37750057D01*
X72214286Y-37750057D02*
X72261905Y-37702438D01*
X72261905Y-37702438D02*
X72357143Y-37654819D01*
X72357143Y-37654819D02*
X72595238Y-37654819D01*
X72595238Y-37654819D02*
X72690476Y-37702438D01*
X72690476Y-37702438D02*
X72738095Y-37750057D01*
X72738095Y-37750057D02*
X72785714Y-37845295D01*
X72785714Y-37845295D02*
X72785714Y-37940533D01*
X72785714Y-37940533D02*
X72738095Y-38083390D01*
X72738095Y-38083390D02*
X72166667Y-38654819D01*
X72166667Y-38654819D02*
X72785714Y-38654819D01*
%TO.C,J2*%
D11*
X18000000Y-49500000D02*
X33000000Y-49500000D01*
X33000000Y-49500000D02*
X33000000Y-56500000D01*
X33000000Y-56500000D02*
X18000000Y-56500000D01*
X18000000Y-56500000D02*
X18000000Y-49500000D01*
%TO.C,J3*%
X36000000Y-49500000D02*
X45000000Y-49500000D01*
X45000000Y-49500000D02*
X45000000Y-56500000D01*
X45000000Y-56500000D02*
X36000000Y-56500000D01*
X36000000Y-56500000D02*
X36000000Y-49500000D01*
%TO.C,J4*%
X48000000Y-49500000D02*
X57000000Y-49500000D01*
X57000000Y-49500000D02*
X57000000Y-56500000D01*
X57000000Y-56500000D02*
X48000000Y-56500000D01*
X48000000Y-56500000D02*
X48000000Y-49500000D01*
%TO.C,J5*%
X60000000Y-49500000D02*
X80000000Y-49500000D01*
X80000000Y-49500000D02*
X80000000Y-56500000D01*
X80000000Y-56500000D02*
X60000000Y-56500000D01*
X60000000Y-56500000D02*
X60000000Y-49500000D01*
%TO.C,J8A*%
X5000000Y-14970000D02*
X61000000Y-14970000D01*
X61000000Y-14970000D02*
X61000000Y-18170000D01*
X61000000Y-18170000D02*
X5000000Y-18170000D01*
X5000000Y-18170000D02*
X5000000Y-14970000D01*
X4500000Y-14970000D02*
X4500000Y-18170000D01*
%TO.C,J8B*%
X5000000Y-37830000D02*
X61000000Y-37830000D01*
X61000000Y-37830000D02*
X61000000Y-41030000D01*
X61000000Y-41030000D02*
X5000000Y-41030000D01*
X5000000Y-41030000D02*
X5000000Y-37830000D01*
%TO.C,J13*%
X6500000Y-3900000D02*
X17500000Y-3900000D01*
X17500000Y-3900000D02*
X17500000Y-7100000D01*
X17500000Y-7100000D02*
X6500000Y-7100000D01*
X6500000Y-7100000D02*
X6500000Y-3900000D01*
%TO.C,J14*%
X22500000Y-3900000D02*
X33500000Y-3900000D01*
X33500000Y-3900000D02*
X33500000Y-7100000D01*
X33500000Y-7100000D02*
X22500000Y-7100000D01*
X22500000Y-7100000D02*
X22500000Y-3900000D01*
%TO.C,J9*%
X39500000Y-3900000D02*
X48500000Y-3900000D01*
X48500000Y-3900000D02*
X48500000Y-7100000D01*
X48500000Y-7100000D02*
X39500000Y-7100000D01*
X39500000Y-7100000D02*
X39500000Y-3900000D01*
%TO.C,J10*%
X7500000Y-44400000D02*
X16500000Y-44400000D01*
X16500000Y-44400000D02*
X16500000Y-47600000D01*
X16500000Y-47600000D02*
X7500000Y-47600000D01*
X7500000Y-47600000D02*
X7500000Y-44400000D01*
%TO.C,Q2*%
X63200000Y-15600000D02*
X68800000Y-15600000D01*
%TO.C,Q1*%
X73200000Y-33600000D02*
X78800000Y-33600000D01*
%TO.C,J12*%
X80750000Y-10400000D02*
X87250000Y-10400000D01*
X87250000Y-10400000D02*
X87250000Y-13600000D01*
X87250000Y-13600000D02*
X80750000Y-13600000D01*
X80750000Y-13600000D02*
X80750000Y-10400000D01*
%TO.C,C1*%
X88000000Y-24000000D02*
G75*
G02*
X80000000Y-24000000I-4000000J0D01*
G01*
X80000000Y-24000000D02*
G75*
G02*
X88000000Y-24000000I4000000J0D01*
G01*
X82500000Y-18500000D02*
X85500000Y-18500000D01*
%TO.C,J1*%
X80250000Y-37000000D02*
X87750000Y-37000000D01*
X87750000Y-37000000D02*
X87750000Y-43000000D01*
X87750000Y-43000000D02*
X80250000Y-43000000D01*
X80250000Y-43000000D02*
X80250000Y-37000000D01*
X82000000Y-37000000D02*
X82000000Y-38500000D01*
%TD*%
M02*
