%TF.GenerationSoftware,KiCad,Pcbnew,10.0.5*%
%TF.CreationDate,2026-08-06T19:36:51-03:00*%
%TF.ProjectId,carrier-v0,63617272-6965-4722-9d76-302e6b696361,rev?*%
%TF.SameCoordinates,Original*%
%TF.FileFunction,Copper,L1,Top*%
%TF.FilePolarity,Positive*%
%FSLAX46Y46*%
G04 Gerber Fmt 4.6, Leading zero omitted, Abs format (unit mm)*
G04 Created by KiCad (PCBNEW 10.0.5) date 2026-08-06 19:36:51*
%MOMM*%
%LPD*%
G01*
G04 APERTURE LIST*
G04 Aperture macros list*
%AMRoundRect*
0 Rectangle with rounded corners*
0 $1 Rounding radius*
0 $2 $3 $4 $5 $6 $7 $8 $9 X,Y pos of 4 corners*
0 Add a 4 corners polygon primitive as box body*
4,1,4,$2,$3,$4,$5,$6,$7,$8,$9,$2,$3,0*
0 Add four circle primitives for the rounded corners*
1,1,$1+$1,$2,$3*
1,1,$1+$1,$4,$5*
1,1,$1+$1,$6,$7*
1,1,$1+$1,$8,$9*
0 Add four rect primitives between the rounded corners*
20,1,$1+$1,$2,$3,$4,$5,0*
20,1,$1+$1,$4,$5,$6,$7,0*
20,1,$1+$1,$6,$7,$8,$9,0*
20,1,$1+$1,$8,$9,$2,$3,0*%
G04 Aperture macros list end*
%TA.AperFunction,ComponentPad*%
%ADD10R,2.800000X2.800000*%
%TD*%
%TA.AperFunction,ComponentPad*%
%ADD11C,1.700000*%
%TD*%
%TA.AperFunction,SMDPad,CuDef*%
%ADD12RoundRect,0.250000X-0.250000X-0.375000X0.250000X-0.375000X0.250000X0.375000X-0.250000X0.375000X0*%
%TD*%
%TA.AperFunction,ComponentPad*%
%ADD13C,1.600000*%
%TD*%
%TA.AperFunction,ComponentPad*%
%ADD14C,2.200000*%
%TD*%
%TA.AperFunction,ComponentPad*%
%ADD15C,1.800000*%
%TD*%
%TA.AperFunction,ComponentPad*%
%ADD16C,4.500000*%
%TD*%
%TA.AperFunction,ViaPad*%
%ADD17C,0.800000*%
%TD*%
%TA.AperFunction,Conductor*%
%ADD18C,0.350000*%
%TD*%
%TA.AperFunction,Conductor*%
%ADD19C,0.300000*%
%TD*%
%TA.AperFunction,Conductor*%
%ADD20C,0.500000*%
%TD*%
%TA.AperFunction,Conductor*%
%ADD21C,0.400000*%
%TD*%
G04 APERTURE END LIST*
D10*
%TO.P,J2,1*%
%TO.N,LOCK_COM*%
X20420000Y-53000000D03*
%TO.P,J2,2*%
%TO.N,LOCK_NO*%
X25500000Y-53000000D03*
%TO.P,J2,3*%
%TO.N,LOCK_NC*%
X30580000Y-53000000D03*
%TD*%
%TO.P,J3,1*%
%TO.N,GPIO11*%
X37960000Y-53000000D03*
%TO.P,J3,2*%
%TO.N,GND*%
X43040000Y-53000000D03*
%TD*%
%TO.P,J4,1*%
%TO.N,GPIO12*%
X49960000Y-53000000D03*
%TO.P,J4,2*%
%TO.N,GND*%
X55040000Y-53000000D03*
%TD*%
%TO.P,J5,1*%
%TO.N,P5V*%
X62380000Y-53000000D03*
%TO.P,J5,2*%
%TO.N,GND*%
X67460000Y-53000000D03*
%TO.P,J5,3*%
%TO.N,GPIO17*%
X72540000Y-53000000D03*
%TO.P,J5,4*%
%TO.N,GPIO18*%
X77620000Y-53000000D03*
%TD*%
D11*
%TO.P,J8A,1*%
%TO.N,P3V3*%
X6330000Y-16570000D03*
%TO.P,J8A,2*%
%TO.N,N/C*%
X8870000Y-16570000D03*
%TO.P,J8A,3*%
X11410000Y-16570000D03*
%TO.P,J8A,4*%
%TO.N,GPIO4*%
X13950000Y-16570000D03*
%TO.P,J8A,5*%
%TO.N,GPIO5*%
X16490000Y-16570000D03*
%TO.P,J8A,6*%
%TO.N,GPIO6*%
X19030000Y-16570000D03*
%TO.P,J8A,7*%
%TO.N,GPIO7*%
X21570000Y-16570000D03*
%TO.P,J8A,8*%
%TO.N,N/C*%
X24110000Y-16570000D03*
%TO.P,J8A,9*%
X26650000Y-16570000D03*
%TO.P,J8A,10*%
%TO.N,GPIO17*%
X29190000Y-16570000D03*
%TO.P,J8A,11*%
%TO.N,GPIO18*%
X31730000Y-16570000D03*
%TO.P,J8A,12*%
%TO.N,GPIO8*%
X34270000Y-16570000D03*
%TO.P,J8A,13*%
%TO.N,N/C*%
X36810000Y-16570000D03*
%TO.P,J8A,14*%
X39350000Y-16570000D03*
%TO.P,J8A,15*%
%TO.N,GPIO9*%
X41890000Y-16570000D03*
%TO.P,J8A,16*%
%TO.N,GPIO10*%
X44430000Y-16570000D03*
%TO.P,J8A,17*%
%TO.N,GPIO11*%
X46970000Y-16570000D03*
%TO.P,J8A,18*%
%TO.N,GPIO12*%
X49510000Y-16570000D03*
%TO.P,J8A,19*%
%TO.N,N/C*%
X52050000Y-16570000D03*
%TO.P,J8A,20*%
X54590000Y-16570000D03*
%TO.P,J8A,21*%
%TO.N,P5V*%
X57130000Y-16570000D03*
%TO.P,J8A,22*%
%TO.N,GND*%
X59670000Y-16570000D03*
%TD*%
%TO.P,J8B,1*%
%TO.N,N/C*%
X6330000Y-39430000D03*
%TO.P,J8B,2*%
X8870000Y-39430000D03*
%TO.P,J8B,3*%
X11410000Y-39430000D03*
%TO.P,J8B,4*%
X13950000Y-39430000D03*
%TO.P,J8B,5*%
X16490000Y-39430000D03*
%TO.P,J8B,6*%
X19030000Y-39430000D03*
%TO.P,J8B,7*%
X21570000Y-39430000D03*
%TO.P,J8B,8*%
X24110000Y-39430000D03*
%TO.P,J8B,9*%
X26650000Y-39430000D03*
%TO.P,J8B,10*%
X29190000Y-39430000D03*
%TO.P,J8B,11*%
X31730000Y-39430000D03*
%TO.P,J8B,12*%
X34270000Y-39430000D03*
%TO.P,J8B,13*%
X36810000Y-39430000D03*
%TO.P,J8B,14*%
X39350000Y-39430000D03*
%TO.P,J8B,15*%
X41890000Y-39430000D03*
%TO.P,J8B,16*%
X44430000Y-39430000D03*
%TO.P,J8B,17*%
X46970000Y-39430000D03*
%TO.P,J8B,18*%
X49510000Y-39430000D03*
%TO.P,J8B,19*%
X52050000Y-39430000D03*
%TO.P,J8B,20*%
X54590000Y-39430000D03*
%TO.P,J8B,21*%
X57130000Y-39430000D03*
%TO.P,J8B,22*%
X59670000Y-39430000D03*
%TD*%
%TO.P,J13,1*%
%TO.N,GND*%
X8190000Y-5500000D03*
%TO.P,J13,2*%
%TO.N,GPIO4*%
X10730000Y-5500000D03*
%TO.P,J13,3*%
%TO.N,GPIO5*%
X13270000Y-5500000D03*
%TO.P,J13,4*%
%TO.N,GPIO6*%
X15810000Y-5500000D03*
%TD*%
%TO.P,J14,1*%
%TO.N,P3V3*%
X24190000Y-5500000D03*
%TO.P,J14,2*%
%TO.N,GND*%
X26730000Y-5500000D03*
%TO.P,J14,3*%
%TO.N,GPIO8*%
X29270000Y-5500000D03*
%TO.P,J14,4*%
%TO.N,GPIO9*%
X31810000Y-5500000D03*
%TD*%
%TO.P,J9,1*%
%TO.N,P5V*%
X41460000Y-5500000D03*
%TO.P,J9,2*%
%TO.N,GND*%
X44000000Y-5500000D03*
%TO.P,J9,3*%
%TO.N,RELAY_IN*%
X46540000Y-5500000D03*
%TD*%
%TO.P,J10,1*%
%TO.N,LOCK_COM*%
X9460000Y-46000000D03*
%TO.P,J10,2*%
%TO.N,LOCK_NO*%
X12000000Y-46000000D03*
%TO.P,J10,3*%
%TO.N,LOCK_NC*%
X14540000Y-46000000D03*
%TD*%
D12*
%TO.P,R3,1*%
%TO.N,P5V*%
X49050000Y-9000000D03*
%TO.P,R3,2*%
%TO.N,RELAY_IN*%
X50950000Y-9000000D03*
%TD*%
D11*
%TO.P,Q2,1*%
%TO.N,RELAY_IN*%
X63460000Y-14000000D03*
%TO.P,Q2,2*%
%TO.N,Q2_BASE*%
X66000000Y-14000000D03*
%TO.P,Q2,3*%
%TO.N,GND*%
X68540000Y-14000000D03*
%TD*%
D13*
%TO.P,R2,1*%
%TO.N,GPIO10*%
X64190000Y-20000000D03*
%TO.P,R2,2*%
%TO.N,Q2_BASE*%
X71810000Y-20000000D03*
%TD*%
%TO.P,R1,1*%
%TO.N,GPIO7*%
X63190000Y-32000000D03*
%TO.P,R1,2*%
%TO.N,Q1_BASE*%
X70810000Y-32000000D03*
%TD*%
D11*
%TO.P,Q1,1*%
%TO.N,BUZZ_SW*%
X73460000Y-32000000D03*
%TO.P,Q1,2*%
%TO.N,Q1_BASE*%
X76000000Y-32000000D03*
%TO.P,Q1,3*%
%TO.N,GND*%
X78540000Y-32000000D03*
%TD*%
%TO.P,J12,1*%
%TO.N,P5V*%
X82730000Y-12000000D03*
%TO.P,J12,2*%
%TO.N,BUZZ_SW*%
X85270000Y-12000000D03*
%TD*%
D14*
%TO.P,C1,1*%
%TO.N,P5V*%
X81500000Y-24000000D03*
%TO.P,C1,2*%
%TO.N,GND*%
X86500000Y-24000000D03*
%TD*%
D15*
%TO.P,J1,1*%
%TO.N,P5V*%
X82750000Y-40000000D03*
%TO.P,J1,2*%
%TO.N,GND*%
X85250000Y-40000000D03*
%TD*%
D12*
%TO.P,C2,1*%
%TO.N,P5V*%
X71050000Y-40000000D03*
%TO.P,C2,2*%
%TO.N,GND*%
X72950000Y-40000000D03*
%TD*%
D16*
%TO.P,,*%
%TO.N,*%
X3500000Y-3500000D03*
%TD*%
%TO.P,,*%
%TO.N,*%
X86500000Y-3500000D03*
%TD*%
%TO.P,,*%
%TO.N,*%
X3500000Y-56500000D03*
%TD*%
%TO.P,,*%
%TO.N,*%
X86500000Y-56500000D03*
%TD*%
D17*
%TO.N,GND*%
X75450000Y-40000000D03*
X84000000Y-24000000D03*
X78540000Y-34500000D03*
X71040000Y-14000000D03*
%TO.N,GPIO4*%
X13950000Y-28000000D03*
%TO.N,GPIO5*%
X16490000Y-28000000D03*
%TO.N,GPIO6*%
X19030000Y-28000000D03*
%TO.N,GPIO7*%
X55500000Y-32000000D03*
%TO.N,GPIO10*%
X44430000Y-28000000D03*
%TO.N,RELAY_IN*%
X50950000Y-9000000D03*
%TO.N,GPIO11*%
X46970000Y-28000000D03*
X60500000Y-41500000D03*
%TO.N,GPIO12*%
X49960000Y-46000000D03*
X49510000Y-28000000D03*
%TO.N,GPIO17*%
X86000000Y-46000000D03*
X29190000Y-28000000D03*
X55000000Y-28000000D03*
X51000000Y-25000000D03*
%TO.N,GPIO18*%
X86000000Y-48500000D03*
X64500000Y-47500000D03*
X65000000Y-18500000D03*
X32000000Y-18500000D03*
%TD*%
%TO.N,GND*%
D18*
X72950000Y-40000000D02*
X75450000Y-40000000D01*
X86500000Y-24000000D02*
X84000000Y-24000000D01*
X78540000Y-32000000D02*
X78540000Y-34500000D01*
X68540000Y-14000000D02*
X71040000Y-14000000D01*
%TO.N,GPIO11*%
D19*
X37960000Y-53000000D02*
X37960000Y-46000000D01*
%TO.N,GPIO12*%
X49960000Y-53000000D02*
X49960000Y-46000000D01*
%TO.N,P5V*%
D20*
X62380000Y-53000000D02*
X62380000Y-49000000D01*
X62380000Y-49000000D02*
X59380000Y-49000000D01*
%TO.N,GPIO17*%
D19*
X72540000Y-53000000D02*
X72540000Y-46000000D01*
X72540000Y-46000000D02*
X86000000Y-46000000D01*
%TO.N,GPIO18*%
X77620000Y-53000000D02*
X77620000Y-48500000D01*
X77620000Y-48500000D02*
X86000000Y-48500000D01*
%TO.N,P3V3*%
D21*
X6330000Y-16570000D02*
X6330000Y-28000000D01*
%TO.N,GPIO4*%
D19*
X13950000Y-16570000D02*
X13950000Y-28000000D01*
%TO.N,GPIO5*%
X16490000Y-16570000D02*
X16490000Y-28000000D01*
%TO.N,GPIO6*%
X19030000Y-16570000D02*
X19030000Y-28000000D01*
%TO.N,GPIO7*%
X21570000Y-16570000D02*
X21570000Y-28000000D01*
%TO.N,GPIO17*%
X29190000Y-16570000D02*
X29190000Y-28000000D01*
%TO.N,GPIO18*%
X31730000Y-16570000D02*
X31730000Y-28000000D01*
%TO.N,GPIO8*%
X34270000Y-16570000D02*
X34270000Y-28000000D01*
%TO.N,GPIO9*%
X41890000Y-16570000D02*
X41890000Y-28000000D01*
%TO.N,GPIO10*%
X44430000Y-16570000D02*
X44430000Y-28000000D01*
%TO.N,GPIO11*%
X46970000Y-16570000D02*
X46970000Y-28000000D01*
%TO.N,GPIO12*%
X49510000Y-16570000D02*
X49510000Y-28000000D01*
%TO.N,P5V*%
D20*
X57130000Y-16570000D02*
X57130000Y-28000000D01*
X59380000Y-49000000D02*
X66000000Y-49000000D01*
X66000000Y-49000000D02*
X66000000Y-42000000D01*
X66000000Y-42000000D02*
X71000000Y-42000000D01*
X71000000Y-42000000D02*
X71000000Y-40000000D01*
X71000000Y-40000000D02*
X71050000Y-40000000D01*
X71050000Y-40000000D02*
X71000000Y-40000000D01*
X71000000Y-40000000D02*
X71000000Y-41000000D01*
X71000000Y-41000000D02*
X71500000Y-41000000D01*
X71500000Y-41000000D02*
X71500000Y-41500000D01*
X71500000Y-41500000D02*
X72000000Y-41500000D01*
X72000000Y-41500000D02*
X72000000Y-42000000D01*
X72000000Y-42000000D02*
X83000000Y-42000000D01*
X83000000Y-42000000D02*
X83000000Y-40000000D01*
X83000000Y-40000000D02*
X82750000Y-40000000D01*
X82750000Y-40000000D02*
X83000000Y-40000000D01*
X83000000Y-40000000D02*
X83000000Y-38000000D01*
X83000000Y-38000000D02*
X85000000Y-38000000D01*
X85000000Y-38000000D02*
X85000000Y-34000000D01*
X85000000Y-34000000D02*
X81500000Y-34000000D01*
X81500000Y-34000000D02*
X81500000Y-24000000D01*
X81500000Y-24000000D02*
X81500000Y-20000000D01*
X81500000Y-20000000D02*
X82000000Y-20000000D01*
X82000000Y-20000000D02*
X82000000Y-12000000D01*
X82000000Y-12000000D02*
X82730000Y-12000000D01*
X59380000Y-49000000D02*
X59500000Y-49000000D01*
X59500000Y-49000000D02*
X59500000Y-47000000D01*
X59500000Y-47000000D02*
X62000000Y-47000000D01*
X62000000Y-47000000D02*
X62000000Y-34000000D01*
X62000000Y-34000000D02*
X57000000Y-34000000D01*
X57000000Y-34000000D02*
X57000000Y-28000000D01*
X57000000Y-28000000D02*
X57130000Y-28000000D01*
X57130000Y-28000000D02*
X57000000Y-28000000D01*
X57000000Y-28000000D02*
X57000000Y-26000000D01*
X57000000Y-26000000D02*
X62000000Y-26000000D01*
X62000000Y-26000000D02*
X62000000Y-12000000D01*
X62000000Y-12000000D02*
X49000000Y-12000000D01*
X49000000Y-12000000D02*
X49000000Y-9000000D01*
X49000000Y-9000000D02*
X49050000Y-9000000D01*
X49050000Y-9000000D02*
X41500000Y-9000000D01*
X41500000Y-9000000D02*
X41500000Y-5500000D01*
X41500000Y-5500000D02*
X41460000Y-5500000D01*
%TO.N,P3V3*%
D21*
X6330000Y-28000000D02*
X6500000Y-28000000D01*
X6500000Y-28000000D02*
X6500000Y-26000000D01*
X6500000Y-26000000D02*
X5500000Y-26000000D01*
X5500000Y-26000000D02*
X5500000Y-12000000D01*
X5500000Y-12000000D02*
X24000000Y-12000000D01*
X24000000Y-12000000D02*
X24000000Y-5500000D01*
X24000000Y-5500000D02*
X24190000Y-5500000D01*
%TO.N,LOCK_COM*%
X20420000Y-53000000D02*
X20500000Y-53000000D01*
X20500000Y-53000000D02*
X20500000Y-50000000D01*
X20500000Y-50000000D02*
X9500000Y-50000000D01*
X9500000Y-50000000D02*
X9500000Y-46000000D01*
X9500000Y-46000000D02*
X9460000Y-46000000D01*
%TO.N,LOCK_NO*%
X25500000Y-53000000D02*
X25500000Y-50000000D01*
X25500000Y-50000000D02*
X21500000Y-50000000D01*
X21500000Y-50000000D02*
X21500000Y-49000000D01*
X21500000Y-49000000D02*
X12000000Y-49000000D01*
X12000000Y-49000000D02*
X12000000Y-46000000D01*
%TO.N,LOCK_NC*%
X30580000Y-53000000D02*
X30500000Y-53000000D01*
X30500000Y-53000000D02*
X30500000Y-50000000D01*
X30500000Y-50000000D02*
X26500000Y-50000000D01*
X26500000Y-50000000D02*
X26500000Y-49000000D01*
X26500000Y-49000000D02*
X22500000Y-49000000D01*
X22500000Y-49000000D02*
X22500000Y-48000000D01*
X22500000Y-48000000D02*
X14500000Y-48000000D01*
X14500000Y-48000000D02*
X14500000Y-46000000D01*
X14500000Y-46000000D02*
X14540000Y-46000000D01*
%TO.N,GPIO8*%
D19*
X34270000Y-28000000D02*
X33500000Y-28000000D01*
X33500000Y-28000000D02*
X33500000Y-16000000D01*
X33500000Y-16000000D02*
X33000000Y-16000000D01*
X33000000Y-16000000D02*
X33000000Y-12000000D01*
X33000000Y-12000000D02*
X29500000Y-12000000D01*
X29500000Y-12000000D02*
X29500000Y-5500000D01*
X29500000Y-5500000D02*
X29270000Y-5500000D01*
%TO.N,GPIO9*%
X41890000Y-28000000D02*
X41000000Y-28000000D01*
X41000000Y-28000000D02*
X41000000Y-12000000D01*
X41000000Y-12000000D02*
X34000000Y-12000000D01*
X34000000Y-12000000D02*
X34000000Y-11500000D01*
X34000000Y-11500000D02*
X33500000Y-11500000D01*
X33500000Y-11500000D02*
X33500000Y-11000000D01*
X33500000Y-11000000D02*
X32000000Y-11000000D01*
X32000000Y-11000000D02*
X32000000Y-5500000D01*
X32000000Y-5500000D02*
X31810000Y-5500000D01*
%TO.N,GPIO7*%
X21570000Y-28000000D02*
X27500000Y-28000000D01*
X27500000Y-28000000D02*
X27500000Y-29000000D01*
X27500000Y-29000000D02*
X28000000Y-29000000D01*
X28000000Y-29000000D02*
X28000000Y-29500000D01*
X28000000Y-29500000D02*
X55500000Y-29500000D01*
X55500000Y-29500000D02*
X55500000Y-32000000D01*
%TO.N,RELAY_IN*%
X50950000Y-9000000D02*
X63500000Y-9000000D01*
X63500000Y-9000000D02*
X63500000Y-14000000D01*
X63500000Y-14000000D02*
X63460000Y-14000000D01*
%TO.N,Q1_BASE*%
X70810000Y-32000000D02*
X72000000Y-32000000D01*
X72000000Y-32000000D02*
X72000000Y-33000000D01*
X72000000Y-33000000D02*
X72500000Y-33000000D01*
X72500000Y-33000000D02*
X72500000Y-33500000D01*
X72500000Y-33500000D02*
X76000000Y-33500000D01*
X76000000Y-33500000D02*
X76000000Y-32000000D01*
%TO.N,Q2_BASE*%
X66000000Y-14000000D02*
X66000000Y-16000000D01*
X66000000Y-16000000D02*
X72000000Y-16000000D01*
X72000000Y-16000000D02*
X72000000Y-20000000D01*
X72000000Y-20000000D02*
X71810000Y-20000000D01*
%TO.N,GPIO11*%
X37960000Y-46000000D02*
X38000000Y-46000000D01*
X38000000Y-46000000D02*
X38000000Y-42000000D01*
X38000000Y-42000000D02*
X47000000Y-42000000D01*
X47000000Y-42000000D02*
X47000000Y-41500000D01*
X47000000Y-41500000D02*
X60500000Y-41500000D01*
%TO.N,GPIO17*%
X55000000Y-28000000D02*
X51000000Y-28000000D01*
X51000000Y-28000000D02*
X51000000Y-25000000D01*
%TO.N,GPIO18*%
X64500000Y-47500000D02*
X64500000Y-28000000D01*
X64500000Y-28000000D02*
X65500000Y-28000000D01*
X65500000Y-28000000D02*
X65500000Y-19000000D01*
X65500000Y-19000000D02*
X65000000Y-19000000D01*
X65000000Y-19000000D02*
X65000000Y-18500000D01*
X32000000Y-18500000D02*
X31500000Y-18500000D01*
X31500000Y-18500000D02*
X31500000Y-28000000D01*
X31500000Y-28000000D02*
X31730000Y-28000000D01*
%TD*%
M02*
