M48
; DRILL file KiCad 10.0.5 date 2026-08-06T19:36:58
; FORMAT={-:-/ absolute / metric / decimal}
; #@! TF.CreationDate,2026-08-06T19:36:58-03:00
; #@! TF.GenerationSoftware,Kicad,Pcbnew,10.0.5
; #@! TF.FileFunction,MixedPlating,1,2
FMAT,2
METRIC
; #@! TA.AperFunction,Plated,PTH,ViaDrill
T1C0.400
; #@! TA.AperFunction,Plated,PTH,ComponentDrill
T2C0.800
; #@! TA.AperFunction,Plated,PTH,ComponentDrill
T3C0.900
; #@! TA.AperFunction,Plated,PTH,ComponentDrill
T4C1.000
; #@! TA.AperFunction,Plated,PTH,ComponentDrill
T5C1.200
; #@! TA.AperFunction,Plated,PTH,ComponentDrill
T6C1.500
; #@! TA.AperFunction,Plated,PTH,ComponentDrill
T7C3.200
%
G90
G05
T1
X13.95Y-28.0
X16.49Y-28.0
X19.03Y-28.0
X29.19Y-28.0
X32.0Y-18.5
X44.43Y-28.0
X46.97Y-28.0
X49.51Y-28.0
X49.96Y-46.0
X50.95Y-9.0
X51.0Y-25.0
X55.0Y-28.0
X55.5Y-32.0
X60.5Y-41.5
X64.5Y-47.5
X65.0Y-18.5
X71.04Y-14.0
X75.45Y-40.0
X78.54Y-34.5
X84.0Y-24.0
X86.0Y-46.0
X86.0Y-48.5
T2
X63.19Y-32.0
X64.19Y-20.0
X70.81Y-32.0
X71.81Y-20.0
T3
X82.75Y-40.0
X85.25Y-40.0
T4
X6.33Y-16.57
X6.33Y-39.43
X8.19Y-5.5
X8.87Y-16.57
X8.87Y-39.43
X9.46Y-46.0
X10.73Y-5.5
X11.41Y-16.57
X11.41Y-39.43
X12.0Y-46.0
X13.27Y-5.5
X13.95Y-16.57
X13.95Y-39.43
X14.54Y-46.0
X15.81Y-5.5
X16.49Y-16.57
X16.49Y-39.43
X19.03Y-16.57
X19.03Y-39.43
X21.57Y-16.57
X21.57Y-39.43
X24.11Y-16.57
X24.11Y-39.43
X24.19Y-5.5
X26.65Y-16.57
X26.65Y-39.43
X26.73Y-5.5
X29.19Y-16.57
X29.19Y-39.43
X29.27Y-5.5
X31.73Y-16.57
X31.73Y-39.43
X31.81Y-5.5
X34.27Y-16.57
X34.27Y-39.43
X36.81Y-16.57
X36.81Y-39.43
X39.35Y-16.57
X39.35Y-39.43
X41.46Y-5.5
X41.89Y-16.57
X41.89Y-39.43
X44.0Y-5.5
X44.43Y-16.57
X44.43Y-39.43
X46.54Y-5.5
X46.97Y-16.57
X46.97Y-39.43
X49.51Y-16.57
X49.51Y-39.43
X52.05Y-16.57
X52.05Y-39.43
X54.59Y-16.57
X54.59Y-39.43
X57.13Y-16.57
X57.13Y-39.43
X59.67Y-16.57
X59.67Y-39.43
X63.46Y-14.0
X66.0Y-14.0
X68.54Y-14.0
X73.46Y-32.0
X76.0Y-32.0
X78.54Y-32.0
X82.73Y-12.0
X85.27Y-12.0
T5
X81.5Y-24.0
X86.5Y-24.0
T6
X20.42Y-53.0
X25.5Y-53.0
X30.58Y-53.0
X37.96Y-53.0
X43.04Y-53.0
X49.96Y-53.0
X55.04Y-53.0
X62.38Y-53.0
X67.46Y-53.0
X72.54Y-53.0
X77.62Y-53.0
T7
X3.5Y-3.5
X3.5Y-56.5
X86.5Y-3.5
X86.5Y-56.5
M30
