%TF.GenerationSoftware,KiCad,Pcbnew,10.0.5*%
%TF.CreationDate,2026-08-06T19:36:51-03:00*%
%TF.ProjectId,carrier-v0,63617272-6965-4722-9d76-302e6b696361,rev?*%
%TF.SameCoordinates,Original*%
%TF.FileFunction,Copper,L2,Bot*%
%TF.FilePolarity,Positive*%
%FSLAX46Y46*%
G04 Gerber Fmt 4.6, Leading zero omitted, Abs format (unit mm)*
G04 Created by KiCad (PCBNEW 10.0.5) date 2026-08-06 19:36:51*
%MOMM*%
%LPD*%
G01*
G04 APERTURE LIST*
%TA.AperFunction,ComponentPad*%
%ADD10R,2.800000X2.800000*%
%TD*%
%TA.AperFunction,ComponentPad*%
%ADD11C,1.700000*%
%TD*%
%TA.AperFunction,ComponentPad*%
%ADD12C,1.600000*%
%TD*%
%TA.AperFunction,ComponentPad*%
%ADD13C,2.200000*%
%TD*%
%TA.AperFunction,ComponentPad*%
%ADD14C,1.800000*%
%TD*%
%TA.AperFunction,ComponentPad*%
%ADD15C,4.500000*%
%TD*%
%TA.AperFunction,ViaPad*%
%ADD16C,0.800000*%
%TD*%
%TA.AperFunction,Conductor*%
%ADD17C,0.300000*%
%TD*%
G04 APERTURE END LIST*
D10*
%TO.P,J2,1*%
%TO.N,LOCK_COM*%
X20420000Y-53000000D03*
%TO.P,J2,2*%
%TO.N,LOCK_NO*%
X25500000Y-53000000D03*
%TO.P,J2,3*%
%TO.N,LOCK_NC*%
X30580000Y-53000000D03*
%TD*%
%TO.P,J3,1*%
%TO.N,GPIO11*%
X37960000Y-53000000D03*
%TO.P,J3,2*%
%TO.N,GND*%
X43040000Y-53000000D03*
%TD*%
%TO.P,J4,1*%
%TO.N,GPIO12*%
X49960000Y-53000000D03*
%TO.P,J4,2*%
%TO.N,GND*%
X55040000Y-53000000D03*
%TD*%
%TO.P,J5,1*%
%TO.N,P5V*%
X62380000Y-53000000D03*
%TO.P,J5,2*%
%TO.N,GND*%
X67460000Y-53000000D03*
%TO.P,J5,3*%
%TO.N,GPIO17*%
X72540000Y-53000000D03*
%TO.P,J5,4*%
%TO.N,GPIO18*%
X77620000Y-53000000D03*
%TD*%
D11*
%TO.P,J8A,1*%
%TO.N,P3V3*%
X6330000Y-16570000D03*
%TO.P,J8A,2*%
%TO.N,N/C*%
X8870000Y-16570000D03*
%TO.P,J8A,3*%
X11410000Y-16570000D03*
%TO.P,J8A,4*%
%TO.N,GPIO4*%
X13950000Y-16570000D03*
%TO.P,J8A,5*%
%TO.N,GPIO5*%
X16490000Y-16570000D03*
%TO.P,J8A,6*%
%TO.N,GPIO6*%
X19030000Y-16570000D03*
%TO.P,J8A,7*%
%TO.N,GPIO7*%
X21570000Y-16570000D03*
%TO.P,J8A,8*%
%TO.N,N/C*%
X24110000Y-16570000D03*
%TO.P,J8A,9*%
X26650000Y-16570000D03*
%TO.P,J8A,10*%
%TO.N,GPIO17*%
X29190000Y-16570000D03*
%TO.P,J8A,11*%
%TO.N,GPIO18*%
X31730000Y-16570000D03*
%TO.P,J8A,12*%
%TO.N,GPIO8*%
X34270000Y-16570000D03*
%TO.P,J8A,13*%
%TO.N,N/C*%
X36810000Y-16570000D03*
%TO.P,J8A,14*%
X39350000Y-16570000D03*
%TO.P,J8A,15*%
%TO.N,GPIO9*%
X41890000Y-16570000D03*
%TO.P,J8A,16*%
%TO.N,GPIO10*%
X44430000Y-16570000D03*
%TO.P,J8A,17*%
%TO.N,GPIO11*%
X46970000Y-16570000D03*
%TO.P,J8A,18*%
%TO.N,GPIO12*%
X49510000Y-16570000D03*
%TO.P,J8A,19*%
%TO.N,N/C*%
X52050000Y-16570000D03*
%TO.P,J8A,20*%
X54590000Y-16570000D03*
%TO.P,J8A,21*%
%TO.N,P5V*%
X57130000Y-16570000D03*
%TO.P,J8A,22*%
%TO.N,GND*%
X59670000Y-16570000D03*
%TD*%
%TO.P,J8B,1*%
%TO.N,N/C*%
X6330000Y-39430000D03*
%TO.P,J8B,2*%
X8870000Y-39430000D03*
%TO.P,J8B,3*%
X11410000Y-39430000D03*
%TO.P,J8B,4*%
X13950000Y-39430000D03*
%TO.P,J8B,5*%
X16490000Y-39430000D03*
%TO.P,J8B,6*%
X19030000Y-39430000D03*
%TO.P,J8B,7*%
X21570000Y-39430000D03*
%TO.P,J8B,8*%
X24110000Y-39430000D03*
%TO.P,J8B,9*%
X26650000Y-39430000D03*
%TO.P,J8B,10*%
X29190000Y-39430000D03*
%TO.P,J8B,11*%
X31730000Y-39430000D03*
%TO.P,J8B,12*%
X34270000Y-39430000D03*
%TO.P,J8B,13*%
X36810000Y-39430000D03*
%TO.P,J8B,14*%
X39350000Y-39430000D03*
%TO.P,J8B,15*%
X41890000Y-39430000D03*
%TO.P,J8B,16*%
X44430000Y-39430000D03*
%TO.P,J8B,17*%
X46970000Y-39430000D03*
%TO.P,J8B,18*%
X49510000Y-39430000D03*
%TO.P,J8B,19*%
X52050000Y-39430000D03*
%TO.P,J8B,20*%
X54590000Y-39430000D03*
%TO.P,J8B,21*%
X57130000Y-39430000D03*
%TO.P,J8B,22*%
X59670000Y-39430000D03*
%TD*%
%TO.P,J13,1*%
%TO.N,GND*%
X8190000Y-5500000D03*
%TO.P,J13,2*%
%TO.N,GPIO4*%
X10730000Y-5500000D03*
%TO.P,J13,3*%
%TO.N,GPIO5*%
X13270000Y-5500000D03*
%TO.P,J13,4*%
%TO.N,GPIO6*%
X15810000Y-5500000D03*
%TD*%
%TO.P,J14,1*%
%TO.N,P3V3*%
X24190000Y-5500000D03*
%TO.P,J14,2*%
%TO.N,GND*%
X26730000Y-5500000D03*
%TO.P,J14,3*%
%TO.N,GPIO8*%
X29270000Y-5500000D03*
%TO.P,J14,4*%
%TO.N,GPIO9*%
X31810000Y-5500000D03*
%TD*%
%TO.P,J9,1*%
%TO.N,P5V*%
X41460000Y-5500000D03*
%TO.P,J9,2*%
%TO.N,GND*%
X44000000Y-5500000D03*
%TO.P,J9,3*%
%TO.N,RELAY_IN*%
X46540000Y-5500000D03*
%TD*%
%TO.P,J10,1*%
%TO.N,LOCK_COM*%
X9460000Y-46000000D03*
%TO.P,J10,2*%
%TO.N,LOCK_NO*%
X12000000Y-46000000D03*
%TO.P,J10,3*%
%TO.N,LOCK_NC*%
X14540000Y-46000000D03*
%TD*%
%TO.P,Q2,1*%
%TO.N,RELAY_IN*%
X63460000Y-14000000D03*
%TO.P,Q2,2*%
%TO.N,Q2_BASE*%
X66000000Y-14000000D03*
%TO.P,Q2,3*%
%TO.N,GND*%
X68540000Y-14000000D03*
%TD*%
D12*
%TO.P,R2,1*%
%TO.N,GPIO10*%
X64190000Y-20000000D03*
%TO.P,R2,2*%
%TO.N,Q2_BASE*%
X71810000Y-20000000D03*
%TD*%
%TO.P,R1,1*%
%TO.N,GPIO7*%
X63190000Y-32000000D03*
%TO.P,R1,2*%
%TO.N,Q1_BASE*%
X70810000Y-32000000D03*
%TD*%
D11*
%TO.P,Q1,1*%
%TO.N,BUZZ_SW*%
X73460000Y-32000000D03*
%TO.P,Q1,2*%
%TO.N,Q1_BASE*%
X76000000Y-32000000D03*
%TO.P,Q1,3*%
%TO.N,GND*%
X78540000Y-32000000D03*
%TD*%
%TO.P,J12,1*%
%TO.N,P5V*%
X82730000Y-12000000D03*
%TO.P,J12,2*%
%TO.N,BUZZ_SW*%
X85270000Y-12000000D03*
%TD*%
D13*
%TO.P,C1,1*%
%TO.N,P5V*%
X81500000Y-24000000D03*
%TO.P,C1,2*%
%TO.N,GND*%
X86500000Y-24000000D03*
%TD*%
D14*
%TO.P,J1,1*%
%TO.N,P5V*%
X82750000Y-40000000D03*
%TO.P,J1,2*%
%TO.N,GND*%
X85250000Y-40000000D03*
%TD*%
D15*
%TO.P,,*%
%TO.N,*%
X3500000Y-3500000D03*
%TD*%
%TO.P,,*%
%TO.N,*%
X86500000Y-3500000D03*
%TD*%
%TO.P,,*%
%TO.N,*%
X3500000Y-56500000D03*
%TD*%
%TO.P,,*%
%TO.N,*%
X86500000Y-56500000D03*
%TD*%
D16*
%TO.N,GND*%
X75450000Y-40000000D03*
X84000000Y-24000000D03*
X78540000Y-34500000D03*
X71040000Y-14000000D03*
%TO.N,GPIO4*%
X13950000Y-28000000D03*
%TO.N,GPIO5*%
X16490000Y-28000000D03*
%TO.N,GPIO6*%
X19030000Y-28000000D03*
%TO.N,GPIO7*%
X55500000Y-32000000D03*
%TO.N,GPIO10*%
X44430000Y-28000000D03*
%TO.N,RELAY_IN*%
X50950000Y-9000000D03*
%TO.N,GPIO11*%
X46970000Y-28000000D03*
X60500000Y-41500000D03*
%TO.N,GPIO12*%
X49960000Y-46000000D03*
X49510000Y-28000000D03*
%TO.N,GPIO17*%
X86000000Y-46000000D03*
X29190000Y-28000000D03*
X55000000Y-28000000D03*
X51000000Y-25000000D03*
%TO.N,GPIO18*%
X86000000Y-48500000D03*
X64500000Y-47500000D03*
X65000000Y-18500000D03*
X32000000Y-18500000D03*
%TD*%
%TO.N,GPIO4*%
D17*
X13950000Y-28000000D02*
X13000000Y-28000000D01*
X13000000Y-28000000D02*
X13000000Y-12000000D01*
X13000000Y-12000000D02*
X10500000Y-12000000D01*
X10500000Y-12000000D02*
X10500000Y-5500000D01*
X10500000Y-5500000D02*
X10730000Y-5500000D01*
%TO.N,GPIO5*%
X16490000Y-28000000D02*
X15500000Y-28000000D01*
X15500000Y-28000000D02*
X15500000Y-12000000D01*
X15500000Y-12000000D02*
X14000000Y-12000000D01*
X14000000Y-12000000D02*
X14000000Y-11500000D01*
X14000000Y-11500000D02*
X13500000Y-11500000D01*
X13500000Y-11500000D02*
X13500000Y-5500000D01*
X13500000Y-5500000D02*
X13270000Y-5500000D01*
%TO.N,GPIO6*%
X19030000Y-28000000D02*
X18000000Y-28000000D01*
X18000000Y-28000000D02*
X18000000Y-12000000D01*
X18000000Y-12000000D02*
X16500000Y-12000000D01*
X16500000Y-12000000D02*
X16500000Y-11500000D01*
X16500000Y-11500000D02*
X16000000Y-11500000D01*
X16000000Y-11500000D02*
X16000000Y-5500000D01*
X16000000Y-5500000D02*
X15810000Y-5500000D01*
%TO.N,GPIO7*%
X55500000Y-32000000D02*
X63190000Y-32000000D01*
%TO.N,GPIO10*%
X44430000Y-28000000D02*
X45500000Y-28000000D01*
X45500000Y-28000000D02*
X45500000Y-27000000D01*
X45500000Y-27000000D02*
X46000000Y-27000000D01*
X46000000Y-27000000D02*
X46000000Y-26500000D01*
X46000000Y-26500000D02*
X64000000Y-26500000D01*
X64000000Y-26500000D02*
X64000000Y-20000000D01*
X64000000Y-20000000D02*
X64190000Y-20000000D01*
%TO.N,RELAY_IN*%
X46540000Y-5500000D02*
X46500000Y-5500000D01*
X46500000Y-5500000D02*
X46500000Y-7500000D01*
X46500000Y-7500000D02*
X51000000Y-7500000D01*
X51000000Y-7500000D02*
X51000000Y-9000000D01*
X51000000Y-9000000D02*
X50950000Y-9000000D01*
%TO.N,BUZZ_SW*%
X73460000Y-32000000D02*
X73500000Y-32000000D01*
X73500000Y-32000000D02*
X73500000Y-20000000D01*
X73500000Y-20000000D02*
X85500000Y-20000000D01*
X85500000Y-20000000D02*
X85500000Y-12000000D01*
X85500000Y-12000000D02*
X85270000Y-12000000D01*
%TO.N,GPIO11*%
X60500000Y-41500000D02*
X60500000Y-41000000D01*
X60500000Y-41000000D02*
X61000000Y-41000000D01*
X61000000Y-41000000D02*
X61000000Y-40500000D01*
X61000000Y-40500000D02*
X61500000Y-40500000D01*
X61500000Y-40500000D02*
X61500000Y-38000000D01*
X61500000Y-38000000D02*
X62000000Y-38000000D01*
X62000000Y-38000000D02*
X62000000Y-34000000D01*
X62000000Y-34000000D02*
X47000000Y-34000000D01*
X47000000Y-34000000D02*
X47000000Y-28000000D01*
X47000000Y-28000000D02*
X46970000Y-28000000D01*
%TO.N,GPIO12*%
X49960000Y-46000000D02*
X50000000Y-46000000D01*
X50000000Y-46000000D02*
X50000000Y-47000000D01*
X50000000Y-47000000D02*
X62000000Y-47000000D01*
X62000000Y-47000000D02*
X62000000Y-41000000D01*
X62000000Y-41000000D02*
X62500000Y-41000000D01*
X62500000Y-41000000D02*
X62500000Y-38500000D01*
X62500000Y-38500000D02*
X63000000Y-38500000D01*
X63000000Y-38500000D02*
X63000000Y-33500000D01*
X63000000Y-33500000D02*
X64000000Y-33500000D01*
X64000000Y-33500000D02*
X64000000Y-33000000D01*
X64000000Y-33000000D02*
X64500000Y-33000000D01*
X64500000Y-33000000D02*
X64500000Y-31000000D01*
X64500000Y-31000000D02*
X64000000Y-31000000D01*
X64000000Y-31000000D02*
X64000000Y-30500000D01*
X64000000Y-30500000D02*
X49500000Y-30500000D01*
X49500000Y-30500000D02*
X49500000Y-28000000D01*
%TO.N,GPIO17*%
X86000000Y-46000000D02*
X85000000Y-46000000D01*
X85000000Y-46000000D02*
X85000000Y-42000000D01*
X85000000Y-42000000D02*
X65500000Y-42000000D01*
X65500000Y-42000000D02*
X65500000Y-30500000D01*
X65500000Y-30500000D02*
X65000000Y-30500000D01*
X65000000Y-30500000D02*
X65000000Y-30000000D01*
X65000000Y-30000000D02*
X64500000Y-30000000D01*
X64500000Y-30000000D02*
X64500000Y-29500000D01*
X64500000Y-29500000D02*
X55000000Y-29500000D01*
X55000000Y-29500000D02*
X55000000Y-28000000D01*
X51000000Y-25000000D02*
X45500000Y-25000000D01*
X45500000Y-25000000D02*
X45500000Y-26000000D01*
X45500000Y-26000000D02*
X29000000Y-26000000D01*
X29000000Y-26000000D02*
X29000000Y-28000000D01*
X29000000Y-28000000D02*
X29190000Y-28000000D01*
%TO.N,GPIO18*%
X86000000Y-48500000D02*
X64500000Y-48500000D01*
X64500000Y-48500000D02*
X64500000Y-47500000D01*
X65000000Y-18500000D02*
X32000000Y-18500000D01*
%TD*%
%TA.AperFunction,Conductor*%
%TO.N,GND*%
G36*
X55896630Y-16580253D02*
G01*
X55954863Y-16618863D01*
X55982473Y-16679321D01*
X56007829Y-16839410D01*
X56063787Y-17011636D01*
X56063788Y-17011639D01*
X56146006Y-17172997D01*
X56252441Y-17319494D01*
X56252445Y-17319499D01*
X56380500Y-17447554D01*
X56380505Y-17447558D01*
X56508287Y-17540396D01*
X56527006Y-17553996D01*
X56630500Y-17606729D01*
X56688360Y-17636211D01*
X56688363Y-17636212D01*
X56768628Y-17662291D01*
X56860591Y-17692171D01*
X56943429Y-17705291D01*
X57039449Y-17720500D01*
X57039454Y-17720500D01*
X57220551Y-17720500D01*
X57307259Y-17706765D01*
X57399409Y-17692171D01*
X57571639Y-17636211D01*
X57732994Y-17553996D01*
X57879501Y-17447553D01*
X58007553Y-17319501D01*
X58113996Y-17172994D01*
X58181090Y-17041314D01*
X58229065Y-16990519D01*
X58296886Y-16973724D01*
X58363021Y-16996262D01*
X58406472Y-17050977D01*
X58409506Y-17059292D01*
X58418904Y-17088217D01*
X58515375Y-17277550D01*
X58554728Y-17331716D01*
X59187037Y-16699408D01*
X59204075Y-16762993D01*
X59269901Y-16877007D01*
X59362993Y-16970099D01*
X59477007Y-17035925D01*
X59540590Y-17052962D01*
X58908282Y-17685269D01*
X58908282Y-17685270D01*
X58962449Y-17724624D01*
X59139849Y-17815015D01*
X59190645Y-17862990D01*
X59207440Y-17930811D01*
X59184902Y-17996946D01*
X59130187Y-18040397D01*
X59083554Y-18049500D01*
X32591518Y-18049500D01*
X32524479Y-18029815D01*
X32503841Y-18013185D01*
X32446542Y-17955886D01*
X32446541Y-17955885D01*
X32446540Y-17955884D01*
X32331817Y-17879228D01*
X32331807Y-17879223D01*
X32228887Y-17836592D01*
X32174484Y-17792751D01*
X32152419Y-17726457D01*
X32169698Y-17658757D01*
X32220043Y-17611547D01*
X32332994Y-17553996D01*
X32479501Y-17447553D01*
X32607553Y-17319501D01*
X32713996Y-17172994D01*
X32796211Y-17011639D01*
X32852171Y-16839409D01*
X32869500Y-16729997D01*
X32877527Y-16679321D01*
X32907456Y-16616186D01*
X32966768Y-16579255D01*
X33036630Y-16580253D01*
X33094863Y-16618863D01*
X33122473Y-16679321D01*
X33147829Y-16839410D01*
X33203787Y-17011636D01*
X33203788Y-17011639D01*
X33286006Y-17172997D01*
X33392441Y-17319494D01*
X33392445Y-17319499D01*
X33520500Y-17447554D01*
X33520505Y-17447558D01*
X33648287Y-17540396D01*
X33667006Y-17553996D01*
X33770500Y-17606729D01*
X33828360Y-17636211D01*
X33828363Y-17636212D01*
X33908628Y-17662291D01*
X34000591Y-17692171D01*
X34083429Y-17705291D01*
X34179449Y-17720500D01*
X34179454Y-17720500D01*
X34360551Y-17720500D01*
X34447259Y-17706765D01*
X34539409Y-17692171D01*
X34711639Y-17636211D01*
X34872994Y-17553996D01*
X35019501Y-17447553D01*
X35147553Y-17319501D01*
X35253996Y-17172994D01*
X35336211Y-17011639D01*
X35392171Y-16839409D01*
X35409500Y-16729997D01*
X35417527Y-16679321D01*
X35447456Y-16616186D01*
X35506768Y-16579255D01*
X35576630Y-16580253D01*
X35634863Y-16618863D01*
X35662473Y-16679321D01*
X35687829Y-16839410D01*
X35743787Y-17011636D01*
X35743788Y-17011639D01*
X35826006Y-17172997D01*
X35932441Y-17319494D01*
X35932445Y-17319499D01*
X36060500Y-17447554D01*
X36060505Y-17447558D01*
X36188287Y-17540396D01*
X36207006Y-17553996D01*
X36310500Y-17606729D01*
X36368360Y-17636211D01*
X36368363Y-17636212D01*
X36448628Y-17662291D01*
X36540591Y-17692171D01*
X36623429Y-17705291D01*
X36719449Y-17720500D01*
X36719454Y-17720500D01*
X36900551Y-17720500D01*
X36987259Y-17706765D01*
X37079409Y-17692171D01*
X37251639Y-17636211D01*
X37412994Y-17553996D01*
X37559501Y-17447553D01*
X37687553Y-17319501D01*
X37793996Y-17172994D01*
X37876211Y-17011639D01*
X37932171Y-16839409D01*
X37949500Y-16729997D01*
X37957527Y-16679321D01*
X37987456Y-16616186D01*
X38046768Y-16579255D01*
X38116630Y-16580253D01*
X38174863Y-16618863D01*
X38202473Y-16679321D01*
X38227829Y-16839410D01*
X38283787Y-17011636D01*
X38283788Y-17011639D01*
X38366006Y-17172997D01*
X38472441Y-17319494D01*
X38472445Y-17319499D01*
X38600500Y-17447554D01*
X38600505Y-17447558D01*
X38728287Y-17540396D01*
X38747006Y-17553996D01*
X38850500Y-17606729D01*
X38908360Y-17636211D01*
X38908363Y-17636212D01*
X38988628Y-17662291D01*
X39080591Y-17692171D01*
X39163429Y-17705291D01*
X39259449Y-17720500D01*
X39259454Y-17720500D01*
X39440551Y-17720500D01*
X39527259Y-17706765D01*
X39619409Y-17692171D01*
X39791639Y-17636211D01*
X39952994Y-17553996D01*
X40099501Y-17447553D01*
X40227553Y-17319501D01*
X40333996Y-17172994D01*
X40416211Y-17011639D01*
X40472171Y-16839409D01*
X40489500Y-16729997D01*
X40497527Y-16679321D01*
X40527456Y-16616186D01*
X40586768Y-16579255D01*
X40656630Y-16580253D01*
X40714863Y-16618863D01*
X40742473Y-16679321D01*
X40767829Y-16839410D01*
X40823787Y-17011636D01*
X40823788Y-17011639D01*
X40906006Y-17172997D01*
X41012441Y-17319494D01*
X41012445Y-17319499D01*
X41140500Y-17447554D01*
X41140505Y-17447558D01*
X41268287Y-17540396D01*
X41287006Y-17553996D01*
X41390500Y-17606729D01*
X41448360Y-17636211D01*
X41448363Y-17636212D01*
X41528628Y-17662291D01*
X41620591Y-17692171D01*
X41703429Y-17705291D01*
X41799449Y-17720500D01*
X41799454Y-17720500D01*
X41980551Y-17720500D01*
X42067259Y-17706765D01*
X42159409Y-17692171D01*
X42331639Y-17636211D01*
X42492994Y-17553996D01*
X42639501Y-17447553D01*
X42767553Y-17319501D01*
X42873996Y-17172994D01*
X42956211Y-17011639D01*
X43012171Y-16839409D01*
X43029500Y-16729997D01*
X43037527Y-16679321D01*
X43067456Y-16616186D01*
X43126768Y-16579255D01*
X43196630Y-16580253D01*
X43254863Y-16618863D01*
X43282473Y-16679321D01*
X43307829Y-16839410D01*
X43363787Y-17011636D01*
X43363788Y-17011639D01*
X43446006Y-17172997D01*
X43552441Y-17319494D01*
X43552445Y-17319499D01*
X43680500Y-17447554D01*
X43680505Y-17447558D01*
X43808287Y-17540396D01*
X43827006Y-17553996D01*
X43930500Y-17606729D01*
X43988360Y-17636211D01*
X43988363Y-17636212D01*
X44068628Y-17662291D01*
X44160591Y-17692171D01*
X44243429Y-17705291D01*
X44339449Y-17720500D01*
X44339454Y-17720500D01*
X44520551Y-17720500D01*
X44607259Y-17706765D01*
X44699409Y-17692171D01*
X44871639Y-17636211D01*
X45032994Y-17553996D01*
X45179501Y-17447553D01*
X45307553Y-17319501D01*
X45413996Y-17172994D01*
X45496211Y-17011639D01*
X45552171Y-16839409D01*
X45569500Y-16729997D01*
X45577527Y-16679321D01*
X45607456Y-16616186D01*
X45666768Y-16579255D01*
X45736630Y-16580253D01*
X45794863Y-16618863D01*
X45822473Y-16679321D01*
X45847829Y-16839410D01*
X45903787Y-17011636D01*
X45903788Y-17011639D01*
X45986006Y-17172997D01*
X46092441Y-17319494D01*
X46092445Y-17319499D01*
X46220500Y-17447554D01*
X46220505Y-17447558D01*
X46348287Y-17540396D01*
X46367006Y-17553996D01*
X46470500Y-17606729D01*
X46528360Y-17636211D01*
X46528363Y-17636212D01*
X46608628Y-17662291D01*
X46700591Y-17692171D01*
X46783429Y-17705291D01*
X46879449Y-17720500D01*
X46879454Y-17720500D01*
X47060551Y-17720500D01*
X47147259Y-17706765D01*
X47239409Y-17692171D01*
X47411639Y-17636211D01*
X47572994Y-17553996D01*
X47719501Y-17447553D01*
X47847553Y-17319501D01*
X47953996Y-17172994D01*
X48036211Y-17011639D01*
X48092171Y-16839409D01*
X48109500Y-16729997D01*
X48117527Y-16679321D01*
X48147456Y-16616186D01*
X48206768Y-16579255D01*
X48276630Y-16580253D01*
X48334863Y-16618863D01*
X48362473Y-16679321D01*
X48387829Y-16839410D01*
X48443787Y-17011636D01*
X48443788Y-17011639D01*
X48526006Y-17172997D01*
X48632441Y-17319494D01*
X48632445Y-17319499D01*
X48760500Y-17447554D01*
X48760505Y-17447558D01*
X48888287Y-17540396D01*
X48907006Y-17553996D01*
X49010500Y-17606729D01*
X49068360Y-17636211D01*
X49068363Y-17636212D01*
X49148628Y-17662291D01*
X49240591Y-17692171D01*
X49323429Y-17705291D01*
X49419449Y-17720500D01*
X49419454Y-17720500D01*
X49600551Y-17720500D01*
X49687259Y-17706765D01*
X49779409Y-17692171D01*
X49951639Y-17636211D01*
X50112994Y-17553996D01*
X50259501Y-17447553D01*
X50387553Y-17319501D01*
X50493996Y-17172994D01*
X50576211Y-17011639D01*
X50632171Y-16839409D01*
X50649500Y-16729997D01*
X50657527Y-16679321D01*
X50687456Y-16616186D01*
X50746768Y-16579255D01*
X50816630Y-16580253D01*
X50874863Y-16618863D01*
X50902473Y-16679321D01*
X50927829Y-16839410D01*
X50983787Y-17011636D01*
X50983788Y-17011639D01*
X51066006Y-17172997D01*
X51172441Y-17319494D01*
X51172445Y-17319499D01*
X51300500Y-17447554D01*
X51300505Y-17447558D01*
X51428287Y-17540396D01*
X51447006Y-17553996D01*
X51550500Y-17606729D01*
X51608360Y-17636211D01*
X51608363Y-17636212D01*
X51688628Y-17662291D01*
X51780591Y-17692171D01*
X51863429Y-17705291D01*
X51959449Y-17720500D01*
X51959454Y-17720500D01*
X52140551Y-17720500D01*
X52227259Y-17706765D01*
X52319409Y-17692171D01*
X52491639Y-17636211D01*
X52652994Y-17553996D01*
X52799501Y-17447553D01*
X52927553Y-17319501D01*
X53033996Y-17172994D01*
X53116211Y-17011639D01*
X53172171Y-16839409D01*
X53189500Y-16729997D01*
X53197527Y-16679321D01*
X53227456Y-16616186D01*
X53286768Y-16579255D01*
X53356630Y-16580253D01*
X53414863Y-16618863D01*
X53442473Y-16679321D01*
X53467829Y-16839410D01*
X53523787Y-17011636D01*
X53523788Y-17011639D01*
X53606006Y-17172997D01*
X53712441Y-17319494D01*
X53712445Y-17319499D01*
X53840500Y-17447554D01*
X53840505Y-17447558D01*
X53968287Y-17540396D01*
X53987006Y-17553996D01*
X54090500Y-17606729D01*
X54148360Y-17636211D01*
X54148363Y-17636212D01*
X54228628Y-17662291D01*
X54320591Y-17692171D01*
X54403429Y-17705291D01*
X54499449Y-17720500D01*
X54499454Y-17720500D01*
X54680551Y-17720500D01*
X54767259Y-17706765D01*
X54859409Y-17692171D01*
X55031639Y-17636211D01*
X55192994Y-17553996D01*
X55339501Y-17447553D01*
X55467553Y-17319501D01*
X55573996Y-17172994D01*
X55656211Y-17011639D01*
X55712171Y-16839409D01*
X55729500Y-16729997D01*
X55737527Y-16679321D01*
X55767456Y-16616186D01*
X55826768Y-16579255D01*
X55896630Y-16580253D01*
G37*
%TD.AperFunction*%
%TA.AperFunction,Conductor*%
G36*
X84660725Y-1519685D02*
G01*
X84706480Y-1572489D01*
X84716424Y-1641647D01*
X84687399Y-1705203D01*
X84681367Y-1711681D01*
X84595242Y-1797805D01*
X84416633Y-2021774D01*
X84264223Y-2264333D01*
X84139935Y-2522420D01*
X84139929Y-2522434D01*
X84045321Y-2792806D01*
X84045317Y-2792818D01*
X83981572Y-3072108D01*
X83949500Y-3356762D01*
X83949500Y-3643237D01*
X83981572Y-3927891D01*
X84045317Y-4207181D01*
X84045321Y-4207193D01*
X84139929Y-4477565D01*
X84139935Y-4477579D01*
X84264223Y-4735666D01*
X84264225Y-4735669D01*
X84416634Y-4978227D01*
X84513666Y-5099901D01*
X84587904Y-5192993D01*
X84595243Y-5202195D01*
X84797805Y-5404757D01*
X85021773Y-5583366D01*
X85264331Y-5735775D01*
X85522428Y-5860068D01*
X85522434Y-5860070D01*
X85792806Y-5954678D01*
X85792818Y-5954682D01*
X86072102Y-6018426D01*
X86072105Y-6018426D01*
X86072108Y-6018427D01*
X86072107Y-6018427D01*
X86214434Y-6034463D01*
X86356763Y-6050499D01*
X86356764Y-6050500D01*
X86356767Y-6050500D01*
X86643236Y-6050500D01*
X86643236Y-6050499D01*
X86848815Y-6027336D01*
X86927891Y-6018427D01*
X86927892Y-6018426D01*
X86927898Y-6018426D01*
X87207182Y-5954682D01*
X87477572Y-5860068D01*
X87735669Y-5735775D01*
X87978227Y-5583366D01*
X88202195Y-5404757D01*
X88288319Y-5318633D01*
X88349642Y-5285148D01*
X88419334Y-5290132D01*
X88475267Y-5332004D01*
X88499684Y-5397468D01*
X88500000Y-5406314D01*
X88500000Y-54593686D01*
X88480315Y-54660725D01*
X88427511Y-54706480D01*
X88358353Y-54716424D01*
X88294797Y-54687399D01*
X88288319Y-54681367D01*
X88202194Y-54595242D01*
X88092017Y-54507379D01*
X87978227Y-54416634D01*
X87735669Y-54264225D01*
X87735666Y-54264223D01*
X87477579Y-54139935D01*
X87477565Y-54139929D01*
X87207193Y-54045321D01*
X87207181Y-54045317D01*
X86927891Y-53981572D01*
X86927892Y-53981572D01*
X86643237Y-53949500D01*
X86643233Y-53949500D01*
X86356767Y-53949500D01*
X86356762Y-53949500D01*
X86072108Y-53981572D01*
X85792818Y-54045317D01*
X85792806Y-54045321D01*
X85522434Y-54139929D01*
X85522420Y-54139935D01*
X85264333Y-54264223D01*
X85021774Y-54416633D01*
X84797805Y-54595242D01*
X84595242Y-54797805D01*
X84416633Y-55021774D01*
X84264223Y-55264333D01*
X84139935Y-55522420D01*
X84139929Y-55522434D01*
X84045321Y-55792806D01*
X84045317Y-55792818D01*
X83981572Y-56072108D01*
X83949500Y-56356762D01*
X83949500Y-56643237D01*
X83981572Y-56927891D01*
X84045317Y-57207181D01*
X84045321Y-57207193D01*
X84139929Y-57477565D01*
X84139935Y-57477579D01*
X84264223Y-57735666D01*
X84264225Y-57735669D01*
X84416634Y-57978227D01*
X84549883Y-58145315D01*
X84595242Y-58202194D01*
X84681367Y-58288319D01*
X84714852Y-58349642D01*
X84709868Y-58419334D01*
X84667996Y-58475267D01*
X84602532Y-58499684D01*
X84593686Y-58500000D01*
X5406314Y-58500000D01*
X5339275Y-58480315D01*
X5293520Y-58427511D01*
X5283576Y-58358353D01*
X5312601Y-58294797D01*
X5318633Y-58288319D01*
X5404757Y-58202195D01*
X5583366Y-57978227D01*
X5735775Y-57735669D01*
X5860068Y-57477572D01*
X5954682Y-57207182D01*
X6018426Y-56927898D01*
X6050500Y-56643233D01*
X6050500Y-56356767D01*
X6018426Y-56072102D01*
X5954682Y-55792818D01*
X5860068Y-55522428D01*
X5735775Y-55264331D01*
X5583366Y-55021773D01*
X5404757Y-54797805D01*
X5202195Y-54595243D01*
X4978227Y-54416634D01*
X4735669Y-54264225D01*
X4735666Y-54264223D01*
X4477579Y-54139935D01*
X4477565Y-54139929D01*
X4207193Y-54045321D01*
X4207181Y-54045317D01*
X3927891Y-53981572D01*
X3927892Y-53981572D01*
X3643237Y-53949500D01*
X3643233Y-53949500D01*
X3356767Y-53949500D01*
X3356762Y-53949500D01*
X3072108Y-53981572D01*
X2792818Y-54045317D01*
X2792806Y-54045321D01*
X2522434Y-54139929D01*
X2522420Y-54139935D01*
X2264333Y-54264223D01*
X2021774Y-54416633D01*
X1797805Y-54595242D01*
X1711681Y-54681367D01*
X1650358Y-54714852D01*
X1580666Y-54709868D01*
X1524733Y-54667996D01*
X1500316Y-54602532D01*
X1500000Y-54593686D01*
X1500000Y-51555131D01*
X18719500Y-51555131D01*
X18719500Y-54444856D01*
X18719502Y-54444882D01*
X18722413Y-54469987D01*
X18722415Y-54469991D01*
X18767793Y-54572764D01*
X18767794Y-54572765D01*
X18847235Y-54652206D01*
X18950009Y-54697585D01*
X18975135Y-54700500D01*
X21864864Y-54700499D01*
X21864879Y-54700497D01*
X21864882Y-54700497D01*
X21889987Y-54697586D01*
X21889988Y-54697585D01*
X21889991Y-54697585D01*
X21992765Y-54652206D01*
X22072206Y-54572765D01*
X22117585Y-54469991D01*
X22120500Y-54444865D01*
X22120499Y-51555136D01*
X22120499Y-51555135D01*
X22120499Y-51555131D01*
X23799500Y-51555131D01*
X23799500Y-54444856D01*
X23799502Y-54444882D01*
X23802413Y-54469987D01*
X23802415Y-54469991D01*
X23847793Y-54572764D01*
X23847794Y-54572765D01*
X23927235Y-54652206D01*
X24030009Y-54697585D01*
X24055135Y-54700500D01*
X26944864Y-54700499D01*
X26944879Y-54700497D01*
X26944882Y-54700497D01*
X26969987Y-54697586D01*
X26969988Y-54697585D01*
X26969991Y-54697585D01*
X27072765Y-54652206D01*
X27152206Y-54572765D01*
X27197585Y-54469991D01*
X27200500Y-54444865D01*
X27200499Y-51555136D01*
X27200499Y-51555135D01*
X27200499Y-51555131D01*
X28879500Y-51555131D01*
X28879500Y-54444856D01*
X28879502Y-54444882D01*
X28882413Y-54469987D01*
X28882415Y-54469991D01*
X28927793Y-54572764D01*
X28927794Y-54572765D01*
X29007235Y-54652206D01*
X29110009Y-54697585D01*
X29135135Y-54700500D01*
X32024864Y-54700499D01*
X32024879Y-54700497D01*
X32024882Y-54700497D01*
X32049987Y-54697586D01*
X32049988Y-54697585D01*
X32049991Y-54697585D01*
X32152765Y-54652206D01*
X32232206Y-54572765D01*
X32277585Y-54469991D01*
X32280500Y-54444865D01*
X32280499Y-51555136D01*
X32280499Y-51555135D01*
X32280499Y-51555131D01*
X36259500Y-51555131D01*
X36259500Y-54444856D01*
X36259502Y-54444882D01*
X36262413Y-54469987D01*
X36262415Y-54469991D01*
X36307793Y-54572764D01*
X36307794Y-54572765D01*
X36387235Y-54652206D01*
X36490009Y-54697585D01*
X36515135Y-54700500D01*
X39404864Y-54700499D01*
X39404879Y-54700497D01*
X39404882Y-54700497D01*
X39429987Y-54697586D01*
X39429988Y-54697585D01*
X39429991Y-54697585D01*
X39532765Y-54652206D01*
X39612206Y-54572765D01*
X39657585Y-54469991D01*
X39660500Y-54444865D01*
X39660499Y-52926131D01*
X39660499Y-51555130D01*
X39660154Y-51552155D01*
X41140000Y-51552155D01*
X41140000Y-52750000D01*
X42331759Y-52750000D01*
X42318822Y-52781233D01*
X42290000Y-52926131D01*
X42290000Y-53073869D01*
X42318822Y-53218767D01*
X42331759Y-53250000D01*
X41140000Y-53250000D01*
X41140000Y-54447844D01*
X41146401Y-54507372D01*
X41146403Y-54507379D01*
X41196645Y-54642086D01*
X41196649Y-54642093D01*
X41282809Y-54757187D01*
X41282812Y-54757190D01*
X41397906Y-54843350D01*
X41397913Y-54843354D01*
X41532620Y-54893596D01*
X41532627Y-54893598D01*
X41592155Y-54899999D01*
X41592172Y-54900000D01*
X42790000Y-54900000D01*
X42790000Y-53708240D01*
X42821233Y-53721178D01*
X42966131Y-53750000D01*
X43113869Y-53750000D01*
X43258767Y-53721178D01*
X43290000Y-53708240D01*
X43290000Y-54900000D01*
X44487828Y-54900000D01*
X44487844Y-54899999D01*
X44547372Y-54893598D01*
X44547379Y-54893596D01*
X44682086Y-54843354D01*
X44682093Y-54843350D01*
X44797187Y-54757190D01*
X44797190Y-54757187D01*
X44883350Y-54642093D01*
X44883354Y-54642086D01*
X44933596Y-54507379D01*
X44933598Y-54507372D01*
X44939999Y-54447844D01*
X44940000Y-54447827D01*
X44940000Y-53250000D01*
X43748241Y-53250000D01*
X43761178Y-53218767D01*
X43790000Y-53073869D01*
X43790000Y-52926131D01*
X43761178Y-52781233D01*
X43748241Y-52750000D01*
X44940000Y-52750000D01*
X44940000Y-51555131D01*
X48259500Y-51555131D01*
X48259500Y-54444856D01*
X48259502Y-54444882D01*
X48262413Y-54469987D01*
X48262415Y-54469991D01*
X48307793Y-54572764D01*
X48307794Y-54572765D01*
X48387235Y-54652206D01*
X48490009Y-54697585D01*
X48515135Y-54700500D01*
X51404864Y-54700499D01*
X51404879Y-54700497D01*
X51404882Y-54700497D01*
X51429987Y-54697586D01*
X51429988Y-54697585D01*
X51429991Y-54697585D01*
X51532765Y-54652206D01*
X51612206Y-54572765D01*
X51657585Y-54469991D01*
X51660500Y-54444865D01*
X51660499Y-52926131D01*
X51660499Y-51555130D01*
X51660154Y-51552155D01*
X53140000Y-51552155D01*
X53140000Y-52750000D01*
X54331759Y-52750000D01*
X54318822Y-52781233D01*
X54290000Y-52926131D01*
X54290000Y-53073869D01*
X54318822Y-53218767D01*
X54331759Y-53250000D01*
X53140000Y-53250000D01*
X53140000Y-54447844D01*
X53146401Y-54507372D01*
X53146403Y-54507379D01*
X53196645Y-54642086D01*
X53196649Y-54642093D01*
X53282809Y-54757187D01*
X53282812Y-54757190D01*
X53397906Y-54843350D01*
X53397913Y-54843354D01*
X53532620Y-54893596D01*
X53532627Y-54893598D01*
X53592155Y-54899999D01*
X53592172Y-54900000D01*
X54790000Y-54900000D01*
X54790000Y-53708240D01*
X54821233Y-53721178D01*
X54966131Y-53750000D01*
X55113869Y-53750000D01*
X55258767Y-53721178D01*
X55290000Y-53708240D01*
X55290000Y-54900000D01*
X56487828Y-54900000D01*
X56487844Y-54899999D01*
X56547372Y-54893598D01*
X56547379Y-54893596D01*
X56682086Y-54843354D01*
X56682093Y-54843350D01*
X56797187Y-54757190D01*
X56797190Y-54757187D01*
X56883350Y-54642093D01*
X56883354Y-54642086D01*
X56933596Y-54507379D01*
X56933598Y-54507372D01*
X56939999Y-54447844D01*
X56940000Y-54447827D01*
X56940000Y-53250000D01*
X55748241Y-53250000D01*
X55761178Y-53218767D01*
X55790000Y-53073869D01*
X55790000Y-52926131D01*
X55761178Y-52781233D01*
X55748241Y-52750000D01*
X56940000Y-52750000D01*
X56940000Y-51555131D01*
X60679500Y-51555131D01*
X60679500Y-54444856D01*
X60679502Y-54444882D01*
X60682413Y-54469987D01*
X60682415Y-54469991D01*
X60727793Y-54572764D01*
X60727794Y-54572765D01*
X60807235Y-54652206D01*
X60910009Y-54697585D01*
X60935135Y-54700500D01*
X63824864Y-54700499D01*
X63824879Y-54700497D01*
X63824882Y-54700497D01*
X63849987Y-54697586D01*
X63849988Y-54697585D01*
X63849991Y-54697585D01*
X63952765Y-54652206D01*
X64032206Y-54572765D01*
X64077585Y-54469991D01*
X64080500Y-54444865D01*
X64080499Y-52926131D01*
X64080499Y-51555130D01*
X64080154Y-51552155D01*
X65560000Y-51552155D01*
X65560000Y-52750000D01*
X66751759Y-52750000D01*
X66738822Y-52781233D01*
X66710000Y-52926131D01*
X66710000Y-53073869D01*
X66738822Y-53218767D01*
X66751759Y-53250000D01*
X65560000Y-53250000D01*
X65560000Y-54447844D01*
X65566401Y-54507372D01*
X65566403Y-54507379D01*
X65616645Y-54642086D01*
X65616649Y-54642093D01*
X65702809Y-54757187D01*
X65702812Y-54757190D01*
X65817906Y-54843350D01*
X65817913Y-54843354D01*
X65952620Y-54893596D01*
X65952627Y-54893598D01*
X66012155Y-54899999D01*
X66012172Y-54900000D01*
X67210000Y-54900000D01*
X67210000Y-53708240D01*
X67241233Y-53721178D01*
X67386131Y-53750000D01*
X67533869Y-53750000D01*
X67678767Y-53721178D01*
X67710000Y-53708240D01*
X67710000Y-54900000D01*
X68907828Y-54900000D01*
X68907844Y-54899999D01*
X68967372Y-54893598D01*
X68967379Y-54893596D01*
X69102086Y-54843354D01*
X69102093Y-54843350D01*
X69217187Y-54757190D01*
X69217190Y-54757187D01*
X69303350Y-54642093D01*
X69303354Y-54642086D01*
X69353596Y-54507379D01*
X69353598Y-54507372D01*
X69359999Y-54447844D01*
X69360000Y-54447827D01*
X69360000Y-53250000D01*
X68168241Y-53250000D01*
X68181178Y-53218767D01*
X68210000Y-53073869D01*
X68210000Y-52926131D01*
X68181178Y-52781233D01*
X68168241Y-52750000D01*
X69360000Y-52750000D01*
X69360000Y-51555131D01*
X70839500Y-51555131D01*
X70839500Y-54444856D01*
X70839502Y-54444882D01*
X70842413Y-54469987D01*
X70842415Y-54469991D01*
X70887793Y-54572764D01*
X70887794Y-54572765D01*
X70967235Y-54652206D01*
X71070009Y-54697585D01*
X71095135Y-54700500D01*
X73984864Y-54700499D01*
X73984879Y-54700497D01*
X73984882Y-54700497D01*
X74009987Y-54697586D01*
X74009988Y-54697585D01*
X74009991Y-54697585D01*
X74112765Y-54652206D01*
X74192206Y-54572765D01*
X74237585Y-54469991D01*
X74240500Y-54444865D01*
X74240499Y-51555136D01*
X74240499Y-51555135D01*
X74240499Y-51555131D01*
X75919500Y-51555131D01*
X75919500Y-54444856D01*
X75919502Y-54444882D01*
X75922413Y-54469987D01*
X75922415Y-54469991D01*
X75967793Y-54572764D01*
X75967794Y-54572765D01*
X76047235Y-54652206D01*
X76150009Y-54697585D01*
X76175135Y-54700500D01*
X79064864Y-54700499D01*
X79064879Y-54700497D01*
X79064882Y-54700497D01*
X79089987Y-54697586D01*
X79089988Y-54697585D01*
X79089991Y-54697585D01*
X79192765Y-54652206D01*
X79272206Y-54572765D01*
X79317585Y-54469991D01*
X79320500Y-54444865D01*
X79320499Y-51555136D01*
X79320497Y-51555117D01*
X79317586Y-51530012D01*
X79317585Y-51530010D01*
X79317585Y-51530009D01*
X79272206Y-51427235D01*
X79192765Y-51347794D01*
X79192763Y-51347793D01*
X79089992Y-51302415D01*
X79064865Y-51299500D01*
X76175143Y-51299500D01*
X76175117Y-51299502D01*
X76150012Y-51302413D01*
X76150008Y-51302415D01*
X76047235Y-51347793D01*
X75967794Y-51427234D01*
X75922415Y-51530006D01*
X75922415Y-51530008D01*
X75919500Y-51555131D01*
X74240499Y-51555131D01*
X74240499Y-51555130D01*
X74237586Y-51530012D01*
X74237585Y-51530010D01*
X74237585Y-51530009D01*
X74192206Y-51427235D01*
X74112765Y-51347794D01*
X74112763Y-51347793D01*
X74009992Y-51302415D01*
X73984865Y-51299500D01*
X71095143Y-51299500D01*
X71095117Y-51299502D01*
X71070012Y-51302413D01*
X71070008Y-51302415D01*
X70967235Y-51347793D01*
X70887794Y-51427234D01*
X70842415Y-51530006D01*
X70842415Y-51530008D01*
X70839500Y-51555131D01*
X69360000Y-51555131D01*
X69360000Y-51552172D01*
X69359999Y-51552155D01*
X69353598Y-51492627D01*
X69353596Y-51492620D01*
X69303354Y-51357913D01*
X69303350Y-51357906D01*
X69217190Y-51242812D01*
X69217187Y-51242809D01*
X69102093Y-51156649D01*
X69102086Y-51156645D01*
X68967379Y-51106403D01*
X68967372Y-51106401D01*
X68907844Y-51100000D01*
X67710000Y-51100000D01*
X67710000Y-52291759D01*
X67678767Y-52278822D01*
X67533869Y-52250000D01*
X67386131Y-52250000D01*
X67241233Y-52278822D01*
X67210000Y-52291759D01*
X67210000Y-51100000D01*
X66012155Y-51100000D01*
X65952627Y-51106401D01*
X65952620Y-51106403D01*
X65817913Y-51156645D01*
X65817906Y-51156649D01*
X65702812Y-51242809D01*
X65702809Y-51242812D01*
X65616649Y-51357906D01*
X65616645Y-51357913D01*
X65566403Y-51492620D01*
X65566401Y-51492627D01*
X65560000Y-51552155D01*
X64080154Y-51552155D01*
X64077586Y-51530012D01*
X64077585Y-51530010D01*
X64077585Y-51530009D01*
X64032206Y-51427235D01*
X63952765Y-51347794D01*
X63952763Y-51347793D01*
X63849992Y-51302415D01*
X63824865Y-51299500D01*
X60935143Y-51299500D01*
X60935117Y-51299502D01*
X60910012Y-51302413D01*
X60910008Y-51302415D01*
X60807235Y-51347793D01*
X60727794Y-51427234D01*
X60682415Y-51530006D01*
X60682415Y-51530008D01*
X60679500Y-51555131D01*
X56940000Y-51555131D01*
X56940000Y-51552172D01*
X56939999Y-51552155D01*
X56933598Y-51492627D01*
X56933596Y-51492620D01*
X56883354Y-51357913D01*
X56883350Y-51357906D01*
X56797190Y-51242812D01*
X56797187Y-51242809D01*
X56682093Y-51156649D01*
X56682086Y-51156645D01*
X56547379Y-51106403D01*
X56547372Y-51106401D01*
X56487844Y-51100000D01*
X55290000Y-51100000D01*
X55290000Y-52291759D01*
X55258767Y-52278822D01*
X55113869Y-52250000D01*
X54966131Y-52250000D01*
X54821233Y-52278822D01*
X54790000Y-52291759D01*
X54790000Y-51100000D01*
X53592155Y-51100000D01*
X53532627Y-51106401D01*
X53532620Y-51106403D01*
X53397913Y-51156645D01*
X53397906Y-51156649D01*
X53282812Y-51242809D01*
X53282809Y-51242812D01*
X53196649Y-51357906D01*
X53196645Y-51357913D01*
X53146403Y-51492620D01*
X53146401Y-51492627D01*
X53140000Y-51552155D01*
X51660154Y-51552155D01*
X51657586Y-51530012D01*
X51657585Y-51530010D01*
X51657585Y-51530009D01*
X51612206Y-51427235D01*
X51532765Y-51347794D01*
X51532763Y-51347793D01*
X51429992Y-51302415D01*
X51404865Y-51299500D01*
X48515143Y-51299500D01*
X48515117Y-51299502D01*
X48490012Y-51302413D01*
X48490008Y-51302415D01*
X48387235Y-51347793D01*
X48307794Y-51427234D01*
X48262415Y-51530006D01*
X48262415Y-51530008D01*
X48259500Y-51555131D01*
X44940000Y-51555131D01*
X44940000Y-51552172D01*
X44939999Y-51552155D01*
X44933598Y-51492627D01*
X44933596Y-51492620D01*
X44883354Y-51357913D01*
X44883350Y-51357906D01*
X44797190Y-51242812D01*
X44797187Y-51242809D01*
X44682093Y-51156649D01*
X44682086Y-51156645D01*
X44547379Y-51106403D01*
X44547372Y-51106401D01*
X44487844Y-51100000D01*
X43290000Y-51100000D01*
X43290000Y-52291759D01*
X43258767Y-52278822D01*
X43113869Y-52250000D01*
X42966131Y-52250000D01*
X42821233Y-52278822D01*
X42790000Y-52291759D01*
X42790000Y-51100000D01*
X41592155Y-51100000D01*
X41532627Y-51106401D01*
X41532620Y-51106403D01*
X41397913Y-51156645D01*
X41397906Y-51156649D01*
X41282812Y-51242809D01*
X41282809Y-51242812D01*
X41196649Y-51357906D01*
X41196645Y-51357913D01*
X41146403Y-51492620D01*
X41146401Y-51492627D01*
X41140000Y-51552155D01*
X39660154Y-51552155D01*
X39657586Y-51530012D01*
X39657585Y-51530010D01*
X39657585Y-51530009D01*
X39612206Y-51427235D01*
X39532765Y-51347794D01*
X39532763Y-51347793D01*
X39429992Y-51302415D01*
X39404865Y-51299500D01*
X36515143Y-51299500D01*
X36515117Y-51299502D01*
X36490012Y-51302413D01*
X36490008Y-51302415D01*
X36387235Y-51347793D01*
X36307794Y-51427234D01*
X36262415Y-51530006D01*
X36262415Y-51530008D01*
X36259500Y-51555131D01*
X32280499Y-51555131D01*
X32280499Y-51555130D01*
X32277586Y-51530012D01*
X32277585Y-51530010D01*
X32277585Y-51530009D01*
X32232206Y-51427235D01*
X32152765Y-51347794D01*
X32152763Y-51347793D01*
X32049992Y-51302415D01*
X32024865Y-51299500D01*
X29135143Y-51299500D01*
X29135117Y-51299502D01*
X29110012Y-51302413D01*
X29110008Y-51302415D01*
X29007235Y-51347793D01*
X28927794Y-51427234D01*
X28882415Y-51530006D01*
X28882415Y-51530008D01*
X28879500Y-51555131D01*
X27200499Y-51555131D01*
X27200499Y-51555130D01*
X27197586Y-51530012D01*
X27197585Y-51530010D01*
X27197585Y-51530009D01*
X27152206Y-51427235D01*
X27072765Y-51347794D01*
X27072763Y-51347793D01*
X26969992Y-51302415D01*
X26944865Y-51299500D01*
X24055143Y-51299500D01*
X24055117Y-51299502D01*
X24030012Y-51302413D01*
X24030008Y-51302415D01*
X23927235Y-51347793D01*
X23847794Y-51427234D01*
X23802415Y-51530006D01*
X23802415Y-51530008D01*
X23799500Y-51555131D01*
X22120499Y-51555131D01*
X22120499Y-51555130D01*
X22117586Y-51530012D01*
X22117585Y-51530010D01*
X22117585Y-51530009D01*
X22072206Y-51427235D01*
X21992765Y-51347794D01*
X21992763Y-51347793D01*
X21889992Y-51302415D01*
X21864865Y-51299500D01*
X18975143Y-51299500D01*
X18975117Y-51299502D01*
X18950012Y-51302413D01*
X18950008Y-51302415D01*
X18847235Y-51347793D01*
X18767794Y-51427234D01*
X18722415Y-51530006D01*
X18722415Y-51530008D01*
X18719500Y-51555131D01*
X1500000Y-51555131D01*
X1500000Y-47568995D01*
X63799499Y-47568995D01*
X63826418Y-47704322D01*
X63826421Y-47704332D01*
X63879221Y-47831804D01*
X63879228Y-47831817D01*
X63955884Y-47946540D01*
X63955885Y-47946541D01*
X63955886Y-47946542D01*
X64013182Y-48003838D01*
X64046666Y-48065159D01*
X64049500Y-48091518D01*
X64049500Y-48559309D01*
X64080201Y-48673886D01*
X64139511Y-48776613D01*
X64223387Y-48860489D01*
X64326114Y-48919799D01*
X64440691Y-48950500D01*
X64559309Y-48950500D01*
X85408482Y-48950500D01*
X85475521Y-48970185D01*
X85496158Y-48986814D01*
X85553455Y-49044111D01*
X85553459Y-49044115D01*
X85668182Y-49120771D01*
X85668195Y-49120778D01*
X85795667Y-49173578D01*
X85795672Y-49173580D01*
X85795676Y-49173580D01*
X85795677Y-49173581D01*
X85931004Y-49200500D01*
X85931007Y-49200500D01*
X86068995Y-49200500D01*
X86160041Y-49182389D01*
X86204328Y-49173580D01*
X86331811Y-49120775D01*
X86446542Y-49044114D01*
X86544114Y-48946542D01*
X86620775Y-48831811D01*
X86673580Y-48704328D01*
X86700500Y-48568993D01*
X86700500Y-48431007D01*
X86700500Y-48431004D01*
X86673581Y-48295677D01*
X86673580Y-48295676D01*
X86673580Y-48295672D01*
X86673578Y-48295667D01*
X86620778Y-48168195D01*
X86620771Y-48168182D01*
X86544114Y-48053458D01*
X86544111Y-48053454D01*
X86446545Y-47955888D01*
X86446541Y-47955885D01*
X86331817Y-47879228D01*
X86331804Y-47879221D01*
X86204332Y-47826421D01*
X86204322Y-47826418D01*
X86068995Y-47799500D01*
X86068993Y-47799500D01*
X85931007Y-47799500D01*
X85931005Y-47799500D01*
X85795677Y-47826418D01*
X85795667Y-47826421D01*
X85668195Y-47879221D01*
X85668182Y-47879228D01*
X85553459Y-47955884D01*
X85532333Y-47977011D01*
X85496161Y-48013182D01*
X85434841Y-48046666D01*
X85408482Y-48049500D01*
X65207308Y-48049500D01*
X65140269Y-48029815D01*
X65094514Y-47977011D01*
X65084570Y-47907853D01*
X65104206Y-47856609D01*
X65120771Y-47831817D01*
X65120771Y-47831816D01*
X65120775Y-47831811D01*
X65173580Y-47704328D01*
X65200500Y-47568993D01*
X65200500Y-47431007D01*
X65200500Y-47431004D01*
X65173581Y-47295677D01*
X65173580Y-47295676D01*
X65173580Y-47295672D01*
X65165685Y-47276612D01*
X65120778Y-47168195D01*
X65120771Y-47168182D01*
X65044114Y-47053458D01*
X65044111Y-47053454D01*
X64946545Y-46955888D01*
X64946541Y-46955885D01*
X64831817Y-46879228D01*
X64831804Y-46879221D01*
X64704332Y-46826421D01*
X64704322Y-46826418D01*
X64568995Y-46799500D01*
X64568993Y-46799500D01*
X64431007Y-46799500D01*
X64431005Y-46799500D01*
X64295677Y-46826418D01*
X64295667Y-46826421D01*
X64168195Y-46879221D01*
X64168182Y-46879228D01*
X64053458Y-46955885D01*
X64053454Y-46955888D01*
X63955888Y-47053454D01*
X63955885Y-47053458D01*
X63879228Y-47168182D01*
X63879221Y-47168195D01*
X63826421Y-47295667D01*
X63826418Y-47295677D01*
X63799500Y-47431004D01*
X63799500Y-47431007D01*
X63799500Y-47568993D01*
X63799500Y-47568995D01*
X63799499Y-47568995D01*
X1500000Y-47568995D01*
X1500000Y-45909448D01*
X8309500Y-45909448D01*
X8309500Y-46090551D01*
X8337829Y-46269410D01*
X8393787Y-46441636D01*
X8393788Y-46441639D01*
X8423605Y-46500156D01*
X8458273Y-46568196D01*
X8476006Y-46602997D01*
X8582441Y-46749494D01*
X8582445Y-46749499D01*
X8710500Y-46877554D01*
X8710505Y-46877558D01*
X8712804Y-46879228D01*
X8857006Y-46983996D01*
X8962484Y-47037740D01*
X9018360Y-47066211D01*
X9018363Y-47066212D01*
X9104476Y-47094191D01*
X9190591Y-47122171D01*
X9273429Y-47135291D01*
X9369449Y-47150500D01*
X9369454Y-47150500D01*
X9550551Y-47150500D01*
X9637259Y-47136765D01*
X9729409Y-47122171D01*
X9901639Y-47066211D01*
X10062994Y-46983996D01*
X10209501Y-46877553D01*
X10337553Y-46749501D01*
X10443996Y-46602994D01*
X10526211Y-46441639D01*
X10582171Y-46269409D01*
X10597300Y-46173886D01*
X10607527Y-46109321D01*
X10637456Y-46046186D01*
X10696768Y-46009255D01*
X10766630Y-46010253D01*
X10824863Y-46048863D01*
X10852473Y-46109321D01*
X10877829Y-46269410D01*
X10933787Y-46441636D01*
X10933788Y-46441639D01*
X10963605Y-46500156D01*
X10998273Y-46568196D01*
X11016006Y-46602997D01*
X11122441Y-46749494D01*
X11122445Y-46749499D01*
X11250500Y-46877554D01*
X11250505Y-46877558D01*
X11252804Y-46879228D01*
X11397006Y-46983996D01*
X11502484Y-47037740D01*
X11558360Y-47066211D01*
X11558363Y-47066212D01*
X11644476Y-47094191D01*
X11730591Y-47122171D01*
X11813429Y-47135291D01*
X11909449Y-47150500D01*
X11909454Y-47150500D01*
X12090551Y-47150500D01*
X12177259Y-47136765D01*
X12269409Y-47122171D01*
X12441639Y-47066211D01*
X12602994Y-46983996D01*
X12749501Y-46877553D01*
X12877553Y-46749501D01*
X12983996Y-46602994D01*
X13066211Y-46441639D01*
X13122171Y-46269409D01*
X13137300Y-46173886D01*
X13147527Y-46109321D01*
X13177456Y-46046186D01*
X13236768Y-46009255D01*
X13306630Y-46010253D01*
X13364863Y-46048863D01*
X13392473Y-46109321D01*
X13417829Y-46269410D01*
X13473787Y-46441636D01*
X13473788Y-46441639D01*
X13503605Y-46500156D01*
X13538273Y-46568196D01*
X13556006Y-46602997D01*
X13662441Y-46749494D01*
X13662445Y-46749499D01*
X13790500Y-46877554D01*
X13790505Y-46877558D01*
X13792804Y-46879228D01*
X13937006Y-46983996D01*
X14042484Y-47037740D01*
X14098360Y-47066211D01*
X14098363Y-47066212D01*
X14184476Y-47094191D01*
X14270591Y-47122171D01*
X14353429Y-47135291D01*
X14449449Y-47150500D01*
X14449454Y-47150500D01*
X14630551Y-47150500D01*
X14717259Y-47136765D01*
X14809409Y-47122171D01*
X14981639Y-47066211D01*
X15142994Y-46983996D01*
X15289501Y-46877553D01*
X15417553Y-46749501D01*
X15523996Y-46602994D01*
X15606211Y-46441639D01*
X15662171Y-46269409D01*
X15677300Y-46173886D01*
X15690500Y-46090551D01*
X15690500Y-45909448D01*
X15674019Y-45805397D01*
X15662171Y-45730591D01*
X15606211Y-45558361D01*
X15606211Y-45558360D01*
X15553997Y-45455886D01*
X15523996Y-45397006D01*
X15487087Y-45346205D01*
X15417558Y-45250505D01*
X15417554Y-45250500D01*
X15289499Y-45122445D01*
X15289494Y-45122441D01*
X15142997Y-45016006D01*
X15142996Y-45016005D01*
X15142994Y-45016004D01*
X15091300Y-44989664D01*
X14981639Y-44933788D01*
X14981636Y-44933787D01*
X14809410Y-44877829D01*
X14630551Y-44849500D01*
X14630546Y-44849500D01*
X14449454Y-44849500D01*
X14449449Y-44849500D01*
X14270589Y-44877829D01*
X14098363Y-44933787D01*
X14098360Y-44933788D01*
X13937002Y-45016006D01*
X13790505Y-45122441D01*
X13790500Y-45122445D01*
X13662445Y-45250500D01*
X13662441Y-45250505D01*
X13556006Y-45397002D01*
X13473788Y-45558360D01*
X13473787Y-45558363D01*
X13417829Y-45730589D01*
X13392473Y-45890678D01*
X13362544Y-45953813D01*
X13303232Y-45990744D01*
X13233369Y-45989746D01*
X13175137Y-45951136D01*
X13147527Y-45890678D01*
X13133740Y-45803639D01*
X13122171Y-45730591D01*
X13066211Y-45558361D01*
X13066211Y-45558360D01*
X13013997Y-45455886D01*
X12983996Y-45397006D01*
X12947087Y-45346205D01*
X12877558Y-45250505D01*
X12877554Y-45250500D01*
X12749499Y-45122445D01*
X12749494Y-45122441D01*
X12602997Y-45016006D01*
X12602996Y-45016005D01*
X12602994Y-45016004D01*
X12551300Y-44989664D01*
X12441639Y-44933788D01*
X12441636Y-44933787D01*
X12269410Y-44877829D01*
X12090551Y-44849500D01*
X12090546Y-44849500D01*
X11909454Y-44849500D01*
X11909449Y-44849500D01*
X11730589Y-44877829D01*
X11558363Y-44933787D01*
X11558360Y-44933788D01*
X11397002Y-45016006D01*
X11250505Y-45122441D01*
X11250500Y-45122445D01*
X11122445Y-45250500D01*
X11122441Y-45250505D01*
X11016006Y-45397002D01*
X10933788Y-45558360D01*
X10933787Y-45558363D01*
X10877829Y-45730589D01*
X10852473Y-45890678D01*
X10822544Y-45953813D01*
X10763232Y-45990744D01*
X10693369Y-45989746D01*
X10635137Y-45951136D01*
X10607527Y-45890678D01*
X10593740Y-45803639D01*
X10582171Y-45730591D01*
X10526211Y-45558361D01*
X10526211Y-45558360D01*
X10473997Y-45455886D01*
X10443996Y-45397006D01*
X10407087Y-45346205D01*
X10337558Y-45250505D01*
X10337554Y-45250500D01*
X10209499Y-45122445D01*
X10209494Y-45122441D01*
X10062997Y-45016006D01*
X10062996Y-45016005D01*
X10062994Y-45016004D01*
X10011300Y-44989664D01*
X9901639Y-44933788D01*
X9901636Y-44933787D01*
X9729410Y-44877829D01*
X9550551Y-44849500D01*
X9550546Y-44849500D01*
X9369454Y-44849500D01*
X9369449Y-44849500D01*
X9190589Y-44877829D01*
X9018363Y-44933787D01*
X9018360Y-44933788D01*
X8857002Y-45016006D01*
X8710505Y-45122441D01*
X8710500Y-45122445D01*
X8582445Y-45250500D01*
X8582441Y-45250505D01*
X8476006Y-45397002D01*
X8393788Y-45558360D01*
X8393787Y-45558363D01*
X8337829Y-45730589D01*
X8309500Y-45909448D01*
X1500000Y-45909448D01*
X1500000Y-39339448D01*
X5179500Y-39339448D01*
X5179500Y-39520551D01*
X5207829Y-39699410D01*
X5263787Y-39871636D01*
X5263788Y-39871639D01*
X5346006Y-40032997D01*
X5452441Y-40179494D01*
X5452445Y-40179499D01*
X5580500Y-40307554D01*
X5580505Y-40307558D01*
X5652810Y-40360090D01*
X5727006Y-40413996D01*
X5818926Y-40460832D01*
X5888360Y-40496211D01*
X5888363Y-40496212D01*
X5974476Y-40524191D01*
X6060591Y-40552171D01*
X6143429Y-40565291D01*
X6239449Y-40580500D01*
X6239454Y-40580500D01*
X6420551Y-40580500D01*
X6510928Y-40566185D01*
X6599409Y-40552171D01*
X6771639Y-40496211D01*
X6932994Y-40413996D01*
X7079501Y-40307553D01*
X7207553Y-40179501D01*
X7313996Y-40032994D01*
X7396211Y-39871639D01*
X7452171Y-39699409D01*
X7470978Y-39580667D01*
X7477527Y-39539321D01*
X7507456Y-39476186D01*
X7566768Y-39439255D01*
X7636630Y-39440253D01*
X7694863Y-39478863D01*
X7722473Y-39539321D01*
X7747829Y-39699410D01*
X7803787Y-39871636D01*
X7803788Y-39871639D01*
X7886006Y-40032997D01*
X7992441Y-40179494D01*
X7992445Y-40179499D01*
X8120500Y-40307554D01*
X8120505Y-40307558D01*
X8192810Y-40360090D01*
X8267006Y-40413996D01*
X8358926Y-40460832D01*
X8428360Y-40496211D01*
X8428363Y-40496212D01*
X8514476Y-40524191D01*
X8600591Y-40552171D01*
X8683429Y-40565291D01*
X8779449Y-40580500D01*
X8779454Y-40580500D01*
X8960551Y-40580500D01*
X9050928Y-40566185D01*
X9139409Y-40552171D01*
X9311639Y-40496211D01*
X9472994Y-40413996D01*
X9619501Y-40307553D01*
X9747553Y-40179501D01*
X9853996Y-40032994D01*
X9936211Y-39871639D01*
X9992171Y-39699409D01*
X10010978Y-39580667D01*
X10017527Y-39539321D01*
X10047456Y-39476186D01*
X10106768Y-39439255D01*
X10176630Y-39440253D01*
X10234863Y-39478863D01*
X10262473Y-39539321D01*
X10287829Y-39699410D01*
X10343787Y-39871636D01*
X10343788Y-39871639D01*
X10426006Y-40032997D01*
X10532441Y-40179494D01*
X10532445Y-40179499D01*
X10660500Y-40307554D01*
X10660505Y-40307558D01*
X10732810Y-40360090D01*
X10807006Y-40413996D01*
X10898926Y-40460832D01*
X10968360Y-40496211D01*
X10968363Y-40496212D01*
X11054476Y-40524191D01*
X11140591Y-40552171D01*
X11223429Y-40565291D01*
X11319449Y-40580500D01*
X11319454Y-40580500D01*
X11500551Y-40580500D01*
X11590928Y-40566185D01*
X11679409Y-40552171D01*
X11851639Y-40496211D01*
X12012994Y-40413996D01*
X12159501Y-40307553D01*
X12287553Y-40179501D01*
X12393996Y-40032994D01*
X12476211Y-39871639D01*
X12532171Y-39699409D01*
X12550978Y-39580667D01*
X12557527Y-39539321D01*
X12587456Y-39476186D01*
X12646768Y-39439255D01*
X12716630Y-39440253D01*
X12774863Y-39478863D01*
X12802473Y-39539321D01*
X12827829Y-39699410D01*
X12883787Y-39871636D01*
X12883788Y-39871639D01*
X12966006Y-40032997D01*
X13072441Y-40179494D01*
X13072445Y-40179499D01*
X13200500Y-40307554D01*
X13200505Y-40307558D01*
X13272810Y-40360090D01*
X13347006Y-40413996D01*
X13438926Y-40460832D01*
X13508360Y-40496211D01*
X13508363Y-40496212D01*
X13594476Y-40524191D01*
X13680591Y-40552171D01*
X13763429Y-40565291D01*
X13859449Y-40580500D01*
X13859454Y-40580500D01*
X14040551Y-40580500D01*
X14130928Y-40566185D01*
X14219409Y-40552171D01*
X14391639Y-40496211D01*
X14552994Y-40413996D01*
X14699501Y-40307553D01*
X14827553Y-40179501D01*
X14933996Y-40032994D01*
X15016211Y-39871639D01*
X15072171Y-39699409D01*
X15090978Y-39580667D01*
X15097527Y-39539321D01*
X15127456Y-39476186D01*
X15186768Y-39439255D01*
X15256630Y-39440253D01*
X15314863Y-39478863D01*
X15342473Y-39539321D01*
X15367829Y-39699410D01*
X15423787Y-39871636D01*
X15423788Y-39871639D01*
X15506006Y-40032997D01*
X15612441Y-40179494D01*
X15612445Y-40179499D01*
X15740500Y-40307554D01*
X15740505Y-40307558D01*
X15812810Y-40360090D01*
X15887006Y-40413996D01*
X15978926Y-40460832D01*
X16048360Y-40496211D01*
X16048363Y-40496212D01*
X16134476Y-40524191D01*
X16220591Y-40552171D01*
X16303429Y-40565291D01*
X16399449Y-40580500D01*
X16399454Y-40580500D01*
X16580551Y-40580500D01*
X16670928Y-40566185D01*
X16759409Y-40552171D01*
X16931639Y-40496211D01*
X17092994Y-40413996D01*
X17239501Y-40307553D01*
X17367553Y-40179501D01*
X17473996Y-40032994D01*
X17556211Y-39871639D01*
X17612171Y-39699409D01*
X17630978Y-39580667D01*
X17637527Y-39539321D01*
X17667456Y-39476186D01*
X17726768Y-39439255D01*
X17796630Y-39440253D01*
X17854863Y-39478863D01*
X17882473Y-39539321D01*
X17907829Y-39699410D01*
X17963787Y-39871636D01*
X17963788Y-39871639D01*
X18046006Y-40032997D01*
X18152441Y-40179494D01*
X18152445Y-40179499D01*
X18280500Y-40307554D01*
X18280505Y-40307558D01*
X18352810Y-40360090D01*
X18427006Y-40413996D01*
X18518926Y-40460832D01*
X18588360Y-40496211D01*
X18588363Y-40496212D01*
X18674476Y-40524191D01*
X18760591Y-40552171D01*
X18843429Y-40565291D01*
X18939449Y-40580500D01*
X18939454Y-40580500D01*
X19120551Y-40580500D01*
X19210928Y-40566185D01*
X19299409Y-40552171D01*
X19471639Y-40496211D01*
X19632994Y-40413996D01*
X19779501Y-40307553D01*
X19907553Y-40179501D01*
X20013996Y-40032994D01*
X20096211Y-39871639D01*
X20152171Y-39699409D01*
X20170978Y-39580667D01*
X20177527Y-39539321D01*
X20207456Y-39476186D01*
X20266768Y-39439255D01*
X20336630Y-39440253D01*
X20394863Y-39478863D01*
X20422473Y-39539321D01*
X20447829Y-39699410D01*
X20503787Y-39871636D01*
X20503788Y-39871639D01*
X20586006Y-40032997D01*
X20692441Y-40179494D01*
X20692445Y-40179499D01*
X20820500Y-40307554D01*
X20820505Y-40307558D01*
X20892810Y-40360090D01*
X20967006Y-40413996D01*
X21058926Y-40460832D01*
X21128360Y-40496211D01*
X21128363Y-40496212D01*
X21214476Y-40524191D01*
X21300591Y-40552171D01*
X21383429Y-40565291D01*
X21479449Y-40580500D01*
X21479454Y-40580500D01*
X21660551Y-40580500D01*
X21750928Y-40566185D01*
X21839409Y-40552171D01*
X22011639Y-40496211D01*
X22172994Y-40413996D01*
X22319501Y-40307553D01*
X22447553Y-40179501D01*
X22553996Y-40032994D01*
X22636211Y-39871639D01*
X22692171Y-39699409D01*
X22710978Y-39580667D01*
X22717527Y-39539321D01*
X22747456Y-39476186D01*
X22806768Y-39439255D01*
X22876630Y-39440253D01*
X22934863Y-39478863D01*
X22962473Y-39539321D01*
X22987829Y-39699410D01*
X23043787Y-39871636D01*
X23043788Y-39871639D01*
X23126006Y-40032997D01*
X23232441Y-40179494D01*
X23232445Y-40179499D01*
X23360500Y-40307554D01*
X23360505Y-40307558D01*
X23432810Y-40360090D01*
X23507006Y-40413996D01*
X23598926Y-40460832D01*
X23668360Y-40496211D01*
X23668363Y-40496212D01*
X23754476Y-40524191D01*
X23840591Y-40552171D01*
X23923429Y-40565291D01*
X24019449Y-40580500D01*
X24019454Y-40580500D01*
X24200551Y-40580500D01*
X24290928Y-40566185D01*
X24379409Y-40552171D01*
X24551639Y-40496211D01*
X24712994Y-40413996D01*
X24859501Y-40307553D01*
X24987553Y-40179501D01*
X25093996Y-40032994D01*
X25176211Y-39871639D01*
X25232171Y-39699409D01*
X25250978Y-39580667D01*
X25257527Y-39539321D01*
X25287456Y-39476186D01*
X25346768Y-39439255D01*
X25416630Y-39440253D01*
X25474863Y-39478863D01*
X25502473Y-39539321D01*
X25527829Y-39699410D01*
X25583787Y-39871636D01*
X25583788Y-39871639D01*
X25666006Y-40032997D01*
X25772441Y-40179494D01*
X25772445Y-40179499D01*
X25900500Y-40307554D01*
X25900505Y-40307558D01*
X25972810Y-40360090D01*
X26047006Y-40413996D01*
X26138926Y-40460832D01*
X26208360Y-40496211D01*
X26208363Y-40496212D01*
X26294476Y-40524191D01*
X26380591Y-40552171D01*
X26463429Y-40565291D01*
X26559449Y-40580500D01*
X26559454Y-40580500D01*
X26740551Y-40580500D01*
X26830928Y-40566185D01*
X26919409Y-40552171D01*
X27091639Y-40496211D01*
X27252994Y-40413996D01*
X27399501Y-40307553D01*
X27527553Y-40179501D01*
X27633996Y-40032994D01*
X27716211Y-39871639D01*
X27772171Y-39699409D01*
X27790978Y-39580667D01*
X27797527Y-39539321D01*
X27827456Y-39476186D01*
X27886768Y-39439255D01*
X27956630Y-39440253D01*
X28014863Y-39478863D01*
X28042473Y-39539321D01*
X28067829Y-39699410D01*
X28123787Y-39871636D01*
X28123788Y-39871639D01*
X28206006Y-40032997D01*
X28312441Y-40179494D01*
X28312445Y-40179499D01*
X28440500Y-40307554D01*
X28440505Y-40307558D01*
X28512810Y-40360090D01*
X28587006Y-40413996D01*
X28678926Y-40460832D01*
X28748360Y-40496211D01*
X28748363Y-40496212D01*
X28834476Y-40524191D01*
X28920591Y-40552171D01*
X29003429Y-40565291D01*
X29099449Y-40580500D01*
X29099454Y-40580500D01*
X29280551Y-40580500D01*
X29370928Y-40566185D01*
X29459409Y-40552171D01*
X29631639Y-40496211D01*
X29792994Y-40413996D01*
X29939501Y-40307553D01*
X30067553Y-40179501D01*
X30173996Y-40032994D01*
X30256211Y-39871639D01*
X30312171Y-39699409D01*
X30330978Y-39580667D01*
X30337527Y-39539321D01*
X30367456Y-39476186D01*
X30426768Y-39439255D01*
X30496630Y-39440253D01*
X30554863Y-39478863D01*
X30582473Y-39539321D01*
X30607829Y-39699410D01*
X30663787Y-39871636D01*
X30663788Y-39871639D01*
X30746006Y-40032997D01*
X30852441Y-40179494D01*
X30852445Y-40179499D01*
X30980500Y-40307554D01*
X30980505Y-40307558D01*
X31052810Y-40360090D01*
X31127006Y-40413996D01*
X31218926Y-40460832D01*
X31288360Y-40496211D01*
X31288363Y-40496212D01*
X31374476Y-40524191D01*
X31460591Y-40552171D01*
X31543429Y-40565291D01*
X31639449Y-40580500D01*
X31639454Y-40580500D01*
X31820551Y-40580500D01*
X31910928Y-40566185D01*
X31999409Y-40552171D01*
X32171639Y-40496211D01*
X32332994Y-40413996D01*
X32479501Y-40307553D01*
X32607553Y-40179501D01*
X32713996Y-40032994D01*
X32796211Y-39871639D01*
X32852171Y-39699409D01*
X32870978Y-39580667D01*
X32877527Y-39539321D01*
X32907456Y-39476186D01*
X32966768Y-39439255D01*
X33036630Y-39440253D01*
X33094863Y-39478863D01*
X33122473Y-39539321D01*
X33147829Y-39699410D01*
X33203787Y-39871636D01*
X33203788Y-39871639D01*
X33286006Y-40032997D01*
X33392441Y-40179494D01*
X33392445Y-40179499D01*
X33520500Y-40307554D01*
X33520505Y-40307558D01*
X33592810Y-40360090D01*
X33667006Y-40413996D01*
X33758926Y-40460832D01*
X33828360Y-40496211D01*
X33828363Y-40496212D01*
X33914476Y-40524191D01*
X34000591Y-40552171D01*
X34083429Y-40565291D01*
X34179449Y-40580500D01*
X34179454Y-40580500D01*
X34360551Y-40580500D01*
X34450928Y-40566185D01*
X34539409Y-40552171D01*
X34711639Y-40496211D01*
X34872994Y-40413996D01*
X35019501Y-40307553D01*
X35147553Y-40179501D01*
X35253996Y-40032994D01*
X35336211Y-39871639D01*
X35392171Y-39699409D01*
X35410978Y-39580667D01*
X35417527Y-39539321D01*
X35447456Y-39476186D01*
X35506768Y-39439255D01*
X35576630Y-39440253D01*
X35634863Y-39478863D01*
X35662473Y-39539321D01*
X35687829Y-39699410D01*
X35743787Y-39871636D01*
X35743788Y-39871639D01*
X35826006Y-40032997D01*
X35932441Y-40179494D01*
X35932445Y-40179499D01*
X36060500Y-40307554D01*
X36060505Y-40307558D01*
X36132810Y-40360090D01*
X36207006Y-40413996D01*
X36298926Y-40460832D01*
X36368360Y-40496211D01*
X36368363Y-40496212D01*
X36454476Y-40524191D01*
X36540591Y-40552171D01*
X36623429Y-40565291D01*
X36719449Y-40580500D01*
X36719454Y-40580500D01*
X36900551Y-40580500D01*
X36990928Y-40566185D01*
X37079409Y-40552171D01*
X37251639Y-40496211D01*
X37412994Y-40413996D01*
X37559501Y-40307553D01*
X37687553Y-40179501D01*
X37793996Y-40032994D01*
X37876211Y-39871639D01*
X37932171Y-39699409D01*
X37950978Y-39580667D01*
X37957527Y-39539321D01*
X37987456Y-39476186D01*
X38046768Y-39439255D01*
X38116630Y-39440253D01*
X38174863Y-39478863D01*
X38202473Y-39539321D01*
X38227829Y-39699410D01*
X38283787Y-39871636D01*
X38283788Y-39871639D01*
X38366006Y-40032997D01*
X38472441Y-40179494D01*
X38472445Y-40179499D01*
X38600500Y-40307554D01*
X38600505Y-40307558D01*
X38672810Y-40360090D01*
X38747006Y-40413996D01*
X38838926Y-40460832D01*
X38908360Y-40496211D01*
X38908363Y-40496212D01*
X38994476Y-40524191D01*
X39080591Y-40552171D01*
X39163429Y-40565291D01*
X39259449Y-40580500D01*
X39259454Y-40580500D01*
X39440551Y-40580500D01*
X39530928Y-40566185D01*
X39619409Y-40552171D01*
X39791639Y-40496211D01*
X39952994Y-40413996D01*
X40099501Y-40307553D01*
X40227553Y-40179501D01*
X40333996Y-40032994D01*
X40416211Y-39871639D01*
X40472171Y-39699409D01*
X40490978Y-39580667D01*
X40497527Y-39539321D01*
X40527456Y-39476186D01*
X40586768Y-39439255D01*
X40656630Y-39440253D01*
X40714863Y-39478863D01*
X40742473Y-39539321D01*
X40767829Y-39699410D01*
X40823787Y-39871636D01*
X40823788Y-39871639D01*
X40906006Y-40032997D01*
X41012441Y-40179494D01*
X41012445Y-40179499D01*
X41140500Y-40307554D01*
X41140505Y-40307558D01*
X41212810Y-40360090D01*
X41287006Y-40413996D01*
X41378926Y-40460832D01*
X41448360Y-40496211D01*
X41448363Y-40496212D01*
X41534476Y-40524191D01*
X41620591Y-40552171D01*
X41703429Y-40565291D01*
X41799449Y-40580500D01*
X41799454Y-40580500D01*
X41980551Y-40580500D01*
X42070928Y-40566185D01*
X42159409Y-40552171D01*
X42331639Y-40496211D01*
X42492994Y-40413996D01*
X42639501Y-40307553D01*
X42767553Y-40179501D01*
X42873996Y-40032994D01*
X42956211Y-39871639D01*
X43012171Y-39699409D01*
X43030978Y-39580667D01*
X43037527Y-39539321D01*
X43067456Y-39476186D01*
X43126768Y-39439255D01*
X43196630Y-39440253D01*
X43254863Y-39478863D01*
X43282473Y-39539321D01*
X43307829Y-39699410D01*
X43363787Y-39871636D01*
X43363788Y-39871639D01*
X43446006Y-40032997D01*
X43552441Y-40179494D01*
X43552445Y-40179499D01*
X43680500Y-40307554D01*
X43680505Y-40307558D01*
X43752810Y-40360090D01*
X43827006Y-40413996D01*
X43918926Y-40460832D01*
X43988360Y-40496211D01*
X43988363Y-40496212D01*
X44074476Y-40524191D01*
X44160591Y-40552171D01*
X44243429Y-40565291D01*
X44339449Y-40580500D01*
X44339454Y-40580500D01*
X44520551Y-40580500D01*
X44610928Y-40566185D01*
X44699409Y-40552171D01*
X44871639Y-40496211D01*
X45032994Y-40413996D01*
X45179501Y-40307553D01*
X45307553Y-40179501D01*
X45413996Y-40032994D01*
X45496211Y-39871639D01*
X45552171Y-39699409D01*
X45570978Y-39580667D01*
X45577527Y-39539321D01*
X45607456Y-39476186D01*
X45666768Y-39439255D01*
X45736630Y-39440253D01*
X45794863Y-39478863D01*
X45822473Y-39539321D01*
X45847829Y-39699410D01*
X45903787Y-39871636D01*
X45903788Y-39871639D01*
X45986006Y-40032997D01*
X46092441Y-40179494D01*
X46092445Y-40179499D01*
X46220500Y-40307554D01*
X46220505Y-40307558D01*
X46292810Y-40360090D01*
X46367006Y-40413996D01*
X46458926Y-40460832D01*
X46528360Y-40496211D01*
X46528363Y-40496212D01*
X46614476Y-40524191D01*
X46700591Y-40552171D01*
X46783429Y-40565291D01*
X46879449Y-40580500D01*
X46879454Y-40580500D01*
X47060551Y-40580500D01*
X47150928Y-40566185D01*
X47239409Y-40552171D01*
X47411639Y-40496211D01*
X47572994Y-40413996D01*
X47719501Y-40307553D01*
X47847553Y-40179501D01*
X47953996Y-40032994D01*
X48036211Y-39871639D01*
X48092171Y-39699409D01*
X48110978Y-39580667D01*
X48117527Y-39539321D01*
X48147456Y-39476186D01*
X48206768Y-39439255D01*
X48276630Y-39440253D01*
X48334863Y-39478863D01*
X48362473Y-39539321D01*
X48387829Y-39699410D01*
X48443787Y-39871636D01*
X48443788Y-39871639D01*
X48526006Y-40032997D01*
X48632441Y-40179494D01*
X48632445Y-40179499D01*
X48760500Y-40307554D01*
X48760505Y-40307558D01*
X48832810Y-40360090D01*
X48907006Y-40413996D01*
X48998926Y-40460832D01*
X49068360Y-40496211D01*
X49068363Y-40496212D01*
X49154476Y-40524191D01*
X49240591Y-40552171D01*
X49323429Y-40565291D01*
X49419449Y-40580500D01*
X49419454Y-40580500D01*
X49600551Y-40580500D01*
X49690928Y-40566185D01*
X49779409Y-40552171D01*
X49951639Y-40496211D01*
X50112994Y-40413996D01*
X50259501Y-40307553D01*
X50387553Y-40179501D01*
X50493996Y-40032994D01*
X50576211Y-39871639D01*
X50632171Y-39699409D01*
X50650978Y-39580667D01*
X50657527Y-39539321D01*
X50687456Y-39476186D01*
X50746768Y-39439255D01*
X50816630Y-39440253D01*
X50874863Y-39478863D01*
X50902473Y-39539321D01*
X50927829Y-39699410D01*
X50983787Y-39871636D01*
X50983788Y-39871639D01*
X51066006Y-40032997D01*
X51172441Y-40179494D01*
X51172445Y-40179499D01*
X51300500Y-40307554D01*
X51300505Y-40307558D01*
X51372810Y-40360090D01*
X51447006Y-40413996D01*
X51538926Y-40460832D01*
X51608360Y-40496211D01*
X51608363Y-40496212D01*
X51694476Y-40524191D01*
X51780591Y-40552171D01*
X51863429Y-40565291D01*
X51959449Y-40580500D01*
X51959454Y-40580500D01*
X52140551Y-40580500D01*
X52230928Y-40566185D01*
X52319409Y-40552171D01*
X52491639Y-40496211D01*
X52652994Y-40413996D01*
X52799501Y-40307553D01*
X52927553Y-40179501D01*
X53033996Y-40032994D01*
X53116211Y-39871639D01*
X53172171Y-39699409D01*
X53190978Y-39580667D01*
X53197527Y-39539321D01*
X53227456Y-39476186D01*
X53286768Y-39439255D01*
X53356630Y-39440253D01*
X53414863Y-39478863D01*
X53442473Y-39539321D01*
X53467829Y-39699410D01*
X53523787Y-39871636D01*
X53523788Y-39871639D01*
X53606006Y-40032997D01*
X53712441Y-40179494D01*
X53712445Y-40179499D01*
X53840500Y-40307554D01*
X53840505Y-40307558D01*
X53912810Y-40360090D01*
X53987006Y-40413996D01*
X54078926Y-40460832D01*
X54148360Y-40496211D01*
X54148363Y-40496212D01*
X54234476Y-40524191D01*
X54320591Y-40552171D01*
X54403429Y-40565291D01*
X54499449Y-40580500D01*
X54499454Y-40580500D01*
X54680551Y-40580500D01*
X54770928Y-40566185D01*
X54859409Y-40552171D01*
X55031639Y-40496211D01*
X55192994Y-40413996D01*
X55339501Y-40307553D01*
X55467553Y-40179501D01*
X55573996Y-40032994D01*
X55656211Y-39871639D01*
X55712171Y-39699409D01*
X55730978Y-39580667D01*
X55737527Y-39539321D01*
X55767456Y-39476186D01*
X55826768Y-39439255D01*
X55896630Y-39440253D01*
X55954863Y-39478863D01*
X55982473Y-39539321D01*
X56007829Y-39699410D01*
X56063787Y-39871636D01*
X56063788Y-39871639D01*
X56146006Y-40032997D01*
X56252441Y-40179494D01*
X56252445Y-40179499D01*
X56380500Y-40307554D01*
X56380505Y-40307558D01*
X56452810Y-40360090D01*
X56527006Y-40413996D01*
X56618926Y-40460832D01*
X56688360Y-40496211D01*
X56688363Y-40496212D01*
X56774476Y-40524191D01*
X56860591Y-40552171D01*
X56943429Y-40565291D01*
X57039449Y-40580500D01*
X57039454Y-40580500D01*
X57220551Y-40580500D01*
X57310928Y-40566185D01*
X57399409Y-40552171D01*
X57571639Y-40496211D01*
X57732994Y-40413996D01*
X57879501Y-40307553D01*
X58007553Y-40179501D01*
X58113996Y-40032994D01*
X58196211Y-39871639D01*
X58252171Y-39699409D01*
X58270978Y-39580667D01*
X58277527Y-39539321D01*
X58307456Y-39476186D01*
X58366768Y-39439255D01*
X58436630Y-39440253D01*
X58494863Y-39478863D01*
X58522473Y-39539321D01*
X58547829Y-39699410D01*
X58603787Y-39871636D01*
X58603788Y-39871639D01*
X58686006Y-40032997D01*
X58792441Y-40179494D01*
X58792445Y-40179499D01*
X58920500Y-40307554D01*
X58920505Y-40307558D01*
X58992810Y-40360090D01*
X59067006Y-40413996D01*
X59158926Y-40460832D01*
X59228360Y-40496211D01*
X59228363Y-40496212D01*
X59314476Y-40524191D01*
X59400591Y-40552171D01*
X59483429Y-40565291D01*
X59579449Y-40580500D01*
X59579454Y-40580500D01*
X59760551Y-40580500D01*
X59939409Y-40552171D01*
X60001182Y-40532100D01*
X60071023Y-40530105D01*
X60130856Y-40566185D01*
X60161684Y-40628886D01*
X60153719Y-40698300D01*
X60143304Y-40716192D01*
X60143575Y-40716349D01*
X60139512Y-40723385D01*
X60139511Y-40723387D01*
X60133522Y-40733760D01*
X60080201Y-40826112D01*
X60051089Y-40934761D01*
X60018995Y-40990348D01*
X59955888Y-41053454D01*
X59955885Y-41053458D01*
X59879228Y-41168182D01*
X59879221Y-41168195D01*
X59826421Y-41295667D01*
X59826418Y-41295677D01*
X59799500Y-41431004D01*
X59799500Y-41431007D01*
X59799500Y-41568993D01*
X59799500Y-41568995D01*
X59799499Y-41568995D01*
X59826418Y-41704322D01*
X59826421Y-41704332D01*
X59879221Y-41831804D01*
X59879228Y-41831817D01*
X59955885Y-41946541D01*
X59955888Y-41946545D01*
X60053454Y-42044111D01*
X60053458Y-42044114D01*
X60168182Y-42120771D01*
X60168195Y-42120778D01*
X60295667Y-42173578D01*
X60295672Y-42173580D01*
X60295676Y-42173580D01*
X60295677Y-42173581D01*
X60431004Y-42200500D01*
X60431007Y-42200500D01*
X60568995Y-42200500D01*
X60660041Y-42182389D01*
X60704328Y-42173580D01*
X60831811Y-42120775D01*
X60946542Y-42044114D01*
X61044114Y-41946542D01*
X61120775Y-41831811D01*
X61173580Y-41704328D01*
X61188089Y-41631387D01*
X61200500Y-41568995D01*
X61200500Y-41476024D01*
X61220185Y-41408985D01*
X61262502Y-41368636D01*
X61266557Y-41366294D01*
X61276613Y-41360489D01*
X61337819Y-41299283D01*
X61399142Y-41265798D01*
X61468834Y-41270782D01*
X61524767Y-41312654D01*
X61549184Y-41378118D01*
X61549500Y-41386964D01*
X61549500Y-46425500D01*
X61529815Y-46492539D01*
X61477011Y-46538294D01*
X61425500Y-46549500D01*
X50667308Y-46549500D01*
X50600269Y-46529815D01*
X50554514Y-46477011D01*
X50544570Y-46407853D01*
X50564206Y-46356609D01*
X50580771Y-46331817D01*
X50580771Y-46331816D01*
X50580775Y-46331811D01*
X50633580Y-46204328D01*
X50660500Y-46068993D01*
X50660500Y-45931007D01*
X50660500Y-45931004D01*
X50633581Y-45795677D01*
X50633580Y-45795676D01*
X50633580Y-45795672D01*
X50606622Y-45730589D01*
X50580778Y-45668195D01*
X50580771Y-45668182D01*
X50504114Y-45553458D01*
X50504111Y-45553454D01*
X50406545Y-45455888D01*
X50406541Y-45455885D01*
X50291817Y-45379228D01*
X50291804Y-45379221D01*
X50164332Y-45326421D01*
X50164322Y-45326418D01*
X50028995Y-45299500D01*
X50028993Y-45299500D01*
X49891007Y-45299500D01*
X49891005Y-45299500D01*
X49755677Y-45326418D01*
X49755667Y-45326421D01*
X49628195Y-45379221D01*
X49628182Y-45379228D01*
X49513458Y-45455885D01*
X49513454Y-45455888D01*
X49415888Y-45553454D01*
X49415885Y-45553458D01*
X49339228Y-45668182D01*
X49339221Y-45668195D01*
X49286421Y-45795667D01*
X49286418Y-45795677D01*
X49259500Y-45931004D01*
X49259500Y-45931007D01*
X49259500Y-46068993D01*
X49259500Y-46068995D01*
X49259499Y-46068995D01*
X49286418Y-46204322D01*
X49286421Y-46204332D01*
X49339221Y-46331804D01*
X49339228Y-46331817D01*
X49415885Y-46446541D01*
X49415888Y-46446545D01*
X49513181Y-46543838D01*
X49546666Y-46605161D01*
X49549500Y-46631519D01*
X49549500Y-46940691D01*
X49549500Y-47059309D01*
X49580201Y-47173886D01*
X49639511Y-47276613D01*
X49723387Y-47360489D01*
X49826114Y-47419799D01*
X49940691Y-47450500D01*
X49940694Y-47450500D01*
X62059306Y-47450500D01*
X62059309Y-47450500D01*
X62173886Y-47419799D01*
X62276613Y-47360489D01*
X62360489Y-47276613D01*
X62419799Y-47173886D01*
X62450500Y-47059309D01*
X62450500Y-41573569D01*
X62470185Y-41506530D01*
X62522989Y-41460775D01*
X62558324Y-41450629D01*
X62559300Y-41450500D01*
X62559309Y-41450500D01*
X62673886Y-41419799D01*
X62776613Y-41360489D01*
X62860489Y-41276613D01*
X62919799Y-41173886D01*
X62950500Y-41059309D01*
X62950500Y-39073569D01*
X62970185Y-39006530D01*
X63022989Y-38960775D01*
X63058324Y-38950629D01*
X63059300Y-38950500D01*
X63059309Y-38950500D01*
X63173886Y-38919799D01*
X63276613Y-38860489D01*
X63360489Y-38776613D01*
X63419799Y-38673886D01*
X63450500Y-38559309D01*
X63450500Y-34074500D01*
X63470185Y-34007461D01*
X63522989Y-33961706D01*
X63574500Y-33950500D01*
X64059306Y-33950500D01*
X64059309Y-33950500D01*
X64173886Y-33919799D01*
X64276613Y-33860489D01*
X64360489Y-33776613D01*
X64419799Y-33673886D01*
X64450500Y-33559309D01*
X64450500Y-33559305D01*
X64450739Y-33557492D01*
X64451365Y-33556074D01*
X64452603Y-33551458D01*
X64453323Y-33551650D01*
X64479006Y-33493596D01*
X64537331Y-33455125D01*
X64557492Y-33450739D01*
X64559305Y-33450500D01*
X64559309Y-33450500D01*
X64673886Y-33419799D01*
X64776613Y-33360489D01*
X64837819Y-33299283D01*
X64899142Y-33265798D01*
X64968834Y-33270782D01*
X65024767Y-33312654D01*
X65049184Y-33378118D01*
X65049500Y-33386964D01*
X65049500Y-42059309D01*
X65080201Y-42173886D01*
X65139511Y-42276613D01*
X65223387Y-42360489D01*
X65326114Y-42419799D01*
X65440691Y-42450500D01*
X65559309Y-42450500D01*
X84425500Y-42450500D01*
X84492539Y-42470185D01*
X84538294Y-42522989D01*
X84549500Y-42574500D01*
X84549500Y-46059309D01*
X84580201Y-46173886D01*
X84639511Y-46276613D01*
X84723387Y-46360489D01*
X84826114Y-46419799D01*
X84940691Y-46450500D01*
X85059309Y-46450500D01*
X85408482Y-46450500D01*
X85475521Y-46470185D01*
X85496158Y-46486814D01*
X85539159Y-46529815D01*
X85553459Y-46544115D01*
X85668182Y-46620771D01*
X85668195Y-46620778D01*
X85795667Y-46673578D01*
X85795672Y-46673580D01*
X85795676Y-46673580D01*
X85795677Y-46673581D01*
X85931004Y-46700500D01*
X85931007Y-46700500D01*
X86068995Y-46700500D01*
X86160041Y-46682389D01*
X86204328Y-46673580D01*
X86331811Y-46620775D01*
X86446542Y-46544114D01*
X86544114Y-46446542D01*
X86620775Y-46331811D01*
X86673580Y-46204328D01*
X86700500Y-46068993D01*
X86700500Y-45931007D01*
X86700500Y-45931004D01*
X86673581Y-45795677D01*
X86673580Y-45795676D01*
X86673580Y-45795672D01*
X86646622Y-45730589D01*
X86620778Y-45668195D01*
X86620771Y-45668182D01*
X86544114Y-45553458D01*
X86544111Y-45553454D01*
X86446545Y-45455888D01*
X86446541Y-45455885D01*
X86331817Y-45379228D01*
X86331804Y-45379221D01*
X86204332Y-45326421D01*
X86204322Y-45326418D01*
X86068995Y-45299500D01*
X86068993Y-45299500D01*
X85931007Y-45299500D01*
X85931005Y-45299500D01*
X85795677Y-45326418D01*
X85795667Y-45326421D01*
X85668195Y-45379221D01*
X85668186Y-45379226D01*
X85643389Y-45395795D01*
X85576711Y-45416671D01*
X85509331Y-45398185D01*
X85462642Y-45346205D01*
X85450500Y-45292691D01*
X85450500Y-41940693D01*
X85450500Y-41940691D01*
X85419799Y-41826114D01*
X85360489Y-41723387D01*
X85276613Y-41639511D01*
X85262539Y-41631385D01*
X85214326Y-41580820D01*
X85201104Y-41512212D01*
X85227072Y-41447348D01*
X85283986Y-41406820D01*
X85324542Y-41400000D01*
X85360181Y-41400000D01*
X85577835Y-41365526D01*
X85787410Y-41297432D01*
X85983760Y-41197386D01*
X86047513Y-41151066D01*
X86047514Y-41151066D01*
X85338585Y-40442138D01*
X85423694Y-40419333D01*
X85526306Y-40360090D01*
X85610090Y-40276306D01*
X85669333Y-40173694D01*
X85692138Y-40088585D01*
X86401066Y-40797514D01*
X86401066Y-40797513D01*
X86447386Y-40733760D01*
X86547432Y-40537410D01*
X86615526Y-40327835D01*
X86650000Y-40110181D01*
X86650000Y-39889818D01*
X86615526Y-39672164D01*
X86547432Y-39462589D01*
X86447388Y-39266243D01*
X86401066Y-39202485D01*
X86401065Y-39202485D01*
X85692137Y-39911413D01*
X85669333Y-39826306D01*
X85610090Y-39723694D01*
X85526306Y-39639910D01*
X85423694Y-39580667D01*
X85338583Y-39557861D01*
X86047513Y-38848932D01*
X85983756Y-38802611D01*
X85787410Y-38702567D01*
X85577835Y-38634473D01*
X85360181Y-38600000D01*
X85139819Y-38600000D01*
X84922164Y-38634473D01*
X84712589Y-38702567D01*
X84516233Y-38802616D01*
X84452485Y-38848931D01*
X84452485Y-38848932D01*
X85161414Y-39557861D01*
X85076306Y-39580667D01*
X84973694Y-39639910D01*
X84889910Y-39723694D01*
X84830667Y-39826306D01*
X84807861Y-39911414D01*
X84098932Y-39202485D01*
X84098931Y-39202485D01*
X84052616Y-39266234D01*
X84052614Y-39266237D01*
X83998532Y-39372378D01*
X83950558Y-39423173D01*
X83882736Y-39439968D01*
X83816602Y-39417430D01*
X83779624Y-39374757D01*
X83779305Y-39374953D01*
X83778123Y-39373024D01*
X83777564Y-39372379D01*
X83776760Y-39370801D01*
X83665690Y-39217927D01*
X83532073Y-39084310D01*
X83411226Y-38996509D01*
X83411224Y-38996507D01*
X83379202Y-38973242D01*
X83379201Y-38973241D01*
X83379199Y-38973240D01*
X83326620Y-38946450D01*
X83210836Y-38887454D01*
X83031118Y-38829059D01*
X82844486Y-38799500D01*
X82844481Y-38799500D01*
X82655519Y-38799500D01*
X82655514Y-38799500D01*
X82468881Y-38829059D01*
X82289163Y-38887454D01*
X82120800Y-38973240D01*
X82074981Y-39006530D01*
X81967927Y-39084310D01*
X81967925Y-39084312D01*
X81967924Y-39084312D01*
X81834312Y-39217924D01*
X81834312Y-39217925D01*
X81834310Y-39217927D01*
X81826171Y-39229130D01*
X81723240Y-39370800D01*
X81637454Y-39539163D01*
X81579059Y-39718881D01*
X81549500Y-39905513D01*
X81549500Y-40094486D01*
X81579059Y-40281118D01*
X81637454Y-40460836D01*
X81699479Y-40582565D01*
X81723240Y-40629199D01*
X81834310Y-40782073D01*
X81967927Y-40915690D01*
X82120801Y-41026760D01*
X82184682Y-41059309D01*
X82289163Y-41112545D01*
X82289165Y-41112545D01*
X82289168Y-41112547D01*
X82385497Y-41143846D01*
X82468881Y-41170940D01*
X82655514Y-41200500D01*
X82655519Y-41200500D01*
X82844486Y-41200500D01*
X83031118Y-41170940D01*
X83092283Y-41151066D01*
X83210832Y-41112547D01*
X83379199Y-41026760D01*
X83532073Y-40915690D01*
X83665690Y-40782073D01*
X83776760Y-40629199D01*
X83777561Y-40627626D01*
X83778025Y-40627135D01*
X83779305Y-40625047D01*
X83779743Y-40625315D01*
X83825532Y-40576829D01*
X83893352Y-40560031D01*
X83959488Y-40582565D01*
X83998533Y-40627622D01*
X84052611Y-40733756D01*
X84098932Y-40797513D01*
X84807861Y-40088584D01*
X84830667Y-40173694D01*
X84889910Y-40276306D01*
X84973694Y-40360090D01*
X85076306Y-40419333D01*
X85161414Y-40442137D01*
X84452485Y-41151065D01*
X84452485Y-41151066D01*
X84516243Y-41197388D01*
X84712589Y-41297432D01*
X84743787Y-41307569D01*
X84801462Y-41347006D01*
X84828661Y-41411365D01*
X84816747Y-41480211D01*
X84769503Y-41531687D01*
X84705469Y-41549500D01*
X66074500Y-41549500D01*
X66007461Y-41529815D01*
X65961706Y-41477011D01*
X65950500Y-41425500D01*
X65950500Y-31913389D01*
X69709500Y-31913389D01*
X69709500Y-32086610D01*
X69728144Y-32204328D01*
X69736598Y-32257701D01*
X69790127Y-32422445D01*
X69868768Y-32576788D01*
X69970586Y-32716928D01*
X70093072Y-32839414D01*
X70233212Y-32941232D01*
X70387555Y-33019873D01*
X70552299Y-33073402D01*
X70723389Y-33100500D01*
X70723390Y-33100500D01*
X70896610Y-33100500D01*
X70896611Y-33100500D01*
X71067701Y-33073402D01*
X71232445Y-33019873D01*
X71386788Y-32941232D01*
X71526928Y-32839414D01*
X71649414Y-32716928D01*
X71751232Y-32576788D01*
X71829873Y-32422445D01*
X71883402Y-32257701D01*
X71910500Y-32086611D01*
X71910500Y-31913389D01*
X71883402Y-31742299D01*
X71829873Y-31577555D01*
X71751232Y-31423212D01*
X71649414Y-31283072D01*
X71526928Y-31160586D01*
X71386788Y-31058768D01*
X71232445Y-30980127D01*
X71067701Y-30926598D01*
X71067699Y-30926597D01*
X71067698Y-30926597D01*
X70936271Y-30905781D01*
X70896611Y-30899500D01*
X70723389Y-30899500D01*
X70683728Y-30905781D01*
X70552302Y-30926597D01*
X70387552Y-30980128D01*
X70233211Y-31058768D01*
X70153256Y-31116859D01*
X70093072Y-31160586D01*
X70093070Y-31160588D01*
X70093069Y-31160588D01*
X69970588Y-31283069D01*
X69970588Y-31283070D01*
X69970586Y-31283072D01*
X69939093Y-31326418D01*
X69868768Y-31423211D01*
X69790128Y-31577552D01*
X69736597Y-31742302D01*
X69709500Y-31913389D01*
X65950500Y-31913389D01*
X65950500Y-30440693D01*
X65950500Y-30440691D01*
X65919799Y-30326114D01*
X65860489Y-30223387D01*
X65776613Y-30139511D01*
X65673886Y-30080201D01*
X65559309Y-30049500D01*
X65559307Y-30049500D01*
X65559296Y-30049497D01*
X65557480Y-30049258D01*
X65556062Y-30048630D01*
X65551458Y-30047397D01*
X65551650Y-30046678D01*
X65493586Y-30020985D01*
X65455121Y-29962657D01*
X65450739Y-29942509D01*
X65450500Y-29940700D01*
X65450500Y-29940691D01*
X65419799Y-29826114D01*
X65360489Y-29723387D01*
X65276613Y-29639511D01*
X65173886Y-29580201D01*
X65059309Y-29549500D01*
X65059307Y-29549500D01*
X65059296Y-29549497D01*
X65057480Y-29549258D01*
X65056062Y-29548630D01*
X65051458Y-29547397D01*
X65051650Y-29546678D01*
X64993586Y-29520985D01*
X64955121Y-29462657D01*
X64950739Y-29442509D01*
X64950500Y-29440700D01*
X64950500Y-29440691D01*
X64919799Y-29326114D01*
X64860489Y-29223387D01*
X64776613Y-29139511D01*
X64673886Y-29080201D01*
X64559309Y-29049500D01*
X64559306Y-29049500D01*
X55574500Y-29049500D01*
X55507461Y-29029815D01*
X55461706Y-28977011D01*
X55450500Y-28925500D01*
X55450500Y-28591518D01*
X55470185Y-28524479D01*
X55486814Y-28503841D01*
X55544114Y-28446542D01*
X55620775Y-28331811D01*
X55673580Y-28204328D01*
X55700500Y-28068993D01*
X55700500Y-27931007D01*
X55700500Y-27931004D01*
X55673581Y-27795677D01*
X55673580Y-27795676D01*
X55673580Y-27795672D01*
X55630284Y-27691145D01*
X55620778Y-27668195D01*
X55620771Y-27668182D01*
X55544114Y-27553458D01*
X55544111Y-27553454D01*
X55446545Y-27455888D01*
X55446541Y-27455885D01*
X55331817Y-27379228D01*
X55331804Y-27379221D01*
X55204332Y-27326421D01*
X55204322Y-27326418D01*
X55068995Y-27299500D01*
X55068993Y-27299500D01*
X54931007Y-27299500D01*
X54931005Y-27299500D01*
X54795677Y-27326418D01*
X54795667Y-27326421D01*
X54668195Y-27379221D01*
X54668182Y-27379228D01*
X54553458Y-27455885D01*
X54553454Y-27455888D01*
X54455888Y-27553454D01*
X54455885Y-27553458D01*
X54379228Y-27668182D01*
X54379221Y-27668195D01*
X54326421Y-27795667D01*
X54326418Y-27795677D01*
X54299500Y-27931004D01*
X54299500Y-27931007D01*
X54299500Y-28068993D01*
X54299500Y-28068995D01*
X54299499Y-28068995D01*
X54326418Y-28204322D01*
X54326421Y-28204332D01*
X54379221Y-28331804D01*
X54379228Y-28331817D01*
X54455884Y-28446540D01*
X54455885Y-28446541D01*
X54455886Y-28446542D01*
X54513182Y-28503838D01*
X54546666Y-28565159D01*
X54549500Y-28591518D01*
X54549500Y-29559309D01*
X54580201Y-29673886D01*
X54639511Y-29776613D01*
X54639513Y-29776615D01*
X54700717Y-29837819D01*
X54734202Y-29899142D01*
X54729218Y-29968834D01*
X54687346Y-30024767D01*
X54621882Y-30049184D01*
X54613036Y-30049500D01*
X50074500Y-30049500D01*
X50007461Y-30029815D01*
X49961706Y-29977011D01*
X49950500Y-29925500D01*
X49950500Y-28601518D01*
X49970185Y-28534479D01*
X49986814Y-28513841D01*
X50054114Y-28446542D01*
X50130775Y-28331811D01*
X50183580Y-28204328D01*
X50210500Y-28068993D01*
X50210500Y-27931007D01*
X50210500Y-27931004D01*
X50183581Y-27795677D01*
X50183580Y-27795676D01*
X50183580Y-27795672D01*
X50140284Y-27691145D01*
X50130778Y-27668195D01*
X50130771Y-27668182D01*
X50054114Y-27553458D01*
X50054111Y-27553454D01*
X49956545Y-27455888D01*
X49956541Y-27455885D01*
X49841817Y-27379228D01*
X49841804Y-27379221D01*
X49714332Y-27326421D01*
X49714322Y-27326418D01*
X49578995Y-27299500D01*
X49578993Y-27299500D01*
X49441007Y-27299500D01*
X49441005Y-27299500D01*
X49305677Y-27326418D01*
X49305667Y-27326421D01*
X49178195Y-27379221D01*
X49178182Y-27379228D01*
X49063458Y-27455885D01*
X49063454Y-27455888D01*
X48965888Y-27553454D01*
X48965885Y-27553458D01*
X48889228Y-27668182D01*
X48889221Y-27668195D01*
X48836421Y-27795667D01*
X48836418Y-27795677D01*
X48809500Y-27931004D01*
X48809500Y-27931007D01*
X48809500Y-28068993D01*
X48809500Y-28068995D01*
X48809499Y-28068995D01*
X48836418Y-28204322D01*
X48836421Y-28204332D01*
X48889221Y-28331804D01*
X48889228Y-28331817D01*
X48965885Y-28446541D01*
X48965888Y-28446545D01*
X49013180Y-28493836D01*
X49046666Y-28555159D01*
X49049500Y-28581518D01*
X49049500Y-30559309D01*
X49080201Y-30673886D01*
X49139511Y-30776613D01*
X49223387Y-30860489D01*
X49326114Y-30919799D01*
X49440691Y-30950500D01*
X49559309Y-30950500D01*
X62383796Y-30950500D01*
X62450835Y-30970185D01*
X62496590Y-31022989D01*
X62506534Y-31092147D01*
X62477509Y-31155703D01*
X62471477Y-31162181D01*
X62350588Y-31283069D01*
X62350588Y-31283070D01*
X62350586Y-31283072D01*
X62325040Y-31318232D01*
X62248770Y-31423207D01*
X62248766Y-31423214D01*
X62232120Y-31455886D01*
X62218918Y-31481795D01*
X62170947Y-31532590D01*
X62108435Y-31549500D01*
X56091518Y-31549500D01*
X56024479Y-31529815D01*
X56003841Y-31513185D01*
X55946542Y-31455886D01*
X55946541Y-31455885D01*
X55946540Y-31455884D01*
X55831817Y-31379228D01*
X55831804Y-31379221D01*
X55704332Y-31326421D01*
X55704322Y-31326418D01*
X55568995Y-31299500D01*
X55568993Y-31299500D01*
X55431007Y-31299500D01*
X55431005Y-31299500D01*
X55295677Y-31326418D01*
X55295667Y-31326421D01*
X55168195Y-31379221D01*
X55168182Y-31379228D01*
X55053458Y-31455885D01*
X55053454Y-31455888D01*
X54955888Y-31553454D01*
X54955885Y-31553458D01*
X54879228Y-31668182D01*
X54879221Y-31668195D01*
X54826421Y-31795667D01*
X54826418Y-31795677D01*
X54799500Y-31931004D01*
X54799500Y-31931007D01*
X54799500Y-32068993D01*
X54799500Y-32068995D01*
X54799499Y-32068995D01*
X54826418Y-32204322D01*
X54826421Y-32204332D01*
X54879221Y-32331804D01*
X54879228Y-32331817D01*
X54955885Y-32446541D01*
X54955888Y-32446545D01*
X55053454Y-32544111D01*
X55053458Y-32544114D01*
X55168182Y-32620771D01*
X55168195Y-32620778D01*
X55295667Y-32673578D01*
X55295672Y-32673580D01*
X55295676Y-32673580D01*
X55295677Y-32673581D01*
X55431004Y-32700500D01*
X55431007Y-32700500D01*
X55568995Y-32700500D01*
X55660041Y-32682389D01*
X55704328Y-32673580D01*
X55831811Y-32620775D01*
X55946542Y-32544114D01*
X56003838Y-32486817D01*
X56065159Y-32453334D01*
X56091518Y-32450500D01*
X62108435Y-32450500D01*
X62175474Y-32470185D01*
X62218918Y-32518204D01*
X62232120Y-32544114D01*
X62248766Y-32576785D01*
X62248770Y-32576792D01*
X62291100Y-32635053D01*
X62350586Y-32716928D01*
X62473072Y-32839414D01*
X62525573Y-32877558D01*
X62613213Y-32941233D01*
X62665480Y-32967864D01*
X62716277Y-33015838D01*
X62733072Y-33083659D01*
X62710535Y-33149794D01*
X62696868Y-33166030D01*
X62639511Y-33223387D01*
X62580201Y-33326114D01*
X62549500Y-33440691D01*
X62549500Y-33440693D01*
X62549500Y-33613036D01*
X62529815Y-33680075D01*
X62477011Y-33725830D01*
X62407853Y-33735774D01*
X62344297Y-33706749D01*
X62337819Y-33700717D01*
X62276615Y-33639513D01*
X62276613Y-33639511D01*
X62173886Y-33580201D01*
X62059309Y-33549500D01*
X62059306Y-33549500D01*
X47574500Y-33549500D01*
X47507461Y-33529815D01*
X47461706Y-33477011D01*
X47450500Y-33425500D01*
X47450500Y-28561518D01*
X47470185Y-28494479D01*
X47486815Y-28473840D01*
X47514114Y-28446542D01*
X47590775Y-28331811D01*
X47643580Y-28204328D01*
X47670500Y-28068993D01*
X47670500Y-27931007D01*
X47670500Y-27931004D01*
X47643581Y-27795677D01*
X47643580Y-27795676D01*
X47643580Y-27795672D01*
X47600284Y-27691145D01*
X47590778Y-27668195D01*
X47590771Y-27668182D01*
X47514114Y-27553458D01*
X47514111Y-27553454D01*
X47416545Y-27455888D01*
X47416541Y-27455885D01*
X47301817Y-27379228D01*
X47301804Y-27379221D01*
X47174332Y-27326421D01*
X47174322Y-27326418D01*
X47038995Y-27299500D01*
X47038993Y-27299500D01*
X46901007Y-27299500D01*
X46901005Y-27299500D01*
X46765677Y-27326418D01*
X46765667Y-27326421D01*
X46638195Y-27379221D01*
X46638182Y-27379228D01*
X46540168Y-27444719D01*
X46540162Y-27444724D01*
X46523458Y-27455886D01*
X46425886Y-27553458D01*
X46425064Y-27554688D01*
X46425060Y-27554692D01*
X46349228Y-27668182D01*
X46349221Y-27668195D01*
X46296421Y-27795667D01*
X46296418Y-27795677D01*
X46269500Y-27931004D01*
X46269500Y-27931007D01*
X46269500Y-28068993D01*
X46269500Y-28068995D01*
X46269499Y-28068995D01*
X46296418Y-28204322D01*
X46296421Y-28204332D01*
X46349221Y-28331804D01*
X46349228Y-28331817D01*
X46425884Y-28446540D01*
X46425885Y-28446541D01*
X46425886Y-28446542D01*
X46513182Y-28533838D01*
X46546666Y-28595159D01*
X46549500Y-28621518D01*
X46549500Y-34059309D01*
X46580201Y-34173886D01*
X46639511Y-34276613D01*
X46723387Y-34360489D01*
X46826114Y-34419799D01*
X46940691Y-34450500D01*
X47059309Y-34450500D01*
X61425500Y-34450500D01*
X61492539Y-34470185D01*
X61538294Y-34522989D01*
X61549500Y-34574500D01*
X61549500Y-37426430D01*
X61529815Y-37493469D01*
X61477011Y-37539224D01*
X61441689Y-37549369D01*
X61440692Y-37549500D01*
X61440691Y-37549500D01*
X61326114Y-37580201D01*
X61326112Y-37580201D01*
X61326112Y-37580202D01*
X61223387Y-37639511D01*
X61223384Y-37639513D01*
X61139513Y-37723384D01*
X61139511Y-37723387D01*
X61080201Y-37826114D01*
X61049500Y-37940691D01*
X61049500Y-37940693D01*
X61049500Y-39209732D01*
X61029815Y-39276771D01*
X60977011Y-39322526D01*
X60907853Y-39332470D01*
X60844297Y-39303445D01*
X60806523Y-39244667D01*
X60803027Y-39229130D01*
X60798267Y-39199081D01*
X60792171Y-39160591D01*
X60763896Y-39073569D01*
X60736212Y-38988363D01*
X60736211Y-38988360D01*
X60684795Y-38887453D01*
X60653996Y-38827006D01*
X60617383Y-38776612D01*
X60547558Y-38680505D01*
X60547554Y-38680500D01*
X60419499Y-38552445D01*
X60419494Y-38552441D01*
X60272997Y-38446006D01*
X60272996Y-38446005D01*
X60272994Y-38446004D01*
X60221300Y-38419664D01*
X60111639Y-38363788D01*
X60111636Y-38363787D01*
X59939410Y-38307829D01*
X59760551Y-38279500D01*
X59760546Y-38279500D01*
X59579454Y-38279500D01*
X59579449Y-38279500D01*
X59400589Y-38307829D01*
X59228363Y-38363787D01*
X59228360Y-38363788D01*
X59067002Y-38446006D01*
X58920505Y-38552441D01*
X58920500Y-38552445D01*
X58792445Y-38680500D01*
X58792441Y-38680505D01*
X58686006Y-38827002D01*
X58603788Y-38988360D01*
X58603787Y-38988363D01*
X58547829Y-39160589D01*
X58522473Y-39320678D01*
X58492544Y-39383813D01*
X58433232Y-39420744D01*
X58363369Y-39419746D01*
X58305137Y-39381136D01*
X58277527Y-39320678D01*
X58261252Y-39217925D01*
X58252171Y-39160591D01*
X58223896Y-39073569D01*
X58196212Y-38988363D01*
X58196211Y-38988360D01*
X58144795Y-38887453D01*
X58113996Y-38827006D01*
X58077383Y-38776612D01*
X58007558Y-38680505D01*
X58007554Y-38680500D01*
X57879499Y-38552445D01*
X57879494Y-38552441D01*
X57732997Y-38446006D01*
X57732996Y-38446005D01*
X57732994Y-38446004D01*
X57681300Y-38419664D01*
X57571639Y-38363788D01*
X57571636Y-38363787D01*
X57399410Y-38307829D01*
X57220551Y-38279500D01*
X57220546Y-38279500D01*
X57039454Y-38279500D01*
X57039449Y-38279500D01*
X56860589Y-38307829D01*
X56688363Y-38363787D01*
X56688360Y-38363788D01*
X56527002Y-38446006D01*
X56380505Y-38552441D01*
X56380500Y-38552445D01*
X56252445Y-38680500D01*
X56252441Y-38680505D01*
X56146006Y-38827002D01*
X56063788Y-38988360D01*
X56063787Y-38988363D01*
X56007829Y-39160589D01*
X55982473Y-39320678D01*
X55952544Y-39383813D01*
X55893232Y-39420744D01*
X55823369Y-39419746D01*
X55765137Y-39381136D01*
X55737527Y-39320678D01*
X55721252Y-39217925D01*
X55712171Y-39160591D01*
X55683896Y-39073569D01*
X55656212Y-38988363D01*
X55656211Y-38988360D01*
X55604795Y-38887453D01*
X55573996Y-38827006D01*
X55537383Y-38776612D01*
X55467558Y-38680505D01*
X55467554Y-38680500D01*
X55339499Y-38552445D01*
X55339494Y-38552441D01*
X55192997Y-38446006D01*
X55192996Y-38446005D01*
X55192994Y-38446004D01*
X55141300Y-38419664D01*
X55031639Y-38363788D01*
X55031636Y-38363787D01*
X54859410Y-38307829D01*
X54680551Y-38279500D01*
X54680546Y-38279500D01*
X54499454Y-38279500D01*
X54499449Y-38279500D01*
X54320589Y-38307829D01*
X54148363Y-38363787D01*
X54148360Y-38363788D01*
X53987002Y-38446006D01*
X53840505Y-38552441D01*
X53840500Y-38552445D01*
X53712445Y-38680500D01*
X53712441Y-38680505D01*
X53606006Y-38827002D01*
X53523788Y-38988360D01*
X53523787Y-38988363D01*
X53467829Y-39160589D01*
X53442473Y-39320678D01*
X53412544Y-39383813D01*
X53353232Y-39420744D01*
X53283369Y-39419746D01*
X53225137Y-39381136D01*
X53197527Y-39320678D01*
X53181252Y-39217925D01*
X53172171Y-39160591D01*
X53143896Y-39073569D01*
X53116212Y-38988363D01*
X53116211Y-38988360D01*
X53064795Y-38887453D01*
X53033996Y-38827006D01*
X52997383Y-38776612D01*
X52927558Y-38680505D01*
X52927554Y-38680500D01*
X52799499Y-38552445D01*
X52799494Y-38552441D01*
X52652997Y-38446006D01*
X52652996Y-38446005D01*
X52652994Y-38446004D01*
X52601300Y-38419664D01*
X52491639Y-38363788D01*
X52491636Y-38363787D01*
X52319410Y-38307829D01*
X52140551Y-38279500D01*
X52140546Y-38279500D01*
X51959454Y-38279500D01*
X51959449Y-38279500D01*
X51780589Y-38307829D01*
X51608363Y-38363787D01*
X51608360Y-38363788D01*
X51447002Y-38446006D01*
X51300505Y-38552441D01*
X51300500Y-38552445D01*
X51172445Y-38680500D01*
X51172441Y-38680505D01*
X51066006Y-38827002D01*
X50983788Y-38988360D01*
X50983787Y-38988363D01*
X50927829Y-39160589D01*
X50902473Y-39320678D01*
X50872544Y-39383813D01*
X50813232Y-39420744D01*
X50743369Y-39419746D01*
X50685137Y-39381136D01*
X50657527Y-39320678D01*
X50641252Y-39217925D01*
X50632171Y-39160591D01*
X50603896Y-39073569D01*
X50576212Y-38988363D01*
X50576211Y-38988360D01*
X50524795Y-38887453D01*
X50493996Y-38827006D01*
X50457383Y-38776612D01*
X50387558Y-38680505D01*
X50387554Y-38680500D01*
X50259499Y-38552445D01*
X50259494Y-38552441D01*
X50112997Y-38446006D01*
X50112996Y-38446005D01*
X50112994Y-38446004D01*
X50061300Y-38419664D01*
X49951639Y-38363788D01*
X49951636Y-38363787D01*
X49779410Y-38307829D01*
X49600551Y-38279500D01*
X49600546Y-38279500D01*
X49419454Y-38279500D01*
X49419449Y-38279500D01*
X49240589Y-38307829D01*
X49068363Y-38363787D01*
X49068360Y-38363788D01*
X48907002Y-38446006D01*
X48760505Y-38552441D01*
X48760500Y-38552445D01*
X48632445Y-38680500D01*
X48632441Y-38680505D01*
X48526006Y-38827002D01*
X48443788Y-38988360D01*
X48443787Y-38988363D01*
X48387829Y-39160589D01*
X48362473Y-39320678D01*
X48332544Y-39383813D01*
X48273232Y-39420744D01*
X48203369Y-39419746D01*
X48145137Y-39381136D01*
X48117527Y-39320678D01*
X48101252Y-39217925D01*
X48092171Y-39160591D01*
X48063896Y-39073569D01*
X48036212Y-38988363D01*
X48036211Y-38988360D01*
X47984795Y-38887453D01*
X47953996Y-38827006D01*
X47917383Y-38776612D01*
X47847558Y-38680505D01*
X47847554Y-38680500D01*
X47719499Y-38552445D01*
X47719494Y-38552441D01*
X47572997Y-38446006D01*
X47572996Y-38446005D01*
X47572994Y-38446004D01*
X47521300Y-38419664D01*
X47411639Y-38363788D01*
X47411636Y-38363787D01*
X47239410Y-38307829D01*
X47060551Y-38279500D01*
X47060546Y-38279500D01*
X46879454Y-38279500D01*
X46879449Y-38279500D01*
X46700589Y-38307829D01*
X46528363Y-38363787D01*
X46528360Y-38363788D01*
X46367002Y-38446006D01*
X46220505Y-38552441D01*
X46220500Y-38552445D01*
X46092445Y-38680500D01*
X46092441Y-38680505D01*
X45986006Y-38827002D01*
X45903788Y-38988360D01*
X45903787Y-38988363D01*
X45847829Y-39160589D01*
X45822473Y-39320678D01*
X45792544Y-39383813D01*
X45733232Y-39420744D01*
X45663369Y-39419746D01*
X45605137Y-39381136D01*
X45577527Y-39320678D01*
X45561252Y-39217925D01*
X45552171Y-39160591D01*
X45523896Y-39073569D01*
X45496212Y-38988363D01*
X45496211Y-38988360D01*
X45444795Y-38887453D01*
X45413996Y-38827006D01*
X45377383Y-38776612D01*
X45307558Y-38680505D01*
X45307554Y-38680500D01*
X45179499Y-38552445D01*
X45179494Y-38552441D01*
X45032997Y-38446006D01*
X45032996Y-38446005D01*
X45032994Y-38446004D01*
X44981300Y-38419664D01*
X44871639Y-38363788D01*
X44871636Y-38363787D01*
X44699410Y-38307829D01*
X44520551Y-38279500D01*
X44520546Y-38279500D01*
X44339454Y-38279500D01*
X44339449Y-38279500D01*
X44160589Y-38307829D01*
X43988363Y-38363787D01*
X43988360Y-38363788D01*
X43827002Y-38446006D01*
X43680505Y-38552441D01*
X43680500Y-38552445D01*
X43552445Y-38680500D01*
X43552441Y-38680505D01*
X43446006Y-38827002D01*
X43363788Y-38988360D01*
X43363787Y-38988363D01*
X43307829Y-39160589D01*
X43282473Y-39320678D01*
X43252544Y-39383813D01*
X43193232Y-39420744D01*
X43123369Y-39419746D01*
X43065137Y-39381136D01*
X43037527Y-39320678D01*
X43021252Y-39217925D01*
X43012171Y-39160591D01*
X42983896Y-39073569D01*
X42956212Y-38988363D01*
X42956211Y-38988360D01*
X42904795Y-38887453D01*
X42873996Y-38827006D01*
X42837383Y-38776612D01*
X42767558Y-38680505D01*
X42767554Y-38680500D01*
X42639499Y-38552445D01*
X42639494Y-38552441D01*
X42492997Y-38446006D01*
X42492996Y-38446005D01*
X42492994Y-38446004D01*
X42441300Y-38419664D01*
X42331639Y-38363788D01*
X42331636Y-38363787D01*
X42159410Y-38307829D01*
X41980551Y-38279500D01*
X41980546Y-38279500D01*
X41799454Y-38279500D01*
X41799449Y-38279500D01*
X41620589Y-38307829D01*
X41448363Y-38363787D01*
X41448360Y-38363788D01*
X41287002Y-38446006D01*
X41140505Y-38552441D01*
X41140500Y-38552445D01*
X41012445Y-38680500D01*
X41012441Y-38680505D01*
X40906006Y-38827002D01*
X40823788Y-38988360D01*
X40823787Y-38988363D01*
X40767829Y-39160589D01*
X40742473Y-39320678D01*
X40712544Y-39383813D01*
X40653232Y-39420744D01*
X40583369Y-39419746D01*
X40525137Y-39381136D01*
X40497527Y-39320678D01*
X40481252Y-39217925D01*
X40472171Y-39160591D01*
X40443896Y-39073569D01*
X40416212Y-38988363D01*
X40416211Y-38988360D01*
X40364795Y-38887453D01*
X40333996Y-38827006D01*
X40297383Y-38776612D01*
X40227558Y-38680505D01*
X40227554Y-38680500D01*
X40099499Y-38552445D01*
X40099494Y-38552441D01*
X39952997Y-38446006D01*
X39952996Y-38446005D01*
X39952994Y-38446004D01*
X39901300Y-38419664D01*
X39791639Y-38363788D01*
X39791636Y-38363787D01*
X39619410Y-38307829D01*
X39440551Y-38279500D01*
X39440546Y-38279500D01*
X39259454Y-38279500D01*
X39259449Y-38279500D01*
X39080589Y-38307829D01*
X38908363Y-38363787D01*
X38908360Y-38363788D01*
X38747002Y-38446006D01*
X38600505Y-38552441D01*
X38600500Y-38552445D01*
X38472445Y-38680500D01*
X38472441Y-38680505D01*
X38366006Y-38827002D01*
X38283788Y-38988360D01*
X38283787Y-38988363D01*
X38227829Y-39160589D01*
X38202473Y-39320678D01*
X38172544Y-39383813D01*
X38113232Y-39420744D01*
X38043369Y-39419746D01*
X37985137Y-39381136D01*
X37957527Y-39320678D01*
X37941252Y-39217925D01*
X37932171Y-39160591D01*
X37903896Y-39073569D01*
X37876212Y-38988363D01*
X37876211Y-38988360D01*
X37824795Y-38887453D01*
X37793996Y-38827006D01*
X37757383Y-38776612D01*
X37687558Y-38680505D01*
X37687554Y-38680500D01*
X37559499Y-38552445D01*
X37559494Y-38552441D01*
X37412997Y-38446006D01*
X37412996Y-38446005D01*
X37412994Y-38446004D01*
X37361300Y-38419664D01*
X37251639Y-38363788D01*
X37251636Y-38363787D01*
X37079410Y-38307829D01*
X36900551Y-38279500D01*
X36900546Y-38279500D01*
X36719454Y-38279500D01*
X36719449Y-38279500D01*
X36540589Y-38307829D01*
X36368363Y-38363787D01*
X36368360Y-38363788D01*
X36207002Y-38446006D01*
X36060505Y-38552441D01*
X36060500Y-38552445D01*
X35932445Y-38680500D01*
X35932441Y-38680505D01*
X35826006Y-38827002D01*
X35743788Y-38988360D01*
X35743787Y-38988363D01*
X35687829Y-39160589D01*
X35662473Y-39320678D01*
X35632544Y-39383813D01*
X35573232Y-39420744D01*
X35503369Y-39419746D01*
X35445137Y-39381136D01*
X35417527Y-39320678D01*
X35401252Y-39217925D01*
X35392171Y-39160591D01*
X35363896Y-39073569D01*
X35336212Y-38988363D01*
X35336211Y-38988360D01*
X35284795Y-38887453D01*
X35253996Y-38827006D01*
X35217383Y-38776612D01*
X35147558Y-38680505D01*
X35147554Y-38680500D01*
X35019499Y-38552445D01*
X35019494Y-38552441D01*
X34872997Y-38446006D01*
X34872996Y-38446005D01*
X34872994Y-38446004D01*
X34821300Y-38419664D01*
X34711639Y-38363788D01*
X34711636Y-38363787D01*
X34539410Y-38307829D01*
X34360551Y-38279500D01*
X34360546Y-38279500D01*
X34179454Y-38279500D01*
X34179449Y-38279500D01*
X34000589Y-38307829D01*
X33828363Y-38363787D01*
X33828360Y-38363788D01*
X33667002Y-38446006D01*
X33520505Y-38552441D01*
X33520500Y-38552445D01*
X33392445Y-38680500D01*
X33392441Y-38680505D01*
X33286006Y-38827002D01*
X33203788Y-38988360D01*
X33203787Y-38988363D01*
X33147829Y-39160589D01*
X33122473Y-39320678D01*
X33092544Y-39383813D01*
X33033232Y-39420744D01*
X32963369Y-39419746D01*
X32905137Y-39381136D01*
X32877527Y-39320678D01*
X32861252Y-39217925D01*
X32852171Y-39160591D01*
X32823896Y-39073569D01*
X32796212Y-38988363D01*
X32796211Y-38988360D01*
X32744795Y-38887453D01*
X32713996Y-38827006D01*
X32677383Y-38776612D01*
X32607558Y-38680505D01*
X32607554Y-38680500D01*
X32479499Y-38552445D01*
X32479494Y-38552441D01*
X32332997Y-38446006D01*
X32332996Y-38446005D01*
X32332994Y-38446004D01*
X32281300Y-38419664D01*
X32171639Y-38363788D01*
X32171636Y-38363787D01*
X31999410Y-38307829D01*
X31820551Y-38279500D01*
X31820546Y-38279500D01*
X31639454Y-38279500D01*
X31639449Y-38279500D01*
X31460589Y-38307829D01*
X31288363Y-38363787D01*
X31288360Y-38363788D01*
X31127002Y-38446006D01*
X30980505Y-38552441D01*
X30980500Y-38552445D01*
X30852445Y-38680500D01*
X30852441Y-38680505D01*
X30746006Y-38827002D01*
X30663788Y-38988360D01*
X30663787Y-38988363D01*
X30607829Y-39160589D01*
X30582473Y-39320678D01*
X30552544Y-39383813D01*
X30493232Y-39420744D01*
X30423369Y-39419746D01*
X30365137Y-39381136D01*
X30337527Y-39320678D01*
X30321252Y-39217925D01*
X30312171Y-39160591D01*
X30283896Y-39073569D01*
X30256212Y-38988363D01*
X30256211Y-38988360D01*
X30204795Y-38887453D01*
X30173996Y-38827006D01*
X30137383Y-38776612D01*
X30067558Y-38680505D01*
X30067554Y-38680500D01*
X29939499Y-38552445D01*
X29939494Y-38552441D01*
X29792997Y-38446006D01*
X29792996Y-38446005D01*
X29792994Y-38446004D01*
X29741300Y-38419664D01*
X29631639Y-38363788D01*
X29631636Y-38363787D01*
X29459410Y-38307829D01*
X29280551Y-38279500D01*
X29280546Y-38279500D01*
X29099454Y-38279500D01*
X29099449Y-38279500D01*
X28920589Y-38307829D01*
X28748363Y-38363787D01*
X28748360Y-38363788D01*
X28587002Y-38446006D01*
X28440505Y-38552441D01*
X28440500Y-38552445D01*
X28312445Y-38680500D01*
X28312441Y-38680505D01*
X28206006Y-38827002D01*
X28123788Y-38988360D01*
X28123787Y-38988363D01*
X28067829Y-39160589D01*
X28042473Y-39320678D01*
X28012544Y-39383813D01*
X27953232Y-39420744D01*
X27883369Y-39419746D01*
X27825137Y-39381136D01*
X27797527Y-39320678D01*
X27781252Y-39217925D01*
X27772171Y-39160591D01*
X27743896Y-39073569D01*
X27716212Y-38988363D01*
X27716211Y-38988360D01*
X27664795Y-38887453D01*
X27633996Y-38827006D01*
X27597383Y-38776612D01*
X27527558Y-38680505D01*
X27527554Y-38680500D01*
X27399499Y-38552445D01*
X27399494Y-38552441D01*
X27252997Y-38446006D01*
X27252996Y-38446005D01*
X27252994Y-38446004D01*
X27201300Y-38419664D01*
X27091639Y-38363788D01*
X27091636Y-38363787D01*
X26919410Y-38307829D01*
X26740551Y-38279500D01*
X26740546Y-38279500D01*
X26559454Y-38279500D01*
X26559449Y-38279500D01*
X26380589Y-38307829D01*
X26208363Y-38363787D01*
X26208360Y-38363788D01*
X26047002Y-38446006D01*
X25900505Y-38552441D01*
X25900500Y-38552445D01*
X25772445Y-38680500D01*
X25772441Y-38680505D01*
X25666006Y-38827002D01*
X25583788Y-38988360D01*
X25583787Y-38988363D01*
X25527829Y-39160589D01*
X25502473Y-39320678D01*
X25472544Y-39383813D01*
X25413232Y-39420744D01*
X25343369Y-39419746D01*
X25285137Y-39381136D01*
X25257527Y-39320678D01*
X25241252Y-39217925D01*
X25232171Y-39160591D01*
X25203896Y-39073569D01*
X25176212Y-38988363D01*
X25176211Y-38988360D01*
X25124795Y-38887453D01*
X25093996Y-38827006D01*
X25057383Y-38776612D01*
X24987558Y-38680505D01*
X24987554Y-38680500D01*
X24859499Y-38552445D01*
X24859494Y-38552441D01*
X24712997Y-38446006D01*
X24712996Y-38446005D01*
X24712994Y-38446004D01*
X24661300Y-38419664D01*
X24551639Y-38363788D01*
X24551636Y-38363787D01*
X24379410Y-38307829D01*
X24200551Y-38279500D01*
X24200546Y-38279500D01*
X24019454Y-38279500D01*
X24019449Y-38279500D01*
X23840589Y-38307829D01*
X23668363Y-38363787D01*
X23668360Y-38363788D01*
X23507002Y-38446006D01*
X23360505Y-38552441D01*
X23360500Y-38552445D01*
X23232445Y-38680500D01*
X23232441Y-38680505D01*
X23126006Y-38827002D01*
X23043788Y-38988360D01*
X23043787Y-38988363D01*
X22987829Y-39160589D01*
X22962473Y-39320678D01*
X22932544Y-39383813D01*
X22873232Y-39420744D01*
X22803369Y-39419746D01*
X22745137Y-39381136D01*
X22717527Y-39320678D01*
X22701252Y-39217925D01*
X22692171Y-39160591D01*
X22663896Y-39073569D01*
X22636212Y-38988363D01*
X22636211Y-38988360D01*
X22584795Y-38887453D01*
X22553996Y-38827006D01*
X22517383Y-38776612D01*
X22447558Y-38680505D01*
X22447554Y-38680500D01*
X22319499Y-38552445D01*
X22319494Y-38552441D01*
X22172997Y-38446006D01*
X22172996Y-38446005D01*
X22172994Y-38446004D01*
X22121300Y-38419664D01*
X22011639Y-38363788D01*
X22011636Y-38363787D01*
X21839410Y-38307829D01*
X21660551Y-38279500D01*
X21660546Y-38279500D01*
X21479454Y-38279500D01*
X21479449Y-38279500D01*
X21300589Y-38307829D01*
X21128363Y-38363787D01*
X21128360Y-38363788D01*
X20967002Y-38446006D01*
X20820505Y-38552441D01*
X20820500Y-38552445D01*
X20692445Y-38680500D01*
X20692441Y-38680505D01*
X20586006Y-38827002D01*
X20503788Y-38988360D01*
X20503787Y-38988363D01*
X20447829Y-39160589D01*
X20422473Y-39320678D01*
X20392544Y-39383813D01*
X20333232Y-39420744D01*
X20263369Y-39419746D01*
X20205137Y-39381136D01*
X20177527Y-39320678D01*
X20161252Y-39217925D01*
X20152171Y-39160591D01*
X20123896Y-39073569D01*
X20096212Y-38988363D01*
X20096211Y-38988360D01*
X20044795Y-38887453D01*
X20013996Y-38827006D01*
X19977383Y-38776612D01*
X19907558Y-38680505D01*
X19907554Y-38680500D01*
X19779499Y-38552445D01*
X19779494Y-38552441D01*
X19632997Y-38446006D01*
X19632996Y-38446005D01*
X19632994Y-38446004D01*
X19581300Y-38419664D01*
X19471639Y-38363788D01*
X19471636Y-38363787D01*
X19299410Y-38307829D01*
X19120551Y-38279500D01*
X19120546Y-38279500D01*
X18939454Y-38279500D01*
X18939449Y-38279500D01*
X18760589Y-38307829D01*
X18588363Y-38363787D01*
X18588360Y-38363788D01*
X18427002Y-38446006D01*
X18280505Y-38552441D01*
X18280500Y-38552445D01*
X18152445Y-38680500D01*
X18152441Y-38680505D01*
X18046006Y-38827002D01*
X17963788Y-38988360D01*
X17963787Y-38988363D01*
X17907829Y-39160589D01*
X17882473Y-39320678D01*
X17852544Y-39383813D01*
X17793232Y-39420744D01*
X17723369Y-39419746D01*
X17665137Y-39381136D01*
X17637527Y-39320678D01*
X17621252Y-39217925D01*
X17612171Y-39160591D01*
X17583896Y-39073569D01*
X17556212Y-38988363D01*
X17556211Y-38988360D01*
X17504795Y-38887453D01*
X17473996Y-38827006D01*
X17437383Y-38776612D01*
X17367558Y-38680505D01*
X17367554Y-38680500D01*
X17239499Y-38552445D01*
X17239494Y-38552441D01*
X17092997Y-38446006D01*
X17092996Y-38446005D01*
X17092994Y-38446004D01*
X17041300Y-38419664D01*
X16931639Y-38363788D01*
X16931636Y-38363787D01*
X16759410Y-38307829D01*
X16580551Y-38279500D01*
X16580546Y-38279500D01*
X16399454Y-38279500D01*
X16399449Y-38279500D01*
X16220589Y-38307829D01*
X16048363Y-38363787D01*
X16048360Y-38363788D01*
X15887002Y-38446006D01*
X15740505Y-38552441D01*
X15740500Y-38552445D01*
X15612445Y-38680500D01*
X15612441Y-38680505D01*
X15506006Y-38827002D01*
X15423788Y-38988360D01*
X15423787Y-38988363D01*
X15367829Y-39160589D01*
X15342473Y-39320678D01*
X15312544Y-39383813D01*
X15253232Y-39420744D01*
X15183369Y-39419746D01*
X15125137Y-39381136D01*
X15097527Y-39320678D01*
X15081252Y-39217925D01*
X15072171Y-39160591D01*
X15043896Y-39073569D01*
X15016212Y-38988363D01*
X15016211Y-38988360D01*
X14964795Y-38887453D01*
X14933996Y-38827006D01*
X14897383Y-38776612D01*
X14827558Y-38680505D01*
X14827554Y-38680500D01*
X14699499Y-38552445D01*
X14699494Y-38552441D01*
X14552997Y-38446006D01*
X14552996Y-38446005D01*
X14552994Y-38446004D01*
X14501300Y-38419664D01*
X14391639Y-38363788D01*
X14391636Y-38363787D01*
X14219410Y-38307829D01*
X14040551Y-38279500D01*
X14040546Y-38279500D01*
X13859454Y-38279500D01*
X13859449Y-38279500D01*
X13680589Y-38307829D01*
X13508363Y-38363787D01*
X13508360Y-38363788D01*
X13347002Y-38446006D01*
X13200505Y-38552441D01*
X13200500Y-38552445D01*
X13072445Y-38680500D01*
X13072441Y-38680505D01*
X12966006Y-38827002D01*
X12883788Y-38988360D01*
X12883787Y-38988363D01*
X12827829Y-39160589D01*
X12802473Y-39320678D01*
X12772544Y-39383813D01*
X12713232Y-39420744D01*
X12643369Y-39419746D01*
X12585137Y-39381136D01*
X12557527Y-39320678D01*
X12541252Y-39217925D01*
X12532171Y-39160591D01*
X12503896Y-39073569D01*
X12476212Y-38988363D01*
X12476211Y-38988360D01*
X12424795Y-38887453D01*
X12393996Y-38827006D01*
X12357383Y-38776612D01*
X12287558Y-38680505D01*
X12287554Y-38680500D01*
X12159499Y-38552445D01*
X12159494Y-38552441D01*
X12012997Y-38446006D01*
X12012996Y-38446005D01*
X12012994Y-38446004D01*
X11961300Y-38419664D01*
X11851639Y-38363788D01*
X11851636Y-38363787D01*
X11679410Y-38307829D01*
X11500551Y-38279500D01*
X11500546Y-38279500D01*
X11319454Y-38279500D01*
X11319449Y-38279500D01*
X11140589Y-38307829D01*
X10968363Y-38363787D01*
X10968360Y-38363788D01*
X10807002Y-38446006D01*
X10660505Y-38552441D01*
X10660500Y-38552445D01*
X10532445Y-38680500D01*
X10532441Y-38680505D01*
X10426006Y-38827002D01*
X10343788Y-38988360D01*
X10343787Y-38988363D01*
X10287829Y-39160589D01*
X10262473Y-39320678D01*
X10232544Y-39383813D01*
X10173232Y-39420744D01*
X10103369Y-39419746D01*
X10045137Y-39381136D01*
X10017527Y-39320678D01*
X10001252Y-39217925D01*
X9992171Y-39160591D01*
X9963896Y-39073569D01*
X9936212Y-38988363D01*
X9936211Y-38988360D01*
X9884795Y-38887453D01*
X9853996Y-38827006D01*
X9817383Y-38776612D01*
X9747558Y-38680505D01*
X9747554Y-38680500D01*
X9619499Y-38552445D01*
X9619494Y-38552441D01*
X9472997Y-38446006D01*
X9472996Y-38446005D01*
X9472994Y-38446004D01*
X9421300Y-38419664D01*
X9311639Y-38363788D01*
X9311636Y-38363787D01*
X9139410Y-38307829D01*
X8960551Y-38279500D01*
X8960546Y-38279500D01*
X8779454Y-38279500D01*
X8779449Y-38279500D01*
X8600589Y-38307829D01*
X8428363Y-38363787D01*
X8428360Y-38363788D01*
X8267002Y-38446006D01*
X8120505Y-38552441D01*
X8120500Y-38552445D01*
X7992445Y-38680500D01*
X7992441Y-38680505D01*
X7886006Y-38827002D01*
X7803788Y-38988360D01*
X7803787Y-38988363D01*
X7747829Y-39160589D01*
X7722473Y-39320678D01*
X7692544Y-39383813D01*
X7633232Y-39420744D01*
X7563369Y-39419746D01*
X7505137Y-39381136D01*
X7477527Y-39320678D01*
X7461252Y-39217925D01*
X7452171Y-39160591D01*
X7423896Y-39073569D01*
X7396212Y-38988363D01*
X7396211Y-38988360D01*
X7344795Y-38887453D01*
X7313996Y-38827006D01*
X7277383Y-38776612D01*
X7207558Y-38680505D01*
X7207554Y-38680500D01*
X7079499Y-38552445D01*
X7079494Y-38552441D01*
X6932997Y-38446006D01*
X6932996Y-38446005D01*
X6932994Y-38446004D01*
X6881300Y-38419664D01*
X6771639Y-38363788D01*
X6771636Y-38363787D01*
X6599410Y-38307829D01*
X6420551Y-38279500D01*
X6420546Y-38279500D01*
X6239454Y-38279500D01*
X6239449Y-38279500D01*
X6060589Y-38307829D01*
X5888363Y-38363787D01*
X5888360Y-38363788D01*
X5727002Y-38446006D01*
X5580505Y-38552441D01*
X5580500Y-38552445D01*
X5452445Y-38680500D01*
X5452441Y-38680505D01*
X5346006Y-38827002D01*
X5263788Y-38988360D01*
X5263787Y-38988363D01*
X5207829Y-39160589D01*
X5179500Y-39339448D01*
X1500000Y-39339448D01*
X1500000Y-16479448D01*
X5179500Y-16479448D01*
X5179500Y-16660551D01*
X5207829Y-16839410D01*
X5263787Y-17011636D01*
X5263788Y-17011639D01*
X5346006Y-17172997D01*
X5452441Y-17319494D01*
X5452445Y-17319499D01*
X5580500Y-17447554D01*
X5580505Y-17447558D01*
X5708287Y-17540396D01*
X5727006Y-17553996D01*
X5830500Y-17606729D01*
X5888360Y-17636211D01*
X5888363Y-17636212D01*
X5968628Y-17662291D01*
X6060591Y-17692171D01*
X6143429Y-17705291D01*
X6239449Y-17720500D01*
X6239454Y-17720500D01*
X6420551Y-17720500D01*
X6507259Y-17706765D01*
X6599409Y-17692171D01*
X6771639Y-17636211D01*
X6932994Y-17553996D01*
X7079501Y-17447553D01*
X7207553Y-17319501D01*
X7313996Y-17172994D01*
X7396211Y-17011639D01*
X7452171Y-16839409D01*
X7469500Y-16729997D01*
X7477527Y-16679321D01*
X7507456Y-16616186D01*
X7566768Y-16579255D01*
X7636630Y-16580253D01*
X7694863Y-16618863D01*
X7722473Y-16679321D01*
X7747829Y-16839410D01*
X7803787Y-17011636D01*
X7803788Y-17011639D01*
X7886006Y-17172997D01*
X7992441Y-17319494D01*
X7992445Y-17319499D01*
X8120500Y-17447554D01*
X8120505Y-17447558D01*
X8248287Y-17540396D01*
X8267006Y-17553996D01*
X8370500Y-17606729D01*
X8428360Y-17636211D01*
X8428363Y-17636212D01*
X8508628Y-17662291D01*
X8600591Y-17692171D01*
X8683429Y-17705291D01*
X8779449Y-17720500D01*
X8779454Y-17720500D01*
X8960551Y-17720500D01*
X9047259Y-17706765D01*
X9139409Y-17692171D01*
X9311639Y-17636211D01*
X9472994Y-17553996D01*
X9619501Y-17447553D01*
X9747553Y-17319501D01*
X9853996Y-17172994D01*
X9936211Y-17011639D01*
X9992171Y-16839409D01*
X10009500Y-16729997D01*
X10017527Y-16679321D01*
X10047456Y-16616186D01*
X10106768Y-16579255D01*
X10176630Y-16580253D01*
X10234863Y-16618863D01*
X10262473Y-16679321D01*
X10287829Y-16839410D01*
X10343787Y-17011636D01*
X10343788Y-17011639D01*
X10426006Y-17172997D01*
X10532441Y-17319494D01*
X10532445Y-17319499D01*
X10660500Y-17447554D01*
X10660505Y-17447558D01*
X10788287Y-17540396D01*
X10807006Y-17553996D01*
X10910500Y-17606729D01*
X10968360Y-17636211D01*
X10968363Y-17636212D01*
X11048628Y-17662291D01*
X11140591Y-17692171D01*
X11223429Y-17705291D01*
X11319449Y-17720500D01*
X11319454Y-17720500D01*
X11500551Y-17720500D01*
X11587259Y-17706765D01*
X11679409Y-17692171D01*
X11851639Y-17636211D01*
X12012994Y-17553996D01*
X12159501Y-17447553D01*
X12287553Y-17319501D01*
X12287555Y-17319497D01*
X12287558Y-17319495D01*
X12325182Y-17267710D01*
X12380511Y-17225044D01*
X12450125Y-17219065D01*
X12511920Y-17251670D01*
X12546277Y-17312509D01*
X12549500Y-17340595D01*
X12549500Y-28059309D01*
X12580201Y-28173886D01*
X12639511Y-28276613D01*
X12723387Y-28360489D01*
X12826114Y-28419799D01*
X12940691Y-28450500D01*
X13059309Y-28450500D01*
X13358482Y-28450500D01*
X13425521Y-28470185D01*
X13446158Y-28486814D01*
X13483823Y-28524479D01*
X13503459Y-28544115D01*
X13618182Y-28620771D01*
X13618195Y-28620778D01*
X13745667Y-28673578D01*
X13745672Y-28673580D01*
X13745676Y-28673580D01*
X13745677Y-28673581D01*
X13881004Y-28700500D01*
X13881007Y-28700500D01*
X14018995Y-28700500D01*
X14110041Y-28682389D01*
X14154328Y-28673580D01*
X14281811Y-28620775D01*
X14396542Y-28544114D01*
X14494114Y-28446542D01*
X14570775Y-28331811D01*
X14623580Y-28204328D01*
X14650500Y-28068993D01*
X14650500Y-27931007D01*
X14650500Y-27931004D01*
X14623581Y-27795677D01*
X14623580Y-27795676D01*
X14623580Y-27795672D01*
X14580284Y-27691145D01*
X14570778Y-27668195D01*
X14570771Y-27668182D01*
X14494114Y-27553458D01*
X14494111Y-27553454D01*
X14396545Y-27455888D01*
X14396541Y-27455885D01*
X14281817Y-27379228D01*
X14281804Y-27379221D01*
X14154332Y-27326421D01*
X14154322Y-27326418D01*
X14018995Y-27299500D01*
X14018993Y-27299500D01*
X13881007Y-27299500D01*
X13881005Y-27299500D01*
X13745677Y-27326418D01*
X13745667Y-27326421D01*
X13621952Y-27377665D01*
X13552482Y-27385134D01*
X13490003Y-27353858D01*
X13454352Y-27293769D01*
X13450500Y-27263104D01*
X13450500Y-17788081D01*
X13470185Y-17721042D01*
X13522989Y-17675287D01*
X13592147Y-17665343D01*
X13612809Y-17670147D01*
X13680591Y-17692171D01*
X13698762Y-17695049D01*
X13859449Y-17720500D01*
X13859454Y-17720500D01*
X14040551Y-17720500D01*
X14127259Y-17706765D01*
X14219409Y-17692171D01*
X14391639Y-17636211D01*
X14552994Y-17553996D01*
X14699501Y-17447553D01*
X14827553Y-17319501D01*
X14827558Y-17319494D01*
X14830725Y-17315788D01*
X14832398Y-17317217D01*
X14880445Y-17280125D01*
X14950055Y-17274106D01*
X15011869Y-17306676D01*
X15046261Y-17367495D01*
X15049500Y-17395650D01*
X15049500Y-28059309D01*
X15080201Y-28173886D01*
X15139511Y-28276613D01*
X15223387Y-28360489D01*
X15326114Y-28419799D01*
X15440691Y-28450500D01*
X15559309Y-28450500D01*
X15898482Y-28450500D01*
X15965521Y-28470185D01*
X15986158Y-28486814D01*
X16023823Y-28524479D01*
X16043459Y-28544115D01*
X16158182Y-28620771D01*
X16158195Y-28620778D01*
X16285667Y-28673578D01*
X16285672Y-28673580D01*
X16285676Y-28673580D01*
X16285677Y-28673581D01*
X16421004Y-28700500D01*
X16421007Y-28700500D01*
X16558995Y-28700500D01*
X16650041Y-28682389D01*
X16694328Y-28673580D01*
X16821811Y-28620775D01*
X16936542Y-28544114D01*
X17034114Y-28446542D01*
X17110775Y-28331811D01*
X17163580Y-28204328D01*
X17190500Y-28068993D01*
X17190500Y-27931007D01*
X17190500Y-27931004D01*
X17163581Y-27795677D01*
X17163580Y-27795676D01*
X17163580Y-27795672D01*
X17120284Y-27691145D01*
X17110778Y-27668195D01*
X17110771Y-27668182D01*
X17034114Y-27553458D01*
X17034111Y-27553454D01*
X16936545Y-27455888D01*
X16936541Y-27455885D01*
X16821817Y-27379228D01*
X16821804Y-27379221D01*
X16694332Y-27326421D01*
X16694322Y-27326418D01*
X16558995Y-27299500D01*
X16558993Y-27299500D01*
X16421007Y-27299500D01*
X16421005Y-27299500D01*
X16285677Y-27326418D01*
X16285667Y-27326421D01*
X16158195Y-27379221D01*
X16158182Y-27379228D01*
X16143391Y-27389112D01*
X16076713Y-27409990D01*
X16009333Y-27391505D01*
X15962643Y-27339526D01*
X15950500Y-27286010D01*
X15950500Y-17775085D01*
X15970185Y-17708046D01*
X16022989Y-17662291D01*
X16092147Y-17652347D01*
X16112817Y-17657153D01*
X16220591Y-17692171D01*
X16303429Y-17705291D01*
X16399449Y-17720500D01*
X16399454Y-17720500D01*
X16580551Y-17720500D01*
X16667259Y-17706765D01*
X16759409Y-17692171D01*
X16931639Y-17636211D01*
X17092994Y-17553996D01*
X17239501Y-17447553D01*
X17337819Y-17349235D01*
X17399142Y-17315750D01*
X17468834Y-17320734D01*
X17524767Y-17362606D01*
X17549184Y-17428070D01*
X17549500Y-17436916D01*
X17549500Y-28059309D01*
X17580201Y-28173886D01*
X17639511Y-28276613D01*
X17723387Y-28360489D01*
X17826114Y-28419799D01*
X17940691Y-28450500D01*
X18059309Y-28450500D01*
X18438482Y-28450500D01*
X18505521Y-28470185D01*
X18526158Y-28486814D01*
X18563823Y-28524479D01*
X18583459Y-28544115D01*
X18698182Y-28620771D01*
X18698195Y-28620778D01*
X18825667Y-28673578D01*
X18825672Y-28673580D01*
X18825676Y-28673580D01*
X18825677Y-28673581D01*
X18961004Y-28700500D01*
X18961007Y-28700500D01*
X19098995Y-28700500D01*
X19190041Y-28682389D01*
X19234328Y-28673580D01*
X19361811Y-28620775D01*
X19476542Y-28544114D01*
X19574114Y-28446542D01*
X19650775Y-28331811D01*
X19703580Y-28204328D01*
X19730500Y-28068993D01*
X19730500Y-27931007D01*
X19730500Y-27931004D01*
X19703581Y-27795677D01*
X19703580Y-27795676D01*
X19703580Y-27795672D01*
X19660284Y-27691145D01*
X19650778Y-27668195D01*
X19650771Y-27668182D01*
X19574114Y-27553458D01*
X19574111Y-27553454D01*
X19476545Y-27455888D01*
X19476541Y-27455885D01*
X19361817Y-27379228D01*
X19361804Y-27379221D01*
X19234332Y-27326421D01*
X19234322Y-27326418D01*
X19098995Y-27299500D01*
X19098993Y-27299500D01*
X18961007Y-27299500D01*
X18961005Y-27299500D01*
X18825677Y-27326418D01*
X18825667Y-27326421D01*
X18698195Y-27379221D01*
X18698177Y-27379231D01*
X18643390Y-27415839D01*
X18576713Y-27436717D01*
X18509333Y-27418232D01*
X18462643Y-27366253D01*
X18450500Y-27312737D01*
X18450500Y-17762088D01*
X18470185Y-17695049D01*
X18522989Y-17649294D01*
X18592147Y-17639350D01*
X18612813Y-17644155D01*
X18678022Y-17665343D01*
X18760590Y-17692171D01*
X18939449Y-17720500D01*
X18939454Y-17720500D01*
X19120551Y-17720500D01*
X19207259Y-17706765D01*
X19299409Y-17692171D01*
X19471639Y-17636211D01*
X19632994Y-17553996D01*
X19779501Y-17447553D01*
X19907553Y-17319501D01*
X20013996Y-17172994D01*
X20096211Y-17011639D01*
X20152171Y-16839409D01*
X20169500Y-16729997D01*
X20177527Y-16679321D01*
X20207456Y-16616186D01*
X20266768Y-16579255D01*
X20336630Y-16580253D01*
X20394863Y-16618863D01*
X20422473Y-16679321D01*
X20447829Y-16839410D01*
X20503787Y-17011636D01*
X20503788Y-17011639D01*
X20586006Y-17172997D01*
X20692441Y-17319494D01*
X20692445Y-17319499D01*
X20820500Y-17447554D01*
X20820505Y-17447558D01*
X20948287Y-17540396D01*
X20967006Y-17553996D01*
X21070500Y-17606729D01*
X21128360Y-17636211D01*
X21128363Y-17636212D01*
X21208628Y-17662291D01*
X21300591Y-17692171D01*
X21383429Y-17705291D01*
X21479449Y-17720500D01*
X21479454Y-17720500D01*
X21660551Y-17720500D01*
X21747259Y-17706765D01*
X21839409Y-17692171D01*
X22011639Y-17636211D01*
X22172994Y-17553996D01*
X22319501Y-17447553D01*
X22447553Y-17319501D01*
X22553996Y-17172994D01*
X22636211Y-17011639D01*
X22692171Y-16839409D01*
X22709500Y-16729997D01*
X22717527Y-16679321D01*
X22747456Y-16616186D01*
X22806768Y-16579255D01*
X22876630Y-16580253D01*
X22934863Y-16618863D01*
X22962473Y-16679321D01*
X22987829Y-16839410D01*
X23043787Y-17011636D01*
X23043788Y-17011639D01*
X23126006Y-17172997D01*
X23232441Y-17319494D01*
X23232445Y-17319499D01*
X23360500Y-17447554D01*
X23360505Y-17447558D01*
X23488287Y-17540396D01*
X23507006Y-17553996D01*
X23610500Y-17606729D01*
X23668360Y-17636211D01*
X23668363Y-17636212D01*
X23748628Y-17662291D01*
X23840591Y-17692171D01*
X23923429Y-17705291D01*
X24019449Y-17720500D01*
X24019454Y-17720500D01*
X24200551Y-17720500D01*
X24287259Y-17706765D01*
X24379409Y-17692171D01*
X24551639Y-17636211D01*
X24712994Y-17553996D01*
X24859501Y-17447553D01*
X24987553Y-17319501D01*
X25093996Y-17172994D01*
X25176211Y-17011639D01*
X25232171Y-16839409D01*
X25249500Y-16729997D01*
X25257527Y-16679321D01*
X25287456Y-16616186D01*
X25346768Y-16579255D01*
X25416630Y-16580253D01*
X25474863Y-16618863D01*
X25502473Y-16679321D01*
X25527829Y-16839410D01*
X25583787Y-17011636D01*
X25583788Y-17011639D01*
X25666006Y-17172997D01*
X25772441Y-17319494D01*
X25772445Y-17319499D01*
X25900500Y-17447554D01*
X25900505Y-17447558D01*
X26028287Y-17540396D01*
X26047006Y-17553996D01*
X26150500Y-17606729D01*
X26208360Y-17636211D01*
X26208363Y-17636212D01*
X26288628Y-17662291D01*
X26380591Y-17692171D01*
X26463429Y-17705291D01*
X26559449Y-17720500D01*
X26559454Y-17720500D01*
X26740551Y-17720500D01*
X26827259Y-17706765D01*
X26919409Y-17692171D01*
X27091639Y-17636211D01*
X27252994Y-17553996D01*
X27399501Y-17447553D01*
X27527553Y-17319501D01*
X27633996Y-17172994D01*
X27716211Y-17011639D01*
X27772171Y-16839409D01*
X27789500Y-16729997D01*
X27797527Y-16679321D01*
X27827456Y-16616186D01*
X27886768Y-16579255D01*
X27956630Y-16580253D01*
X28014863Y-16618863D01*
X28042473Y-16679321D01*
X28067829Y-16839410D01*
X28123787Y-17011636D01*
X28123788Y-17011639D01*
X28206006Y-17172997D01*
X28312441Y-17319494D01*
X28312445Y-17319499D01*
X28440500Y-17447554D01*
X28440505Y-17447558D01*
X28568287Y-17540396D01*
X28587006Y-17553996D01*
X28690500Y-17606729D01*
X28748360Y-17636211D01*
X28748363Y-17636212D01*
X28828628Y-17662291D01*
X28920591Y-17692171D01*
X29003429Y-17705291D01*
X29099449Y-17720500D01*
X29099454Y-17720500D01*
X29280551Y-17720500D01*
X29367259Y-17706765D01*
X29459409Y-17692171D01*
X29631639Y-17636211D01*
X29792994Y-17553996D01*
X29939501Y-17447553D01*
X30067553Y-17319501D01*
X30173996Y-17172994D01*
X30256211Y-17011639D01*
X30312171Y-16839409D01*
X30329500Y-16729997D01*
X30337527Y-16679321D01*
X30367456Y-16616186D01*
X30426768Y-16579255D01*
X30496630Y-16580253D01*
X30554863Y-16618863D01*
X30582473Y-16679321D01*
X30607829Y-16839410D01*
X30663787Y-17011636D01*
X30663788Y-17011639D01*
X30746006Y-17172997D01*
X30852441Y-17319494D01*
X30852445Y-17319499D01*
X30980500Y-17447554D01*
X30980505Y-17447558D01*
X31108287Y-17540396D01*
X31127006Y-17553996D01*
X31230500Y-17606729D01*
X31288360Y-17636211D01*
X31288363Y-17636212D01*
X31460590Y-17692171D01*
X31478762Y-17695049D01*
X31541794Y-17705032D01*
X31604929Y-17734961D01*
X31641861Y-17794272D01*
X31640863Y-17864134D01*
X31602254Y-17922367D01*
X31591290Y-17930606D01*
X31553456Y-17955886D01*
X31455888Y-18053454D01*
X31455885Y-18053458D01*
X31379228Y-18168182D01*
X31379221Y-18168195D01*
X31326421Y-18295667D01*
X31326418Y-18295677D01*
X31299500Y-18431004D01*
X31299500Y-18431007D01*
X31299500Y-18568993D01*
X31299500Y-18568995D01*
X31299499Y-18568995D01*
X31326418Y-18704322D01*
X31326421Y-18704332D01*
X31379221Y-18831804D01*
X31379228Y-18831817D01*
X31455885Y-18946541D01*
X31455888Y-18946545D01*
X31553454Y-19044111D01*
X31553458Y-19044114D01*
X31668182Y-19120771D01*
X31668195Y-19120778D01*
X31764306Y-19160588D01*
X31795672Y-19173580D01*
X31795676Y-19173580D01*
X31795677Y-19173581D01*
X31931004Y-19200500D01*
X31931007Y-19200500D01*
X32068995Y-19200500D01*
X32171987Y-19180013D01*
X32204328Y-19173580D01*
X32331811Y-19120775D01*
X32446542Y-19044114D01*
X32503838Y-18986817D01*
X32565159Y-18953334D01*
X32591518Y-18950500D01*
X63383796Y-18950500D01*
X63450835Y-18970185D01*
X63496590Y-19022989D01*
X63506534Y-19092147D01*
X63477509Y-19155703D01*
X63471477Y-19162181D01*
X63350588Y-19283069D01*
X63350588Y-19283070D01*
X63350586Y-19283072D01*
X63331959Y-19308710D01*
X63248768Y-19423211D01*
X63170128Y-19577552D01*
X63116597Y-19742302D01*
X63103323Y-19826114D01*
X63089500Y-19913389D01*
X63089500Y-20086611D01*
X63116598Y-20257701D01*
X63170127Y-20422445D01*
X63248768Y-20576788D01*
X63350586Y-20716928D01*
X63473072Y-20839414D01*
X63498383Y-20857804D01*
X63541050Y-20913132D01*
X63549500Y-20958123D01*
X63549500Y-25925500D01*
X63529815Y-25992539D01*
X63477011Y-26038294D01*
X63425500Y-26049500D01*
X46074500Y-26049500D01*
X46007461Y-26029815D01*
X45961706Y-25977011D01*
X45950500Y-25925500D01*
X45950500Y-25574500D01*
X45970185Y-25507461D01*
X46022989Y-25461706D01*
X46074500Y-25450500D01*
X50408482Y-25450500D01*
X50475521Y-25470185D01*
X50496158Y-25486814D01*
X50547638Y-25538294D01*
X50553459Y-25544115D01*
X50668182Y-25620771D01*
X50668195Y-25620778D01*
X50795667Y-25673578D01*
X50795672Y-25673580D01*
X50795676Y-25673580D01*
X50795677Y-25673581D01*
X50931004Y-25700500D01*
X50931007Y-25700500D01*
X51068995Y-25700500D01*
X51160041Y-25682389D01*
X51204328Y-25673580D01*
X51331811Y-25620775D01*
X51446542Y-25544114D01*
X51544114Y-25446542D01*
X51620775Y-25331811D01*
X51673580Y-25204328D01*
X51700500Y-25068993D01*
X51700500Y-24931007D01*
X51700500Y-24931004D01*
X51673581Y-24795677D01*
X51673580Y-24795676D01*
X51673580Y-24795672D01*
X51643639Y-24723387D01*
X51620778Y-24668195D01*
X51620771Y-24668182D01*
X51544114Y-24553458D01*
X51544111Y-24553454D01*
X51446545Y-24455888D01*
X51446541Y-24455885D01*
X51331817Y-24379228D01*
X51331804Y-24379221D01*
X51204332Y-24326421D01*
X51204322Y-24326418D01*
X51068995Y-24299500D01*
X51068993Y-24299500D01*
X50931007Y-24299500D01*
X50931005Y-24299500D01*
X50795677Y-24326418D01*
X50795667Y-24326421D01*
X50668195Y-24379221D01*
X50668182Y-24379228D01*
X50553459Y-24455884D01*
X50529225Y-24480119D01*
X50496161Y-24513182D01*
X50434841Y-24546666D01*
X50408482Y-24549500D01*
X45559309Y-24549500D01*
X45440691Y-24549500D01*
X45326114Y-24580201D01*
X45326112Y-24580201D01*
X45326112Y-24580202D01*
X45223387Y-24639511D01*
X45223384Y-24639513D01*
X45139513Y-24723384D01*
X45139511Y-24723387D01*
X45080201Y-24826114D01*
X45049500Y-24940691D01*
X45049500Y-24940693D01*
X45049500Y-25425500D01*
X45029815Y-25492539D01*
X44977011Y-25538294D01*
X44925500Y-25549500D01*
X29059309Y-25549500D01*
X28940691Y-25549500D01*
X28826114Y-25580201D01*
X28826112Y-25580201D01*
X28826112Y-25580202D01*
X28723387Y-25639511D01*
X28723384Y-25639513D01*
X28639513Y-25723384D01*
X28639511Y-25723387D01*
X28580201Y-25826114D01*
X28549500Y-25940691D01*
X28549500Y-25940693D01*
X28549500Y-27691145D01*
X28540061Y-27738597D01*
X28516420Y-27795670D01*
X28516418Y-27795678D01*
X28489500Y-27931004D01*
X28489500Y-27931007D01*
X28489500Y-28068993D01*
X28489500Y-28068995D01*
X28489499Y-28068995D01*
X28516418Y-28204322D01*
X28516421Y-28204332D01*
X28569221Y-28331804D01*
X28569228Y-28331817D01*
X28645885Y-28446541D01*
X28645888Y-28446545D01*
X28743454Y-28544111D01*
X28743458Y-28544114D01*
X28858182Y-28620771D01*
X28858195Y-28620778D01*
X28985667Y-28673578D01*
X28985672Y-28673580D01*
X28985676Y-28673580D01*
X28985677Y-28673581D01*
X29121004Y-28700500D01*
X29121007Y-28700500D01*
X29258995Y-28700500D01*
X29350041Y-28682389D01*
X29394328Y-28673580D01*
X29521811Y-28620775D01*
X29636542Y-28544114D01*
X29734114Y-28446542D01*
X29810775Y-28331811D01*
X29863580Y-28204328D01*
X29890500Y-28068993D01*
X29890500Y-27931007D01*
X29890500Y-27931004D01*
X29863581Y-27795677D01*
X29863580Y-27795676D01*
X29863580Y-27795672D01*
X29820284Y-27691145D01*
X29810778Y-27668195D01*
X29810771Y-27668182D01*
X29734114Y-27553458D01*
X29734111Y-27553454D01*
X29636545Y-27455888D01*
X29636541Y-27455885D01*
X29521817Y-27379228D01*
X29516441Y-27376355D01*
X29517736Y-27373930D01*
X29472547Y-27337413D01*
X29450573Y-27271088D01*
X29450500Y-27266832D01*
X29450500Y-26574500D01*
X29470185Y-26507461D01*
X29522989Y-26461706D01*
X29574500Y-26450500D01*
X45113036Y-26450500D01*
X45180075Y-26470185D01*
X45225830Y-26522989D01*
X45235774Y-26592147D01*
X45206749Y-26655703D01*
X45200717Y-26662181D01*
X45139513Y-26723384D01*
X45139511Y-26723387D01*
X45108780Y-26776615D01*
X45080201Y-26826114D01*
X45049500Y-26940691D01*
X45049500Y-26940693D01*
X45049500Y-27339464D01*
X45029815Y-27406503D01*
X44977011Y-27452258D01*
X44907853Y-27462202D01*
X44856610Y-27442566D01*
X44761822Y-27379231D01*
X44761804Y-27379221D01*
X44634332Y-27326421D01*
X44634322Y-27326418D01*
X44498995Y-27299500D01*
X44498993Y-27299500D01*
X44361007Y-27299500D01*
X44361005Y-27299500D01*
X44225677Y-27326418D01*
X44225667Y-27326421D01*
X44098195Y-27379221D01*
X44098182Y-27379228D01*
X43983458Y-27455885D01*
X43983454Y-27455888D01*
X43885888Y-27553454D01*
X43885885Y-27553458D01*
X43809228Y-27668182D01*
X43809221Y-27668195D01*
X43756421Y-27795667D01*
X43756418Y-27795677D01*
X43729500Y-27931004D01*
X43729500Y-27931007D01*
X43729500Y-28068993D01*
X43729500Y-28068995D01*
X43729499Y-28068995D01*
X43756418Y-28204322D01*
X43756421Y-28204332D01*
X43809221Y-28331804D01*
X43809228Y-28331817D01*
X43885885Y-28446541D01*
X43885888Y-28446545D01*
X43983454Y-28544111D01*
X43983458Y-28544114D01*
X44098182Y-28620771D01*
X44098195Y-28620778D01*
X44225667Y-28673578D01*
X44225672Y-28673580D01*
X44225676Y-28673580D01*
X44225677Y-28673581D01*
X44361004Y-28700500D01*
X44361007Y-28700500D01*
X44498995Y-28700500D01*
X44590041Y-28682389D01*
X44634328Y-28673580D01*
X44761811Y-28620775D01*
X44876542Y-28544114D01*
X44933838Y-28486817D01*
X44995159Y-28453334D01*
X45021518Y-28450500D01*
X45559306Y-28450500D01*
X45559309Y-28450500D01*
X45673886Y-28419799D01*
X45776613Y-28360489D01*
X45860489Y-28276613D01*
X45919799Y-28173886D01*
X45950500Y-28059309D01*
X45950500Y-27573569D01*
X45970185Y-27506530D01*
X46022989Y-27460775D01*
X46058324Y-27450629D01*
X46059300Y-27450500D01*
X46059309Y-27450500D01*
X46173886Y-27419799D01*
X46276613Y-27360489D01*
X46360489Y-27276613D01*
X46419799Y-27173886D01*
X46450500Y-27059309D01*
X46450500Y-27059299D01*
X46450631Y-27058311D01*
X46450975Y-27057533D01*
X46452603Y-27051458D01*
X46453550Y-27051711D01*
X46478900Y-26994415D01*
X46537225Y-26955946D01*
X46573570Y-26950500D01*
X64059306Y-26950500D01*
X64059309Y-26950500D01*
X64173886Y-26919799D01*
X64276613Y-26860489D01*
X64360489Y-26776613D01*
X64419799Y-26673886D01*
X64450500Y-26559309D01*
X64450500Y-21162583D01*
X64470185Y-21095544D01*
X64522989Y-21049789D01*
X64536183Y-21044652D01*
X64612439Y-21019875D01*
X64612439Y-21019874D01*
X64612445Y-21019873D01*
X64766788Y-20941232D01*
X64906928Y-20839414D01*
X65029414Y-20716928D01*
X65131232Y-20576788D01*
X65209873Y-20422445D01*
X65263402Y-20257701D01*
X65290500Y-20086611D01*
X65290500Y-19913389D01*
X70709500Y-19913389D01*
X70709500Y-20086611D01*
X70736598Y-20257701D01*
X70790127Y-20422445D01*
X70868768Y-20576788D01*
X70970586Y-20716928D01*
X71093072Y-20839414D01*
X71233212Y-20941232D01*
X71387555Y-21019873D01*
X71552299Y-21073402D01*
X71723389Y-21100500D01*
X71723390Y-21100500D01*
X71896610Y-21100500D01*
X71896611Y-21100500D01*
X72067701Y-21073402D01*
X72232445Y-21019873D01*
X72386788Y-20941232D01*
X72526928Y-20839414D01*
X72649414Y-20716928D01*
X72751232Y-20576788D01*
X72815015Y-20451606D01*
X72862989Y-20400809D01*
X72930810Y-20384014D01*
X72996945Y-20406551D01*
X73040397Y-20461266D01*
X73049500Y-20507900D01*
X73049500Y-30841936D01*
X73029815Y-30908975D01*
X72981796Y-30952419D01*
X72927418Y-30980127D01*
X72857001Y-31016006D01*
X72710505Y-31122441D01*
X72710500Y-31122445D01*
X72582445Y-31250500D01*
X72582441Y-31250505D01*
X72476006Y-31397002D01*
X72393788Y-31558360D01*
X72393787Y-31558363D01*
X72337829Y-31730589D01*
X72309500Y-31909448D01*
X72309500Y-32090551D01*
X72337829Y-32269410D01*
X72393787Y-32441636D01*
X72393788Y-32441639D01*
X72446001Y-32544111D01*
X72462653Y-32576792D01*
X72476006Y-32602997D01*
X72582441Y-32749494D01*
X72582445Y-32749499D01*
X72710500Y-32877554D01*
X72710505Y-32877558D01*
X72798146Y-32941232D01*
X72857006Y-32983996D01*
X72962484Y-33037740D01*
X73018360Y-33066211D01*
X73018363Y-33066212D01*
X73072061Y-33083659D01*
X73190591Y-33122171D01*
X73273429Y-33135291D01*
X73369449Y-33150500D01*
X73369454Y-33150500D01*
X73550551Y-33150500D01*
X73637259Y-33136765D01*
X73729409Y-33122171D01*
X73901639Y-33066211D01*
X74062994Y-32983996D01*
X74209501Y-32877553D01*
X74337553Y-32749501D01*
X74443996Y-32602994D01*
X74526211Y-32441639D01*
X74582171Y-32269409D01*
X74596422Y-32179425D01*
X74607527Y-32109321D01*
X74637456Y-32046186D01*
X74696768Y-32009255D01*
X74766630Y-32010253D01*
X74824863Y-32048863D01*
X74852473Y-32109321D01*
X74877829Y-32269410D01*
X74933787Y-32441636D01*
X74933788Y-32441639D01*
X74986001Y-32544111D01*
X75002653Y-32576792D01*
X75016006Y-32602997D01*
X75122441Y-32749494D01*
X75122445Y-32749499D01*
X75250500Y-32877554D01*
X75250505Y-32877558D01*
X75338146Y-32941232D01*
X75397006Y-32983996D01*
X75502484Y-33037740D01*
X75558360Y-33066211D01*
X75558363Y-33066212D01*
X75612061Y-33083659D01*
X75730591Y-33122171D01*
X75813429Y-33135291D01*
X75909449Y-33150500D01*
X75909454Y-33150500D01*
X76090551Y-33150500D01*
X76177259Y-33136765D01*
X76269409Y-33122171D01*
X76441639Y-33066211D01*
X76602994Y-32983996D01*
X76678081Y-32929442D01*
X76749495Y-32877558D01*
X76749497Y-32877555D01*
X76749501Y-32877553D01*
X76877553Y-32749501D01*
X76983996Y-32602994D01*
X77051090Y-32471314D01*
X77099065Y-32420519D01*
X77166886Y-32403724D01*
X77233021Y-32426262D01*
X77276472Y-32480977D01*
X77279506Y-32489292D01*
X77288904Y-32518217D01*
X77385375Y-32707550D01*
X77424728Y-32761716D01*
X78057037Y-32129408D01*
X78074075Y-32192993D01*
X78139901Y-32307007D01*
X78232993Y-32400099D01*
X78347007Y-32465925D01*
X78410590Y-32482962D01*
X77778282Y-33115269D01*
X77778282Y-33115270D01*
X77832449Y-33154624D01*
X78021782Y-33251095D01*
X78223870Y-33316757D01*
X78433754Y-33350000D01*
X78646246Y-33350000D01*
X78856127Y-33316757D01*
X78856130Y-33316757D01*
X79058217Y-33251095D01*
X79247554Y-33154622D01*
X79301716Y-33115270D01*
X79301717Y-33115270D01*
X78669408Y-32482962D01*
X78732993Y-32465925D01*
X78847007Y-32400099D01*
X78940099Y-32307007D01*
X79005925Y-32192993D01*
X79022962Y-32129408D01*
X79655270Y-32761717D01*
X79655270Y-32761716D01*
X79694622Y-32707554D01*
X79791095Y-32518217D01*
X79856757Y-32316130D01*
X79856757Y-32316127D01*
X79890000Y-32106246D01*
X79890000Y-31893753D01*
X79856757Y-31683872D01*
X79856757Y-31683869D01*
X79791095Y-31481782D01*
X79694624Y-31292449D01*
X79655270Y-31238282D01*
X79655269Y-31238282D01*
X79022962Y-31870590D01*
X79005925Y-31807007D01*
X78940099Y-31692993D01*
X78847007Y-31599901D01*
X78732993Y-31534075D01*
X78669409Y-31517037D01*
X79301716Y-30884728D01*
X79247550Y-30845375D01*
X79058217Y-30748904D01*
X78856129Y-30683242D01*
X78646246Y-30650000D01*
X78433754Y-30650000D01*
X78223872Y-30683242D01*
X78223869Y-30683242D01*
X78021782Y-30748904D01*
X77832439Y-30845380D01*
X77778282Y-30884727D01*
X77778282Y-30884728D01*
X78410591Y-31517037D01*
X78347007Y-31534075D01*
X78232993Y-31599901D01*
X78139901Y-31692993D01*
X78074075Y-31807007D01*
X78057037Y-31870591D01*
X77424728Y-31238282D01*
X77424727Y-31238282D01*
X77385380Y-31292439D01*
X77288905Y-31481781D01*
X77279506Y-31510708D01*
X77240068Y-31568383D01*
X77175709Y-31595581D01*
X77106862Y-31583666D01*
X77055387Y-31536421D01*
X77051090Y-31528684D01*
X77013997Y-31455886D01*
X76983996Y-31397006D01*
X76970396Y-31378287D01*
X76877558Y-31250505D01*
X76877554Y-31250500D01*
X76749499Y-31122445D01*
X76749494Y-31122441D01*
X76625432Y-31032305D01*
X76602996Y-31016005D01*
X76441639Y-30933788D01*
X76441636Y-30933787D01*
X76269410Y-30877829D01*
X76090551Y-30849500D01*
X76090546Y-30849500D01*
X75909454Y-30849500D01*
X75909449Y-30849500D01*
X75730589Y-30877829D01*
X75558363Y-30933787D01*
X75558360Y-30933788D01*
X75397002Y-31016006D01*
X75250505Y-31122441D01*
X75250500Y-31122445D01*
X75122445Y-31250500D01*
X75122441Y-31250505D01*
X75016006Y-31397002D01*
X74933788Y-31558360D01*
X74933787Y-31558363D01*
X74877829Y-31730589D01*
X74852473Y-31890678D01*
X74822544Y-31953813D01*
X74763232Y-31990744D01*
X74693369Y-31989746D01*
X74635137Y-31951136D01*
X74607527Y-31890678D01*
X74593740Y-31803639D01*
X74582171Y-31730591D01*
X74539708Y-31599901D01*
X74526212Y-31558363D01*
X74526211Y-31558360D01*
X74473997Y-31455886D01*
X74443996Y-31397006D01*
X74430396Y-31378287D01*
X74337558Y-31250505D01*
X74337554Y-31250500D01*
X74209499Y-31122445D01*
X74209494Y-31122441D01*
X74062997Y-31016005D01*
X74018203Y-30993181D01*
X73967408Y-30945206D01*
X73950500Y-30882697D01*
X73950500Y-23889778D01*
X80099500Y-23889778D01*
X80099500Y-24110221D01*
X80133985Y-24327952D01*
X80202103Y-24537603D01*
X80202104Y-24537606D01*
X80254030Y-24639513D01*
X80296766Y-24723387D01*
X80302187Y-24734025D01*
X80431752Y-24912358D01*
X80431756Y-24912363D01*
X80587636Y-25068243D01*
X80587641Y-25068247D01*
X80588671Y-25068995D01*
X80765978Y-25197815D01*
X80894375Y-25263237D01*
X80962393Y-25297895D01*
X80962396Y-25297896D01*
X81066757Y-25331804D01*
X81172049Y-25366015D01*
X81389778Y-25400500D01*
X81389779Y-25400500D01*
X81610221Y-25400500D01*
X81610222Y-25400500D01*
X81827951Y-25366015D01*
X82037606Y-25297895D01*
X82234022Y-25197815D01*
X82412365Y-25068242D01*
X82568242Y-24912365D01*
X82697815Y-24734022D01*
X82797895Y-24537606D01*
X82866015Y-24327951D01*
X82900500Y-24110222D01*
X82900500Y-23889778D01*
X82898012Y-23874071D01*
X84900000Y-23874071D01*
X84900000Y-24125928D01*
X84939397Y-24374669D01*
X85017219Y-24614184D01*
X85131557Y-24838583D01*
X85205748Y-24940697D01*
X85205748Y-24940698D01*
X85935387Y-24211059D01*
X85940889Y-24231591D01*
X86019881Y-24368408D01*
X86131592Y-24480119D01*
X86268409Y-24559111D01*
X86288940Y-24564612D01*
X85559300Y-25294250D01*
X85661416Y-25368442D01*
X85885815Y-25482780D01*
X86125330Y-25560602D01*
X86374072Y-25600000D01*
X86625928Y-25600000D01*
X86874669Y-25560602D01*
X87114184Y-25482780D01*
X87338575Y-25368446D01*
X87338581Y-25368442D01*
X87440697Y-25294250D01*
X87440698Y-25294250D01*
X86711059Y-24564612D01*
X86731591Y-24559111D01*
X86868408Y-24480119D01*
X86980119Y-24368408D01*
X87059111Y-24231591D01*
X87064612Y-24211060D01*
X87794250Y-24940698D01*
X87794250Y-24940697D01*
X87868442Y-24838581D01*
X87868446Y-24838575D01*
X87982780Y-24614184D01*
X88060602Y-24374669D01*
X88100000Y-24125928D01*
X88100000Y-23874071D01*
X88060602Y-23625330D01*
X87982780Y-23385815D01*
X87868442Y-23161416D01*
X87794250Y-23059301D01*
X87794250Y-23059300D01*
X87064612Y-23788939D01*
X87059111Y-23768409D01*
X86980119Y-23631592D01*
X86868408Y-23519881D01*
X86731591Y-23440889D01*
X86711058Y-23435387D01*
X87440698Y-22705748D01*
X87338583Y-22631557D01*
X87114184Y-22517219D01*
X86874669Y-22439397D01*
X86625928Y-22400000D01*
X86374072Y-22400000D01*
X86125330Y-22439397D01*
X85885815Y-22517219D01*
X85661413Y-22631559D01*
X85559301Y-22705747D01*
X85559300Y-22705748D01*
X86288940Y-23435387D01*
X86268409Y-23440889D01*
X86131592Y-23519881D01*
X86019881Y-23631592D01*
X85940889Y-23768409D01*
X85935387Y-23788940D01*
X85205748Y-23059300D01*
X85205747Y-23059301D01*
X85131559Y-23161413D01*
X85017219Y-23385815D01*
X84939397Y-23625330D01*
X84900000Y-23874071D01*
X82898012Y-23874071D01*
X82866015Y-23672049D01*
X82831955Y-23567221D01*
X82797896Y-23462396D01*
X82797895Y-23462393D01*
X82758876Y-23385815D01*
X82697815Y-23265978D01*
X82621845Y-23161413D01*
X82568247Y-23087641D01*
X82568243Y-23087636D01*
X82412359Y-22931752D01*
X82304413Y-22853326D01*
X82234025Y-22802187D01*
X82234024Y-22802186D01*
X82234022Y-22802185D01*
X82171096Y-22770122D01*
X82037606Y-22702104D01*
X82037603Y-22702103D01*
X81827952Y-22633985D01*
X81719086Y-22616742D01*
X81610222Y-22599500D01*
X81389778Y-22599500D01*
X81317201Y-22610995D01*
X81172047Y-22633985D01*
X80962396Y-22702103D01*
X80962393Y-22702104D01*
X80765974Y-22802187D01*
X80587641Y-22931752D01*
X80587636Y-22931756D01*
X80431756Y-23087636D01*
X80431752Y-23087641D01*
X80302187Y-23265974D01*
X80202104Y-23462393D01*
X80202103Y-23462396D01*
X80133985Y-23672047D01*
X80099500Y-23889778D01*
X73950500Y-23889778D01*
X73950500Y-20574500D01*
X73970185Y-20507461D01*
X74022989Y-20461706D01*
X74074500Y-20450500D01*
X85559306Y-20450500D01*
X85559309Y-20450500D01*
X85673886Y-20419799D01*
X85776613Y-20360489D01*
X85860489Y-20276613D01*
X85919799Y-20173886D01*
X85950500Y-20059309D01*
X85950500Y-12990865D01*
X85970185Y-12923826D01*
X86001613Y-12890548D01*
X86019501Y-12877553D01*
X86147553Y-12749501D01*
X86253996Y-12602994D01*
X86336211Y-12441639D01*
X86392171Y-12269409D01*
X86407300Y-12173886D01*
X86420500Y-12090551D01*
X86420500Y-11909448D01*
X86404019Y-11805397D01*
X86392171Y-11730591D01*
X86362578Y-11639511D01*
X86336212Y-11558363D01*
X86336211Y-11558360D01*
X86276255Y-11440692D01*
X86253996Y-11397006D01*
X86202489Y-11326112D01*
X86147558Y-11250505D01*
X86147554Y-11250500D01*
X86019499Y-11122445D01*
X86019494Y-11122441D01*
X85872997Y-11016006D01*
X85872996Y-11016005D01*
X85872994Y-11016004D01*
X85821300Y-10989664D01*
X85711639Y-10933788D01*
X85711636Y-10933787D01*
X85539410Y-10877829D01*
X85360551Y-10849500D01*
X85360546Y-10849500D01*
X85179454Y-10849500D01*
X85179449Y-10849500D01*
X85000589Y-10877829D01*
X84828363Y-10933787D01*
X84828360Y-10933788D01*
X84667002Y-11016006D01*
X84520505Y-11122441D01*
X84520500Y-11122445D01*
X84392445Y-11250500D01*
X84392441Y-11250505D01*
X84286006Y-11397002D01*
X84203788Y-11558360D01*
X84203787Y-11558363D01*
X84147829Y-11730589D01*
X84122473Y-11890678D01*
X84092544Y-11953813D01*
X84033232Y-11990744D01*
X83963369Y-11989746D01*
X83905137Y-11951136D01*
X83877527Y-11890678D01*
X83863740Y-11803639D01*
X83852171Y-11730591D01*
X83822578Y-11639511D01*
X83796212Y-11558363D01*
X83796211Y-11558360D01*
X83736255Y-11440692D01*
X83713996Y-11397006D01*
X83662489Y-11326112D01*
X83607558Y-11250505D01*
X83607554Y-11250500D01*
X83479499Y-11122445D01*
X83479494Y-11122441D01*
X83332997Y-11016006D01*
X83332996Y-11016005D01*
X83332994Y-11016004D01*
X83281300Y-10989664D01*
X83171639Y-10933788D01*
X83171636Y-10933787D01*
X82999410Y-10877829D01*
X82820551Y-10849500D01*
X82820546Y-10849500D01*
X82639454Y-10849500D01*
X82639449Y-10849500D01*
X82460589Y-10877829D01*
X82288363Y-10933787D01*
X82288360Y-10933788D01*
X82127002Y-11016006D01*
X81980505Y-11122441D01*
X81980500Y-11122445D01*
X81852445Y-11250500D01*
X81852441Y-11250505D01*
X81746006Y-11397002D01*
X81663788Y-11558360D01*
X81663787Y-11558363D01*
X81607829Y-11730589D01*
X81579500Y-11909448D01*
X81579500Y-12090551D01*
X81607829Y-12269410D01*
X81663787Y-12441636D01*
X81663788Y-12441639D01*
X81705239Y-12522989D01*
X81731485Y-12574500D01*
X81746006Y-12602997D01*
X81852441Y-12749494D01*
X81852445Y-12749499D01*
X81980500Y-12877554D01*
X81980505Y-12877558D01*
X82108287Y-12970396D01*
X82127006Y-12983996D01*
X82221817Y-13032305D01*
X82288360Y-13066211D01*
X82288363Y-13066212D01*
X82374476Y-13094191D01*
X82460591Y-13122171D01*
X82543429Y-13135291D01*
X82639449Y-13150500D01*
X82639454Y-13150500D01*
X82820551Y-13150500D01*
X82907259Y-13136765D01*
X82999409Y-13122171D01*
X83171639Y-13066211D01*
X83332994Y-12983996D01*
X83479501Y-12877553D01*
X83607553Y-12749501D01*
X83713996Y-12602994D01*
X83796211Y-12441639D01*
X83852171Y-12269409D01*
X83867300Y-12173886D01*
X83877527Y-12109321D01*
X83907456Y-12046186D01*
X83966768Y-12009255D01*
X84036630Y-12010253D01*
X84094863Y-12048863D01*
X84122473Y-12109321D01*
X84147829Y-12269410D01*
X84203787Y-12441636D01*
X84203788Y-12441639D01*
X84245239Y-12522989D01*
X84271485Y-12574500D01*
X84286006Y-12602997D01*
X84392441Y-12749494D01*
X84392445Y-12749499D01*
X84520500Y-12877554D01*
X84520505Y-12877558D01*
X84648287Y-12970396D01*
X84667006Y-12983996D01*
X84761817Y-13032305D01*
X84828360Y-13066211D01*
X84828366Y-13066213D01*
X84963817Y-13110223D01*
X85021493Y-13149660D01*
X85048692Y-13214018D01*
X85049500Y-13228154D01*
X85049500Y-19425500D01*
X85029815Y-19492539D01*
X84977011Y-19538294D01*
X84925500Y-19549500D01*
X73559309Y-19549500D01*
X73440691Y-19549500D01*
X73326114Y-19580201D01*
X73326112Y-19580201D01*
X73326112Y-19580202D01*
X73223387Y-19639511D01*
X73223384Y-19639513D01*
X73139513Y-19723384D01*
X73139506Y-19723393D01*
X73110817Y-19773084D01*
X73060250Y-19821299D01*
X72991642Y-19834521D01*
X72926778Y-19808553D01*
X72886250Y-19751638D01*
X72884580Y-19745926D01*
X72883402Y-19742302D01*
X72883402Y-19742299D01*
X72829873Y-19577555D01*
X72751232Y-19423212D01*
X72649414Y-19283072D01*
X72526928Y-19160586D01*
X72386788Y-19058768D01*
X72232445Y-18980127D01*
X72067701Y-18926598D01*
X72067699Y-18926597D01*
X72067698Y-18926597D01*
X71936271Y-18905781D01*
X71896611Y-18899500D01*
X71723389Y-18899500D01*
X71683728Y-18905781D01*
X71552302Y-18926597D01*
X71387552Y-18980128D01*
X71233211Y-19058768D01*
X71153256Y-19116859D01*
X71093072Y-19160586D01*
X71093070Y-19160588D01*
X71093069Y-19160588D01*
X70970588Y-19283069D01*
X70970588Y-19283070D01*
X70970586Y-19283072D01*
X70951959Y-19308710D01*
X70868768Y-19423211D01*
X70790128Y-19577552D01*
X70736597Y-19742302D01*
X70723323Y-19826114D01*
X70709500Y-19913389D01*
X65290500Y-19913389D01*
X65263402Y-19742299D01*
X65209873Y-19577555D01*
X65131232Y-19423212D01*
X65127634Y-19418261D01*
X65095853Y-19374516D01*
X65072373Y-19308710D01*
X65088199Y-19240656D01*
X65138304Y-19191961D01*
X65171977Y-19180014D01*
X65204328Y-19173580D01*
X65331811Y-19120775D01*
X65446542Y-19044114D01*
X65544114Y-18946542D01*
X65620775Y-18831811D01*
X65673580Y-18704328D01*
X65700500Y-18568993D01*
X65700500Y-18431007D01*
X65700500Y-18431004D01*
X65673581Y-18295677D01*
X65673580Y-18295676D01*
X65673580Y-18295672D01*
X65673578Y-18295667D01*
X65620778Y-18168195D01*
X65620771Y-18168182D01*
X65544114Y-18053458D01*
X65544111Y-18053454D01*
X65446545Y-17955888D01*
X65446541Y-17955885D01*
X65331817Y-17879228D01*
X65331804Y-17879221D01*
X65204332Y-17826421D01*
X65204322Y-17826418D01*
X65068995Y-17799500D01*
X65068993Y-17799500D01*
X64931007Y-17799500D01*
X64931005Y-17799500D01*
X64795677Y-17826418D01*
X64795667Y-17826421D01*
X64668195Y-17879221D01*
X64668182Y-17879228D01*
X64553459Y-17955884D01*
X64532333Y-17977011D01*
X64496161Y-18013182D01*
X64434841Y-18046666D01*
X64408482Y-18049500D01*
X60256446Y-18049500D01*
X60189407Y-18029815D01*
X60143652Y-17977011D01*
X60133708Y-17907853D01*
X60162733Y-17844297D01*
X60200151Y-17815015D01*
X60377554Y-17724622D01*
X60431716Y-17685270D01*
X60431717Y-17685270D01*
X59799408Y-17052962D01*
X59862993Y-17035925D01*
X59977007Y-16970099D01*
X60070099Y-16877007D01*
X60135925Y-16762993D01*
X60152962Y-16699408D01*
X60785270Y-17331717D01*
X60785270Y-17331716D01*
X60824622Y-17277554D01*
X60921095Y-17088217D01*
X60986757Y-16886130D01*
X60986757Y-16886127D01*
X61020000Y-16676246D01*
X61020000Y-16463753D01*
X60986757Y-16253872D01*
X60986757Y-16253869D01*
X60921095Y-16051782D01*
X60824624Y-15862449D01*
X60785270Y-15808282D01*
X60785269Y-15808282D01*
X60152962Y-16440590D01*
X60135925Y-16377007D01*
X60070099Y-16262993D01*
X59977007Y-16169901D01*
X59862993Y-16104075D01*
X59799409Y-16087037D01*
X60431716Y-15454728D01*
X60377550Y-15415375D01*
X60188217Y-15318904D01*
X59986129Y-15253242D01*
X59776246Y-15220000D01*
X59563754Y-15220000D01*
X59353872Y-15253242D01*
X59353869Y-15253242D01*
X59151782Y-15318904D01*
X58962439Y-15415380D01*
X58908282Y-15454727D01*
X58908282Y-15454728D01*
X59540591Y-16087037D01*
X59477007Y-16104075D01*
X59362993Y-16169901D01*
X59269901Y-16262993D01*
X59204075Y-16377007D01*
X59187037Y-16440591D01*
X58554728Y-15808282D01*
X58554727Y-15808282D01*
X58515380Y-15862439D01*
X58418905Y-16051781D01*
X58409506Y-16080708D01*
X58370068Y-16138383D01*
X58305709Y-16165581D01*
X58236862Y-16153666D01*
X58185387Y-16106421D01*
X58181090Y-16098684D01*
X58157191Y-16051781D01*
X58113996Y-15967006D01*
X58060313Y-15893117D01*
X58007558Y-15820505D01*
X58007554Y-15820500D01*
X57879499Y-15692445D01*
X57879494Y-15692441D01*
X57755432Y-15602305D01*
X57732996Y-15586005D01*
X57571639Y-15503788D01*
X57571636Y-15503787D01*
X57399410Y-15447829D01*
X57220551Y-15419500D01*
X57220546Y-15419500D01*
X57039454Y-15419500D01*
X57039449Y-15419500D01*
X56860589Y-15447829D01*
X56688363Y-15503787D01*
X56688360Y-15503788D01*
X56527002Y-15586006D01*
X56380505Y-15692441D01*
X56380500Y-15692445D01*
X56252445Y-15820500D01*
X56252441Y-15820505D01*
X56146006Y-15967002D01*
X56063788Y-16128360D01*
X56063787Y-16128363D01*
X56007829Y-16300589D01*
X55982473Y-16460678D01*
X55952544Y-16523813D01*
X55893232Y-16560744D01*
X55823369Y-16559746D01*
X55765137Y-16521136D01*
X55737527Y-16460678D01*
X55723740Y-16373639D01*
X55712171Y-16300591D01*
X55669708Y-16169901D01*
X55656212Y-16128363D01*
X55656211Y-16128360D01*
X55617191Y-16051781D01*
X55573996Y-15967006D01*
X55520313Y-15893117D01*
X55467558Y-15820505D01*
X55467554Y-15820500D01*
X55339499Y-15692445D01*
X55339494Y-15692441D01*
X55192997Y-15586006D01*
X55192996Y-15586005D01*
X55192994Y-15586004D01*
X55129498Y-15553651D01*
X55031639Y-15503788D01*
X55031636Y-15503787D01*
X54859410Y-15447829D01*
X54680551Y-15419500D01*
X54680546Y-15419500D01*
X54499454Y-15419500D01*
X54499449Y-15419500D01*
X54320589Y-15447829D01*
X54148363Y-15503787D01*
X54148360Y-15503788D01*
X53987002Y-15586006D01*
X53840505Y-15692441D01*
X53840500Y-15692445D01*
X53712445Y-15820500D01*
X53712441Y-15820505D01*
X53606006Y-15967002D01*
X53523788Y-16128360D01*
X53523787Y-16128363D01*
X53467829Y-16300589D01*
X53442473Y-16460678D01*
X53412544Y-16523813D01*
X53353232Y-16560744D01*
X53283369Y-16559746D01*
X53225137Y-16521136D01*
X53197527Y-16460678D01*
X53183740Y-16373639D01*
X53172171Y-16300591D01*
X53129708Y-16169901D01*
X53116212Y-16128363D01*
X53116211Y-16128360D01*
X53077191Y-16051781D01*
X53033996Y-15967006D01*
X52980313Y-15893117D01*
X52927558Y-15820505D01*
X52927554Y-15820500D01*
X52799499Y-15692445D01*
X52799494Y-15692441D01*
X52652997Y-15586006D01*
X52652996Y-15586005D01*
X52652994Y-15586004D01*
X52589498Y-15553651D01*
X52491639Y-15503788D01*
X52491636Y-15503787D01*
X52319410Y-15447829D01*
X52140551Y-15419500D01*
X52140546Y-15419500D01*
X51959454Y-15419500D01*
X51959449Y-15419500D01*
X51780589Y-15447829D01*
X51608363Y-15503787D01*
X51608360Y-15503788D01*
X51447002Y-15586006D01*
X51300505Y-15692441D01*
X51300500Y-15692445D01*
X51172445Y-15820500D01*
X51172441Y-15820505D01*
X51066006Y-15967002D01*
X50983788Y-16128360D01*
X50983787Y-16128363D01*
X50927829Y-16300589D01*
X50902473Y-16460678D01*
X50872544Y-16523813D01*
X50813232Y-16560744D01*
X50743369Y-16559746D01*
X50685137Y-16521136D01*
X50657527Y-16460678D01*
X50643740Y-16373639D01*
X50632171Y-16300591D01*
X50589708Y-16169901D01*
X50576212Y-16128363D01*
X50576211Y-16128360D01*
X50537191Y-16051781D01*
X50493996Y-15967006D01*
X50440313Y-15893117D01*
X50387558Y-15820505D01*
X50387554Y-15820500D01*
X50259499Y-15692445D01*
X50259494Y-15692441D01*
X50112997Y-15586006D01*
X50112996Y-15586005D01*
X50112994Y-15586004D01*
X50049498Y-15553651D01*
X49951639Y-15503788D01*
X49951636Y-15503787D01*
X49779410Y-15447829D01*
X49600551Y-15419500D01*
X49600546Y-15419500D01*
X49419454Y-15419500D01*
X49419449Y-15419500D01*
X49240589Y-15447829D01*
X49068363Y-15503787D01*
X49068360Y-15503788D01*
X48907002Y-15586006D01*
X48760505Y-15692441D01*
X48760500Y-15692445D01*
X48632445Y-15820500D01*
X48632441Y-15820505D01*
X48526006Y-15967002D01*
X48443788Y-16128360D01*
X48443787Y-16128363D01*
X48387829Y-16300589D01*
X48362473Y-16460678D01*
X48332544Y-16523813D01*
X48273232Y-16560744D01*
X48203369Y-16559746D01*
X48145137Y-16521136D01*
X48117527Y-16460678D01*
X48103740Y-16373639D01*
X48092171Y-16300591D01*
X48049708Y-16169901D01*
X48036212Y-16128363D01*
X48036211Y-16128360D01*
X47997191Y-16051781D01*
X47953996Y-15967006D01*
X47900313Y-15893117D01*
X47847558Y-15820505D01*
X47847554Y-15820500D01*
X47719499Y-15692445D01*
X47719494Y-15692441D01*
X47572997Y-15586006D01*
X47572996Y-15586005D01*
X47572994Y-15586004D01*
X47509498Y-15553651D01*
X47411639Y-15503788D01*
X47411636Y-15503787D01*
X47239410Y-15447829D01*
X47060551Y-15419500D01*
X47060546Y-15419500D01*
X46879454Y-15419500D01*
X46879449Y-15419500D01*
X46700589Y-15447829D01*
X46528363Y-15503787D01*
X46528360Y-15503788D01*
X46367002Y-15586006D01*
X46220505Y-15692441D01*
X46220500Y-15692445D01*
X46092445Y-15820500D01*
X46092441Y-15820505D01*
X45986006Y-15967002D01*
X45903788Y-16128360D01*
X45903787Y-16128363D01*
X45847829Y-16300589D01*
X45822473Y-16460678D01*
X45792544Y-16523813D01*
X45733232Y-16560744D01*
X45663369Y-16559746D01*
X45605137Y-16521136D01*
X45577527Y-16460678D01*
X45563740Y-16373639D01*
X45552171Y-16300591D01*
X45509708Y-16169901D01*
X45496212Y-16128363D01*
X45496211Y-16128360D01*
X45457191Y-16051781D01*
X45413996Y-15967006D01*
X45360313Y-15893117D01*
X45307558Y-15820505D01*
X45307554Y-15820500D01*
X45179499Y-15692445D01*
X45179494Y-15692441D01*
X45032997Y-15586006D01*
X45032996Y-15586005D01*
X45032994Y-15586004D01*
X44969498Y-15553651D01*
X44871639Y-15503788D01*
X44871636Y-15503787D01*
X44699410Y-15447829D01*
X44520551Y-15419500D01*
X44520546Y-15419500D01*
X44339454Y-15419500D01*
X44339449Y-15419500D01*
X44160589Y-15447829D01*
X43988363Y-15503787D01*
X43988360Y-15503788D01*
X43827002Y-15586006D01*
X43680505Y-15692441D01*
X43680500Y-15692445D01*
X43552445Y-15820500D01*
X43552441Y-15820505D01*
X43446006Y-15967002D01*
X43363788Y-16128360D01*
X43363787Y-16128363D01*
X43307829Y-16300589D01*
X43282473Y-16460678D01*
X43252544Y-16523813D01*
X43193232Y-16560744D01*
X43123369Y-16559746D01*
X43065137Y-16521136D01*
X43037527Y-16460678D01*
X43023740Y-16373639D01*
X43012171Y-16300591D01*
X42969708Y-16169901D01*
X42956212Y-16128363D01*
X42956211Y-16128360D01*
X42917191Y-16051781D01*
X42873996Y-15967006D01*
X42820313Y-15893117D01*
X42767558Y-15820505D01*
X42767554Y-15820500D01*
X42639499Y-15692445D01*
X42639494Y-15692441D01*
X42492997Y-15586006D01*
X42492996Y-15586005D01*
X42492994Y-15586004D01*
X42429498Y-15553651D01*
X42331639Y-15503788D01*
X42331636Y-15503787D01*
X42159410Y-15447829D01*
X41980551Y-15419500D01*
X41980546Y-15419500D01*
X41799454Y-15419500D01*
X41799449Y-15419500D01*
X41620589Y-15447829D01*
X41448363Y-15503787D01*
X41448360Y-15503788D01*
X41287002Y-15586006D01*
X41140505Y-15692441D01*
X41140500Y-15692445D01*
X41012445Y-15820500D01*
X41012441Y-15820505D01*
X40906006Y-15967002D01*
X40823788Y-16128360D01*
X40823787Y-16128363D01*
X40767829Y-16300589D01*
X40742473Y-16460678D01*
X40712544Y-16523813D01*
X40653232Y-16560744D01*
X40583369Y-16559746D01*
X40525137Y-16521136D01*
X40497527Y-16460678D01*
X40483740Y-16373639D01*
X40472171Y-16300591D01*
X40429708Y-16169901D01*
X40416212Y-16128363D01*
X40416211Y-16128360D01*
X40377191Y-16051781D01*
X40333996Y-15967006D01*
X40280313Y-15893117D01*
X40227558Y-15820505D01*
X40227554Y-15820500D01*
X40099499Y-15692445D01*
X40099494Y-15692441D01*
X39952997Y-15586006D01*
X39952996Y-15586005D01*
X39952994Y-15586004D01*
X39889498Y-15553651D01*
X39791639Y-15503788D01*
X39791636Y-15503787D01*
X39619410Y-15447829D01*
X39440551Y-15419500D01*
X39440546Y-15419500D01*
X39259454Y-15419500D01*
X39259449Y-15419500D01*
X39080589Y-15447829D01*
X38908363Y-15503787D01*
X38908360Y-15503788D01*
X38747002Y-15586006D01*
X38600505Y-15692441D01*
X38600500Y-15692445D01*
X38472445Y-15820500D01*
X38472441Y-15820505D01*
X38366006Y-15967002D01*
X38283788Y-16128360D01*
X38283787Y-16128363D01*
X38227829Y-16300589D01*
X38202473Y-16460678D01*
X38172544Y-16523813D01*
X38113232Y-16560744D01*
X38043369Y-16559746D01*
X37985137Y-16521136D01*
X37957527Y-16460678D01*
X37943740Y-16373639D01*
X37932171Y-16300591D01*
X37889708Y-16169901D01*
X37876212Y-16128363D01*
X37876211Y-16128360D01*
X37837191Y-16051781D01*
X37793996Y-15967006D01*
X37740313Y-15893117D01*
X37687558Y-15820505D01*
X37687554Y-15820500D01*
X37559499Y-15692445D01*
X37559494Y-15692441D01*
X37412997Y-15586006D01*
X37412996Y-15586005D01*
X37412994Y-15586004D01*
X37349498Y-15553651D01*
X37251639Y-15503788D01*
X37251636Y-15503787D01*
X37079410Y-15447829D01*
X36900551Y-15419500D01*
X36900546Y-15419500D01*
X36719454Y-15419500D01*
X36719449Y-15419500D01*
X36540589Y-15447829D01*
X36368363Y-15503787D01*
X36368360Y-15503788D01*
X36207002Y-15586006D01*
X36060505Y-15692441D01*
X36060500Y-15692445D01*
X35932445Y-15820500D01*
X35932441Y-15820505D01*
X35826006Y-15967002D01*
X35743788Y-16128360D01*
X35743787Y-16128363D01*
X35687829Y-16300589D01*
X35662473Y-16460678D01*
X35632544Y-16523813D01*
X35573232Y-16560744D01*
X35503369Y-16559746D01*
X35445137Y-16521136D01*
X35417527Y-16460678D01*
X35403740Y-16373639D01*
X35392171Y-16300591D01*
X35349708Y-16169901D01*
X35336212Y-16128363D01*
X35336211Y-16128360D01*
X35297191Y-16051781D01*
X35253996Y-15967006D01*
X35200313Y-15893117D01*
X35147558Y-15820505D01*
X35147554Y-15820500D01*
X35019499Y-15692445D01*
X35019494Y-15692441D01*
X34872997Y-15586006D01*
X34872996Y-15586005D01*
X34872994Y-15586004D01*
X34809498Y-15553651D01*
X34711639Y-15503788D01*
X34711636Y-15503787D01*
X34539410Y-15447829D01*
X34360551Y-15419500D01*
X34360546Y-15419500D01*
X34179454Y-15419500D01*
X34179449Y-15419500D01*
X34000589Y-15447829D01*
X33828363Y-15503787D01*
X33828360Y-15503788D01*
X33667002Y-15586006D01*
X33520505Y-15692441D01*
X33520500Y-15692445D01*
X33392445Y-15820500D01*
X33392441Y-15820505D01*
X33286006Y-15967002D01*
X33203788Y-16128360D01*
X33203787Y-16128363D01*
X33147829Y-16300589D01*
X33122473Y-16460678D01*
X33092544Y-16523813D01*
X33033232Y-16560744D01*
X32963369Y-16559746D01*
X32905137Y-16521136D01*
X32877527Y-16460678D01*
X32863740Y-16373639D01*
X32852171Y-16300591D01*
X32809708Y-16169901D01*
X32796212Y-16128363D01*
X32796211Y-16128360D01*
X32757191Y-16051781D01*
X32713996Y-15967006D01*
X32660313Y-15893117D01*
X32607558Y-15820505D01*
X32607554Y-15820500D01*
X32479499Y-15692445D01*
X32479494Y-15692441D01*
X32332997Y-15586006D01*
X32332996Y-15586005D01*
X32332994Y-15586004D01*
X32269498Y-15553651D01*
X32171639Y-15503788D01*
X32171636Y-15503787D01*
X31999410Y-15447829D01*
X31820551Y-15419500D01*
X31820546Y-15419500D01*
X31639454Y-15419500D01*
X31639449Y-15419500D01*
X31460589Y-15447829D01*
X31288363Y-15503787D01*
X31288360Y-15503788D01*
X31127002Y-15586006D01*
X30980505Y-15692441D01*
X30980500Y-15692445D01*
X30852445Y-15820500D01*
X30852441Y-15820505D01*
X30746006Y-15967002D01*
X30663788Y-16128360D01*
X30663787Y-16128363D01*
X30607829Y-16300589D01*
X30582473Y-16460678D01*
X30552544Y-16523813D01*
X30493232Y-16560744D01*
X30423369Y-16559746D01*
X30365137Y-16521136D01*
X30337527Y-16460678D01*
X30323740Y-16373639D01*
X30312171Y-16300591D01*
X30269708Y-16169901D01*
X30256212Y-16128363D01*
X30256211Y-16128360D01*
X30217191Y-16051781D01*
X30173996Y-15967006D01*
X30120313Y-15893117D01*
X30067558Y-15820505D01*
X30067554Y-15820500D01*
X29939499Y-15692445D01*
X29939494Y-15692441D01*
X29792997Y-15586006D01*
X29792996Y-15586005D01*
X29792994Y-15586004D01*
X29729498Y-15553651D01*
X29631639Y-15503788D01*
X29631636Y-15503787D01*
X29459410Y-15447829D01*
X29280551Y-15419500D01*
X29280546Y-15419500D01*
X29099454Y-15419500D01*
X29099449Y-15419500D01*
X28920589Y-15447829D01*
X28748363Y-15503787D01*
X28748360Y-15503788D01*
X28587002Y-15586006D01*
X28440505Y-15692441D01*
X28440500Y-15692445D01*
X28312445Y-15820500D01*
X28312441Y-15820505D01*
X28206006Y-15967002D01*
X28123788Y-16128360D01*
X28123787Y-16128363D01*
X28067829Y-16300589D01*
X28042473Y-16460678D01*
X28012544Y-16523813D01*
X27953232Y-16560744D01*
X27883369Y-16559746D01*
X27825137Y-16521136D01*
X27797527Y-16460678D01*
X27783740Y-16373639D01*
X27772171Y-16300591D01*
X27729708Y-16169901D01*
X27716212Y-16128363D01*
X27716211Y-16128360D01*
X27677191Y-16051781D01*
X27633996Y-15967006D01*
X27580313Y-15893117D01*
X27527558Y-15820505D01*
X27527554Y-15820500D01*
X27399499Y-15692445D01*
X27399494Y-15692441D01*
X27252997Y-15586006D01*
X27252996Y-15586005D01*
X27252994Y-15586004D01*
X27189498Y-15553651D01*
X27091639Y-15503788D01*
X27091636Y-15503787D01*
X26919410Y-15447829D01*
X26740551Y-15419500D01*
X26740546Y-15419500D01*
X26559454Y-15419500D01*
X26559449Y-15419500D01*
X26380589Y-15447829D01*
X26208363Y-15503787D01*
X26208360Y-15503788D01*
X26047002Y-15586006D01*
X25900505Y-15692441D01*
X25900500Y-15692445D01*
X25772445Y-15820500D01*
X25772441Y-15820505D01*
X25666006Y-15967002D01*
X25583788Y-16128360D01*
X25583787Y-16128363D01*
X25527829Y-16300589D01*
X25502473Y-16460678D01*
X25472544Y-16523813D01*
X25413232Y-16560744D01*
X25343369Y-16559746D01*
X25285137Y-16521136D01*
X25257527Y-16460678D01*
X25243740Y-16373639D01*
X25232171Y-16300591D01*
X25189708Y-16169901D01*
X25176212Y-16128363D01*
X25176211Y-16128360D01*
X25137191Y-16051781D01*
X25093996Y-15967006D01*
X25040313Y-15893117D01*
X24987558Y-15820505D01*
X24987554Y-15820500D01*
X24859499Y-15692445D01*
X24859494Y-15692441D01*
X24712997Y-15586006D01*
X24712996Y-15586005D01*
X24712994Y-15586004D01*
X24649498Y-15553651D01*
X24551639Y-15503788D01*
X24551636Y-15503787D01*
X24379410Y-15447829D01*
X24200551Y-15419500D01*
X24200546Y-15419500D01*
X24019454Y-15419500D01*
X24019449Y-15419500D01*
X23840589Y-15447829D01*
X23668363Y-15503787D01*
X23668360Y-15503788D01*
X23507002Y-15586006D01*
X23360505Y-15692441D01*
X23360500Y-15692445D01*
X23232445Y-15820500D01*
X23232441Y-15820505D01*
X23126006Y-15967002D01*
X23043788Y-16128360D01*
X23043787Y-16128363D01*
X22987829Y-16300589D01*
X22962473Y-16460678D01*
X22932544Y-16523813D01*
X22873232Y-16560744D01*
X22803369Y-16559746D01*
X22745137Y-16521136D01*
X22717527Y-16460678D01*
X22703740Y-16373639D01*
X22692171Y-16300591D01*
X22649708Y-16169901D01*
X22636212Y-16128363D01*
X22636211Y-16128360D01*
X22597191Y-16051781D01*
X22553996Y-15967006D01*
X22500313Y-15893117D01*
X22447558Y-15820505D01*
X22447554Y-15820500D01*
X22319499Y-15692445D01*
X22319494Y-15692441D01*
X22172997Y-15586006D01*
X22172996Y-15586005D01*
X22172994Y-15586004D01*
X22109498Y-15553651D01*
X22011639Y-15503788D01*
X22011636Y-15503787D01*
X21839410Y-15447829D01*
X21660551Y-15419500D01*
X21660546Y-15419500D01*
X21479454Y-15419500D01*
X21479449Y-15419500D01*
X21300589Y-15447829D01*
X21128363Y-15503787D01*
X21128360Y-15503788D01*
X20967002Y-15586006D01*
X20820505Y-15692441D01*
X20820500Y-15692445D01*
X20692445Y-15820500D01*
X20692441Y-15820505D01*
X20586006Y-15967002D01*
X20503788Y-16128360D01*
X20503787Y-16128363D01*
X20447829Y-16300589D01*
X20422473Y-16460678D01*
X20392544Y-16523813D01*
X20333232Y-16560744D01*
X20263369Y-16559746D01*
X20205137Y-16521136D01*
X20177527Y-16460678D01*
X20163740Y-16373639D01*
X20152171Y-16300591D01*
X20109708Y-16169901D01*
X20096212Y-16128363D01*
X20096211Y-16128360D01*
X20057191Y-16051781D01*
X20013996Y-15967006D01*
X19960313Y-15893117D01*
X19907558Y-15820505D01*
X19907554Y-15820500D01*
X19779499Y-15692445D01*
X19779494Y-15692441D01*
X19632997Y-15586006D01*
X19632996Y-15586005D01*
X19632994Y-15586004D01*
X19569498Y-15553651D01*
X19471639Y-15503788D01*
X19471636Y-15503787D01*
X19299410Y-15447829D01*
X19120551Y-15419500D01*
X19120546Y-15419500D01*
X18939454Y-15419500D01*
X18939449Y-15419500D01*
X18760587Y-15447829D01*
X18612817Y-15495842D01*
X18542976Y-15497837D01*
X18483144Y-15461756D01*
X18452316Y-15399055D01*
X18450500Y-15377911D01*
X18450500Y-13909448D01*
X62309500Y-13909448D01*
X62309500Y-14090551D01*
X62337829Y-14269410D01*
X62393787Y-14441636D01*
X62393788Y-14441639D01*
X62476006Y-14602997D01*
X62582441Y-14749494D01*
X62582445Y-14749499D01*
X62710500Y-14877554D01*
X62710505Y-14877558D01*
X62834565Y-14967692D01*
X62857006Y-14983996D01*
X62962484Y-15037740D01*
X63018360Y-15066211D01*
X63018363Y-15066212D01*
X63104476Y-15094191D01*
X63190591Y-15122171D01*
X63273429Y-15135291D01*
X63369449Y-15150500D01*
X63369454Y-15150500D01*
X63550551Y-15150500D01*
X63637259Y-15136765D01*
X63729409Y-15122171D01*
X63901639Y-15066211D01*
X64062994Y-14983996D01*
X64209501Y-14877553D01*
X64337553Y-14749501D01*
X64443996Y-14602994D01*
X64526211Y-14441639D01*
X64582171Y-14269409D01*
X64596422Y-14179425D01*
X64607527Y-14109321D01*
X64637456Y-14046186D01*
X64696768Y-14009255D01*
X64766630Y-14010253D01*
X64824863Y-14048863D01*
X64852473Y-14109321D01*
X64877829Y-14269410D01*
X64933787Y-14441636D01*
X64933788Y-14441639D01*
X65016006Y-14602997D01*
X65122441Y-14749494D01*
X65122445Y-14749499D01*
X65250500Y-14877554D01*
X65250505Y-14877558D01*
X65374565Y-14967692D01*
X65397006Y-14983996D01*
X65502484Y-15037740D01*
X65558360Y-15066211D01*
X65558363Y-15066212D01*
X65644476Y-15094191D01*
X65730591Y-15122171D01*
X65813429Y-15135291D01*
X65909449Y-15150500D01*
X65909454Y-15150500D01*
X66090551Y-15150500D01*
X66177259Y-15136765D01*
X66269409Y-15122171D01*
X66441639Y-15066211D01*
X66602994Y-14983996D01*
X66678081Y-14929442D01*
X66749495Y-14877558D01*
X66749497Y-14877555D01*
X66749501Y-14877553D01*
X66877553Y-14749501D01*
X66983996Y-14602994D01*
X67051090Y-14471314D01*
X67099065Y-14420519D01*
X67166886Y-14403724D01*
X67233021Y-14426262D01*
X67276472Y-14480977D01*
X67279506Y-14489292D01*
X67288904Y-14518217D01*
X67385375Y-14707550D01*
X67424728Y-14761716D01*
X68057037Y-14129408D01*
X68074075Y-14192993D01*
X68139901Y-14307007D01*
X68232993Y-14400099D01*
X68347007Y-14465925D01*
X68410590Y-14482962D01*
X67778282Y-15115269D01*
X67778282Y-15115270D01*
X67832449Y-15154624D01*
X68021782Y-15251095D01*
X68223870Y-15316757D01*
X68433754Y-15350000D01*
X68646246Y-15350000D01*
X68856127Y-15316757D01*
X68856130Y-15316757D01*
X69058217Y-15251095D01*
X69247554Y-15154622D01*
X69301716Y-15115270D01*
X69301717Y-15115270D01*
X68669408Y-14482962D01*
X68732993Y-14465925D01*
X68847007Y-14400099D01*
X68940099Y-14307007D01*
X69005925Y-14192993D01*
X69022962Y-14129409D01*
X69655270Y-14761717D01*
X69655270Y-14761716D01*
X69694622Y-14707554D01*
X69791095Y-14518217D01*
X69856757Y-14316130D01*
X69856757Y-14316127D01*
X69890000Y-14106246D01*
X69890000Y-13893753D01*
X69856757Y-13683872D01*
X69856757Y-13683869D01*
X69791095Y-13481782D01*
X69694624Y-13292449D01*
X69655270Y-13238282D01*
X69655269Y-13238282D01*
X69022962Y-13870590D01*
X69005925Y-13807007D01*
X68940099Y-13692993D01*
X68847007Y-13599901D01*
X68732993Y-13534075D01*
X68669409Y-13517037D01*
X69301716Y-12884728D01*
X69247550Y-12845375D01*
X69058217Y-12748904D01*
X68856129Y-12683242D01*
X68646246Y-12650000D01*
X68433754Y-12650000D01*
X68223872Y-12683242D01*
X68223869Y-12683242D01*
X68021782Y-12748904D01*
X67832439Y-12845380D01*
X67778282Y-12884727D01*
X67778282Y-12884728D01*
X68410591Y-13517037D01*
X68347007Y-13534075D01*
X68232993Y-13599901D01*
X68139901Y-13692993D01*
X68074075Y-13807007D01*
X68057037Y-13870591D01*
X67424728Y-13238282D01*
X67424727Y-13238282D01*
X67385380Y-13292439D01*
X67288905Y-13481781D01*
X67279506Y-13510708D01*
X67240068Y-13568383D01*
X67175709Y-13595581D01*
X67106862Y-13583666D01*
X67055387Y-13536421D01*
X67051090Y-13528684D01*
X67027191Y-13481781D01*
X66983996Y-13397006D01*
X66970396Y-13378287D01*
X66877558Y-13250505D01*
X66877554Y-13250500D01*
X66749499Y-13122445D01*
X66749494Y-13122441D01*
X66625432Y-13032305D01*
X66602996Y-13016005D01*
X66441639Y-12933788D01*
X66441636Y-12933787D01*
X66269410Y-12877829D01*
X66090551Y-12849500D01*
X66090546Y-12849500D01*
X65909454Y-12849500D01*
X65909449Y-12849500D01*
X65730589Y-12877829D01*
X65558363Y-12933787D01*
X65558360Y-12933788D01*
X65397002Y-13016006D01*
X65250505Y-13122441D01*
X65250500Y-13122445D01*
X65122445Y-13250500D01*
X65122441Y-13250505D01*
X65016006Y-13397002D01*
X64933788Y-13558360D01*
X64933787Y-13558363D01*
X64877829Y-13730589D01*
X64852473Y-13890678D01*
X64822544Y-13953813D01*
X64763232Y-13990744D01*
X64693369Y-13989746D01*
X64635137Y-13951136D01*
X64607527Y-13890678D01*
X64593740Y-13803639D01*
X64582171Y-13730591D01*
X64539708Y-13599901D01*
X64526212Y-13558363D01*
X64526211Y-13558360D01*
X64487191Y-13481781D01*
X64443996Y-13397006D01*
X64430396Y-13378287D01*
X64337558Y-13250505D01*
X64337554Y-13250500D01*
X64209499Y-13122445D01*
X64209494Y-13122441D01*
X64062997Y-13016006D01*
X64062996Y-13016005D01*
X64062994Y-13016004D01*
X64000169Y-12983993D01*
X63901639Y-12933788D01*
X63901636Y-12933787D01*
X63729410Y-12877829D01*
X63550551Y-12849500D01*
X63550546Y-12849500D01*
X63369454Y-12849500D01*
X63369449Y-12849500D01*
X63190589Y-12877829D01*
X63018363Y-12933787D01*
X63018360Y-12933788D01*
X62857002Y-13016006D01*
X62710505Y-13122441D01*
X62710500Y-13122445D01*
X62582445Y-13250500D01*
X62582441Y-13250505D01*
X62476006Y-13397002D01*
X62393788Y-13558360D01*
X62393787Y-13558363D01*
X62337829Y-13730589D01*
X62309500Y-13909448D01*
X18450500Y-13909448D01*
X18450500Y-11940693D01*
X18450500Y-11940691D01*
X18419799Y-11826114D01*
X18360489Y-11723387D01*
X18276613Y-11639511D01*
X18173886Y-11580201D01*
X18059309Y-11549500D01*
X18059306Y-11549500D01*
X17073570Y-11549500D01*
X17006531Y-11529815D01*
X16960776Y-11477011D01*
X16950631Y-11441689D01*
X16950500Y-11440699D01*
X16950500Y-11440691D01*
X16919799Y-11326114D01*
X16860489Y-11223387D01*
X16776613Y-11139511D01*
X16673886Y-11080201D01*
X16559309Y-11049500D01*
X16559307Y-11049500D01*
X16558311Y-11049369D01*
X16557533Y-11049024D01*
X16551458Y-11047397D01*
X16551711Y-11046449D01*
X16494415Y-11021100D01*
X16455946Y-10962775D01*
X16450500Y-10926430D01*
X16450500Y-6519927D01*
X16470185Y-6452888D01*
X16501614Y-6419609D01*
X16559501Y-6377553D01*
X16687553Y-6249501D01*
X16793996Y-6102994D01*
X16876211Y-5941639D01*
X16932171Y-5769409D01*
X16946765Y-5677259D01*
X16960500Y-5590551D01*
X16960500Y-5409448D01*
X23039500Y-5409448D01*
X23039500Y-5590551D01*
X23067829Y-5769410D01*
X23123787Y-5941636D01*
X23123788Y-5941639D01*
X23206006Y-6102997D01*
X23312441Y-6249494D01*
X23312445Y-6249499D01*
X23440500Y-6377554D01*
X23440505Y-6377558D01*
X23534534Y-6445873D01*
X23587006Y-6483996D01*
X23692484Y-6537740D01*
X23748360Y-6566211D01*
X23748363Y-6566212D01*
X23779498Y-6576328D01*
X23920591Y-6622171D01*
X24003429Y-6635291D01*
X24099449Y-6650500D01*
X24099454Y-6650500D01*
X24280551Y-6650500D01*
X24367916Y-6636662D01*
X24459409Y-6622171D01*
X24631639Y-6566211D01*
X24792994Y-6483996D01*
X24881617Y-6419608D01*
X24939495Y-6377558D01*
X24939497Y-6377555D01*
X24939501Y-6377553D01*
X25067553Y-6249501D01*
X25173996Y-6102994D01*
X25241090Y-5971314D01*
X25289065Y-5920519D01*
X25356886Y-5903724D01*
X25423021Y-5926262D01*
X25466472Y-5980977D01*
X25469506Y-5989292D01*
X25478904Y-6018217D01*
X25575375Y-6207550D01*
X25614728Y-6261716D01*
X26247037Y-5629408D01*
X26264075Y-5692993D01*
X26329901Y-5807007D01*
X26422993Y-5900099D01*
X26537007Y-5965925D01*
X26600590Y-5982962D01*
X25968282Y-6615269D01*
X25968282Y-6615270D01*
X26022449Y-6654624D01*
X26211782Y-6751095D01*
X26413870Y-6816757D01*
X26623754Y-6850000D01*
X26836246Y-6850000D01*
X27046127Y-6816757D01*
X27046130Y-6816757D01*
X27248217Y-6751095D01*
X27437554Y-6654622D01*
X27491716Y-6615270D01*
X27491717Y-6615270D01*
X26859408Y-5982962D01*
X26922993Y-5965925D01*
X27037007Y-5900099D01*
X27130099Y-5807007D01*
X27195925Y-5692993D01*
X27212962Y-5629409D01*
X27845270Y-6261717D01*
X27845270Y-6261716D01*
X27884622Y-6207554D01*
X27981095Y-6018217D01*
X27990492Y-5989295D01*
X28029928Y-5931618D01*
X28094286Y-5904419D01*
X28163133Y-5916331D01*
X28214610Y-5963574D01*
X28218908Y-5971314D01*
X28286004Y-6102995D01*
X28392441Y-6249494D01*
X28392445Y-6249499D01*
X28520500Y-6377554D01*
X28520505Y-6377558D01*
X28614534Y-6445873D01*
X28667006Y-6483996D01*
X28772484Y-6537740D01*
X28828360Y-6566211D01*
X28828363Y-6566212D01*
X28859498Y-6576328D01*
X29000591Y-6622171D01*
X29083429Y-6635291D01*
X29179449Y-6650500D01*
X29179454Y-6650500D01*
X29360551Y-6650500D01*
X29447916Y-6636662D01*
X29539409Y-6622171D01*
X29711639Y-6566211D01*
X29872994Y-6483996D01*
X30019501Y-6377553D01*
X30147553Y-6249501D01*
X30253996Y-6102994D01*
X30336211Y-5941639D01*
X30392171Y-5769409D01*
X30406422Y-5679425D01*
X30417527Y-5609321D01*
X30447456Y-5546186D01*
X30506768Y-5509255D01*
X30576630Y-5510253D01*
X30634863Y-5548863D01*
X30662473Y-5609321D01*
X30687829Y-5769410D01*
X30743787Y-5941636D01*
X30743788Y-5941639D01*
X30826006Y-6102997D01*
X30932441Y-6249494D01*
X30932445Y-6249499D01*
X31060500Y-6377554D01*
X31060505Y-6377558D01*
X31154534Y-6445873D01*
X31207006Y-6483996D01*
X31312484Y-6537740D01*
X31368360Y-6566211D01*
X31368363Y-6566212D01*
X31399498Y-6576328D01*
X31540591Y-6622171D01*
X31623429Y-6635291D01*
X31719449Y-6650500D01*
X31719454Y-6650500D01*
X31900551Y-6650500D01*
X31987916Y-6636662D01*
X32079409Y-6622171D01*
X32251639Y-6566211D01*
X32412994Y-6483996D01*
X32559501Y-6377553D01*
X32687553Y-6249501D01*
X32793996Y-6102994D01*
X32876211Y-5941639D01*
X32932171Y-5769409D01*
X32946765Y-5677259D01*
X32960500Y-5590551D01*
X32960500Y-5409448D01*
X40309500Y-5409448D01*
X40309500Y-5590551D01*
X40337829Y-5769410D01*
X40393787Y-5941636D01*
X40393788Y-5941639D01*
X40476006Y-6102997D01*
X40582441Y-6249494D01*
X40582445Y-6249499D01*
X40710500Y-6377554D01*
X40710505Y-6377558D01*
X40804534Y-6445873D01*
X40857006Y-6483996D01*
X40962484Y-6537740D01*
X41018360Y-6566211D01*
X41018363Y-6566212D01*
X41049498Y-6576328D01*
X41190591Y-6622171D01*
X41273429Y-6635291D01*
X41369449Y-6650500D01*
X41369454Y-6650500D01*
X41550551Y-6650500D01*
X41637916Y-6636662D01*
X41729409Y-6622171D01*
X41901639Y-6566211D01*
X42062994Y-6483996D01*
X42151617Y-6419608D01*
X42209495Y-6377558D01*
X42209497Y-6377555D01*
X42209501Y-6377553D01*
X42337553Y-6249501D01*
X42443996Y-6102994D01*
X42511090Y-5971314D01*
X42559065Y-5920519D01*
X42626886Y-5903724D01*
X42693021Y-5926262D01*
X42736472Y-5980977D01*
X42739506Y-5989292D01*
X42748904Y-6018217D01*
X42845375Y-6207550D01*
X42884728Y-6261716D01*
X43517037Y-5629408D01*
X43534075Y-5692993D01*
X43599901Y-5807007D01*
X43692993Y-5900099D01*
X43807007Y-5965925D01*
X43870590Y-5982962D01*
X43238282Y-6615269D01*
X43238282Y-6615270D01*
X43292449Y-6654624D01*
X43481782Y-6751095D01*
X43683870Y-6816757D01*
X43893754Y-6850000D01*
X44106246Y-6850000D01*
X44316127Y-6816757D01*
X44316130Y-6816757D01*
X44518217Y-6751095D01*
X44707554Y-6654622D01*
X44761716Y-6615270D01*
X44761717Y-6615270D01*
X44129408Y-5982962D01*
X44192993Y-5965925D01*
X44307007Y-5900099D01*
X44400099Y-5807007D01*
X44465925Y-5692993D01*
X44482962Y-5629409D01*
X45115270Y-6261717D01*
X45115270Y-6261716D01*
X45154622Y-6207554D01*
X45251095Y-6018217D01*
X45260492Y-5989295D01*
X45299928Y-5931618D01*
X45364286Y-5904419D01*
X45433133Y-5916331D01*
X45484610Y-5963574D01*
X45488908Y-5971314D01*
X45556004Y-6102995D01*
X45662441Y-6249494D01*
X45662445Y-6249499D01*
X45790500Y-6377554D01*
X45790505Y-6377558D01*
X45884534Y-6445873D01*
X45937006Y-6483996D01*
X45981794Y-6506816D01*
X46032590Y-6554790D01*
X46049500Y-6617301D01*
X46049500Y-7440691D01*
X46049500Y-7559309D01*
X46080201Y-7673886D01*
X46139511Y-7776613D01*
X46223387Y-7860489D01*
X46326114Y-7919799D01*
X46440691Y-7950500D01*
X50425500Y-7950500D01*
X50492539Y-7970185D01*
X50538294Y-8022989D01*
X50549500Y-8074500D01*
X50549500Y-8359452D01*
X50529815Y-8426491D01*
X50507616Y-8451429D01*
X50507765Y-8451578D01*
X50505204Y-8454138D01*
X50504167Y-8455304D01*
X50503453Y-8455889D01*
X50405888Y-8553454D01*
X50405885Y-8553458D01*
X50329228Y-8668182D01*
X50329221Y-8668195D01*
X50276421Y-8795667D01*
X50276418Y-8795677D01*
X50249500Y-8931004D01*
X50249500Y-8931007D01*
X50249500Y-9068993D01*
X50249500Y-9068995D01*
X50249499Y-9068995D01*
X50276418Y-9204322D01*
X50276421Y-9204332D01*
X50329221Y-9331804D01*
X50329228Y-9331817D01*
X50405885Y-9446541D01*
X50405888Y-9446545D01*
X50503454Y-9544111D01*
X50503458Y-9544114D01*
X50618182Y-9620771D01*
X50618195Y-9620778D01*
X50745667Y-9673578D01*
X50745672Y-9673580D01*
X50745676Y-9673580D01*
X50745677Y-9673581D01*
X50881004Y-9700500D01*
X50881007Y-9700500D01*
X51018995Y-9700500D01*
X51110041Y-9682389D01*
X51154328Y-9673580D01*
X51281811Y-9620775D01*
X51396542Y-9544114D01*
X51494114Y-9446542D01*
X51570775Y-9331811D01*
X51623580Y-9204328D01*
X51650500Y-9068993D01*
X51650500Y-8931007D01*
X51650500Y-8931004D01*
X51623581Y-8795677D01*
X51623580Y-8795676D01*
X51623580Y-8795672D01*
X51623578Y-8795667D01*
X51570778Y-8668195D01*
X51570771Y-8668182D01*
X51494114Y-8553458D01*
X51494111Y-8553454D01*
X51486819Y-8546162D01*
X51453334Y-8484839D01*
X51450500Y-8458481D01*
X51450500Y-7440693D01*
X51450500Y-7440691D01*
X51419799Y-7326114D01*
X51360489Y-7223387D01*
X51276613Y-7139511D01*
X51173886Y-7080201D01*
X51059309Y-7049500D01*
X51059306Y-7049500D01*
X47074500Y-7049500D01*
X47007461Y-7029815D01*
X46961706Y-6977011D01*
X46950500Y-6925500D01*
X46950500Y-6658064D01*
X46970185Y-6591025D01*
X47018203Y-6547580D01*
X47142994Y-6483996D01*
X47289501Y-6377553D01*
X47417553Y-6249501D01*
X47523996Y-6102994D01*
X47606211Y-5941639D01*
X47662171Y-5769409D01*
X47676765Y-5677259D01*
X47690500Y-5590551D01*
X47690500Y-5409448D01*
X47670563Y-5283576D01*
X47662171Y-5230591D01*
X47618530Y-5096275D01*
X47606212Y-5058363D01*
X47606211Y-5058360D01*
X47565379Y-4978225D01*
X47523996Y-4897006D01*
X47510396Y-4878287D01*
X47417558Y-4750505D01*
X47417554Y-4750500D01*
X47289499Y-4622445D01*
X47289494Y-4622441D01*
X47142997Y-4516006D01*
X47142996Y-4516005D01*
X47142994Y-4516004D01*
X47091300Y-4489664D01*
X46981639Y-4433788D01*
X46981636Y-4433787D01*
X46809410Y-4377829D01*
X46630551Y-4349500D01*
X46630546Y-4349500D01*
X46449454Y-4349500D01*
X46449449Y-4349500D01*
X46270589Y-4377829D01*
X46098363Y-4433787D01*
X46098360Y-4433788D01*
X45937002Y-4516006D01*
X45790505Y-4622441D01*
X45790500Y-4622445D01*
X45662445Y-4750500D01*
X45662441Y-4750505D01*
X45556004Y-4897004D01*
X45488908Y-5028685D01*
X45440933Y-5079480D01*
X45373112Y-5096275D01*
X45306977Y-5073737D01*
X45263527Y-5019021D01*
X45260492Y-5010705D01*
X45251094Y-4981780D01*
X45154624Y-4792449D01*
X45115270Y-4738282D01*
X45115269Y-4738282D01*
X44482962Y-5370590D01*
X44465925Y-5307007D01*
X44400099Y-5192993D01*
X44307007Y-5099901D01*
X44192993Y-5034075D01*
X44129409Y-5017037D01*
X44761716Y-4384728D01*
X44707550Y-4345375D01*
X44518217Y-4248904D01*
X44316129Y-4183242D01*
X44106246Y-4150000D01*
X43893754Y-4150000D01*
X43683872Y-4183242D01*
X43683869Y-4183242D01*
X43481782Y-4248904D01*
X43292439Y-4345380D01*
X43238282Y-4384727D01*
X43238282Y-4384728D01*
X43870591Y-5017037D01*
X43807007Y-5034075D01*
X43692993Y-5099901D01*
X43599901Y-5192993D01*
X43534075Y-5307007D01*
X43517037Y-5370591D01*
X42884728Y-4738282D01*
X42884727Y-4738282D01*
X42845380Y-4792439D01*
X42748905Y-4981781D01*
X42739506Y-5010708D01*
X42700068Y-5068383D01*
X42635709Y-5095581D01*
X42566862Y-5083666D01*
X42515387Y-5036421D01*
X42511090Y-5028684D01*
X42485379Y-4978225D01*
X42443996Y-4897006D01*
X42430396Y-4878287D01*
X42337558Y-4750505D01*
X42337554Y-4750500D01*
X42209499Y-4622445D01*
X42209494Y-4622441D01*
X42085432Y-4532305D01*
X42062996Y-4516005D01*
X41901639Y-4433788D01*
X41901636Y-4433787D01*
X41729410Y-4377829D01*
X41550551Y-4349500D01*
X41550546Y-4349500D01*
X41369454Y-4349500D01*
X41369449Y-4349500D01*
X41190589Y-4377829D01*
X41018363Y-4433787D01*
X41018360Y-4433788D01*
X40857002Y-4516006D01*
X40710505Y-4622441D01*
X40710500Y-4622445D01*
X40582445Y-4750500D01*
X40582441Y-4750505D01*
X40476006Y-4897002D01*
X40393788Y-5058360D01*
X40393787Y-5058363D01*
X40337829Y-5230589D01*
X40309500Y-5409448D01*
X32960500Y-5409448D01*
X32940563Y-5283576D01*
X32932171Y-5230591D01*
X32888530Y-5096275D01*
X32876212Y-5058363D01*
X32876211Y-5058360D01*
X32835379Y-4978225D01*
X32793996Y-4897006D01*
X32780396Y-4878287D01*
X32687558Y-4750505D01*
X32687554Y-4750500D01*
X32559499Y-4622445D01*
X32559494Y-4622441D01*
X32412997Y-4516006D01*
X32412996Y-4516005D01*
X32412994Y-4516004D01*
X32361300Y-4489664D01*
X32251639Y-4433788D01*
X32251636Y-4433787D01*
X32079410Y-4377829D01*
X31900551Y-4349500D01*
X31900546Y-4349500D01*
X31719454Y-4349500D01*
X31719449Y-4349500D01*
X31540589Y-4377829D01*
X31368363Y-4433787D01*
X31368360Y-4433788D01*
X31207002Y-4516006D01*
X31060505Y-4622441D01*
X31060500Y-4622445D01*
X30932445Y-4750500D01*
X30932441Y-4750505D01*
X30826006Y-4897002D01*
X30743788Y-5058360D01*
X30743787Y-5058363D01*
X30687829Y-5230589D01*
X30662473Y-5390678D01*
X30632544Y-5453813D01*
X30573232Y-5490744D01*
X30503369Y-5489746D01*
X30445137Y-5451136D01*
X30417527Y-5390678D01*
X30400563Y-5283576D01*
X30392171Y-5230591D01*
X30348530Y-5096275D01*
X30336212Y-5058363D01*
X30336211Y-5058360D01*
X30295379Y-4978225D01*
X30253996Y-4897006D01*
X30240396Y-4878287D01*
X30147558Y-4750505D01*
X30147554Y-4750500D01*
X30019499Y-4622445D01*
X30019494Y-4622441D01*
X29872997Y-4516006D01*
X29872996Y-4516005D01*
X29872994Y-4516004D01*
X29821300Y-4489664D01*
X29711639Y-4433788D01*
X29711636Y-4433787D01*
X29539410Y-4377829D01*
X29360551Y-4349500D01*
X29360546Y-4349500D01*
X29179454Y-4349500D01*
X29179449Y-4349500D01*
X29000589Y-4377829D01*
X28828363Y-4433787D01*
X28828360Y-4433788D01*
X28667002Y-4516006D01*
X28520505Y-4622441D01*
X28520500Y-4622445D01*
X28392445Y-4750500D01*
X28392441Y-4750505D01*
X28286004Y-4897004D01*
X28218908Y-5028685D01*
X28170933Y-5079480D01*
X28103112Y-5096275D01*
X28036977Y-5073737D01*
X27993527Y-5019021D01*
X27990492Y-5010705D01*
X27981094Y-4981780D01*
X27884624Y-4792449D01*
X27845270Y-4738282D01*
X27212962Y-5370590D01*
X27195925Y-5307007D01*
X27130099Y-5192993D01*
X27037007Y-5099901D01*
X26922993Y-5034075D01*
X26859409Y-5017037D01*
X27491716Y-4384728D01*
X27437550Y-4345375D01*
X27248217Y-4248904D01*
X27046129Y-4183242D01*
X26836246Y-4150000D01*
X26623754Y-4150000D01*
X26413872Y-4183242D01*
X26413869Y-4183242D01*
X26211782Y-4248904D01*
X26022439Y-4345380D01*
X25968282Y-4384727D01*
X25968282Y-4384728D01*
X26600591Y-5017037D01*
X26537007Y-5034075D01*
X26422993Y-5099901D01*
X26329901Y-5192993D01*
X26264075Y-5307007D01*
X26247037Y-5370591D01*
X25614728Y-4738282D01*
X25614727Y-4738282D01*
X25575380Y-4792439D01*
X25478905Y-4981781D01*
X25469506Y-5010708D01*
X25430068Y-5068383D01*
X25365709Y-5095581D01*
X25296862Y-5083666D01*
X25245387Y-5036421D01*
X25241090Y-5028684D01*
X25215379Y-4978225D01*
X25173996Y-4897006D01*
X25160396Y-4878287D01*
X25067558Y-4750505D01*
X25067554Y-4750500D01*
X24939499Y-4622445D01*
X24939494Y-4622441D01*
X24815432Y-4532305D01*
X24792996Y-4516005D01*
X24631639Y-4433788D01*
X24631636Y-4433787D01*
X24459410Y-4377829D01*
X24280551Y-4349500D01*
X24280546Y-4349500D01*
X24099454Y-4349500D01*
X24099449Y-4349500D01*
X23920589Y-4377829D01*
X23748363Y-4433787D01*
X23748360Y-4433788D01*
X23587002Y-4516006D01*
X23440505Y-4622441D01*
X23440500Y-4622445D01*
X23312445Y-4750500D01*
X23312441Y-4750505D01*
X23206006Y-4897002D01*
X23123788Y-5058360D01*
X23123787Y-5058363D01*
X23067829Y-5230589D01*
X23039500Y-5409448D01*
X16960500Y-5409448D01*
X16940563Y-5283576D01*
X16932171Y-5230591D01*
X16888530Y-5096275D01*
X16876212Y-5058363D01*
X16876211Y-5058360D01*
X16835379Y-4978225D01*
X16793996Y-4897006D01*
X16780396Y-4878287D01*
X16687558Y-4750505D01*
X16687554Y-4750500D01*
X16559499Y-4622445D01*
X16559494Y-4622441D01*
X16412997Y-4516006D01*
X16412996Y-4516005D01*
X16412994Y-4516004D01*
X16361300Y-4489664D01*
X16251639Y-4433788D01*
X16251636Y-4433787D01*
X16079410Y-4377829D01*
X15900551Y-4349500D01*
X15900546Y-4349500D01*
X15719454Y-4349500D01*
X15719449Y-4349500D01*
X15540589Y-4377829D01*
X15368363Y-4433787D01*
X15368360Y-4433788D01*
X15207002Y-4516006D01*
X15060505Y-4622441D01*
X15060500Y-4622445D01*
X14932445Y-4750500D01*
X14932441Y-4750505D01*
X14826006Y-4897002D01*
X14743788Y-5058360D01*
X14743787Y-5058363D01*
X14687829Y-5230589D01*
X14662473Y-5390678D01*
X14632544Y-5453813D01*
X14573232Y-5490744D01*
X14503369Y-5489746D01*
X14445137Y-5451136D01*
X14417527Y-5390678D01*
X14400563Y-5283576D01*
X14392171Y-5230591D01*
X14348530Y-5096275D01*
X14336212Y-5058363D01*
X14336211Y-5058360D01*
X14295379Y-4978225D01*
X14253996Y-4897006D01*
X14240396Y-4878287D01*
X14147558Y-4750505D01*
X14147554Y-4750500D01*
X14019499Y-4622445D01*
X14019494Y-4622441D01*
X13872997Y-4516006D01*
X13872996Y-4516005D01*
X13872994Y-4516004D01*
X13821300Y-4489664D01*
X13711639Y-4433788D01*
X13711636Y-4433787D01*
X13539410Y-4377829D01*
X13360551Y-4349500D01*
X13360546Y-4349500D01*
X13179454Y-4349500D01*
X13179449Y-4349500D01*
X13000589Y-4377829D01*
X12828363Y-4433787D01*
X12828360Y-4433788D01*
X12667002Y-4516006D01*
X12520505Y-4622441D01*
X12520500Y-4622445D01*
X12392445Y-4750500D01*
X12392441Y-4750505D01*
X12286006Y-4897002D01*
X12203788Y-5058360D01*
X12203787Y-5058363D01*
X12147829Y-5230589D01*
X12122473Y-5390678D01*
X12092544Y-5453813D01*
X12033232Y-5490744D01*
X11963369Y-5489746D01*
X11905137Y-5451136D01*
X11877527Y-5390678D01*
X11860563Y-5283576D01*
X11852171Y-5230591D01*
X11808530Y-5096275D01*
X11796212Y-5058363D01*
X11796211Y-5058360D01*
X11755379Y-4978225D01*
X11713996Y-4897006D01*
X11700396Y-4878287D01*
X11607558Y-4750505D01*
X11607554Y-4750500D01*
X11479499Y-4622445D01*
X11479494Y-4622441D01*
X11332997Y-4516006D01*
X11332996Y-4516005D01*
X11332994Y-4516004D01*
X11281300Y-4489664D01*
X11171639Y-4433788D01*
X11171636Y-4433787D01*
X10999410Y-4377829D01*
X10820551Y-4349500D01*
X10820546Y-4349500D01*
X10639454Y-4349500D01*
X10639449Y-4349500D01*
X10460589Y-4377829D01*
X10288363Y-4433787D01*
X10288360Y-4433788D01*
X10127002Y-4516006D01*
X9980505Y-4622441D01*
X9980500Y-4622445D01*
X9852445Y-4750500D01*
X9852441Y-4750505D01*
X9746004Y-4897004D01*
X9678908Y-5028685D01*
X9630933Y-5079480D01*
X9563112Y-5096275D01*
X9496977Y-5073737D01*
X9453527Y-5019021D01*
X9450492Y-5010705D01*
X9441094Y-4981780D01*
X9344624Y-4792449D01*
X9305270Y-4738282D01*
X9305269Y-4738282D01*
X8672962Y-5370590D01*
X8655925Y-5307007D01*
X8590099Y-5192993D01*
X8497007Y-5099901D01*
X8382993Y-5034075D01*
X8319409Y-5017037D01*
X8951716Y-4384728D01*
X8897550Y-4345375D01*
X8708217Y-4248904D01*
X8506129Y-4183242D01*
X8296246Y-4150000D01*
X8083754Y-4150000D01*
X7873872Y-4183242D01*
X7873869Y-4183242D01*
X7671782Y-4248904D01*
X7482439Y-4345380D01*
X7428282Y-4384727D01*
X7428282Y-4384728D01*
X8060591Y-5017037D01*
X7997007Y-5034075D01*
X7882993Y-5099901D01*
X7789901Y-5192993D01*
X7724075Y-5307007D01*
X7707037Y-5370591D01*
X7074728Y-4738282D01*
X7074727Y-4738282D01*
X7035380Y-4792439D01*
X6938904Y-4981782D01*
X6873242Y-5183869D01*
X6873242Y-5183872D01*
X6840000Y-5393753D01*
X6840000Y-5606246D01*
X6873242Y-5816127D01*
X6873242Y-5816130D01*
X6938904Y-6018217D01*
X7035375Y-6207550D01*
X7074728Y-6261716D01*
X7707037Y-5629408D01*
X7724075Y-5692993D01*
X7789901Y-5807007D01*
X7882993Y-5900099D01*
X7997007Y-5965925D01*
X8060590Y-5982962D01*
X7428282Y-6615269D01*
X7428282Y-6615270D01*
X7482449Y-6654624D01*
X7671782Y-6751095D01*
X7873870Y-6816757D01*
X8083754Y-6850000D01*
X8296246Y-6850000D01*
X8506127Y-6816757D01*
X8506130Y-6816757D01*
X8708217Y-6751095D01*
X8897554Y-6654622D01*
X8951716Y-6615270D01*
X8951717Y-6615270D01*
X8319408Y-5982962D01*
X8382993Y-5965925D01*
X8497007Y-5900099D01*
X8590099Y-5807007D01*
X8655925Y-5692993D01*
X8672962Y-5629408D01*
X9305270Y-6261717D01*
X9305270Y-6261716D01*
X9344622Y-6207554D01*
X9441095Y-6018217D01*
X9450492Y-5989295D01*
X9489928Y-5931618D01*
X9554286Y-5904419D01*
X9623133Y-5916331D01*
X9674610Y-5963574D01*
X9678908Y-5971314D01*
X9746004Y-6102995D01*
X9852441Y-6249494D01*
X9852445Y-6249499D01*
X9852447Y-6249501D01*
X9980499Y-6377553D01*
X9998384Y-6390547D01*
X10041049Y-6445873D01*
X10049500Y-6490865D01*
X10049500Y-12059309D01*
X10080201Y-12173886D01*
X10139511Y-12276613D01*
X10223387Y-12360489D01*
X10326114Y-12419799D01*
X10440691Y-12450500D01*
X10559309Y-12450500D01*
X12425500Y-12450500D01*
X12492539Y-12470185D01*
X12538294Y-12522989D01*
X12549500Y-12574500D01*
X12549500Y-15799404D01*
X12529815Y-15866443D01*
X12477011Y-15912198D01*
X12407853Y-15922142D01*
X12344297Y-15893117D01*
X12325182Y-15872290D01*
X12287554Y-15820500D01*
X12159499Y-15692445D01*
X12159494Y-15692441D01*
X12012997Y-15586006D01*
X12012996Y-15586005D01*
X12012994Y-15586004D01*
X11949498Y-15553651D01*
X11851639Y-15503788D01*
X11851636Y-15503787D01*
X11679410Y-15447829D01*
X11500551Y-15419500D01*
X11500546Y-15419500D01*
X11319454Y-15419500D01*
X11319449Y-15419500D01*
X11140589Y-15447829D01*
X10968363Y-15503787D01*
X10968360Y-15503788D01*
X10807002Y-15586006D01*
X10660505Y-15692441D01*
X10660500Y-15692445D01*
X10532445Y-15820500D01*
X10532441Y-15820505D01*
X10426006Y-15967002D01*
X10343788Y-16128360D01*
X10343787Y-16128363D01*
X10287829Y-16300589D01*
X10262473Y-16460678D01*
X10232544Y-16523813D01*
X10173232Y-16560744D01*
X10103369Y-16559746D01*
X10045137Y-16521136D01*
X10017527Y-16460678D01*
X10003740Y-16373639D01*
X9992171Y-16300591D01*
X9949708Y-16169901D01*
X9936212Y-16128363D01*
X9936211Y-16128360D01*
X9897191Y-16051781D01*
X9853996Y-15967006D01*
X9800313Y-15893117D01*
X9747558Y-15820505D01*
X9747554Y-15820500D01*
X9619499Y-15692445D01*
X9619494Y-15692441D01*
X9472997Y-15586006D01*
X9472996Y-15586005D01*
X9472994Y-15586004D01*
X9409498Y-15553651D01*
X9311639Y-15503788D01*
X9311636Y-15503787D01*
X9139410Y-15447829D01*
X8960551Y-15419500D01*
X8960546Y-15419500D01*
X8779454Y-15419500D01*
X8779449Y-15419500D01*
X8600589Y-15447829D01*
X8428363Y-15503787D01*
X8428360Y-15503788D01*
X8267002Y-15586006D01*
X8120505Y-15692441D01*
X8120500Y-15692445D01*
X7992445Y-15820500D01*
X7992441Y-15820505D01*
X7886006Y-15967002D01*
X7803788Y-16128360D01*
X7803787Y-16128363D01*
X7747829Y-16300589D01*
X7722473Y-16460678D01*
X7692544Y-16523813D01*
X7633232Y-16560744D01*
X7563369Y-16559746D01*
X7505137Y-16521136D01*
X7477527Y-16460678D01*
X7463740Y-16373639D01*
X7452171Y-16300591D01*
X7409708Y-16169901D01*
X7396212Y-16128363D01*
X7396211Y-16128360D01*
X7357191Y-16051781D01*
X7313996Y-15967006D01*
X7260313Y-15893117D01*
X7207558Y-15820505D01*
X7207554Y-15820500D01*
X7079499Y-15692445D01*
X7079494Y-15692441D01*
X6932997Y-15586006D01*
X6932996Y-15586005D01*
X6932994Y-15586004D01*
X6869498Y-15553651D01*
X6771639Y-15503788D01*
X6771636Y-15503787D01*
X6599410Y-15447829D01*
X6420551Y-15419500D01*
X6420546Y-15419500D01*
X6239454Y-15419500D01*
X6239449Y-15419500D01*
X6060589Y-15447829D01*
X5888363Y-15503787D01*
X5888360Y-15503788D01*
X5727002Y-15586006D01*
X5580505Y-15692441D01*
X5580500Y-15692445D01*
X5452445Y-15820500D01*
X5452441Y-15820505D01*
X5346006Y-15967002D01*
X5263788Y-16128360D01*
X5263787Y-16128363D01*
X5207829Y-16300589D01*
X5179500Y-16479448D01*
X1500000Y-16479448D01*
X1500000Y-5406314D01*
X1519685Y-5339275D01*
X1572489Y-5293520D01*
X1641647Y-5283576D01*
X1705203Y-5312601D01*
X1711681Y-5318633D01*
X1797805Y-5404757D01*
X2021773Y-5583366D01*
X2264331Y-5735775D01*
X2522428Y-5860068D01*
X2522434Y-5860070D01*
X2792806Y-5954678D01*
X2792818Y-5954682D01*
X3072102Y-6018426D01*
X3072105Y-6018426D01*
X3072108Y-6018427D01*
X3072107Y-6018427D01*
X3214434Y-6034463D01*
X3356763Y-6050499D01*
X3356764Y-6050500D01*
X3356767Y-6050500D01*
X3643236Y-6050500D01*
X3643236Y-6050499D01*
X3848815Y-6027336D01*
X3927891Y-6018427D01*
X3927892Y-6018426D01*
X3927898Y-6018426D01*
X4207182Y-5954682D01*
X4477572Y-5860068D01*
X4735669Y-5735775D01*
X4978227Y-5583366D01*
X5202195Y-5404757D01*
X5404757Y-5202195D01*
X5583366Y-4978227D01*
X5735775Y-4735669D01*
X5860068Y-4477572D01*
X5954682Y-4207182D01*
X6018426Y-3927898D01*
X6050500Y-3643233D01*
X6050500Y-3356767D01*
X6018426Y-3072102D01*
X5954682Y-2792818D01*
X5860068Y-2522428D01*
X5735775Y-2264331D01*
X5583366Y-2021773D01*
X5404757Y-1797805D01*
X5318633Y-1711681D01*
X5285148Y-1650358D01*
X5290132Y-1580666D01*
X5332004Y-1524733D01*
X5397468Y-1500316D01*
X5406314Y-1500000D01*
X84593686Y-1500000D01*
X84660725Y-1519685D01*
G37*
%TD.AperFunction*%
%TD*%
M02*
